<svg width="24" height="24" viewBox="0 0 24 24" fill="none" xmlns="http://www.w3.org/2000/svg">
<g id="Icons / bench-search">
<mask id="mask0_1073_1161" style="mask-type:alpha" maskUnits="userSpaceOnUse" x="0" y="0" width="24" height="24">
<rect id="Bounding box" width="24" height="24" fill="#D9D9D9"/>
</mask>
<g mask="url(#mask0_1073_1161)">
<path id="travel_explore" d="M2.5 12C2.5 10.6872 2.74968 9.45287 3.24905 8.2971C3.7484 7.14133 4.42564 6.13589 5.28077 5.28078C6.13589 4.42564 7.14133 3.7484 8.2971 3.24905C9.45287 2.74968 10.6872 2.5 12 2.5C14.1551 2.5 16.0538 3.13302 17.6961 4.39905C19.3384 5.66508 20.4481 7.27759 21.025 9.23658C21.1032 9.46223 21.0993 9.68306 21.0134 9.89908C20.9275 10.1151 20.775 10.2539 20.5557 10.3154C20.3468 10.3667 20.1551 10.3337 19.9808 10.2164C19.8064 10.0991 19.6853 9.93592 19.6173 9.72695C19.2942 8.56668 18.7353 7.5343 17.9404 6.6298C17.1455 5.7253 16.1654 5.04228 15 4.58075V4.99998C15 5.54998 14.8041 6.02081 14.4125 6.41248C14.0208 6.80414 13.55 6.99998 13 6.99998H11V8.99998C11 9.28331 10.9041 9.52081 10.7125 9.71248C10.5208 9.90414 10.2833 9.99998 9.99997 9.99998H7.99997V12H9.0192C9.2769 12 9.49197 12.0862 9.6644 12.2586C9.83683 12.4311 9.92305 12.6461 9.92305 12.9038V15H8.99997L4.19998 10.2C4.14998 10.5 4.10414 10.8 4.06248 11.1C4.02081 11.4 3.99998 11.7 3.99998 12C3.99998 14.0718 4.69164 15.8708 6.07497 17.3971C7.45831 18.9234 9.19229 19.7808 11.2769 19.9692C11.4859 19.9897 11.6586 20.0718 11.7952 20.2154C11.9317 20.3589 12 20.5371 12 20.75C12 20.9628 11.925 21.141 11.775 21.2846C11.625 21.4282 11.4455 21.4897 11.2365 21.4692C8.77628 21.2705 6.70512 20.2695 5.02307 18.4663C3.34102 16.6631 2.5 14.5077 2.5 12ZM20.5346 20.5884L17.7365 17.8096C17.4122 18.016 17.0628 18.1826 16.6884 18.3096C16.3141 18.4365 15.9179 18.5 15.5 18.5C14.3846 18.5 13.4391 18.1121 12.6635 17.3365C11.8878 16.5609 11.5 15.6153 11.5 14.5C11.5 13.3846 11.8878 12.4391 12.6635 11.6635C13.4391 10.8878 14.3846 10.5 15.5 10.5C16.6153 10.5 17.5609 10.8878 18.3365 11.6635C19.1121 12.4391 19.5 13.3846 19.5 14.5C19.5 14.9243 19.4349 15.3253 19.3048 15.7029C19.1746 16.0804 19.0031 16.4314 18.7903 16.7557L21.5884 19.5346C21.7333 19.6731 21.8057 19.8471 21.8057 20.0567C21.8057 20.2663 21.7333 20.4436 21.5884 20.5884C21.45 20.7269 21.2759 20.7961 21.0663 20.7961C20.8567 20.7961 20.6795 20.7269 20.5346 20.5884ZM15.5 17C16.2 17 16.7916 16.7583 17.275 16.275C17.7583 15.7916 18 15.2 18 14.5C18 13.8 17.7583 13.2083 17.275 12.725C16.7916 12.2416 16.2 12 15.5 12C14.8 12 14.2083 12.2416 13.725 12.725C13.2416 13.2083 13 13.8 13 14.5C13 15.2 13.2416 15.7916 13.725 16.275C14.2083 16.7583 14.8 17 15.5 17Z" fill="#FBFBFB"/>
</g>
</g>
</svg>
