<svg width="80" height="80" viewBox="0 0 80 80" fill="none" xmlns="http://www.w3.org/2000/svg">
<g clip-path="url(#clip0_1685_13178)">
<path d="M10.1797 70.7256L11.6277 80.37H20.0401L21.9931 70.8661L10.1797 70.7256Z" fill="#EBEBEB"/>
<path d="M20.8188 76.9097C20.8188 76.9374 18.6622 76.96 16.0041 76.96C13.3461 76.96 11.1895 76.9374 11.1895 76.9097C11.1895 76.8819 13.3443 76.8594 16.0041 76.8594C18.664 76.8594 20.8188 76.8785 20.8188 76.9097Z" fill="#FAFAFA"/>
<path d="M20.8507 76.4326C20.8507 76.4604 18.6804 76.4829 16.0035 76.4829C13.3265 76.4829 11.1562 76.4604 11.1562 76.4326C11.1562 76.4049 13.3265 76.3823 16.0035 76.3823C18.6804 76.3823 20.8507 76.4049 20.8507 76.4326Z" fill="#FAFAFA"/>
<path d="M20.8331 75.8965C20.8331 75.9243 18.6628 75.9468 15.9859 75.9468C13.309 75.9468 11.1387 75.9243 11.1387 75.8965C11.1387 75.8687 13.309 75.8462 15.9859 75.8462C18.6628 75.8462 20.8331 75.8687 20.8331 75.8965Z" fill="#FAFAFA"/>
<path d="M12.5951 79.8186C12.4758 79.4218 12.3893 79.0157 12.3367 78.6044C12.25 78.1996 12.1962 77.7882 12.1758 77.3745C12.2941 77.7715 12.3805 78.1776 12.4342 78.5887C12.5189 78.9939 12.5727 79.4051 12.5951 79.8186Z" fill="#FAFAFA"/>
<path d="M13.167 79.7162C13.0809 78.9279 13.0278 78.1362 13.0078 77.3433C13.0987 77.7313 13.1503 78.1277 13.1618 78.5263C13.2052 78.9216 13.2069 79.3205 13.167 79.7162Z" fill="#FAFAFA"/>
<path d="M14.2089 79.7161C14.0113 78.916 13.9164 78.0933 13.9265 77.2686C14.0062 77.6697 14.0633 78.0751 14.0977 78.4828C14.1661 79.1645 14.2363 79.7109 14.2089 79.7161Z" fill="#FAFAFA"/>
<path d="M14.9427 79.7683C14.8633 79.3616 14.8243 78.9478 14.8263 78.5332C14.7964 78.1196 14.809 77.7039 14.864 77.293C14.9079 77.7037 14.9285 78.1166 14.9256 78.5297C14.9545 78.9419 14.9602 79.3554 14.9427 79.7683Z" fill="#FAFAFA"/>
<path d="M16.2383 79.7163C16.177 79.3291 16.1479 78.9375 16.151 78.5454C16.1211 78.1544 16.1245 77.7615 16.1612 77.3711C16.2519 78.1492 16.2777 78.9338 16.2383 79.7163Z" fill="#FAFAFA"/>
<path d="M17.1865 79.7683C17.1395 79.3654 17.1257 78.9593 17.1454 78.5541C17.1329 78.1484 17.1529 77.7423 17.2053 77.3398C17.2512 77.7428 17.2643 78.1489 17.2447 78.5541C17.2571 78.9597 17.2377 79.3658 17.1865 79.7683Z" fill="#FAFAFA"/>
<path d="M18.0721 79.6383C18.0632 79.215 18.0872 78.7916 18.144 78.3721C18.1695 77.9496 18.2267 77.5298 18.3151 77.1162C18.2999 77.962 18.2192 78.8053 18.0738 79.6383H18.0721Z" fill="#FAFAFA"/>
<path d="M19.2168 79.5117C19.2539 78.7861 19.4071 78.0714 19.6703 77.3955C19.6188 77.7527 19.5468 78.1066 19.4547 78.4554C19.3942 78.8116 19.3148 79.1642 19.2168 79.5117Z" fill="#FAFAFA"/>
<path d="M18.4082 51.6968L18.3979 51.7453C18.3859 51.7818 18.3739 51.8251 18.3585 51.8806L18.1976 52.401C18.1257 52.6265 18.0402 52.9023 17.9512 53.2267C17.8622 53.5511 17.7475 53.9206 17.6482 54.3265C17.5489 54.7324 17.4257 55.1834 17.3196 55.669C17.2135 56.1547 17.1056 56.6734 16.9961 57.2215C16.7941 58.3213 16.6093 59.5372 16.4826 60.8208C16.356 62.1045 16.3115 63.3343 16.2875 64.4514C16.2875 65.0117 16.2875 65.5425 16.3012 66.0403C16.3149 66.5381 16.3371 66.9995 16.3611 67.428C16.3851 67.8564 16.4193 68.2329 16.445 68.5676C16.4706 68.9024 16.498 69.1904 16.5254 69.4263C16.5528 69.6622 16.5682 69.8356 16.5802 69.9675C16.5802 70.0247 16.5904 70.0715 16.5922 70.1097C16.5948 70.1258 16.5948 70.1422 16.5922 70.1583C16.5865 70.1427 16.583 70.1263 16.5819 70.1097C16.5819 70.0733 16.5682 70.0264 16.5596 69.9709C16.5408 69.8391 16.5168 69.6587 16.486 69.4297C16.4552 69.2008 16.4176 68.9094 16.3885 68.5728C16.3594 68.2363 16.3132 67.8564 16.2892 67.4332C16.2652 67.01 16.231 66.5468 16.219 66.0455C16.2071 65.5442 16.1968 65.0151 16.1934 64.4549C16.2053 63.3343 16.2601 62.1027 16.3833 60.8122C16.5066 59.5216 16.7 58.3074 16.9071 57.2059C17.0201 56.6578 17.121 56.1339 17.2494 55.6448C17.3778 55.1556 17.477 54.7098 17.5917 54.3022C17.7064 53.8945 17.8142 53.5268 17.9101 53.2042C18.0059 52.8815 18.0949 52.6074 18.1737 52.3837C18.2524 52.1599 18.3072 51.9951 18.3448 51.8633C18.3637 51.8095 18.3791 51.7662 18.3927 51.7315C18.3966 51.7194 18.4018 51.7077 18.4082 51.6968Z" fill="#EBEBEB"/>
<path d="M16.8879 57.6691C17.1196 56.9737 17.5825 56.3814 18.1973 55.9935C18.4044 55.8634 18.668 55.7576 18.8819 55.8651C19.1746 56.0091 19.1986 56.4272 19.1113 56.7463C18.9599 57.2861 18.6222 57.7527 18.1596 58.0612C17.7493 58.3688 17.2356 58.4997 16.7305 58.4254" fill="#EBEBEB"/>
<path d="M16.3783 61.7005C16.5957 60.8678 17.2512 59.6848 17.9307 59.1697C18.0348 59.0833 18.1546 59.0184 18.2833 58.9788C18.3483 58.9605 18.4167 58.9584 18.4826 58.9729C18.5485 58.9875 18.61 59.0181 18.6616 59.0621C18.8002 59.1974 18.7865 59.4246 18.7454 59.6137C18.6061 60.221 18.3027 60.7769 17.8692 61.2193C17.4357 61.6617 16.8892 61.973 16.291 62.1185" fill="#EBEBEB"/>
<path d="M16.2383 65.2495C16.5755 64.4545 17.1162 63.7652 17.8044 63.253C17.8779 63.185 17.9641 63.1326 18.0578 63.0986C18.1515 63.0647 18.251 63.0499 18.3504 63.0553C18.6482 63.1108 18.7834 63.4785 18.756 63.7838C18.703 64.4117 18.2289 64.9148 17.7411 65.3051C17.2156 65.7248 16.2913 66.0596 16.2913 66.0596" fill="#EBEBEB"/>
<path d="M16.3164 67.8012C16.644 67.1954 17.0992 66.6701 17.6497 66.2626C17.7677 66.1745 17.9042 66.1151 18.0485 66.0892C18.1212 66.0758 18.1962 66.0827 18.2652 66.1093C18.3343 66.1359 18.3949 66.1811 18.4405 66.2401C18.574 66.4396 18.4405 66.7084 18.3036 66.8992C17.8345 67.5637 17.1682 68.059 16.402 68.3129" fill="#EBEBEB"/>
<path d="M16.2492 66.7653C15.6756 66.0507 15.0379 65.3917 14.3442 64.7965C14.2347 64.7046 14.0995 64.6074 13.9642 64.6508C13.914 64.6728 13.8711 64.7091 13.8408 64.7553C13.8104 64.8014 13.7939 64.8555 13.7931 64.911C13.791 65.0228 13.8157 65.1335 13.865 65.2336C14.0926 65.7469 14.4315 66.2015 14.8565 66.5636C15.2814 66.9258 15.7814 67.1863 16.3194 67.3256" fill="#EBEBEB"/>
<path d="M16.3113 63.4437L14.8137 61.5946C14.6826 61.408 14.5176 61.2484 14.3276 61.1245C14.2313 61.0654 14.1209 61.0342 14.0084 61.0342C13.8958 61.0342 13.7854 61.0654 13.6892 61.1245C13.6026 61.1971 13.5375 61.2926 13.5013 61.4004C13.465 61.5082 13.4589 61.624 13.4838 61.7351C13.5385 61.9549 13.6382 62.1605 13.7764 62.3387C14.0678 62.793 14.4371 63.1907 14.8667 63.5131C15.3066 63.8201 15.7071 64.0196 16.236 63.9398" fill="#EBEBEB"/>
<path d="M16.5188 59.7058C16.2255 58.8204 15.7058 58.0298 15.0126 57.4143C14.9045 57.3032 14.7693 57.223 14.6207 57.1819C14.3194 57.1229 14.0302 57.3779 13.936 57.6711C13.8889 57.8389 13.8768 58.0149 13.9004 58.1878C13.9239 58.3607 13.9827 58.5267 14.073 58.6754C14.2564 58.9718 14.4961 59.2282 14.7781 59.43C15.2822 59.821 15.8443 60.1284 16.4435 60.3406" fill="#EBEBEB"/>
<path d="M17.1167 56.3735C16.9712 55.3015 16.4201 54.4082 15.7816 53.5408C15.6481 53.357 15.4599 53.1644 15.2374 53.1939C15.1671 53.2093 15.1018 53.2423 15.0473 53.2898C14.9929 53.3374 14.9511 53.3981 14.9258 53.4663C14.8759 53.6031 14.8555 53.7492 14.8659 53.8947C14.8936 54.5445 15.1094 55.1717 15.4866 55.698C15.8637 56.2242 16.3854 56.6263 16.9866 56.854" fill="#EBEBEB"/>
<path d="M17.5375 54.6716C17.468 54.1218 17.4497 53.5666 17.4827 53.0133C17.5163 52.4566 17.7044 51.9208 18.0253 51.4678C18.1628 51.2729 18.3514 51.1209 18.5696 51.0289C18.6791 50.9844 18.7981 50.9693 18.9151 50.9851C19.032 51.0009 19.143 51.0471 19.2371 51.1191C19.3166 51.1947 19.3784 51.2874 19.4178 51.3903C19.4572 51.4933 19.4732 51.604 19.4648 51.7141C19.4454 51.9344 19.3875 52.1493 19.2936 52.349C18.8948 53.3221 18.2307 54.3993 17.5358 54.6716" fill="#EBEBEB"/>
<path d="M11.0135 55.9502C11.0176 55.9952 11.0176 56.0405 11.0135 56.0855C11.0135 56.1844 11.0135 56.3145 11.0135 56.474C11.0135 56.6336 11.0135 56.8505 11.0238 57.0898C11.0341 57.3292 11.0238 57.6102 11.0512 57.9051C11.0786 58.507 11.135 59.2251 11.2223 60.0179C11.3096 60.8106 11.4534 61.6762 11.6365 62.5782C11.8197 63.4802 12.0473 64.3284 12.2733 65.0933C12.4992 65.8583 12.7354 66.5365 12.9579 67.0986C13.0606 67.383 13.1667 67.6346 13.254 67.8566C13.3413 68.0786 13.4252 68.2694 13.4902 68.4238C13.5552 68.5782 13.6014 68.6909 13.6408 68.7829C13.6601 68.8235 13.6756 68.8659 13.687 68.9095C13.6612 68.8721 13.6394 68.8319 13.622 68.7898L13.4508 68.4429C13.3789 68.2902 13.2916 68.096 13.2009 67.8826C13.1102 67.6692 12.9955 67.4108 12.8894 67.128C12.6652 66.5678 12.4273 65.8878 12.1894 65.1228C11.9515 64.3579 11.7341 63.5062 11.5441 62.6024C11.3541 61.6987 11.2395 60.8227 11.1556 60.0283C11.0717 59.2338 11.0204 58.5122 11.0033 57.9068C10.9879 57.605 10.9913 57.3309 10.9878 57.0916C10.9844 56.8522 10.9878 56.644 10.9878 56.474C10.9878 56.3041 10.9981 56.1844 11.0015 56.0855C11.0003 56.0401 11.0043 55.9947 11.0135 55.9502Z" fill="#E0E0E0"/>
<path d="M11.248 60.3456C11.2576 59.8225 11.4464 59.319 11.7821 58.9215C11.8308 58.8477 11.8968 58.7872 11.9741 58.7455C12.0514 58.7037 12.1377 58.682 12.2254 58.6821C12.4564 58.7168 12.5677 58.9961 12.5677 59.232C12.5797 59.6326 12.4491 60.0242 12.1997 60.3352C11.9845 60.6328 11.6634 60.8338 11.3045 60.8955" fill="#E0E0E0"/>
<path d="M11.7567 63.2063C11.7276 62.5922 11.9279 61.6451 12.2702 61.1455C12.3224 61.0632 12.3905 60.9924 12.4704 60.9374C12.5109 60.9108 12.557 60.8945 12.605 60.89C12.653 60.8854 12.7014 60.8928 12.746 60.9114C12.8013 60.9525 12.8459 61.0067 12.8757 61.0693C12.9056 61.1319 12.9198 61.201 12.9172 61.2704C12.951 61.7142 12.8623 62.1587 12.6609 62.5542C12.4596 62.9497 12.1536 63.2806 11.7772 63.5098" fill="#E0E0E0"/>
<path d="M12.4141 65.6501C12.4751 65.0349 12.6973 64.4474 13.0576 63.9485C13.0925 63.8868 13.139 63.8327 13.1945 63.7892C13.25 63.7458 13.3134 63.7138 13.3811 63.6952C13.5951 63.6675 13.7645 63.8895 13.8107 64.1029C13.9083 64.5417 13.6926 64.9875 13.4427 65.3587C13.2038 65.6707 12.9259 65.95 12.616 66.1896" fill="#E0E0E0"/>
<path d="M13.0098 67.3691C13.1036 66.8851 13.3024 66.4283 13.5917 66.0317C13.6523 65.9446 13.732 65.8727 13.8245 65.8218C13.8712 65.7967 13.9238 65.785 13.9766 65.7881C14.0294 65.7911 14.0804 65.8088 14.124 65.8392C14.2575 65.945 14.2284 66.1549 14.1702 66.3179C13.9916 66.8725 13.6433 67.3549 13.1758 67.6952" fill="#E0E0E0"/>
<path d="M12.7443 66.6752C12.203 66.3144 11.63 66.0049 11.0327 65.7506C10.9895 65.7241 10.9404 65.7087 10.89 65.706C10.8395 65.7033 10.7892 65.7133 10.7434 65.735C10.7135 65.7609 10.6916 65.7949 10.6804 65.8331C10.6691 65.8713 10.669 65.9119 10.6801 65.9501C10.7031 66.0259 10.7429 66.0953 10.7965 66.1531C11.0606 66.4528 11.3879 66.6885 11.7541 66.8425C12.1203 66.9966 12.5161 67.0651 12.912 67.0429" fill="#E0E0E0"/>
<path d="M12.0819 64.405L10.6681 63.4717C10.5392 63.3746 10.3935 63.3028 10.2385 63.2601C10.1607 63.2398 10.0788 63.2416 10.0019 63.2651C9.92492 63.2887 9.85581 63.3331 9.80205 63.3937C9.75841 63.4621 9.73435 63.5415 9.73253 63.6229C9.73072 63.7044 9.75123 63.7847 9.79178 63.8551C9.87677 63.9923 9.98861 64.1104 10.1204 64.202C10.4149 64.4485 10.7513 64.6384 11.1131 64.7623C11.4777 64.8768 11.7978 64.9236 12.1401 64.7623" fill="#E0E0E0"/>
<path d="M11.429 61.8182C11.0407 61.2791 10.5187 60.8537 9.91595 60.5849C9.81834 60.5336 9.70917 60.509 9.59931 60.5138C9.49256 60.5384 9.39767 60.6001 9.33108 60.6881C9.2645 60.7762 9.23042 60.8851 9.23474 60.996C9.23927 61.1196 9.26881 61.241 9.32151 61.3526C9.37421 61.4642 9.44895 61.5636 9.54112 61.6447C9.72878 61.8064 9.94642 61.9285 10.1812 62.0038C10.6073 62.1597 11.055 62.2469 11.5077 62.2622" fill="#E0E0E0"/>
<path d="M11.129 59.4143C10.8021 58.7205 10.2373 58.2278 9.61941 57.7768C9.56161 57.72 9.49008 57.6795 9.41199 57.6594C9.3339 57.6393 9.25198 57.6403 9.1744 57.6623C9.13026 57.6886 9.09315 57.7254 9.06629 57.7696C9.03944 57.8137 9.02367 57.8638 9.02036 57.9156C9.01546 58.0198 9.03238 58.1238 9.06999 58.2209C9.22766 58.6572 9.50833 59.0369 9.87713 59.3129C10.2459 59.5889 10.6866 59.749 11.1444 59.7734" fill="#E0E0E0"/>
<path d="M11.0524 58.1637C10.8883 57.8047 10.7582 57.4306 10.6639 57.0466C10.5686 56.6608 10.5828 56.2555 10.705 55.8775C10.7579 55.7142 10.8552 55.5693 10.9857 55.4595C11.051 55.4054 11.1288 55.3692 11.2118 55.3543C11.2948 55.3394 11.3802 55.3464 11.4598 55.3745C11.5287 55.4081 11.5895 55.4566 11.638 55.5165C11.6864 55.5764 11.7214 55.6464 11.7405 55.7214C11.7748 55.8756 11.7817 56.0348 11.761 56.1915C11.696 56.9408 11.4718 57.8185 11.0559 58.1551" fill="#E0E0E0"/>
<path d="M21.6494 55.8564C21.6575 55.9011 21.6615 55.9464 21.6613 55.9917C21.6613 56.0906 21.6613 56.219 21.675 56.3803C21.6887 56.5416 21.6853 56.7567 21.675 56.9978C21.6648 57.2389 21.675 57.5182 21.6613 57.8131C21.6442 58.4185 21.5929 59.1383 21.5073 59.9345C21.4217 60.7307 21.2848 61.5998 21.0999 62.5052C20.9151 63.4107 20.684 64.2607 20.453 65.0273C20.2219 65.794 19.9771 66.4705 19.7529 67.0308C19.6468 67.3136 19.5355 67.5634 19.4431 67.7854C19.3507 68.0074 19.272 68.1948 19.1915 68.3457C19.1111 68.4966 19.0666 68.6076 19.0204 68.6926C19.0019 68.7333 18.9808 68.7727 18.957 68.8105C18.9675 68.7666 18.983 68.7241 19.0032 68.6839C19.0409 68.592 19.0905 68.474 19.1539 68.3249C19.2172 68.1757 19.3011 67.9779 19.3884 67.7576C19.4756 67.5373 19.5835 67.2841 19.6845 66.9996C19.9001 66.4376 20.1312 65.7576 20.3691 64.9944C20.607 64.2312 20.8158 63.3812 21.0041 62.4792C21.1924 61.5772 21.3224 60.7099 21.4183 59.9189C21.5141 59.1279 21.5672 58.4098 21.5895 57.8062C21.6083 57.5043 21.61 57.232 21.6186 56.9909C21.6271 56.7498 21.6288 56.5451 21.6186 56.3751C21.6083 56.2051 21.6186 56.0854 21.6186 55.9865C21.6243 55.9422 21.6346 55.8986 21.6494 55.8564Z" fill="#EBEBEB"/>
<path d="M21.4157 60.2572C21.4057 59.7339 21.2163 59.2304 20.88 58.8331C20.831 58.7595 20.765 58.6993 20.6877 58.6575C20.6105 58.6158 20.5243 58.5939 20.4367 58.5938C20.2056 58.6284 20.0944 58.9077 20.0944 59.1436C20.0834 59.5443 20.2146 59.9358 20.4641 60.2468C20.6781 60.5457 20.9997 60.747 21.3592 60.8071" fill="#EBEBEB"/>
<path d="M20.9122 63.1091C20.9396 62.495 20.741 61.5479 20.3987 61.0484C20.3465 60.966 20.2784 60.8952 20.1984 60.8402C20.1583 60.8136 20.1124 60.7973 20.0647 60.7928C20.017 60.7883 19.9689 60.7956 19.9246 60.8142C19.869 60.8551 19.8243 60.9093 19.7945 60.9719C19.7646 61.0346 19.7505 61.1038 19.7534 61.1733C19.7188 61.6169 19.807 62.0615 20.0081 62.4571C20.2092 62.8527 20.5152 63.1836 20.8916 63.4127" fill="#EBEBEB"/>
<path d="M20.2471 65.5564C20.1856 64.9416 19.9641 64.3543 19.6052 63.8547C19.5694 63.7925 19.5218 63.738 19.4651 63.6946C19.4084 63.6511 19.3437 63.6195 19.2749 63.6015C19.0609 63.5737 18.8915 63.7958 18.8436 64.0091C18.7477 64.448 18.9634 64.8938 19.2116 65.265C19.4505 65.577 19.7284 65.8563 20.0383 66.0959" fill="#EBEBEB"/>
<path d="M19.6515 67.2771C19.5578 66.7928 19.3597 66.3356 19.0712 65.938C19.0101 65.8506 18.9298 65.7788 18.8367 65.7281C18.79 65.7029 18.7374 65.6913 18.6846 65.6943C18.6318 65.6974 18.5808 65.7151 18.5372 65.7454C18.4054 65.8512 18.4345 66.0611 18.491 66.2242C18.6696 66.7787 19.0179 67.2612 19.4854 67.6015" fill="#EBEBEB"/>
<path d="M19.9177 66.5852C20.4594 66.2251 21.0323 65.9156 21.6293 65.6606C21.6727 65.6345 21.7217 65.6194 21.7721 65.6167C21.8224 65.6139 21.8727 65.6237 21.9186 65.645C21.9491 65.6704 21.9716 65.7043 21.9832 65.7426C21.9948 65.7808 21.9949 65.8217 21.9836 65.8601C21.9595 65.9358 21.9192 66.0051 21.8655 66.063C21.6016 66.363 21.2743 66.5988 20.908 66.7528C20.5418 66.9069 20.1459 66.9753 19.75 66.9529" fill="#EBEBEB"/>
<path d="M20.5816 64.3112L21.9937 63.378C22.1228 63.2812 22.2684 63.2094 22.4233 63.1664C22.5011 63.1461 22.583 63.1478 22.6599 63.1714C22.7369 63.1949 22.806 63.2394 22.8598 63.2999C22.9038 63.3682 22.9281 63.4476 22.9299 63.5292C22.9317 63.6107 22.911 63.6911 22.87 63.7613C22.786 63.8993 22.6739 64.0175 22.5414 64.1083C22.247 64.3543 21.9113 64.5447 21.5504 64.6703C21.1858 64.783 20.8658 64.8316 20.5234 64.6703" fill="#EBEBEB"/>
<path d="M21.2328 61.7211C21.6212 61.1822 22.1431 60.7567 22.7458 60.4878C22.8433 60.4361 22.9526 60.4116 23.0625 60.4167C23.1689 60.4416 23.2634 60.5035 23.3297 60.5915C23.3959 60.6796 23.4297 60.7883 23.4253 60.8989C23.4223 61.0236 23.3935 61.1462 23.3407 61.2589C23.2879 61.3715 23.2124 61.4717 23.119 61.5529C22.9315 61.7142 22.7146 61.8368 22.4805 61.9136C22.0537 62.0689 21.6056 62.1555 21.1523 62.1704" fill="#EBEBEB"/>
<path d="M21.5342 59.3205C21.8611 58.6266 22.4259 58.1357 23.0455 57.683C23.1756 57.5876 23.3451 57.4974 23.4888 57.5685C23.5356 57.5942 23.5751 57.6316 23.6036 57.6771C23.632 57.7227 23.6485 57.7749 23.6514 57.8287C23.6549 57.9329 23.6374 58.0368 23.6001 58.134C23.4431 58.5704 23.1628 58.9503 22.7943 59.2264C22.4257 59.5024 21.9851 59.6625 21.5273 59.6865" fill="#EBEBEB"/>
<path d="M21.6106 58.0717C21.774 57.7122 21.9047 57.3383 22.0008 56.9546C22.0948 56.5679 22.08 56.1623 21.958 55.7837C21.9061 55.6208 21.81 55.476 21.6808 55.3657C21.6159 55.3115 21.5383 55.2753 21.4554 55.2607C21.3726 55.2461 21.2875 55.2536 21.2084 55.2824C21.1387 55.3152 21.0771 55.3633 21.0283 55.4234C20.9794 55.4834 20.9444 55.5538 20.9259 55.6294C20.8927 55.7837 20.8858 55.9427 20.9054 56.0994C20.9704 56.8488 21.1947 57.7265 21.6106 58.0648" fill="#EBEBEB"/>
<path d="M9.21484 68.8159V70.6217C9.21484 70.715 9.23301 70.8074 9.26829 70.8935C9.30358 70.9797 9.3553 71.058 9.42048 71.1239C9.48567 71.1898 9.56305 71.2421 9.64818 71.2776C9.73331 71.3132 9.82452 71.3313 9.91659 71.3311H22.098C22.2836 71.3311 22.4617 71.2564 22.593 71.1233C22.7242 70.9903 22.798 70.8098 22.798 70.6217V68.8159H9.21484Z" fill="#EBEBEB"/>
<path d="M10.2715 71.3311L10.3725 71.9052L21.6125 72.717L21.8983 71.3311H10.2715Z" fill="#E0E0E0"/>
<path d="M12.2932 27.4868L9.72584 26.4183C9.72584 26.4183 8.83924 28.6022 6.58508 27.7071C6.14723 27.5436 5.77069 27.2455 5.50803 26.8546C5.24538 26.4638 5.1097 25.9995 5.11996 25.5267C5.12241 25.1294 5.21768 24.7384 5.39797 24.3857C5.57825 24.0329 5.83843 23.7284 6.15718 23.4972C6.88632 22.9508 8.13749 22.6143 9.74125 23.6446L12.0913 17.8545L9.55297 16.7964L8.15974 20.2309C8.15974 20.2309 4.22309 19.6811 2.61248 23.6551C1.07205 27.4573 4.20768 29.7973 5.95864 30.5276C7.06261 30.9855 10.4807 32.0957 12.2932 27.4868Z" fill="#F5F5F5"/>
<path d="M11.0023 13.1402L10.0137 15.5771L12.5892 16.6503L13.5779 14.2134L11.0023 13.1402Z" fill="#F5F5F5"/>
<path d="M11.423 27.126L8.85566 26.0575C8.85566 26.0575 7.96906 28.2396 5.7149 27.3463C5.27719 27.1825 4.9008 26.8844 4.63818 26.4936C4.37555 26.1027 4.23978 25.6386 4.24978 25.1659C4.25229 24.7684 4.34776 24.3773 4.52836 24.0245C4.70896 23.6717 4.96954 23.3673 5.28871 23.1364C6.01785 22.59 7.23992 22.3263 8.84368 23.3567L11.2228 17.4937L8.68621 16.4355L7.29298 19.8701C7.29298 19.8701 3.35633 19.3202 1.7423 23.289C0.201875 27.0913 3.20742 29.381 4.652 29.9759C5.74913 30.4356 9.61561 31.7279 11.423 27.126Z" fill="#E0E0E0"/>
<path d="M10.1351 12.7735L9.14648 15.2104L11.722 16.2836L12.7107 13.8467L10.1351 12.7735Z" fill="#E0E0E0"/>
<path d="M73.0082 71.9884L71.4182 72.122C71.4182 72.122 71.5294 73.475 70.143 73.6172C69.8762 73.6491 69.6062 73.5961 69.3704 73.4655C69.1345 73.335 68.9446 73.1334 68.8268 72.8887C68.7248 72.685 68.6716 72.4597 68.6716 72.2313C68.6716 72.0028 68.7248 71.7775 68.8268 71.5738C69.0596 71.1003 69.6142 70.5955 70.701 70.6961L70.4083 67.1055L68.8337 67.239L69.0048 69.3674C69.0048 69.3674 66.8465 70.1324 67.0485 72.5955C67.2419 74.9529 69.455 75.3189 70.5401 75.2269C71.2333 75.1749 73.2718 74.828 73.0082 71.9884Z" fill="#F5F5F5"/>
<path d="M70.3032 65.2783L68.7012 65.4082L68.8208 66.9243L70.4229 66.7944L70.3032 65.2783Z" fill="#F5F5F5"/>
<path d="M72.468 72.0302L70.8762 72.1655C70.8762 72.1655 70.9874 73.5185 69.601 73.659C69.3345 73.6917 69.0646 73.6392 68.829 73.5089C68.5933 73.3786 68.4037 73.177 68.2865 72.9322C68.1845 72.7285 68.1313 72.5033 68.1313 72.2748C68.1313 72.0463 68.1845 71.8211 68.2865 71.6174C68.5193 71.1438 69.0773 70.6842 70.1693 70.7848L69.8715 67.1421L68.2985 67.2757L68.4697 69.404C68.4697 69.404 66.3114 70.1673 66.5133 72.6321C66.7067 74.9895 68.8377 75.3624 69.7294 75.2861C70.4175 75.2358 72.7315 74.8733 72.468 72.0302Z" fill="#E0E0E0"/>
<path d="M69.6942 64.8861L68.0977 65.0205L68.2215 66.5314L69.8181 66.3969L69.6942 64.8861Z" fill="#E0E0E0"/>
<path d="M63.7677 13.5111L66.9187 12.2501C66.9187 12.2501 65.873 9.56834 68.6047 8.42002C69.1272 8.18899 69.7079 8.12899 70.2657 8.24839C70.8235 8.3678 71.3306 8.66065 71.7163 9.08612C72.0454 9.4373 72.2879 9.86233 72.4242 10.3266C72.5604 10.7908 72.5865 11.2811 72.5002 11.7574C72.3137 12.8641 71.4938 14.2345 69.2225 14.7063L71.9936 21.8182L75.1104 20.571L73.4587 16.3507C73.4587 16.3507 77.3954 13.4573 75.4887 8.57614C73.6675 3.90656 68.9504 4.53969 66.7989 5.4018C65.4468 5.943 61.5118 7.89964 63.7677 13.5111Z" fill="#F5F5F5"/>
<path d="M75.7257 22.0382L72.5625 23.3042L73.7287 26.297L76.8919 25.031L75.7257 22.0382Z" fill="#F5F5F5"/>
<path d="M62.5045 14.0142L65.6573 12.7531C65.6573 12.7531 64.6115 10.0714 67.3432 8.9231C67.8652 8.69144 68.4456 8.6306 69.0033 8.74907C69.5611 8.86753 70.0685 9.1594 70.4548 9.58398C70.7844 9.93596 71.0271 10.3619 71.1633 10.827C71.2996 11.2921 71.3254 11.7833 71.2387 12.2605C71.0625 13.3672 70.2067 14.6473 67.9303 15.1191L70.7373 22.3195L73.8523 21.0723L72.2092 16.8538C72.2092 16.8538 76.1339 13.9604 74.2306 9.08615C72.4112 4.40269 67.8566 4.97858 66.0869 5.68631C64.7296 6.22751 60.2555 8.40271 62.5045 14.0142Z" fill="#E0E0E0"/>
<path d="M74.4679 22.5401L71.3047 23.8062L72.4709 26.7989L75.6341 25.5329L74.4679 22.5401Z" fill="#E0E0E0"/>
<path d="M36.1024 13.8581L36.176 13.7956L36.3848 13.5961L36.5389 13.4522C36.5937 13.3984 36.6484 13.3325 36.7101 13.2631L36.9069 13.0411C36.9787 12.9544 37.0461 12.8641 37.1089 12.7705C37.4523 12.3011 37.7224 11.781 37.9099 11.2284C38.166 10.4978 38.2793 9.72363 38.2436 8.94912C38.2436 8.84157 38.2317 8.73229 38.2265 8.62301C38.2214 8.51373 38.194 8.40445 38.1786 8.2917C38.1632 8.17895 38.1512 8.06793 38.1221 7.95692C38.093 7.8459 38.0656 7.73315 38.0382 7.60999L37.9407 7.28909V7.27001C37.9013 7.15726 37.8602 7.04278 37.8209 6.92309C37.7815 6.8034 37.7182 6.70106 37.6668 6.58831C37.617 6.47306 37.5599 6.36122 37.4957 6.25353C37.3707 6.02929 37.2312 5.81372 37.078 5.60825C36.9993 5.50591 36.9257 5.39663 36.8401 5.29602L36.4721 4.89185L36.4328 4.85369L36.2822 4.71839C36.1795 4.62993 36.0802 4.53452 35.9741 4.44779C35.7559 4.27708 35.5272 4.12065 35.2894 3.97945C35.0443 3.83445 34.7899 3.70637 34.5278 3.5961C34.3926 3.54232 34.2539 3.50069 34.117 3.45039C34.0485 3.42957 33.9801 3.40009 33.9099 3.38274L33.684 3.36192C33.4533 3.30232 33.2188 3.25943 32.9822 3.23356L32.6245 3.18846L32.2394 3.17285H32.1264L31.8971 3.18499L31.6677 3.19887L31.4401 3.23183L31.2107 3.26826L31.096 3.2856L30.9831 3.31336L30.1427 3.57181L30.0845 3.59263C29.4903 3.83662 28.9358 4.16993 28.4397 4.58136C27.9525 5.00444 27.5312 5.49979 27.1902 6.05058L27.1628 6.09915C27.0533 6.31944 26.8736 6.67851 26.7623 6.8988L26.7161 7.00635L26.6784 7.11736L26.6031 7.35154L26.5295 7.57357L26.4782 7.8008L26.4251 8.0263L26.3994 8.13905L26.3481 8.52587L26.3156 8.88841C26.2985 9.12863 26.2985 9.36978 26.3156 9.61L26.3276 9.83204C26.3276 9.90662 26.3481 9.97948 26.3567 10.0523C26.3806 10.198 26.3977 10.3437 26.4268 10.486C26.4869 10.7677 26.5664 11.0447 26.6647 11.3151C26.7627 11.5795 26.877 11.8373 27.0071 12.087C27.0721 12.2085 27.1474 12.3229 27.2159 12.434L27.3203 12.6074L27.3511 12.6525L27.678 13.0896C27.7619 13.1937 27.8492 13.2857 27.9416 13.3828C28.1138 13.569 28.2985 13.7428 28.4944 13.9032C28.5869 13.9896 28.684 14.0706 28.7854 14.146C28.8864 14.2154 28.9822 14.2917 29.0849 14.3559L29.3964 14.538L29.7045 14.6976L30.0195 14.8399C30.1229 14.8842 30.2286 14.923 30.3361 14.9561C30.4405 14.9908 30.5449 15.0289 30.6476 15.0602L30.9625 15.1348C31.7089 15.3054 32.4808 15.3278 33.2355 15.2007C33.8052 15.1099 34.3576 14.9309 34.8735 14.6699C34.9755 14.624 35.075 14.5725 35.1713 14.5155L35.4212 14.3594C35.4982 14.3108 35.5718 14.2674 35.6352 14.2241L35.8063 14.094L36.0288 13.9205C36.0802 13.8806 36.1041 13.8581 36.1041 13.8581L36.0254 13.9153L35.7978 14.0888C35.7464 14.1252 35.6917 14.1686 35.6266 14.2137C35.5616 14.2588 35.4897 14.2987 35.4127 14.3472L35.1611 14.4999C35.0638 14.5554 34.9639 14.6057 34.8615 14.6508C34.3478 14.9016 33.7996 15.0724 33.2355 15.1573C32.4857 15.2788 31.7198 15.2529 30.9797 15.081L30.6681 15.0116C30.5637 14.9804 30.4628 14.9422 30.3583 14.9075C30.2539 14.8728 30.1461 14.8416 30.0451 14.7913L29.7336 14.6491L29.4392 14.4964H29.4255L29.1192 14.323C29.0165 14.2588 28.9223 14.1824 28.8231 14.1131C28.721 14.044 28.6233 13.9687 28.5304 13.8876C28.3366 13.7272 28.1542 13.5533 27.9844 13.3672C27.8988 13.2718 27.8132 13.1798 27.7242 13.0775L27.4007 12.6421C27.3901 12.6283 27.3803 12.6139 27.3716 12.5987L27.2672 12.4253C27.2005 12.3091 27.1252 12.1963 27.0618 12.0784C26.936 11.8315 26.8262 11.5765 26.7332 11.3151C26.6342 11.0408 26.5547 10.7597 26.4953 10.4738C26.4662 10.3333 26.4508 10.1894 26.4268 10.0454C26.4183 9.97254 26.4012 9.90142 26.3977 9.82857L26.3892 9.60654C26.3704 9.30906 26.3704 9.01068 26.3892 8.71321C26.4097 8.56403 26.4303 8.41486 26.4491 8.26394L26.4645 8.15119L26.4902 8.04018L26.5415 7.81815L26.5946 7.59265L26.6665 7.37409L26.7401 7.15379L26.7777 7.04451L26.8239 6.93696L27.2261 6.13731L27.2518 6.09394C27.9178 4.99024 28.9216 4.13745 30.1102 3.66548L30.1649 3.64467L30.9985 3.38968L31.1097 3.36019L31.2227 3.34284L31.4503 3.30815L31.6746 3.27346L31.9022 3.26132L32.1281 3.24917H32.2411H32.3523L32.7991 3.26652C33.0913 3.29707 33.3813 3.34749 33.6668 3.41743L33.8791 3.46774C33.9493 3.48335 34.016 3.51284 34.0845 3.53365C34.2197 3.58222 34.3583 3.62385 34.4901 3.67589C34.7499 3.78501 35.0021 3.91193 35.2449 4.05577C35.4831 4.19378 35.7119 4.34793 35.9296 4.51718C36.0357 4.60217 36.1332 4.69064 36.2342 4.78431L36.3848 4.91787L36.4225 4.9543L36.7871 5.35326C36.8727 5.45213 36.9462 5.56141 37.025 5.66202C37.1768 5.86894 37.3151 6.08564 37.4392 6.31077C37.502 6.41804 37.5591 6.52864 37.6103 6.64208C37.66 6.7531 37.7182 6.86064 37.7627 6.97339L37.8825 7.31164C37.903 7.36715 37.9236 7.42266 37.9424 7.4851V7.50071C37.9835 7.6655 38.0245 7.82856 38.0656 7.98814C38.0964 8.09916 38.1033 8.21191 38.1238 8.32119C38.1444 8.43047 38.1581 8.54148 38.1717 8.64903C38.1854 8.75657 38.1837 8.86586 38.1889 8.97167C38.2277 9.7401 38.119 10.5089 37.8688 11.2353C37.6855 11.7856 37.4206 12.3044 37.0832 12.7739C37.0113 12.8693 36.9565 12.9682 36.8846 13.0463L36.6929 13.2492C36.633 13.3186 36.58 13.3845 36.5218 13.44L36.3712 13.5857L36.1658 13.7818C36.1247 13.8338 36.1024 13.8581 36.1024 13.8581Z" fill="#E0E0E0"/>
<path d="M37.2003 17.3445C37.2003 17.3445 37.2191 17.3341 37.25 17.3081C37.2959 17.2691 37.3373 17.2249 37.3732 17.1763C37.4864 17.0229 37.5535 16.8397 37.5666 16.6486C37.5796 16.4576 37.538 16.2668 37.4468 16.0991C37.3598 15.941 37.2327 15.8092 37.0788 15.7174C36.9086 15.6149 36.7115 15.5677 36.514 15.5821C36.301 15.594 36.0975 15.6754 35.934 15.8143C35.7704 15.9531 35.6557 16.1419 35.6068 16.3523C35.5595 16.5472 35.5709 16.752 35.6393 16.9403C35.7017 17.1099 35.8075 17.2595 35.9457 17.374C36.0663 17.4728 36.2082 17.5412 36.3599 17.5735C36.5782 17.6217 36.8063 17.5916 37.0052 17.4885C37.0591 17.4619 37.1092 17.4281 37.1541 17.3879C37.1866 17.3619 37.202 17.3462 37.2003 17.3445C37.1986 17.3428 37.1301 17.3983 36.9932 17.4625C36.798 17.5524 36.5787 17.5738 36.3702 17.5232C36.2496 17.4941 36.1358 17.4411 36.0354 17.3673C35.9351 17.2935 35.8501 17.2003 35.7854 17.0931C35.7206 16.9859 35.6774 16.8668 35.6583 16.7427C35.6391 16.6185 35.6443 16.4918 35.6736 16.3697C35.7206 16.1743 35.828 15.9992 35.9801 15.87C36.1322 15.7408 36.3211 15.6643 36.5191 15.6515C36.7032 15.6385 36.8869 15.682 37.0463 15.7764C37.1886 15.8594 37.3067 15.9791 37.3886 16.1233C37.4777 16.282 37.5207 16.4629 37.5125 16.6453C37.5043 16.8276 37.4453 17.0039 37.3424 17.1537C37.2636 17.2855 37.1935 17.3393 37.2003 17.3445Z" fill="#E0E0E0"/>
<path d="M20.1369 34.0022H21.0372C21.0367 33.8983 21.0568 33.7954 21.0963 33.6995C21.1358 33.6037 21.194 33.5168 21.2672 33.4442C21.3405 33.3715 21.4275 33.3146 21.5229 33.2766C21.6183 33.2387 21.7203 33.2206 21.8228 33.2234C21.9737 33.2181 22.1225 33.2604 22.2485 33.3447C22.3746 33.4289 22.4716 33.5508 22.5263 33.6935C22.5743 33.8129 22.5935 33.9422 22.5825 34.0707C22.5715 34.1991 22.5305 34.3231 22.4629 34.4324C22.3106 34.6874 21.9751 34.9198 21.3692 34.8105V36.8661H22.2593V35.6622C22.6244 35.5539 22.9443 35.327 23.1697 35.0164C23.3952 34.7058 23.5137 34.3288 23.507 33.9432C23.507 32.6093 22.3277 32.2988 21.8228 32.2988C21.436 32.2988 20.1198 32.3942 20.1369 34.0022Z" fill="#E0E0E0"/>
<path d="M22.2691 37.291H21.3672V38.1462H22.2691V37.291Z" fill="#E0E0E0"/>
<path d="M60.4995 40.6715L59.4914 40.0228C59.4914 40.0228 58.9522 40.8901 58.0622 40.3298C57.8877 40.2269 57.7494 40.0711 57.6668 39.8844C57.5843 39.6978 57.5615 39.4895 57.6018 39.289C57.6321 39.1206 57.7015 38.9619 57.8041 38.8259C57.9068 38.6899 58.0398 38.5805 58.1923 38.5067C58.5432 38.3333 59.0823 38.3124 59.6865 38.871L61.1311 36.564L60.1332 35.9204L59.286 37.2734C59.286 37.2734 57.6566 36.7391 56.6758 38.302C55.7379 39.799 56.847 40.9976 57.4118 41.3636C57.8448 41.6464 59.3887 42.4894 60.4995 40.6715Z" fill="#E0E0E0"/>
<path d="M61.0209 34.4858L60.4199 35.4448L61.4327 36.0967L62.0337 35.1376L61.0209 34.4858Z" fill="#E0E0E0"/>
<path d="M20.5198 8.63162L19.6828 8.9664C19.7214 9.06266 19.7404 9.16583 19.7387 9.26972C19.737 9.37362 19.7146 9.47609 19.6729 9.57101C19.6312 9.66592 19.571 9.75133 19.4959 9.8221C19.4209 9.89288 19.3325 9.94756 19.2361 9.98288C19.0976 10.045 18.9435 10.0616 18.7953 10.0305C18.647 9.99941 18.5121 9.92211 18.4094 9.80942C18.3218 9.71625 18.2574 9.60334 18.2214 9.47999C18.1854 9.35665 18.1788 9.22639 18.2023 9.09997C18.2519 8.80508 18.4778 8.4651 19.082 8.3402L18.3358 6.43213L17.5091 6.76344L17.9455 7.87186C17.6452 8.10877 17.43 8.43906 17.3329 8.81198C17.2358 9.18491 17.2622 9.57982 17.4081 9.93605C17.8908 11.1763 19.1008 11.0254 19.5698 10.838C19.9293 10.6993 21.1188 10.1269 20.5198 8.63162Z" fill="#E0E0E0"/>
<path d="M17.8915 5.18182L17.0527 5.52002L17.3649 6.31531L18.2037 5.97711L17.8915 5.18182Z" fill="#E0E0E0"/>
<path d="M53.8769 37.6077L46.615 34.0086L45.5905 32.4069L36.0673 31.2896L34.6399 33.901C34.6399 33.901 29.0678 36.2434 25.8944 37.9749L27.7278 60.1328L28.1307 66.3212L25.8725 78.717C25.2853 79.559 25.2479 80.3725 25.8725 81.1512C27.9496 81.5658 35.2427 84 39.3031 84C45.1814 84 54.8826 81.1512 54.8826 81.1512L52.6494 65.8559L52.9836 50.4498L53.8769 37.6077Z" fill="#84B6F4"/>
<path d="M40.1561 83.9813C40.1528 83.9413 40.1528 83.9011 40.1561 83.8611C40.1561 83.7756 40.1561 83.6585 40.1561 83.5129C40.1561 83.1963 40.1249 82.7468 40.103 82.1707C40.0812 81.5946 40.0624 80.8761 40.0499 80.0467C40.0374 79.2174 40.0187 78.2773 40.0218 77.2327C40.0218 75.1498 40.0406 72.6681 40.0905 69.9111C40.1405 67.154 40.2467 64.1279 40.3591 60.9466C40.5902 54.5905 40.8151 48.8357 40.9088 44.6669C40.9306 43.6286 40.9494 42.6853 40.965 41.856C40.9806 41.0267 40.9931 40.3144 40.9962 39.732C40.9993 39.1496 40.9962 38.7064 41.0149 38.3899V38.0417C41.0109 38.0017 41.0109 37.9614 41.0149 37.9214C41.0176 37.9614 41.0176 38.0016 41.0149 38.0417C41.0149 38.1271 41.0149 38.2443 41.0149 38.3899C41.0149 38.7064 41.0149 39.1591 41.0149 39.732C41.0149 40.3049 41.0149 41.0298 41.0149 41.856C41.0149 42.6822 41.0149 43.6286 40.9837 44.6701C40.9181 48.8389 40.712 54.5968 40.4809 60.9529C40.3685 64.1184 40.2717 67.1603 40.1998 69.9142C40.128 72.6681 40.0937 75.1498 40.0937 77.2327C40.0937 78.2773 40.0937 79.2174 40.0937 80.0467C40.0937 80.8761 40.0937 81.5883 40.1186 82.1707C40.1436 82.7532 40.1374 83.1963 40.1405 83.5129C40.1405 83.6585 40.1405 83.7756 40.1405 83.8611C40.1484 83.9007 40.1536 83.9409 40.1561 83.9813Z" fill="#4A4A4A"/>
<path d="M28.1185 64.8052C26.3694 65.8909 23.5302 65.1217 22.3339 63.4757C21.9716 62.9787 21.2595 61.9531 21.1908 61.1934C20.9222 58.1451 21.9092 52.5613 21.9623 50.1968C22.0154 47.8322 22.2746 43.581 22.715 42.1028C23.1554 40.6246 24.5484 38.9121 26.0664 37.9878C27.5844 37.0635 29.2241 46.623 29.2241 46.623L30.2923 58.7244L30.4735 62.4659C30.4735 62.4659 29.1773 64.1467 28.1185 64.8052Z" fill="#84B6F4"/>
<path d="M26.3223 43.6382C26.3871 43.7704 26.4404 43.9081 26.4816 44.0497C26.5721 44.3187 26.7002 44.7113 26.8501 45.1987C27.1625 46.1705 27.5435 47.519 27.9339 49.0226C28.3244 50.5261 28.6429 51.8968 28.8553 52.8907C28.9615 53.3908 29.0427 53.7928 29.0927 54.0746C29.1279 54.2178 29.1499 54.364 29.1583 54.5114C29.1014 54.3751 29.0595 54.2328 29.0334 54.0872C28.9553 53.7707 28.8585 53.3877 28.7429 52.9192C28.5024 51.9284 28.1682 50.5641 27.7778 49.0637C27.3873 47.5633 27.0125 46.2148 26.7408 45.2304C26.6096 44.7651 26.5034 44.3757 26.4285 44.0687C26.3788 43.9292 26.3432 43.785 26.3223 43.6382Z" fill="#4A4A4A"/>
<path d="M35.9885 55.7207L49.494 57.7212L50.5935 57.9175L53.1484 64.739C52.9289 64.9297 52.6693 65.0672 52.3894 65.141C52.0771 65.1663 45.2056 65.3657 39.5835 62.7764C33.9614 60.1871 31.2753 58.9779 31.3471 58.7975C31.4189 58.6171 33.9208 55.7903 33.9208 55.7903L35.9885 55.7207Z" fill="#FFD1B8"/>
<path d="M57.3339 41.131C56.5561 39.6875 55.4217 38.4735 54.0418 37.6079L53.4858 37.8833C53.4858 38.2378 51.1495 50.7001 51.1495 50.7001L50.3687 57.1892L49.4941 57.721L52.6019 65.7168C52.6019 65.7168 53.3016 66.3119 54.7883 66.3119C56.275 66.3119 57.7805 62.5577 57.7805 61.0478C57.7805 59.5379 58.5832 43.4829 57.3339 41.131Z" fill="#84B6F4"/>
<path d="M25.68 60.3737C25.68 60.3737 25.605 60.3167 25.5051 60.1806C25.3627 59.9847 25.2442 59.7721 25.1521 59.5475C24.8343 58.8083 24.7824 57.9795 25.0056 57.2056C25.2287 56.4316 25.7128 55.7616 26.3734 55.3122C26.5672 55.1748 26.777 55.0621 26.998 54.9766C27.0766 54.9391 27.1613 54.9165 27.2479 54.9102C26.9687 55.061 26.6976 55.2269 26.4358 55.4071C25.8211 55.8625 25.3721 56.511 25.1586 57.2518C24.945 57.9925 24.979 58.784 25.2552 59.5032C25.3799 59.8015 25.5217 60.0922 25.68 60.3737Z" fill="#4A4A4A"/>
<path d="M26.4562 55.3218C26.4562 55.3503 26.1438 55.4547 25.6691 55.7396C25.0551 56.1057 24.5325 56.6103 24.142 57.2141C23.7514 57.818 23.5034 58.5049 23.4171 59.2216C23.3484 59.7724 23.3859 60.1205 23.3578 60.1205C23.3297 60.1205 23.3265 60.0382 23.3109 59.88C23.2896 59.6568 23.2896 59.4321 23.3109 59.2089C23.3676 58.4652 23.6086 57.7481 24.0115 57.1239C24.4144 56.4998 24.9663 55.9888 25.616 55.6383C25.8103 55.5313 26.0142 55.4433 26.225 55.3756C26.2983 55.3439 26.3766 55.3257 26.4562 55.3218Z" fill="#4A4A4A"/>
<path d="M52.8145 65.8559C52.7796 65.7983 52.7493 65.738 52.7239 65.6755C52.6646 65.5394 52.5865 65.359 52.4928 65.1437C52.2897 64.6626 52.0055 63.9947 51.6588 63.1717L50.4344 60.2215L49.7129 58.4647C49.6505 58.3128 49.5849 58.1482 49.5224 58.0025L49.4256 57.7683C49.405 57.7121 49.405 57.6504 49.4256 57.5942C49.4394 57.5418 49.4663 57.4938 49.5037 57.4549C49.6302 57.3217 49.7808 57.2143 49.9472 57.1384C50.1072 57.0625 50.2708 56.9948 50.4376 56.9358L50.3814 57.0023L50.4813 56.3122C50.9154 53.3715 51.3059 50.7126 51.5932 48.7659C51.74 47.8162 51.8587 47.0439 51.9462 46.4868C51.9899 46.2304 52.0243 46.0246 52.0492 45.8537C52.0591 45.7815 52.0758 45.7105 52.0992 45.6416C52.0997 45.7158 52.0945 45.7898 52.0836 45.8632L52.0086 46.4963C51.9337 47.0565 51.8306 47.8321 51.6963 48.7849C51.4214 50.7316 51.0466 53.3905 50.6343 56.328L50.5344 57.0181V57.0687L50.4844 57.0846C50.1693 57.1783 49.8761 57.3355 49.6224 57.5467C49.5755 57.6069 49.5599 57.6417 49.5818 57.6987L49.6755 57.9329C49.7411 58.088 49.8035 58.2494 49.866 58.3951C50.1127 59.006 50.3501 59.5947 50.5781 60.1519C51.0248 61.2693 51.4277 62.2727 51.7681 63.1179L52.5552 65.1089C52.6396 65.3336 52.7083 65.5109 52.7614 65.6502C52.7866 65.7165 52.8044 65.7856 52.8145 65.8559Z" fill="#4A4A4A"/>
<path d="M46.7813 34.0088C46.7662 34.0531 46.7463 34.0956 46.722 34.1354C46.672 34.2304 46.6064 34.3507 46.5252 34.4963C46.3503 34.8128 46.0911 35.256 45.7444 35.8131C45.5726 36.0885 45.3789 36.3923 45.1572 36.7152L44.4325 37.7345L43.6204 38.8835C43.3269 39.2855 43.052 39.7034 42.6834 40.1497L42.6303 40.2162L42.571 40.1402C42.0381 39.4061 41.5619 38.6315 41.1467 37.8231H41.2779L41.1092 38.0225C40.8344 38.3581 40.5751 38.6999 40.3378 39.0418C40.1039 39.3683 39.9118 39.7235 39.7662 40.099L39.7256 40.2162L39.6381 40.1339C38.2675 38.8696 37.0332 37.4615 35.9556 35.9334C35.5527 35.3668 35.2529 34.8951 35.0561 34.5691C34.9562 34.4076 34.8843 34.2778 34.8343 34.1892C34.8056 34.1471 34.7825 34.1014 34.7656 34.0531C34.8018 34.0902 34.8332 34.1317 34.8593 34.1766L35.0998 34.5406C35.3122 34.8571 35.6246 35.3161 36.0368 35.8732C37.1395 37.372 38.3844 38.7577 39.7537 40.0104L39.6256 40.0452C39.7738 39.6534 39.9723 39.283 40.216 38.9437C40.4533 38.5923 40.7157 38.2504 40.9937 37.9117L41.1655 37.706L41.2404 37.6174L41.2966 37.7218C41.707 38.5218 42.1769 39.289 42.7022 40.0167H42.5897C42.9021 39.6274 43.2144 39.1874 43.5018 38.7981L44.3232 37.6553L45.0635 36.6456C45.2883 36.329 45.4851 36.0315 45.6632 35.7593C46.0192 35.2116 46.2878 34.7685 46.4815 34.4678L46.7001 34.1227C46.7219 34.0811 46.7492 34.0428 46.7813 34.0088Z" fill="#4A4A4A"/>
<path d="M30.8114 62.0166C30.8812 62.2293 30.8812 62.4592 30.8114 62.6718C30.737 62.9329 30.6053 63.1735 30.4263 63.3757C30.2473 63.578 30.0255 63.7366 29.7775 63.8399C29.3176 64.0588 28.8829 64.3284 28.4813 64.6439C28.3066 64.7734 28.1096 64.869 27.9004 64.9256C28.0636 64.7884 28.2358 64.6625 28.4158 64.5489C28.8047 64.2011 29.2413 63.9121 29.712 63.6911C29.9402 63.5956 30.1461 63.4527 30.3166 63.2717C30.4872 63.0908 30.6184 62.8756 30.7021 62.6402C30.7541 62.4354 30.7906 62.227 30.8114 62.0166Z" fill="#4A4A4A"/>
<path d="M55.0395 62.4631C54.8061 62.2092 54.5901 61.9395 54.3929 61.6559C54.0056 61.1526 53.4559 60.4625 52.8312 59.725C52.2065 58.9875 51.61 58.3417 51.1727 57.8796C50.9259 57.6413 50.6953 57.3864 50.4824 57.1167C50.7601 57.3185 51.0184 57.5464 51.2539 57.7973C51.713 58.2404 52.3221 58.8767 52.9561 59.6174C53.5902 60.3581 54.1181 61.064 54.4835 61.5863C54.6945 61.861 54.8806 62.1544 55.0395 62.4631Z" fill="#4A4A4A"/>
<path d="M33.1377 52.9477C33.1377 52.9477 31.0763 48.7219 30.639 48.2883C30.2017 47.8546 27.3969 46.4808 26.8909 46.7847C26.3849 47.0886 26.6411 47.6014 27.1689 47.9052C27.6968 48.2091 29.5052 49.4341 29.5052 49.4341L29.8831 50.178C29.8831 50.178 28.665 49.2474 27.9092 49.1144C27.1533 48.9815 24.3422 49.6969 24.3422 49.6969C24.3422 49.6969 23.5614 50.944 25.398 50.713C25.398 50.713 23.6895 51.1466 23.6895 51.2986C23.6895 51.4505 23.7894 52.3431 24.995 52.1912L26.4786 52.2672L28.1122 52.9541C28.1122 52.9541 25.6728 52.4444 25.07 52.5995C24.4672 52.7546 23.9393 53.1851 24.6921 53.565C25.4448 53.9448 26.9034 54.1 26.9815 54.1538C27.0596 54.2076 28.412 54.9673 28.412 54.9673C28.412 54.9673 30.4985 58.7658 31.0513 58.8133C31.6041 58.8607 33.9154 55.8061 33.9154 55.8061L33.1377 52.9477Z" fill="#FFD1B8"/>
<path d="M29.745 51.9348C29.0926 51.4754 28.3696 51.1288 27.6054 50.9092C26.8292 50.7435 26.0314 50.7093 25.2441 50.8079C25.4622 50.7097 25.6961 50.6529 25.9344 50.6401C26.5069 50.5725 27.0867 50.61 27.646 50.7509C28.204 50.8915 28.7328 51.1315 29.2077 51.4599C29.4131 51.5847 29.5951 51.7455 29.745 51.9348Z" fill="#FFB594"/>
<path d="M30.7862 51.023C30.7487 51.0514 30.5301 50.8362 30.2334 50.6083C29.9367 50.3804 29.6775 50.2158 29.6963 50.1746C29.715 50.1335 30.0086 50.2316 30.3209 50.4753C30.6332 50.7191 30.8081 50.9945 30.7862 51.023Z" fill="#FFB594"/>
<path d="M27.6621 54.894C30.0744 54.1873 32.4317 53.3007 34.7148 52.2414C36.0976 51.4973 37.3901 50.5922 38.5659 49.5444L41.758 53.1024C41.758 53.1024 31.6351 61.2755 30.1359 62.453C30.1359 62.453 26.1879 62.8962 25.8787 58.7146C25.6694 55.9259 27.6621 54.894 27.6621 54.894Z" fill="#FFD1B8"/>
<path d="M38.5666 49.5448C38.5666 49.5448 38.5198 47.6836 38.4386 47.3607C38.3877 46.8672 38.3877 46.3696 38.4386 45.8761C38.4573 45.8128 39.0008 43.7395 39.0008 43.7395C39.0008 43.7395 39.0601 43.3343 39.8816 44.1256C40.703 44.917 40.2845 46.2401 40.2845 46.2401L40.5312 47.0821C40.5312 47.0821 42.7895 45.6957 42.8488 45.6545C42.9081 45.6134 45.2788 43.0906 45.9722 42.7044C46.2164 42.5503 46.476 42.423 46.7468 42.3245C46.8615 42.2878 46.9843 42.2854 47.1003 42.3177C47.2163 42.3499 47.3207 42.4155 47.4009 42.5064C47.481 42.5973 47.5336 42.7098 47.5522 42.8303C47.5708 42.9507 47.5547 43.0741 47.5058 43.1855C47.4837 43.2456 47.4532 43.3021 47.4152 43.3533C47.2028 43.6508 48.4459 42.2201 48.9207 41.6693C49.0023 41.572 49.1025 41.4925 49.2152 41.4354C49.3279 41.3783 49.4508 41.3448 49.5766 41.3369C49.8702 41.3369 50.3012 41.5585 50.1232 42.2327C50.1232 42.2327 50.7666 42.0934 50.5261 42.8468C50.2856 43.6002 48.3616 47.4303 48.1023 47.8767C47.8431 48.323 46.6718 49.9215 46.4313 50.0924C46.1908 50.2634 41.7681 53.1123 41.7681 53.1123L38.7478 51.8809L38.5666 49.5448Z" fill="#FFD1B8"/>
<path d="M44.1348 47.2371C44.2307 47.0019 44.3695 46.7871 44.5439 46.604C44.8282 46.2463 45.2779 45.8 45.7215 45.2777C46.165 44.7554 46.5304 44.2331 46.8365 43.8976C46.9877 43.6996 47.1703 43.5284 47.3768 43.3911C47.2381 43.5937 47.0869 43.7872 46.924 43.9704C46.6428 44.3249 46.2993 44.8377 45.8464 45.3822C45.3935 45.9266 44.9344 46.3318 44.6314 46.68C44.3284 47.0282 44.1566 47.2498 44.1348 47.2371Z" fill="#FFB594"/>
<path d="M50.1124 42.2324C49.9531 42.5679 49.7606 42.8861 49.5377 43.182C49.1629 43.7487 48.6007 44.4989 48.0947 45.3978C47.6488 46.1701 47.1118 46.8844 46.4955 47.525C46.2613 47.7719 46.0645 47.9618 45.9239 48.0884C45.7834 48.2151 45.699 48.2815 45.6897 48.272C45.6803 48.2625 45.9677 47.9555 46.4112 47.4459C46.9945 46.791 47.5114 46.0784 47.9541 45.3187C48.4029 44.5482 48.9005 43.808 49.444 43.1029C49.6513 42.8008 49.8744 42.5103 50.1124 42.2324Z" fill="#FFB594"/>
<path d="M34.1748 52.4917C33.8873 52.6742 33.5842 52.8299 33.269 52.957C32.6974 53.2229 31.8978 53.5616 30.9983 53.9066C30.0988 54.2517 29.2711 54.5144 28.6651 54.6822C28.3418 54.7879 28.0092 54.8621 27.6719 54.9037C27.9854 54.7772 28.3068 54.6715 28.6339 54.5872C29.2273 54.3909 30.0457 54.1061 30.9421 53.7705C31.8385 53.435 32.6412 53.109 33.2221 52.8715C33.5302 52.7216 33.8485 52.5947 34.1748 52.4917Z" fill="#FFB594"/>
<path d="M39.3688 55.0303C39.2759 55.1465 39.1712 55.2526 39.0564 55.3468C38.8409 55.5494 38.5192 55.8311 38.1194 56.1698C37.3136 56.8504 36.1767 57.7525 34.9117 58.756L31.6665 61.2883C31.2698 61.6048 30.9356 61.8549 30.6795 62.0512C30.5634 62.1519 30.4378 62.2409 30.3047 62.3171C30.4061 62.2012 30.518 62.0952 30.6389 62.0005C30.8607 61.8043 31.1886 61.532 31.5946 61.1965C32.4099 60.5254 33.5468 59.6138 34.8117 58.6199L38.0476 56.0875L39.0221 55.3088C39.1308 55.2075 39.2467 55.1144 39.3688 55.0303Z" fill="#FFB594"/>
<path d="M35.9145 25.7252C35.2414 24.2614 34.6939 22.7417 34.2778 21.1828C33.8674 19.6158 33.8481 17.97 34.2216 16.3936C34.284 16.1593 34.8463 14.5576 35.0961 14.5576C35.2679 14.5576 34.9618 16.0295 35.0618 16.172C36.0207 17.5268 36.408 19.2329 36.4329 20.9011C36.4396 22.5231 36.2699 24.1409 35.9269 25.7252" fill="#4A4A4A"/>
<path d="M48.276 17.8908C48.0535 16.0897 47.1712 14.4392 45.8041 13.2665C44.437 12.0939 42.685 11.4847 40.8955 11.5599H40.5238C36.5508 11.9619 34.6705 15.6085 35.1765 19.6222L36.6383 32.917L41.1766 37.5891L45.5899 33.2145C45.4931 32.0781 45.4681 31.7363 45.4775 31.7363C45.4868 31.7363 49.2818 30.9702 49.1693 27.0895C49.1194 25.2155 48.6977 21.3727 48.276 17.8908Z" fill="#FFD1B8"/>
<path d="M45.4818 31.7358C43.7137 31.8048 41.9632 31.3588 40.4375 30.4507C40.4375 30.4507 41.7556 33.3185 45.5599 32.8089L45.4818 31.7358Z" fill="#FFB594"/>
<path d="M47.0894 21.4485C47.0972 21.5929 47.0489 21.7347 46.955 21.8435C46.861 21.9523 46.7288 22.0196 46.5866 22.031C46.5172 22.0393 46.4468 22.0335 46.3796 22.0138C46.3124 21.9942 46.2497 21.9611 46.1953 21.9166C46.1409 21.8721 46.0958 21.817 46.0627 21.7545C46.0296 21.6921 46.0092 21.6236 46.0026 21.553C45.9957 21.4091 46.0443 21.2682 46.1382 21.16C46.232 21.0519 46.3637 20.9851 46.5054 20.9737C46.5748 20.9645 46.6452 20.9696 46.7126 20.9886C46.78 21.0077 46.8428 21.0405 46.8974 21.0848C46.9519 21.1292 46.9971 21.1843 47.0301 21.2468C47.0631 21.3093 47.0833 21.3779 47.0894 21.4485Z" fill="#4A4A4A"/>
<path d="M47.3741 19.79C47.3085 19.866 46.8837 19.5716 46.2934 19.6001C45.7031 19.6286 45.2877 19.942 45.2221 19.8723C45.1565 19.8027 45.2502 19.7077 45.4345 19.5558C45.6809 19.3638 45.9797 19.2533 46.2903 19.2392C46.5959 19.2254 46.8979 19.3108 47.1523 19.483C47.3397 19.6128 47.4053 19.7425 47.3741 19.79Z" fill="#4A4A4A"/>
<path d="M42.0292 21.7334C42.0387 21.8799 41.9904 22.0242 41.8949 22.1345C41.7995 22.2449 41.6647 22.3124 41.5202 22.3222C41.451 22.3305 41.3808 22.3248 41.3138 22.3054C41.2468 22.2859 41.1843 22.2531 41.1299 22.2089C41.0756 22.1647 41.0304 22.11 40.9972 22.0479C40.9639 21.9858 40.9432 21.9177 40.9362 21.8474C40.9293 21.7027 40.9782 21.5609 41.0727 21.4522C41.1671 21.3434 41.2996 21.2763 41.4421 21.2649C41.5111 21.2561 41.5811 21.2613 41.6481 21.2801C41.7151 21.2989 41.7777 21.3311 41.8324 21.3747C41.887 21.4183 41.9325 21.4724 41.9663 21.534C42.0001 21.5956 42.0215 21.6634 42.0292 21.7334Z" fill="#4A4A4A"/>
<path d="M41.9073 20.1065C41.8417 20.1793 41.4169 19.8881 40.8266 19.9134C40.2363 19.9388 39.8209 20.2553 39.7553 20.1857C39.6897 20.116 39.7834 20.0211 39.9677 19.8691C40.2134 19.6758 40.5126 19.5652 40.8235 19.5526C41.1286 19.5396 41.43 19.6237 41.6855 19.7932C41.8729 19.9419 41.9385 20.0685 41.9073 20.1065Z" fill="#4A4A4A"/>
<path d="M44.0727 24.5034C44.3747 24.3915 44.6896 24.3191 45.0097 24.2881C45.1596 24.266 45.3002 24.228 45.322 24.1235C45.329 23.9659 45.2875 23.81 45.2034 23.6772C45.0472 23.3164 44.891 22.9334 44.713 22.5377C44.029 20.9107 43.5261 19.5748 43.5917 19.5464C43.6573 19.5179 44.2632 20.8125 44.9472 22.4395C45.1128 22.8384 45.2596 23.2214 45.4189 23.5854C45.5225 23.7649 45.5591 23.9761 45.5219 24.1805C45.5029 24.2355 45.4716 24.2853 45.4304 24.3259C45.3892 24.3666 45.3393 24.397 45.2846 24.4148C45.2024 24.4402 45.1174 24.4551 45.0316 24.4591C44.715 24.514 44.3929 24.5288 44.0727 24.5034Z" fill="#4A4A4A"/>
<path d="M41.6766 17.2383C41.3923 17.4156 39.5714 17.4156 40.4022 17.3618C39.7463 17.4061 39.2091 17.5929 39.1279 17.4441C39.0935 17.3713 39.1903 17.2225 39.409 17.0737C39.6967 16.8895 40.0252 16.7807 40.3647 16.7572C40.7009 16.7255 41.0395 16.7811 41.3486 16.9186C41.586 17.0326 41.7172 17.1624 41.6766 17.2383Z" fill="#4A4A4A"/>
<path d="M47.3116 18.8401C47.196 18.9826 46.7119 18.8718 46.1341 18.8971C45.5562 18.9224 45.0783 19.049 44.9565 18.8971C44.9034 18.8306 44.9565 18.6914 45.1783 18.5521C45.4639 18.3798 45.788 18.284 46.1201 18.2734C46.4523 18.2629 46.7817 18.3381 47.0773 18.4919C47.2866 18.6312 47.3615 18.7673 47.3116 18.8401Z" fill="#4A4A4A"/>
<path d="M35.6115 22.4706C35.5459 22.4453 32.9503 21.7932 33.1409 24.4427C33.3314 27.0921 35.9176 26.3419 35.9176 26.2723C35.9176 26.2027 35.6115 22.4706 35.6115 22.4706Z" fill="#FFD1B8"/>
<path d="M35.0457 25.3291C35.0457 25.3291 35.002 25.364 34.927 25.4051C34.8752 25.4331 34.8184 25.4504 34.76 25.4558C34.7015 25.4612 34.6425 25.4548 34.5866 25.4368C34.3024 25.3545 34.04 24.9303 33.9931 24.4523C33.9701 24.2255 33.9967 23.9964 34.0712 23.7813C34.0898 23.6974 34.1278 23.6191 34.1821 23.5531C34.2364 23.487 34.3055 23.435 34.3836 23.4014C34.4345 23.3835 34.4901 23.3845 34.5405 23.4042C34.5908 23.4239 34.6326 23.461 34.6584 23.509C34.699 23.5818 34.6865 23.6357 34.7022 23.6388C34.7178 23.642 34.7552 23.5882 34.7271 23.4805C34.7062 23.4167 34.6657 23.3612 34.6116 23.3223C34.5352 23.2742 34.4437 23.2573 34.3555 23.2748C34.2488 23.3027 34.1513 23.3586 34.0728 23.437C33.9944 23.5154 33.9378 23.6134 33.9088 23.7211C33.814 23.9588 33.7775 24.2162 33.8026 24.4713C33.8588 25.0031 34.1649 25.4843 34.5522 25.5666C34.6236 25.5815 34.6973 25.5802 34.7681 25.5627C34.8389 25.5452 34.9049 25.5119 34.9614 25.4653C35.0457 25.3925 35.0551 25.3323 35.0457 25.3291Z" fill="#FFB594"/>
<path d="M46.2351 13.6394C46.638 13.3672 45.2575 12.0852 44.1799 11.6958C42.5495 11.1039 40.1195 10.8602 38.7046 11.3793C37.0024 12.0124 35.6249 13.0253 34.8816 14.7062C34.1708 16.4134 33.9217 18.2818 34.1601 20.119C34.1846 20.6823 34.3571 21.2287 34.6598 21.7017C35.0721 22.2557 35.7999 22.5659 35.8373 23.3762C35.8416 23.6725 35.9619 23.9548 36.1715 24.1612C36.6931 24.6361 37.2366 24.1043 37.4677 23.5946C37.9581 22.5121 37.9206 21.2681 37.8738 20.0779C37.8873 19.2284 37.7627 18.3825 37.5052 17.574C37.3428 17.1435 37.1023 16.7415 36.9618 16.3079C36.8787 16.0922 36.8427 15.8608 36.8562 15.6297C36.8696 15.3986 36.9323 15.1731 37.0398 14.9689C37.0983 14.8858 37.163 14.8075 37.2335 14.7346C37.572 14.3824 37.9968 14.1277 38.4644 13.9964C38.9319 13.8652 39.4255 13.8621 39.8946 13.9876C41.4095 14.3928 43.9831 14.972 44.5985 14.4118C45.4824 13.6046 45.6698 13.1108 45.6698 13.1108L46.2351 13.6394Z" fill="#4A4A4A"/>
<path d="M44.2155 25.8039L42.7974 25.5475C42.6885 25.5141 42.5722 25.5141 42.4632 25.5475C42.4048 25.5795 42.3545 25.6247 42.316 25.6796C42.2776 25.7345 42.2521 25.7976 42.2415 25.864C42.207 26.0289 42.2087 26.1994 42.2465 26.3635C42.2842 26.5276 42.3572 26.6813 42.4601 26.8136C42.6649 27.0769 42.9326 27.2828 43.2378 27.4119C43.362 27.4842 43.4992 27.5307 43.6413 27.5486C43.7834 27.5665 43.9276 27.5556 44.0655 27.5164C44.1788 27.4653 44.28 27.3903 44.3625 27.2964C44.4449 27.2025 44.5066 27.0919 44.5434 26.9719C44.611 26.6876 44.6497 26.3969 44.659 26.1046C44.6628 26.0414 44.6431 25.979 44.6038 25.9298C44.5645 25.8806 44.5084 25.8481 44.4466 25.8387L44.2155 25.8039Z" fill="#FFB594"/>
<path d="M44.2167 27.4913C44.2167 27.4913 44.148 27.5388 44.0105 27.5705C43.8127 27.6115 43.6087 27.6115 43.4108 27.5705C43.1105 27.5112 42.833 27.3663 42.6112 27.1526C42.3407 26.8877 42.1677 26.537 42.1209 26.1587C42.096 26.0552 42.0951 25.9473 42.1185 25.8435C42.1418 25.7397 42.1886 25.6428 42.2552 25.5604C42.3362 25.4883 42.441 25.4499 42.5488 25.4528C42.6379 25.4526 42.7268 25.4611 42.8143 25.4781L43.6732 25.6301C43.9398 25.6622 44.2024 25.7216 44.4572 25.8073C44.1881 25.8158 43.919 25.7946 43.6545 25.744L42.7924 25.6301C42.6331 25.6047 42.4582 25.5857 42.3645 25.6775C42.3189 25.7435 42.2878 25.8186 42.2732 25.8978C42.2587 25.9769 42.261 26.0583 42.2802 26.1365C42.3262 26.479 42.4795 26.7974 42.7174 27.045C42.9153 27.2461 43.1638 27.3884 43.4358 27.4565C43.6928 27.5089 43.9562 27.5207 44.2167 27.4913Z" fill="#4A4A4A"/>
<path d="M77.9369 79.9382C77.9369 79.9624 60.9922 79.9833 40.0835 79.9833C19.1747 79.9833 2.22656 79.9624 2.22656 79.9382C2.22656 79.9139 19.1713 79.8931 40.0835 79.8931C60.9956 79.8931 77.9369 79.9121 77.9369 79.9382Z" fill="#263238"/>
<path d="M12.9689 49.3568L14.2852 48.7601L6.4478 38.7583L5.16924 39.1174C4.97822 39.1707 4.80758 39.2814 4.67973 39.4348L3.40631 40.9543C3.31852 41.0593 3.27535 41.1953 3.28626 41.3325C3.29716 41.4697 3.36125 41.5969 3.4645 41.6863L12.2621 49.2545C12.3582 49.3376 12.4757 49.3913 12.6009 49.4095C12.726 49.4276 12.8536 49.4093 12.9689 49.3568Z" fill="#FF6B6B"/>
<path d="M4.08096 48.6522L5.505 49.8664C5.58287 49.9338 5.67701 49.9789 5.77778 49.9972C5.87854 50.0155 5.98229 50.0063 6.07838 49.9705L7.14984 49.5837C7.28333 49.5332 7.39409 49.4352 7.46135 49.3079L13.291 38.1699L11.9765 38.5567C11.807 38.6069 11.6559 38.7064 11.5418 38.843L4.01934 47.8248C3.91957 47.9429 3.87004 48.0963 3.88159 48.2514C3.89314 48.4064 3.96483 48.5506 4.08096 48.6522Z" fill="#FF6B6B"/>
<g opacity="0.3">
<path d="M12.9689 49.3563L14.2852 48.7596L6.4478 38.7578L5.16924 39.1169C4.97822 39.1702 4.80758 39.2809 4.67973 39.4343L3.40631 40.9538C3.31852 41.0588 3.27535 41.1948 3.28626 41.332C3.29716 41.4692 3.36125 41.5964 3.4645 41.6858L12.2621 49.254C12.3582 49.3371 12.4757 49.3909 12.6009 49.409C12.726 49.4271 12.8536 49.4088 12.9689 49.3563Z" fill="#333333"/>
<path d="M4.08096 48.6522L5.505 49.8664C5.58287 49.9338 5.67701 49.9789 5.77778 49.9972C5.87854 50.0155 5.98229 50.0063 6.07838 49.9705L7.14984 49.5837C7.28333 49.5332 7.39409 49.4352 7.46135 49.3079L13.291 38.1699L11.9765 38.5567C11.807 38.6069 11.6559 38.7064 11.5418 38.843L4.01934 47.8248C3.91957 47.9429 3.87004 48.0963 3.88159 48.2514C3.89314 48.4064 3.96483 48.5506 4.08096 48.6522Z" fill="#333333"/>
</g>
<path d="M4.93135 40.457L6.2249 38.9122C6.36497 38.745 6.61231 38.7245 6.77736 38.8664L15.6904 46.5323C15.8555 46.6743 15.8757 46.925 15.7356 47.0922L14.4421 48.637C14.302 48.8042 14.0547 48.8248 13.8896 48.6828L4.97657 41.0169C4.81153 40.8749 4.79128 40.6242 4.93135 40.457Z" fill="#FF6B6B"/>
<path d="M15.125 39.6189L13.559 38.2721C13.4898 38.2125 13.4001 38.1833 13.3096 38.1908C13.2191 38.1983 13.1352 38.242 13.0765 38.3121L5.47467 47.39C5.40741 47.4704 5.37438 47.5745 5.38286 47.6795C5.39134 47.7845 5.44064 47.8818 5.5199 47.9499L7.04804 49.2643C7.12729 49.3324 7.23002 49.3659 7.33363 49.3573C7.43723 49.3487 7.53323 49.2987 7.6005 49.2184L15.1647 40.1855C15.2319 40.1051 15.265 40.001 15.2565 39.896C15.248 39.791 15.1987 39.6937 15.1194 39.6256L15.125 39.6189Z" fill="#FF6B6B"/>
<path d="M12.6278 44.3418C13.0396 44.7582 13.472 45.153 13.9235 45.5248C14.3557 45.9198 14.8076 46.2921 15.2773 46.6402C14.8654 46.2234 14.433 45.828 13.9817 45.4554C13.5493 45.0611 13.0975 44.6895 12.6278 44.3418Z" fill="white"/>
<path d="M6.72349 39.2266C6.70638 39.2456 7.3602 39.8319 8.18005 40.5362C8.9999 41.2404 9.67769 41.7938 9.69309 41.7747C9.7085 41.7556 9.0581 41.1711 8.23653 40.4668C7.41497 39.7625 6.7389 39.2075 6.72349 39.2266Z" fill="white"/>
<path d="M12.3355 42.9108C12.3543 42.9264 12.8592 42.3036 13.4634 41.5231C14.0676 40.7425 14.5417 40.0937 14.5229 40.0781C14.1233 40.5209 13.7462 40.9841 13.3932 41.4658C13.0162 41.9286 12.6631 42.4109 12.3355 42.9108Z" fill="white"/>
<path d="M7.82199 48.1147C8.23248 47.7317 8.62216 47.3263 8.98929 46.9005C9.37894 46.4951 9.74634 46.0683 10.0898 45.6221C9.68067 46.0065 9.29107 46.4118 8.92254 46.8363C8.53371 47.2425 8.16635 47.6692 7.82199 48.1147Z" fill="white"/>
<path d="M63.8678 47.4713L63.5957 46.4444L70.9333 47.9258L77.4151 38.689L78.2058 40.1807C78.2665 40.2942 78.2983 40.4212 78.2983 40.5502C78.2983 40.6792 78.2665 40.8062 78.2058 40.9197L72.5781 51.3603C72.4779 51.5458 72.3422 51.7091 72.1788 51.8406C72.0154 51.9721 71.8277 52.0692 71.6267 52.1261C71.4258 52.183 71.2156 52.1986 71.0087 52.1719C70.8017 52.1453 70.602 52.0769 70.4215 51.9709L64.7425 48.6352C64.5283 48.5091 64.3408 48.3413 64.1907 48.1416C64.0406 47.9419 63.9309 47.7141 63.8678 47.4713Z" fill="#6BCB77"/>
<g opacity="0.3">
<path d="M63.8678 47.4713L63.5957 46.4444L70.9333 47.9258L77.4151 38.689L78.2058 40.1807C78.2665 40.2942 78.2983 40.4212 78.2983 40.5502C78.2983 40.6792 78.2665 40.8062 78.2058 40.9197L72.5781 51.3603C72.4779 51.5458 72.3422 51.7091 72.1788 51.8406C72.0154 51.9721 71.8277 52.0692 71.6267 52.1261C71.4258 52.183 71.2156 52.1986 71.0087 52.1719C70.8017 52.1453 70.602 52.0769 70.4215 51.9709L64.7425 48.6352C64.5283 48.5091 64.3408 48.3413 64.1907 48.1416C64.0406 47.9419 63.9309 47.7141 63.8678 47.4713Z" fill="#333333"/>
</g>
<path d="M63.616 45.9554L64.6737 44.0577C64.7465 43.9267 64.8659 43.8289 65.0076 43.7844C65.1492 43.7399 65.3023 43.752 65.4354 43.8184L69.6801 45.9259C69.8159 45.9929 69.972 46.0039 70.1156 45.9567C70.2592 45.9094 70.3792 45.8076 70.4503 45.6727L74.6608 37.6657C74.6982 37.5946 74.7494 37.5321 74.8115 37.4818C74.8736 37.4316 74.9452 37.3948 75.0218 37.3737C75.0985 37.3526 75.1786 37.3476 75.2572 37.359C75.3358 37.3704 75.4113 37.3981 75.479 37.4402L77.1906 38.507C77.3176 38.5859 77.4098 38.7113 77.4484 38.8571C77.4869 39.003 77.4688 39.1583 77.3977 39.291L71.8932 49.4923C71.7154 49.8222 71.4164 50.0678 71.0611 50.1759C70.7058 50.2841 70.3228 50.246 69.9951 50.0699L63.8487 46.7741C63.7792 46.7372 63.7177 46.6863 63.6681 46.6246C63.6184 46.5629 63.5816 46.4916 63.5599 46.4151C63.5381 46.3386 63.5319 46.2585 63.5415 46.1794C63.5512 46.1004 63.5765 46.0242 63.616 45.9554Z" fill="#6BCB77"/>
<path d="M69.391 46.4116C69.3125 46.3881 69.2363 46.3573 69.1634 46.3197L68.5592 46.0421C68.0457 45.8028 67.3508 45.468 66.5806 45.0933L66.0175 44.8192L65.7505 44.6891C65.6717 44.6451 65.5849 44.618 65.4954 44.6093C65.4132 44.6021 65.3303 44.6117 65.2518 44.6376C65.1732 44.6636 65.1007 44.7053 65.0384 44.7603C64.9351 44.8685 64.8512 44.9941 64.7903 45.1315L64.4599 45.716C64.4224 45.7894 64.3783 45.859 64.3281 45.9242C64.3546 45.8459 64.3884 45.7704 64.4291 45.6987L64.7338 45.1002L64.8365 44.9025C64.8754 44.8275 64.9269 44.76 64.9888 44.703C65.0585 44.6407 65.1399 44.5932 65.2281 44.5634C65.3164 44.5336 65.4096 44.5221 65.5023 44.5296C65.6023 44.5378 65.6996 44.5667 65.7881 44.6146L66.0551 44.7429L66.6165 45.0118C67.3867 45.3865 68.0833 45.7316 68.5848 45.9849L69.1839 46.2885C69.2561 46.3238 69.3253 46.365 69.391 46.4116Z" fill="white"/>
<path d="M70.9457 46.0666C70.9235 46.0544 71.8152 44.2678 72.938 42.077C74.0608 39.8861 74.9919 38.1168 75.009 38.129C75.0261 38.1411 74.1395 39.926 73.0167 42.1186C71.8939 44.3111 70.9663 46.077 70.9457 46.0666Z" fill="white"/>
</g>
<defs>
<clipPath id="clip0_1685_13178">
<rect width="80" height="80" fill="white"/>
</clipPath>
</defs>
</svg>
