<svg width="80" height="80" viewBox="0 0 80 80" fill="none" xmlns="http://www.w3.org/2000/svg">
<g clip-path="url(#clip0_1928_36234)">
<path d="M3.44846 38.7845C2.86273 38.4178 2.2008 38.1901 1.51342 38.1189C1.19677 38.0864 0.851714 38.0959 0.59867 38.288C0.569325 38.3046 0.545025 38.3288 0.528348 38.3581C0.511671 38.3874 0.503239 38.4207 0.503947 38.4544C0.518695 38.5023 0.550457 38.5432 0.593257 38.5694C1.00431 38.8621 1.48761 39.0369 1.99087 39.0748C2.49413 39.1128 2.99817 39.0124 3.44846 38.7845Z" fill="#247100"/>
<path d="M3.39868 38.731C2.95158 38.4019 2.53453 38.0338 2.1524 37.6311C1.76757 37.2259 1.4972 36.7259 1.36891 36.1821C1.34354 36.1018 1.33585 36.0169 1.34636 35.9333C1.35687 35.8497 1.38534 35.7693 1.42981 35.6978C2.42304 36.4716 3.20518 37.4823 3.39868 38.731Z" fill="#247100"/>
<path d="M3.43764 38.7782C3.34437 38.2344 3.35217 37.6781 3.46064 37.1371C3.57212 36.5925 3.8841 36.1097 4.3348 35.7842C4.50665 36.1901 4.43222 36.65 4.31179 37.0708C4.12324 37.7221 3.83031 38.3384 3.4444 38.8959" fill="#247100"/>
<path d="M4.41439 40.5298C3.8217 40.6015 3.30614 40.914 2.86365 41.3158C2.418 41.7204 2.10762 42.2523 1.97461 42.8392C2.55648 42.8027 3.05715 42.3928 3.40762 41.9328C3.7581 41.4728 4.01385 40.9695 4.40627 40.5393" fill="#247100"/>
<path d="M4.62565 40.8074C4.39217 40.2148 4.31036 39.5733 4.38763 38.9411C4.4649 38.3089 4.69881 37.706 5.06813 37.187C5.40508 38.3884 5.28194 39.7454 4.62565 40.8074Z" fill="#247100"/>
<path d="M5.91752 42.3443C5.37544 42.3102 4.83533 42.4365 4.36461 42.7074C3.89389 42.9784 3.51342 43.3819 3.2707 43.8677C3.23822 43.9327 3.20845 44.0165 3.25311 44.0747C3.27603 44.097 3.30404 44.1133 3.33469 44.1222C3.36535 44.1312 3.39773 44.1325 3.42902 44.1261C3.94999 44.0923 4.41278 43.7784 4.79438 43.4213C5.17597 43.0641 5.5075 42.6514 5.92969 42.3389" fill="#247100"/>
<path d="M5.87653 42.2602C5.59833 41.3659 5.58097 40.4109 5.82646 39.507C5.92389 39.1526 6.08627 38.7792 6.41374 38.6141C6.42692 38.6053 6.44178 38.5993 6.45738 38.5965C6.47298 38.5937 6.48899 38.5942 6.50441 38.5979C6.53066 38.6125 6.55082 38.636 6.56124 38.6642C6.67016 38.9121 6.71663 39.1829 6.69656 39.4529C6.67724 39.7223 6.63605 39.9898 6.57342 40.2525C6.46922 40.7409 6.4151 41.2672 6.14717 41.6879C6.08375 41.7893 6.02681 41.8946 5.97667 42.0032C5.92525 42.1101 5.92525 42.1479 5.87924 42.2332" fill="#247100"/>
<path d="M9.29203 42.7692C9.03898 41.8073 9.30827 40.6397 9.91449 39.851C9.95914 39.7928 10.0187 39.7306 10.0918 39.7373C10.2027 39.7468 10.2271 39.8956 10.2271 40.0079C10.1809 40.9979 9.8569 41.9548 9.29203 42.7692Z" fill="#247100"/>
<path d="M9.5957 42.9796C10.193 43.12 10.8137 43.1293 11.415 43.0069C12.0163 42.8846 12.5839 42.6334 13.0788 42.2707C12.4963 41.9775 11.83 41.8957 11.1938 42.0393C10.5632 42.1827 9.98677 42.4655 9.5957 42.9796Z" fill="#247100"/>
<path d="M9.86523 42.339C10.5202 41.2716 11.7759 40.5735 13.0263 40.5112C12.8828 41.0199 12.4647 41.415 11.9924 41.6544C11.5202 41.8939 10.9938 41.9967 10.4742 42.0982C10.2725 42.1374 9.99514 42.1807 9.86523 42.339Z" fill="#247100"/>
<path d="M9.35849 39.2285C9.55716 38.6272 9.6932 38.007 9.76444 37.3778C9.81316 36.7459 9.7225 36.0871 9.39503 35.5459C8.78339 36.7297 8.71844 38.1164 9.34225 39.2921" fill="#247100"/>
<path d="M11.418 38.188C12.1324 36.8878 13.5925 35.8488 15.0715 35.7026C14.5019 37.1219 12.9471 38.2177 11.418 38.188Z" fill="#247100"/>
<path d="M10.9688 38.4427C12.0351 38.6051 12.9444 39.2869 13.9457 39.6996C14.1558 39.8019 14.3894 39.8462 14.6223 39.8281C14.73 39.8268 14.8346 39.7925 14.9222 39.7298C15.0097 39.6672 15.076 39.5792 15.1119 39.4778C15.1479 39.3763 15.1519 39.2663 15.1234 39.1625C15.0949 39.0587 15.0353 38.9661 14.9525 38.8973C14.8112 38.7671 14.645 38.6668 14.464 38.6024C13.3815 38.1491 12.2123 38.1383 11.0689 38.413" fill="#247100"/>
<path d="M10.3496 39.1907C10.5918 39.2597 10.6744 39.3855 10.8652 39.5478C11.5177 40.1025 12.2898 40.4989 13.1209 40.7059C13.2062 40.7276 13.3198 40.7357 13.3631 40.6586C13.4064 40.5815 13.3523 40.5084 13.3036 40.4475C12.9417 40.0222 12.4712 39.7029 11.9423 39.5235C11.4227 39.33 10.9707 39.096 10.3496 39.146" fill="#247100"/>
<path d="M9.65234 34.6706C10.09 35.074 10.6071 35.3814 11.1706 35.5732C11.7341 35.7649 12.3314 35.8368 12.9243 35.7841C12.9787 35.7848 13.0315 35.7661 13.0732 35.7313C13.1557 35.6406 13.0569 35.5026 12.9609 35.4282C11.9988 34.6787 10.8337 34.3675 9.65234 34.6706Z" fill="#247100"/>
<path d="M10.4785 34.3682C11.0574 33.9416 11.7291 33.6579 12.4386 33.5404C13.1481 33.4228 13.8754 33.4747 14.5611 33.6918C14.0271 34.1874 13.3415 34.4882 12.6152 34.5455C11.8979 34.6116 11.1746 34.5507 10.4785 34.3655" fill="#247100"/>
<path d="M10.1506 32.2922C10.0572 31.3316 10.1181 30.574 10.0518 29.6093C10.0518 29.5322 10.0288 29.4402 9.95706 29.4118C9.85693 29.3739 9.77303 29.497 9.74055 29.5999C9.60044 30.0465 9.56417 30.5193 9.63453 30.9821C9.70488 31.445 9.87999 31.8856 10.1465 32.2705" fill="#247100"/>
<path d="M10.082 32.3979C10.7093 31.993 11.2502 31.4679 11.6734 30.8528C11.9873 30.4226 12.2525 29.9058 12.1808 29.3809C11.9596 29.3865 11.7423 29.4405 11.5441 29.5388C11.3459 29.6372 11.1716 29.7777 11.0333 29.9504C10.7593 30.2977 10.5602 30.698 10.4487 31.1261C10.3215 31.5496 10.2322 31.9825 10.082 32.3979Z" fill="#247100"/>
<path d="M11.6439 31.9631C13.0759 31.4336 14.4017 30.6524 15.5587 29.6564C15.0905 29.4683 14.5546 29.5806 14.0878 29.7687C13.0274 30.1716 12.1513 30.9489 11.625 31.9536" fill="#247100"/>
<path d="M10.5209 32.9227C11.2435 33.0025 11.9769 33.058 12.6941 32.9335C13.4113 32.809 14.0649 32.5371 14.7239 32.257C14.7805 32.2406 14.8288 32.2034 14.8592 32.1529C14.8699 32.1223 14.871 32.0891 14.8623 32.0579C14.8536 32.0267 14.8355 31.9989 14.8105 31.9783C14.7594 31.9388 14.7003 31.911 14.6373 31.8972C13.9214 31.6983 13.1488 31.7916 12.4451 32.0324C11.774 32.2618 11.1286 32.5606 10.5195 32.924" fill="#247100"/>
<path d="M6.39535 34.7045C5.90279 33.7088 5.93392 32.548 6.36017 31.5225C6.66057 31.9797 6.69711 32.5615 6.64163 33.104C6.58615 33.6465 6.42106 34.208 6.41159 34.7532" fill="#247100"/>
<path d="M4.42465 33.7113C3.80727 33.7032 3.19501 33.8242 2.62712 34.0665C2.05924 34.3088 1.54826 34.6671 1.12695 35.1184C1.74879 35.1926 2.37849 35.0756 2.93209 34.7828C3.48201 34.4915 4.00072 34.1447 4.48013 33.7478" fill="#247100"/>
<path d="M3.10013 33.2673C2.49797 33.2186 1.91881 33.1442 1.341 33.3214C1.04896 33.4039 0.778059 33.5481 0.546684 33.7445C0.315308 33.9408 0.128866 34.1845 0 34.4592C0.568239 34.5053 1.13841 34.3978 1.65088 34.1481C2.15951 33.8987 2.64457 33.6039 3.10013 33.2673Z" fill="#247100"/>
<path d="M5.06169 33.288C4.52042 32.9336 3.96426 32.5723 3.33368 32.4249C2.7031 32.2774 1.97103 32.387 1.53125 32.8619C2.04275 33.1622 2.66115 33.1974 3.25385 33.1974C3.84654 33.1974 4.57184 33.1893 5.12935 33.3868" fill="#247100"/>
<path d="M5.0659 33.3175C4.14032 32.4083 3.78985 30.774 4.16198 29.5293C4.894 30.6488 5.21358 31.9881 5.0659 33.3175Z" fill="#247100"/>
<path d="M7.61133 30.7421C7.78589 30.3362 7.90903 29.91 8.066 29.4961C8.20922 29.0788 8.42852 28.6916 8.71282 28.3542C9.00247 28.0132 9.41465 27.7999 9.86031 27.7603C9.71773 28.3864 9.44613 28.9759 9.06286 29.4912C8.67959 30.0065 8.19306 30.4362 7.63433 30.7529" fill="#247100"/>
<path d="M7.15234 31.2773C6.86276 30.8796 6.52852 30.3398 6.13745 30.0435C5.74639 29.7472 5.23488 29.5672 4.75586 29.6809C5.00352 30.1151 5.34912 30.4855 5.76516 30.7626C6.18119 31.0398 6.65619 31.216 7.15234 31.2773Z" fill="#247100"/>
<path d="M7.24474 30.7742C7.03768 30.3017 6.88426 29.8075 6.78737 29.3009C6.69358 28.7851 6.77755 28.2529 7.02553 27.791C7.53432 28.7516 7.70212 29.7825 7.27722 30.785" fill="#247100"/>
<path d="M7.61854 27.7907C7.90541 26.8437 8.77821 26.1375 9.72003 25.8155C9.83649 25.7677 9.96273 25.7487 10.0881 25.76C10.1506 25.767 10.2096 25.7924 10.2577 25.8328C10.3059 25.8732 10.341 25.927 10.3587 25.9873C10.3926 26.1496 10.2586 26.2944 10.1327 26.4013C9.39686 27.0298 8.54108 27.5025 7.61719 27.7907" fill="#247100"/>
<path d="M7.62637 27.013C7.6629 26.3988 7.70214 25.7751 7.897 25.1933C8.09186 24.6116 8.48158 24.0664 9.04179 23.812C9.13787 24.4316 8.86317 25.0486 8.53435 25.5816C8.20553 26.1147 7.80634 26.6193 7.60742 27.2146" fill="#247100"/>
<path d="M7.6112 27.4352C7.37304 26.7412 7.34869 25.859 6.93461 25.2543C6.64368 24.8322 6.17819 24.544 5.92785 24.0962C5.77669 24.5257 5.79803 24.9971 5.98739 25.4112C6.17539 25.8208 6.43472 26.1937 6.75329 26.5125C7.06046 26.8399 7.32433 27.0875 7.60985 27.4352" fill="#247100"/>
<path d="M7.61866 47.875C7.59972 47.875 7.58348 43.2439 7.58212 37.5346C7.58077 31.8253 7.5943 27.1929 7.61325 27.1929C7.63219 27.1929 7.64843 31.8226 7.64978 37.5346C7.65114 43.2466 7.63625 47.875 7.61866 47.875Z" fill="#247100"/>
<path d="M11.6618 34.0049C11.6067 34.0331 11.5486 34.0554 11.4886 34.0712L11.0083 34.2322C10.6023 34.3675 10.0502 34.5691 9.44804 34.8166C8.84588 35.0642 8.28837 35.2793 7.96767 35.5567C7.83993 35.6634 7.73852 35.7981 7.67132 35.9504C7.62531 36.0586 7.61719 36.1249 7.61043 36.1236C7.60366 36.1222 7.61043 36.1073 7.61043 36.0762C7.61695 36.03 7.62828 35.9847 7.64426 35.9409C7.70467 35.7793 7.80416 35.6353 7.93384 35.5215C8.12804 35.3569 8.34498 35.2211 8.57795 35.1183C8.83506 34.9993 9.11922 34.8735 9.42234 34.7503C10.0259 34.5028 10.5861 34.3093 10.9947 34.1835C11.1977 34.1199 11.3655 34.0725 11.4805 34.0414C11.5399 34.0243 11.6005 34.012 11.6618 34.0049Z" fill="#247100"/>
<path d="M12.9901 30.7471C12.9901 30.7471 12.9738 30.7674 12.94 30.7998L12.7925 30.9351L12.2377 31.4398L10.3906 33.089C9.67073 33.7316 9.04691 34.3445 8.61525 34.8058C8.39874 35.0358 8.22959 35.2266 8.11322 35.3605L7.9779 35.5134C7.94678 35.5486 7.92919 35.5662 7.92784 35.5635C7.92648 35.5608 7.93866 35.5418 7.96708 35.5053C7.99549 35.4688 8.03609 35.4119 8.09157 35.3429C8.20253 35.2076 8.36221 35.0088 8.57871 34.7734C9.13469 34.1656 9.72186 33.5871 10.3378 33.0403C11.0618 32.4003 11.7194 31.8226 12.1985 31.41L12.7668 30.923L12.9238 30.7877C12.9441 30.7714 12.9663 30.7577 12.9901 30.7471Z" fill="#247100"/>
<path d="M9.61291 33.7396C9.59397 33.7301 9.74823 33.3824 9.89437 32.9441C10.0405 32.5057 10.1176 32.1323 10.1366 32.1323C10.1206 32.4159 10.0603 32.6953 9.95797 32.9603C9.89233 33.1514 9.81644 33.3388 9.73064 33.5218C9.70132 33.5993 9.66172 33.6726 9.61291 33.7396Z" fill="#247100"/>
<path d="M7.62221 36.5413C7.58037 36.5004 7.54316 36.455 7.51124 36.406L7.22572 36.0407C6.98756 35.7322 6.65739 35.306 6.28662 34.8393C5.91585 34.3725 5.5762 33.9531 5.32857 33.6514L5.03763 33.2915C5.0004 33.2494 4.9669 33.2042 4.9375 33.1562C4.98148 33.1924 5.02182 33.2327 5.05793 33.2767C5.13236 33.3578 5.23655 33.4755 5.3651 33.623C5.62086 33.9179 5.96727 34.3333 6.33939 34.8C6.71152 35.2668 7.03493 35.6984 7.26361 36.0177C7.37863 36.176 7.47065 36.3045 7.53425 36.3951C7.56814 36.4409 7.59759 36.4899 7.62221 36.5413Z" fill="#247100"/>
<path d="M6.73471 35.4026C6.55647 35.2062 6.42875 34.9694 6.36259 34.7126C6.29351 34.4853 6.26511 34.2476 6.27869 34.0104H6.30846C6.29493 34.0645 6.28545 34.0929 6.28004 34.0916C6.27463 34.0902 6.28004 34.0605 6.28004 34.0063H6.30981C6.32495 34.2355 6.36487 34.4623 6.42889 34.6828C6.51215 34.9302 6.6144 35.1709 6.73471 35.4026Z" fill="#247100"/>
<path d="M5.58804 33.9613C5.5087 33.9003 5.42184 33.8499 5.32958 33.8111C5.09595 33.7411 4.85017 33.7213 4.60834 33.7529C4.36378 33.7725 4.12122 33.8118 3.88304 33.8706C3.78526 33.9019 3.6853 33.9258 3.58398 33.9423C3.67289 33.8894 3.76909 33.8497 3.86951 33.8246C4.10824 33.7527 4.35421 33.7073 4.60293 33.6894C4.85383 33.6564 5.10898 33.6837 5.34718 33.7692C5.44727 33.8034 5.53239 33.8713 5.58804 33.9613Z" fill="#247100"/>
<path d="M5.31536 33.6126C5.31536 33.6234 5.16381 33.5517 4.91753 33.4679C4.59647 33.3596 4.26337 33.291 3.92565 33.2636C3.58743 33.2389 3.24745 33.2561 2.91347 33.315C2.65772 33.361 2.50752 33.4097 2.49805 33.3975C2.5312 33.3782 2.56666 33.3632 2.60359 33.3529C2.70178 33.3183 2.80213 33.2903 2.904 33.269C3.58111 33.1208 4.28684 33.1744 4.93377 33.4232C5.03086 33.4606 5.12574 33.5035 5.21793 33.5517C5.25322 33.5671 5.28605 33.5877 5.31536 33.6126Z" fill="#247100"/>
<path d="M7.61322 32.1417C7.49563 31.8121 7.39891 31.4755 7.32364 31.1338C7.22727 30.7983 7.1518 30.4571 7.09766 30.1123C7.21696 30.441 7.31415 30.7772 7.38859 31.1189C7.48502 31.4547 7.56005 31.7963 7.61322 32.1417Z" fill="#247100"/>
<path d="M7.63025 32.1416C7.5367 31.9334 7.42909 31.7318 7.3082 31.5382C7.17136 31.3567 7.01275 31.1927 6.83594 31.0498C6.90341 31.0666 6.96598 31.0991 7.01862 31.1445C7.15259 31.2432 7.2692 31.3634 7.36368 31.5003C7.50744 31.6869 7.59939 31.9081 7.63025 32.1416Z" fill="#247100"/>
<path d="M7.61917 45.3999C7.61105 45.3999 7.59752 45.289 7.54609 45.0928C7.46905 44.816 7.36527 44.5473 7.23622 44.2905C6.91551 43.6371 6.33365 42.8023 5.59481 41.9784C5.2281 41.559 4.87221 41.1666 4.57046 40.7865C4.29946 40.4537 4.0547 40.1005 3.83839 39.7298C3.69303 39.4796 3.56901 39.2175 3.46762 38.9465C3.43379 38.8504 3.40943 38.7747 3.3959 38.7219C3.38609 38.6963 3.37972 38.6694 3.37695 38.6421C3.37695 38.6421 3.4162 38.749 3.49197 38.937C3.60144 39.2065 3.7308 39.4674 3.87898 39.7177C4.10006 40.0817 4.34697 40.4294 4.61782 40.7581C4.92093 41.1328 5.27682 41.5252 5.64488 41.9446C6.38642 42.7766 6.96694 43.6168 7.27817 44.2811C7.40514 44.5401 7.50317 44.8123 7.57045 45.0928C7.58837 45.1696 7.60237 45.2473 7.6124 45.3255C7.61669 45.3501 7.61896 45.375 7.61917 45.3999Z" fill="#247100"/>
<path d="M11.2735 41.2765C11.2119 41.3164 11.1477 41.3521 11.0813 41.3834C10.9085 41.4816 10.7426 41.5914 10.5847 41.7122C10.3521 41.8933 10.134 42.0924 9.93247 42.3075C9.70243 42.5497 9.46698 42.8311 9.22612 43.1314C8.74438 43.7362 8.29378 44.2706 8.02449 44.6981C7.91518 44.8646 7.81446 45.0367 7.72274 45.2135C7.69141 45.2796 7.65616 45.3438 7.61719 45.4057C7.61719 45.4057 7.61719 45.3867 7.63478 45.3515C7.65237 45.3164 7.66861 45.265 7.69838 45.2014C7.78282 45.0195 7.87816 44.8428 7.9839 44.6724C8.24642 44.2354 8.69296 43.6929 9.17334 43.0895C9.41556 42.7878 9.65372 42.5064 9.88782 42.2655C10.0936 42.05 10.3172 41.8522 10.5563 41.6743C10.7179 41.5551 10.8894 41.4501 11.0691 41.3604C11.1327 41.3293 11.1855 41.309 11.2193 41.2941C11.2532 41.2793 11.2721 41.2738 11.2735 41.2765Z" fill="#247100"/>
<path d="M11.3455 42.6161C11.2118 42.6455 11.0761 42.6654 10.9395 42.6756C10.6141 42.7081 10.2924 42.771 9.97879 42.8637C9.66871 42.9652 9.37781 43.118 9.11817 43.3155C8.91925 43.4684 8.82588 43.5956 8.81641 43.5861C8.83133 43.5522 8.85192 43.5211 8.8773 43.4941C8.94023 43.4151 9.01095 43.3426 9.0884 43.2777C9.34475 43.064 9.63964 42.9015 9.95714 42.7987C10.2752 42.7044 10.603 42.6467 10.9341 42.6269C11.0706 42.6108 11.2083 42.6072 11.3455 42.6161Z" fill="#247100"/>
<path d="M8.93535 43.4416C8.9137 43.4294 9.09638 43.1507 9.23847 42.776C9.38055 42.4012 9.4022 42.0657 9.42656 42.0684C9.43609 42.1409 9.43381 42.2144 9.41979 42.2862C9.39937 42.4606 9.35943 42.6321 9.30071 42.7976C9.23956 42.962 9.16109 43.1193 9.06661 43.2671C9.03212 43.3317 8.98784 43.3905 8.93535 43.4416Z" fill="#247100"/>
<path d="M12.4575 37.6792C12.4378 37.6942 12.4159 37.706 12.3926 37.7144L12.2031 37.801C12.1192 37.8361 12.0177 37.8821 11.9041 37.9363C11.7904 37.9904 11.6564 38.0567 11.517 38.1392L11.2965 38.265C11.2193 38.3097 11.1436 38.3624 11.0624 38.4125C10.9 38.5112 10.7363 38.633 10.5631 38.7575C9.81629 39.3122 9.16538 39.9854 8.63613 40.7503C8.51705 40.9289 8.40068 41.0967 8.30866 41.2617C8.25995 41.3443 8.21123 41.4227 8.17334 41.4998L8.05562 41.7258C7.97713 41.8611 7.9203 42.0031 7.86482 42.1195C7.80934 42.2358 7.76739 42.3373 7.7295 42.4225C7.69161 42.5078 7.66996 42.5646 7.64966 42.616C7.64066 42.6385 7.6298 42.6602 7.61719 42.6809C7.6203 42.6567 7.62667 42.6331 7.63613 42.6106C7.65372 42.5592 7.67673 42.4929 7.70514 42.4131C7.73993 42.3082 7.78012 42.2053 7.82558 42.1046C7.877 41.9855 7.93112 41.8476 8.00826 41.6987L8.12192 41.4701C8.16252 41.3916 8.21123 41.3118 8.25724 41.2293C8.34926 41.0602 8.46428 40.891 8.582 40.7097C9.11037 39.9354 9.76653 39.2565 10.5225 38.702C10.6997 38.5789 10.8648 38.4571 11.0299 38.3597C11.1124 38.3097 11.1896 38.2583 11.2667 38.215L11.4913 38.0932C11.6267 38.012 11.762 37.9579 11.8851 37.897C12.0083 37.8361 12.1043 37.7983 12.1896 37.7617L12.3858 37.6873C12.4093 37.6821 12.4334 37.6794 12.4575 37.6792Z" fill="#247100"/>
<path d="M9.5625 39.6182C9.59064 39.525 9.6463 39.4425 9.72218 39.3815C9.90072 39.2272 10.1276 39.1401 10.3636 39.1353C10.5958 39.1355 10.8257 39.1815 11.0402 39.2705C11.1303 39.2995 11.2159 39.341 11.2946 39.3937C11.2021 39.3758 11.1116 39.3496 11.0239 39.3152C10.8121 39.2431 10.59 39.2061 10.3663 39.2056C10.1447 39.2102 9.93032 39.2855 9.75465 39.4207C9.68631 39.4822 9.62212 39.5482 9.5625 39.6182Z" fill="#247100"/>
<path d="M9.13086 40.0649C9.32227 39.6913 9.3704 39.2606 9.26618 38.854C9.30472 38.905 9.33068 38.9643 9.34195 39.0272C9.41936 39.3256 9.38218 39.6423 9.23776 39.9147C9.18905 40.0175 9.13763 40.0703 9.13086 40.0649Z" fill="#247100"/>
<path d="M4.41797 46.0771C4.5181 47.8454 5.05126 49.6462 5.87128 51.4645H9.43826C10.2204 49.6637 10.717 47.8671 10.805 46.0771H4.41797Z" fill="#247100"/>
<path d="M10.2267 48.9332C10.2267 48.9522 9.05218 48.9671 7.60428 48.9671C6.15638 48.9671 4.98047 48.9522 4.98047 48.9332C4.98047 48.9143 6.15503 48.8994 7.60428 48.8994C9.05353 48.8994 10.2267 48.9184 10.2267 48.9332Z" fill="#FAFAFA"/>
<path d="M10.146 49.5744C10.146 49.5919 9.04583 49.6068 7.68724 49.6068C6.32865 49.6068 5.22852 49.5919 5.22852 49.5744C5.22852 49.5568 6.32865 49.5405 7.68724 49.5405C9.04583 49.5405 10.146 49.5554 10.146 49.5744Z" fill="#FAFAFA"/>
<path d="M5.93031 47.2305C5.97362 47.7775 5.97362 48.3272 5.93031 48.8743C5.88521 48.3273 5.88521 47.7775 5.93031 47.2305Z" fill="#FAFAFA"/>
<path d="M7.83657 47.2305C7.88167 47.7969 7.88167 48.366 7.83657 48.9324C7.79146 48.366 7.79146 47.7969 7.83657 47.2305Z" fill="#FAFAFA"/>
<path d="M9.63382 47.2173C9.66774 47.505 9.67905 47.795 9.66765 48.0845C9.67905 48.374 9.66774 48.664 9.63382 48.9517C9.59991 48.664 9.5886 48.374 9.59999 48.0845C9.5886 47.795 9.59991 47.505 9.63382 47.2173Z" fill="#FAFAFA"/>
<path d="M10.692 47.2312C10.692 47.2501 9.31443 47.265 7.61484 47.265C5.91524 47.265 4.53906 47.2501 4.53906 47.2312C4.53906 47.2123 5.91524 47.1987 7.61484 47.1987C9.31443 47.1987 10.692 47.2136 10.692 47.2312Z" fill="#FAFAFA"/>
<path d="M90.5606 49.041C90.5606 49.0632 70.4795 49.0821 45.715 49.0821C20.9505 49.0821 0.865234 49.0616 0.865234 49.041C0.865234 49.0205 20.941 49 45.715 49C70.489 49 90.5606 49.0174 90.5606 49.041Z" fill="#1F1712"/>
<path d="M88.6353 67.0552C88.6353 67.0773 69.4202 67.0963 45.7152 67.0963C22.0102 67.0963 2.79102 67.0773 2.79102 67.0552C2.79102 67.0331 22.0061 67.0142 45.7152 67.0142C69.4242 67.0142 88.6353 67.0394 88.6353 67.0552Z" fill="#1F1712"/>
<path d="M72.6337 11.0332H19.3238C18.2885 11.0332 17.4492 11.8723 17.4492 12.9074V46.885C17.4492 47.9201 18.2885 48.7592 19.3238 48.7592H72.6337C73.669 48.7592 74.5083 47.9201 74.5083 46.885V12.9074C74.5083 11.8723 73.669 11.0332 72.6337 11.0332Z" fill="#727272"/>
<path d="M72.6343 48.7594L72.7565 48.7517C72.8062 48.7502 72.8557 48.7446 72.9044 48.735C72.9737 48.7267 73.0422 48.7125 73.109 48.6925C73.3009 48.6444 73.4832 48.564 73.6481 48.4546C73.8777 48.3065 74.0715 48.1092 74.2155 47.877C74.3017 47.7399 74.3705 47.5925 74.42 47.4383C74.4704 47.2635 74.4973 47.0826 74.4998 46.9007C74.4998 46.5148 74.4998 46.0993 74.4998 45.6452C74.4998 44.7383 74.4998 43.6912 74.4998 42.5129C74.4998 37.7985 74.4998 30.9757 74.4895 22.5463C74.4895 20.4392 74.4895 18.234 74.4895 15.9306V13.2974C74.5076 13.0028 74.4847 12.7071 74.4213 12.4188C74.342 12.1309 74.194 11.8666 73.9901 11.6483C73.7862 11.4301 73.5324 11.2646 73.2505 11.1659C73.1798 11.1409 73.1076 11.1203 73.0344 11.1042C72.961 11.0888 72.8864 11.0785 72.8118 11.0695C72.6613 11.0592 72.5082 11.0605 72.3538 11.0617H71.4223H55.5972H19.3308C18.9339 11.0623 18.5477 11.1906 18.2293 11.4276C17.911 11.6645 17.6773 11.9977 17.563 12.3777C17.5089 12.5667 17.4829 12.7626 17.4858 12.9591V19.4822C17.4858 22.6149 17.4858 25.6987 17.4858 28.7336C17.4858 34.8 17.4858 40.6503 17.4858 46.2279V46.7424C17.4809 46.9148 17.4939 47.0872 17.5244 47.257C17.5956 47.5909 17.7571 47.8988 17.9914 48.1471C18.1076 48.2702 18.2406 48.3763 18.3864 48.4623C18.4586 48.5054 18.5333 48.5441 18.6103 48.578C18.6882 48.6098 18.7681 48.6365 18.8496 48.6578C19.1738 48.753 19.5173 48.717 19.857 48.7234H31.5585H45.3495L65.3174 48.735L70.7468 48.7414L65.3174 48.7478L45.3495 48.7581H31.5585H23.875H19.3423C19.1686 48.7591 18.9955 48.7366 18.8277 48.6912C18.7438 48.6688 18.6613 48.6414 18.5807 48.6089C18.5013 48.573 18.424 48.5326 18.3491 48.488C18.1987 48.3995 18.0618 48.2899 17.9425 48.1626C17.8215 48.036 17.7189 47.8931 17.6376 47.7381C17.557 47.5818 17.4969 47.4158 17.4588 47.2441C17.4276 47.071 17.4142 46.8951 17.4189 46.7193V46.2047C17.4189 40.631 17.4189 34.7807 17.4189 28.7104V12.9643C17.4152 12.7611 17.4421 12.5586 17.4986 12.3635C17.6172 11.9697 17.8593 11.6245 18.1892 11.3789C18.5192 11.1334 18.9194 11.0005 19.3308 11H55.5972H71.4223H72.3473C72.5017 11 72.6536 11 72.8092 11.009C72.8865 11.0167 72.9634 11.0283 73.0395 11.0437C73.3775 11.1197 73.6886 11.2857 73.9399 11.5242C74.1911 11.7627 74.373 12.0647 74.4664 12.3983L74.4947 12.5076C74.5024 12.5449 74.5062 12.5822 74.5127 12.6195C74.5246 12.694 74.5315 12.7692 74.5333 12.8446C74.5333 12.9951 74.5333 13.1431 74.5333 13.291V14.1747C74.5333 14.7613 74.5333 15.3423 74.5333 15.9177C74.5333 18.2186 74.5333 20.4238 74.5333 22.5334C74.5333 30.9628 74.5243 37.7856 74.5217 42.5001C74.5217 43.6784 74.5217 44.7254 74.5217 45.6323C74.5217 46.0864 74.5217 46.5057 74.5217 46.8878C74.5189 47.0716 74.4912 47.2542 74.4393 47.4306C74.3899 47.5878 74.3203 47.7378 74.2322 47.877C74.0867 48.1109 73.8907 48.3091 73.6584 48.4571C73.4925 48.5657 73.3093 48.6453 73.1167 48.6925C73.0494 48.712 72.9805 48.7257 72.9109 48.7337C72.8616 48.7426 72.8117 48.7474 72.7616 48.7478L72.6343 48.7594Z" fill="#1F1712"/>
<path d="M74.7481 49.6255H17.5076C16.9004 49.6251 16.3183 49.3837 15.8891 48.9544C15.4599 48.525 15.2187 47.9428 15.2188 47.3358V46.3247H77.0382V47.3358C77.0382 47.943 76.7969 48.5254 76.3674 48.9548C75.9379 49.3842 75.3554 49.6255 74.7481 49.6255Z" fill="#727272"/>
<path d="M74.7482 49.625H74.8229C74.8965 49.6223 74.9699 49.6159 75.0429 49.6057L75.2063 49.5799L75.4005 49.5298C75.4713 49.5092 75.5434 49.4783 75.6231 49.45C75.7029 49.4217 75.7839 49.3767 75.8676 49.3291C76.0562 49.2214 76.2294 49.0886 76.3822 48.9342C76.7838 48.5193 77.0136 47.9679 77.0255 47.3906C77.0255 47.06 77.0255 46.705 77.0255 46.3281L77.0384 46.3396L17.5116 46.3615H15.2189L15.2524 46.3281V47.132C15.239 47.3968 15.2651 47.6621 15.3296 47.9193C15.4655 48.4309 15.7775 48.8783 16.2109 49.1825C16.6434 49.4819 17.1641 49.6273 17.6892 49.5954H37.0743L56.7231 49.6031L69.9209 49.6134L73.5015 49.6198H69.9209L56.7231 49.6301L37.0743 49.6378H17.6892C17.1541 49.6769 16.6213 49.5366 16.1749 49.2391C15.731 48.9244 15.4122 48.4635 15.2742 47.9373C15.2086 47.6746 15.1817 47.4038 15.1945 47.1333V46.2959H17.5206L77.0474 46.3165H77.059V46.3293C77.059 46.7062 77.059 47.06 77.059 47.3932C77.0394 47.9747 76.7993 48.527 76.3874 48.9381C76.2344 49.0926 76.0613 49.2259 75.8727 49.3342C75.7878 49.3818 75.7042 49.4179 75.627 49.4539C75.5498 49.4899 75.4726 49.5131 75.4018 49.5323L75.2063 49.5812L75.0429 49.6057C74.9695 49.6157 74.8956 49.6208 74.8216 49.6211L74.7482 49.625Z" fill="#1F1712"/>
<path d="M40.3535 46.3228L41.1203 47.5422H51.9148L52.6263 46.3228H40.3535Z" fill="#1F1712"/>
<path d="M70.7288 13.6113H21.1809C20.5783 13.6113 20.0898 14.0997 20.0898 14.7022V43.1986C20.0898 43.801 20.5783 44.2894 21.1809 44.2894H70.7288C71.3314 44.2894 71.8198 43.801 71.8198 43.1986V14.7022C71.8198 14.0997 71.3314 13.6113 70.7288 13.6113Z" fill="#F8F5F2"/>
<path d="M70.705 44.2892C70.8451 44.2863 70.9837 44.2584 71.1141 44.2068C71.2747 44.1429 71.4179 44.042 71.5322 43.9123C71.6906 43.733 71.7872 43.5075 71.8076 43.2691C71.8153 42.186 71.8076 40.5845 71.8076 38.5238C71.8076 34.4075 71.8076 28.4388 71.796 21.0706C71.796 19.2286 71.796 17.299 71.796 15.282V14.909C71.8017 14.7839 71.7957 14.6586 71.778 14.5347C71.7343 14.2869 71.6055 14.0622 71.4139 13.8992C71.2202 13.7362 70.9761 13.6453 70.723 13.642H66.7461H52.9101H21.2072C21.0364 13.642 20.8681 13.6824 20.7159 13.7597C20.5636 13.8371 20.4318 13.9492 20.331 14.087C20.2298 14.2243 20.1636 14.3841 20.138 14.5527C20.1226 14.7237 20.1175 14.8956 20.1226 15.0672V29.3868C20.1226 32.0384 20.1226 34.6407 20.1226 37.1937V40.9781C20.1226 41.6007 20.1226 42.222 20.1226 42.8382C20.1226 42.9912 20.1226 43.1495 20.1303 43.2961C20.1552 43.5195 20.2492 43.7297 20.399 43.8973C20.5489 44.0649 20.7473 44.1816 20.9666 44.2313C21.1143 44.2572 21.2645 44.2663 21.4143 44.2583H34.7949H46.8503L64.3067 44.2686L69.053 44.275L64.3067 44.2815L46.8503 44.2917H34.7949H21.4143C21.2602 44.2998 21.1056 44.2898 20.9537 44.2622C20.722 44.2096 20.5123 44.0862 20.3537 43.9092C20.1951 43.7322 20.0955 43.5103 20.0686 43.2742C20.0544 43.1147 20.0686 42.9642 20.0608 42.8099V40.9781C20.0608 39.7304 20.0608 38.4689 20.0608 37.1937V29.3868C20.0608 26.7361 20.0608 24.0404 20.0608 21.2996V15.0737C20.0551 14.8973 20.0603 14.7207 20.0763 14.545C20.1036 14.3656 20.1743 14.1956 20.2821 14.0497C20.3889 13.9032 20.5289 13.7841 20.6906 13.702C20.8522 13.62 21.031 13.5774 21.2123 13.5776H52.9152H66.7513H70.7268C70.9918 13.5813 71.2473 13.6772 71.4492 13.8488C71.6511 14.0205 71.7869 14.2571 71.8333 14.518C71.8509 14.6458 71.8569 14.7749 71.8513 14.9039V15.282C71.8513 17.2922 71.8513 19.2217 71.8513 21.0706C71.8513 28.4388 71.8436 34.4023 71.841 38.5238C71.841 40.5819 71.841 42.1847 71.8294 43.2704C71.8114 43.4774 71.736 43.6753 71.6117 43.8419C71.4873 44.0084 71.319 44.1371 71.1257 44.2133C71.0275 44.2515 70.9244 44.2758 70.8195 44.2853L70.705 44.2892Z" fill="#1F1712"/>
<g opacity="0.2">
<path d="M35.4431 24.7705H32.8249C32.4362 24.7705 32.1211 25.0855 32.1211 25.4741V29.5506C32.1211 29.9392 32.4362 30.2542 32.8249 30.2542H35.4431C35.8318 30.2542 36.1468 29.9392 36.1468 29.5506V25.4741C36.1468 25.0855 35.8318 24.7705 35.4431 24.7705Z" fill="#1F1712"/>
</g>
<g opacity="0.2">
<path d="M40.5075 24.7705H37.8893C37.5006 24.7705 37.1855 25.0855 37.1855 25.4741V29.5506C37.1855 29.9392 37.5006 30.2542 37.8893 30.2542H40.5075C40.8962 30.2542 41.2113 29.9392 41.2113 29.5506V25.4741C41.2113 25.0855 40.8962 24.7705 40.5075 24.7705Z" fill="#1F1712"/>
</g>
<g opacity="0.2">
<path d="M45.5739 24.7705H42.9557C42.567 24.7705 42.252 25.0855 42.252 25.4741V29.5506C42.252 29.9392 42.567 30.2542 42.9557 30.2542H45.5739C45.9626 30.2542 46.2777 29.9392 46.2777 29.5506V25.4741C46.2777 25.0855 45.9626 24.7705 45.5739 24.7705Z" fill="#1F1712"/>
</g>
<g opacity="0.2">
<path d="M50.6403 24.7695H48.0221C47.6334 24.7695 47.3184 25.0846 47.3184 25.4732V29.5496C47.3184 29.9382 47.6334 30.2532 48.0221 30.2532H50.6403C51.029 30.2532 51.3441 29.9382 51.3441 29.5496V25.4732C51.3441 25.0846 51.029 24.7695 50.6403 24.7695Z" fill="#1F1712"/>
</g>
<g opacity="0.2">
<path d="M55.7067 24.7695H53.0885C52.6999 24.7695 52.3848 25.0846 52.3848 25.4732V29.5496C52.3848 29.9382 52.6999 30.2532 53.0885 30.2532H55.7067C56.0954 30.2532 56.4105 29.9382 56.4105 29.5496V25.4732C56.4105 25.0846 56.0954 24.7695 55.7067 24.7695Z" fill="#1F1712"/>
</g>
<g opacity="0.2">
<path d="M60.7712 24.7695H58.153C57.7643 24.7695 57.4492 25.0846 57.4492 25.4732V29.5496C57.4492 29.9382 57.7643 30.2532 58.153 30.2532H60.7712C61.1599 30.2532 61.475 29.9382 61.475 29.5496V25.4732C61.475 25.0846 61.1599 24.7695 60.7712 24.7695Z" fill="#1F1712"/>
</g>
<path d="M34.555 27.5344L35.0375 27.7917L34.8214 28.1544L34.335 27.8663L34.3428 28.4014H33.931V27.8624L33.4447 28.1544L33.2324 27.7917L33.7136 27.5344L33.2324 27.2694L33.4447 26.9066L33.931 27.1986V26.6597H34.3466L34.3389 27.1986L34.8252 26.9066L35.0414 27.2694L34.555 27.5344Z" fill="#1F1712"/>
<path d="M51.4568 33.6206H42.1393C41.2135 33.6206 40.4629 34.371 40.4629 35.2967V35.6376C40.4629 36.5633 41.2135 37.3137 42.1393 37.3137H51.4568C52.3827 37.3137 53.1332 36.5633 53.1332 35.6376V35.2967C53.1332 34.371 52.3827 33.6206 51.4568 33.6206Z" fill="#3A8DFF"/>
<path d="M43.2559 35.3802C43.2628 35.2681 43.3024 35.1606 43.3699 35.0708C43.4374 34.9811 43.5297 34.9131 43.6354 34.8753C43.7412 34.8375 43.8557 34.8315 43.9647 34.8582C44.0738 34.8848 44.1727 34.9429 44.2491 35.0252L44.0947 35.1679C44.0633 35.1302 44.0239 35.0998 43.9795 35.0789C43.935 35.058 43.8865 35.0471 43.8374 35.047C43.749 35.047 43.6643 35.0821 43.6018 35.1446C43.5393 35.2071 43.5042 35.2918 43.5042 35.3802C43.5042 35.4685 43.5393 35.5533 43.6018 35.6158C43.6643 35.6782 43.749 35.7134 43.8374 35.7134C43.8872 35.7124 43.9361 35.7004 43.9806 35.6781C44.0251 35.6558 44.0641 35.6239 44.0947 35.5847L44.2491 35.7275C44.1731 35.8103 44.0745 35.8688 43.9654 35.8959C43.8563 35.923 43.7417 35.9174 43.6358 35.8798C43.5299 35.8423 43.4375 35.7744 43.3699 35.6846C43.3023 35.5948 43.2627 35.4872 43.2559 35.375V35.3802Z" fill="#FBFBFB"/>
<path d="M44.3075 35.4998C44.3019 35.4115 44.3229 35.3236 44.3678 35.2474C44.4127 35.1713 44.4795 35.1103 44.5594 35.0726C44.6394 35.0348 44.7289 35.0219 44.8163 35.0356C44.9037 35.0493 44.9849 35.0889 45.0495 35.1493C45.1141 35.2098 45.159 35.2882 45.1784 35.3745C45.1979 35.4607 45.191 35.5509 45.1586 35.6331C45.1262 35.7154 45.0698 35.7861 44.9967 35.8359C44.9236 35.8858 44.8373 35.9125 44.7488 35.9127C44.6923 35.9166 44.6355 35.9088 44.5821 35.8898C44.5287 35.8708 44.4797 35.841 44.4383 35.8022C44.3969 35.7635 44.364 35.7167 44.3415 35.6646C44.319 35.6126 44.3074 35.5565 44.3075 35.4998ZM44.9508 35.4998C44.9476 35.4598 44.9327 35.4217 44.9081 35.3901C44.8835 35.3585 44.8502 35.3347 44.8123 35.3218C44.7743 35.3088 44.7334 35.3072 44.6946 35.3171C44.6558 35.3271 44.6207 35.3481 44.5937 35.3777C44.5666 35.4073 44.5488 35.4442 44.5424 35.4837C44.5361 35.5233 44.5414 35.5638 44.5577 35.6004C44.574 35.637 44.6007 35.668 44.6344 35.6897C44.6682 35.7114 44.7075 35.7227 44.7476 35.7223C44.7761 35.7228 44.8045 35.7173 44.8307 35.706C44.857 35.6948 44.8806 35.6781 44.8999 35.6571C44.9192 35.636 44.9339 35.6111 44.9429 35.584C44.9519 35.5569 44.955 35.5282 44.9521 35.4998H44.9508Z" fill="#FBFBFB"/>
<path d="M46.1601 35.4415V35.8994H45.9285V35.4749C45.9285 35.3463 45.868 35.2858 45.7664 35.2858C45.6647 35.2858 45.5734 35.354 45.5734 35.502V35.8969H45.3418V35.0968H45.5631V35.1907C45.5975 35.1556 45.6389 35.1282 45.6845 35.11C45.7301 35.0919 45.779 35.0834 45.8281 35.0852C45.8747 35.0821 45.9213 35.0893 45.9647 35.1065C46.0081 35.1237 46.0471 35.1503 46.0788 35.1844C46.1106 35.2185 46.1344 35.2593 46.1485 35.3038C46.1625 35.3483 46.1665 35.3953 46.1601 35.4415Z" fill="#FBFBFB"/>
<path d="M46.8878 35.8611C46.8315 35.8972 46.7655 35.9151 46.6986 35.9125C46.659 35.918 46.6187 35.9144 46.5807 35.902C46.5427 35.8896 46.5081 35.8688 46.4793 35.841C46.4506 35.8133 46.4285 35.7794 46.4148 35.7418C46.4011 35.7043 46.3961 35.6641 46.4001 35.6244V35.2964H46.2715V35.1176H46.4001V34.9233H46.6317V35.1176H46.8311V35.2964H46.6317V35.6218C46.63 35.6357 46.6313 35.6497 46.6357 35.6629C46.64 35.6762 46.6472 35.6883 46.6568 35.6984C46.6665 35.7085 46.6782 35.7163 46.6912 35.7213C46.7042 35.7263 46.7182 35.7284 46.7321 35.7273C46.7657 35.7276 46.7986 35.7172 46.826 35.6977L46.8878 35.8611Z" fill="#FBFBFB"/>
<path d="M46.9902 34.8591C46.9901 34.8408 46.9939 34.8227 47.0013 34.806C47.0087 34.7893 47.0196 34.7743 47.0332 34.7622C47.0468 34.75 47.0629 34.7409 47.0803 34.7354C47.0978 34.7299 47.1162 34.7282 47.1343 34.7304C47.1525 34.7282 47.1709 34.7299 47.1883 34.7354C47.2058 34.7409 47.2218 34.75 47.2355 34.7622C47.2491 34.7743 47.26 34.7893 47.2674 34.806C47.2748 34.8227 47.2786 34.8408 47.2784 34.8591C47.2738 34.894 47.2566 34.926 47.2301 34.9492C47.2036 34.9723 47.1696 34.9851 47.1343 34.9851C47.0991 34.9851 47.0651 34.9723 47.0386 34.9492C47.0121 34.926 46.9949 34.894 46.9902 34.8591ZM47.0185 35.0996H47.2501V35.8997H47.0185V35.0996Z" fill="#FBFBFB"/>
<path d="M48.2851 35.4424V35.9003H48.0535V35.4758C48.0535 35.3472 47.993 35.2868 47.8914 35.2868C47.7897 35.2868 47.6984 35.3549 47.6984 35.5029V35.8978H47.4668V35.0977H47.6881V35.1916C47.723 35.1571 47.7647 35.1302 47.8106 35.1127C47.8564 35.0953 47.9054 35.0875 47.9544 35.0899C48.0005 35.0871 48.0466 35.0945 48.0895 35.1115C48.1324 35.1286 48.171 35.1548 48.2026 35.1885C48.2341 35.2222 48.2579 35.2624 48.2722 35.3062C48.2864 35.3501 48.2908 35.3966 48.2851 35.4424Z" fill="#FBFBFB"/>
<path d="M49.3016 35.0996V35.8997H49.0816V35.8045C49.0505 35.8394 49.0122 35.8672 48.9694 35.8858C48.9265 35.9045 48.8801 35.9136 48.8333 35.9126C48.7858 35.9165 48.738 35.9096 48.6935 35.8926C48.649 35.8756 48.6089 35.8489 48.576 35.8143C48.5432 35.7798 48.5185 35.7383 48.5038 35.693C48.4891 35.6477 48.4848 35.5996 48.4911 35.5524V35.0996H48.7265V35.5177C48.7265 35.6463 48.7857 35.7119 48.8886 35.7119C48.9916 35.7119 49.0739 35.6424 49.0739 35.4958V35.0996H49.3016Z" fill="#FBFBFB"/>
<path d="M50.2979 35.5659H49.6919C49.7041 35.6159 49.734 35.6598 49.7762 35.6893C49.8183 35.7189 49.8697 35.7322 49.9209 35.7267C49.9578 35.728 49.9947 35.7218 50.0292 35.7086C50.0637 35.6953 50.0951 35.6752 50.1216 35.6495L50.2503 35.7781C50.1875 35.8383 50.1092 35.8799 50.0242 35.898C49.9391 35.9161 49.8507 35.9101 49.7688 35.8807C49.687 35.8513 49.615 35.7996 49.5609 35.7315C49.5069 35.6634 49.4729 35.5815 49.4629 35.4951C49.4632 35.4406 49.4745 35.3866 49.496 35.3365C49.5175 35.2864 49.5489 35.2411 49.5882 35.2033C49.6276 35.1656 49.6741 35.136 49.7251 35.1166C49.776 35.0971 49.8304 35.088 49.8849 35.0899C49.9403 35.087 49.9957 35.0957 50.0475 35.1155C50.0994 35.1353 50.1465 35.1658 50.1857 35.205C50.225 35.2441 50.2557 35.2911 50.2757 35.3429C50.2956 35.3946 50.3045 35.45 50.3017 35.5054C50.3017 35.5221 50.2992 35.5466 50.2979 35.5659ZM49.6893 35.4372H50.083C50.0772 35.3897 50.0538 35.3461 50.0173 35.3151C49.9808 35.2842 49.934 35.268 49.8862 35.27C49.8392 35.2673 49.7929 35.2823 49.7564 35.3121C49.72 35.3418 49.696 35.3842 49.6893 35.4308V35.4372Z" fill="#FBFBFB"/>
<path d="M47.1139 12.3337C47.1139 12.4462 47.0805 12.5562 47.018 12.6497C46.9554 12.7432 46.8665 12.8161 46.7626 12.8591C46.6586 12.9021 46.5442 12.9133 46.4338 12.8912C46.3235 12.8692 46.2221 12.8149 46.1427 12.7353C46.0632 12.6556 46.0091 12.5542 45.9873 12.4438C45.9655 12.3335 45.977 12.2191 46.0202 12.1152C46.0635 12.0114 46.1365 11.9227 46.2302 11.8603C46.3239 11.798 46.434 11.7649 46.5465 11.7651C46.6211 11.7651 46.695 11.7799 46.7639 11.8084C46.8329 11.837 46.8955 11.8789 46.9482 11.9317C47.0009 11.9846 47.0427 12.0472 47.0711 12.1162C47.0995 12.1852 47.1141 12.2591 47.1139 12.3337Z" fill="#1F1712"/>
<path d="M67.9845 15.4647V14.9193C67.9838 14.9046 67.986 14.8899 67.991 14.8761C67.996 14.8622 68.0037 14.8495 68.0136 14.8386C68.0235 14.8278 68.0355 14.8189 68.0488 14.8127C68.0621 14.8065 68.0766 14.8029 68.0913 14.8022H68.9108C68.9256 14.8029 68.94 14.8065 68.9533 14.8127C68.9666 14.8189 68.9786 14.8278 68.9885 14.8386C68.9984 14.8495 69.0061 14.8622 69.0111 14.8761C69.0161 14.8899 69.0183 14.9046 69.0176 14.9193V15.4647C69.0183 15.4794 69.0161 15.4941 69.0111 15.5079C69.0061 15.5218 68.9984 15.5345 68.9885 15.5454C68.9786 15.5563 68.9666 15.5651 68.9533 15.5713C68.94 15.5776 68.9256 15.5811 68.9108 15.5818H68.0913C68.0766 15.5811 68.0621 15.5776 68.0488 15.5713C68.0355 15.5651 68.0235 15.5563 68.0136 15.5454C68.0037 15.5345 67.996 15.5218 67.991 15.5079C67.986 15.4941 67.9838 15.4794 67.9845 15.4647Z" fill="#1F1712"/>
<path d="M69.54 15.7673H67.9214C67.8831 15.767 67.8465 15.7515 67.8195 15.7243C67.7925 15.697 67.7773 15.6603 67.7773 15.6219V14.7305C67.7773 14.7116 67.7811 14.6928 67.7883 14.6754C67.7956 14.6579 67.8062 14.642 67.8195 14.6286C67.8329 14.6152 67.8488 14.6046 67.8663 14.5974C67.8838 14.5902 67.9025 14.5864 67.9214 14.5864H69.5168C69.5509 14.5864 69.5837 14.6 69.6078 14.6241C69.6319 14.6482 69.6455 14.6809 69.6455 14.7151V14.8797C69.6455 14.8852 69.6476 14.8904 69.6515 14.8943C69.6554 14.8981 69.6606 14.9003 69.6661 14.9003H69.841C69.8639 14.9003 69.8858 14.9094 69.902 14.9255C69.9182 14.9417 69.9272 14.9636 69.9272 14.9865V15.2798C69.9272 15.3081 69.916 15.3352 69.896 15.3553C69.8759 15.3753 69.8488 15.3865 69.8205 15.3865H69.6918C69.686 15.3865 69.6804 15.3888 69.6763 15.3929C69.6722 15.397 69.6699 15.4026 69.6699 15.4084V15.6361C69.6703 15.6533 69.6672 15.6704 69.6608 15.6864C69.6544 15.7024 69.6448 15.7169 69.6327 15.7292C69.6206 15.7414 69.6061 15.7511 69.5902 15.7576C69.5743 15.7642 69.5572 15.7675 69.54 15.7673ZM67.9214 14.6507C67.9003 14.6507 67.88 14.6591 67.865 14.6741C67.8501 14.6891 67.8417 14.7093 67.8417 14.7305V15.6219C67.8417 15.6432 67.85 15.6636 67.865 15.6788C67.8799 15.694 67.9002 15.7026 67.9214 15.703H69.54C69.5578 15.7026 69.5748 15.6953 69.5874 15.6826C69.5999 15.6698 69.6069 15.6527 69.6069 15.6348V15.4084C69.6069 15.3855 69.616 15.3636 69.6321 15.3475C69.6483 15.3313 69.6702 15.3222 69.6931 15.3222H69.8217C69.833 15.3222 69.8438 15.3177 69.8518 15.3098C69.8597 15.3018 69.8642 15.291 69.8642 15.2798V14.9891C69.8639 14.9834 69.8615 14.978 69.8574 14.9739C69.8534 14.9699 69.848 14.9675 69.8423 14.9672H69.6673C69.6449 14.9669 69.6235 14.9578 69.6077 14.942C69.5918 14.9261 69.5828 14.9047 69.5824 14.8823V14.7176C69.5824 14.7087 69.5807 14.6999 69.5772 14.6917C69.5738 14.6835 69.5687 14.6761 69.5624 14.6699C69.556 14.6636 69.5485 14.6587 69.5402 14.6555C69.532 14.6522 69.5231 14.6506 69.5142 14.6507H67.9214Z" fill="#1F1712"/>
<path d="M29.3788 48.963L24.9309 48.522L24.6738 50.8314L29.6968 50.6569L29.3788 48.963Z" fill="#FFBF9D"/>
<path d="M32.7582 50.3156C32.7299 50.3556 32.6904 50.3865 32.6447 50.4043C32.599 50.4221 32.549 50.4261 32.5011 50.4157C32.4805 50.4102 32.4605 50.4025 32.4416 50.3927C32.3062 50.3264 32.3671 50.0437 32.3671 50.0437L31.7149 49.8299C31.7149 49.8299 30.7569 50.252 30.3888 50.5754C30.0207 50.8987 29.2792 50.4725 29.2792 50.4725L29.2305 49.0033L30.6378 48.0846C30.6378 48.0846 30.5512 48.1401 30.6689 47.9493C30.7866 47.7586 31.1615 47.8939 31.1615 47.8939C31.2386 47.8005 31.497 47.8032 31.497 47.8032L32.5566 48.0982C32.6645 48.1281 32.7644 48.182 32.8487 48.2557C32.933 48.3295 32.9997 48.4213 33.0437 48.5243L33.3861 49.3185C33.3861 49.3185 33.5458 49.8773 33.4876 49.995C33.4629 50.0423 33.4217 50.0789 33.3718 50.0978C33.3219 50.1168 33.2668 50.1168 33.2169 50.0978C33.2169 50.0978 33.1087 50.4306 33.018 50.4293C32.9264 50.4099 32.8392 50.3737 32.7609 50.3224L32.7582 50.3156Z" fill="#FFBF9D"/>
<path d="M30.6597 50.384C30.6852 50.3732 30.7096 50.36 30.7327 50.3448L30.9357 50.2284C31.1906 50.0873 31.4536 49.9612 31.7233 49.851H31.707L32.3579 50.0701L32.339 50.0377C32.3289 50.0925 32.3244 50.1483 32.3254 50.2041C32.3249 50.265 32.3423 50.3248 32.3755 50.3759C32.397 50.402 32.4257 50.4213 32.4581 50.4314C32.4875 50.4443 32.5193 50.4512 32.5514 50.4517C32.6178 50.4517 32.6821 50.4282 32.7327 50.3854C32.7455 50.3747 32.7572 50.3629 32.7679 50.3502L32.776 50.3407L32.7341 50.3488L32.7544 50.361C32.7806 50.3775 32.8077 50.3924 32.8356 50.4057C32.8639 50.42 32.8933 50.4322 32.9235 50.4422C32.9393 50.4483 32.9556 50.4528 32.9723 50.4557C32.993 50.4618 33.0151 50.4618 33.0359 50.4557C33.0691 50.4372 33.0966 50.4101 33.1157 50.3772C33.1333 50.3494 33.1491 50.3205 33.1631 50.2907C33.191 50.2313 33.2154 50.1703 33.2361 50.108L33.1928 50.1283C33.2365 50.1455 33.284 50.1505 33.3303 50.1426C33.3766 50.1347 33.4198 50.1143 33.4553 50.0837C33.492 50.0504 33.516 50.0055 33.523 49.9565C33.5279 49.9115 33.5279 49.8662 33.523 49.8212C33.4991 49.6488 33.4629 49.4784 33.4147 49.3111L33.2321 48.8877L33.117 48.6171C33.0816 48.5245 33.0362 48.4361 32.9817 48.3533C32.924 48.2728 32.8503 48.2052 32.7652 48.1544C32.6806 48.1076 32.5893 48.0738 32.4946 48.0543L31.4946 47.7837H31.4865C31.4242 47.7844 31.3622 47.7908 31.3011 47.8026C31.2359 47.8113 31.1751 47.8407 31.1279 47.8865H31.1671C31.1162 47.8526 31.0578 47.8317 30.9969 47.8256C30.9361 47.8194 30.8746 47.8283 30.818 47.8513C30.7173 47.9027 30.6402 47.9909 30.6028 48.0976L30.6137 48.084L29.6434 48.7132L29.3823 48.8877C29.351 48.9071 29.3211 48.9288 29.293 48.9526C29.3271 48.9383 29.3597 48.9206 29.3904 48.8999L29.661 48.7375L30.6421 48.1287V48.1206C30.6756 48.0281 30.7428 47.9518 30.8302 47.9068C30.8785 47.8884 30.9305 47.8818 30.9818 47.8877C31.0332 47.8936 31.0823 47.9117 31.1252 47.9406L31.1468 47.9542L31.1644 47.9352C31.2024 47.9016 31.2495 47.8799 31.2997 47.873C31.3564 47.862 31.4139 47.8566 31.4716 47.8568L32.4689 48.1382C32.5565 48.1566 32.6409 48.188 32.7192 48.2315C32.7959 48.278 32.8622 48.3397 32.9141 48.4128C32.9649 48.4912 33.0067 48.5752 33.0386 48.6631C33.0778 48.7524 33.1157 48.8417 33.1549 48.9337L33.3376 49.3571C33.3851 49.5208 33.4208 49.6876 33.4445 49.8564C33.4485 49.8955 33.4485 49.9349 33.4445 49.9741C33.4397 50.0074 33.4235 50.038 33.3985 50.0607C33.3721 50.0828 33.3402 50.0975 33.3062 50.1032C33.2722 50.1089 33.2372 50.1055 33.205 50.0931L33.1725 50.0823L33.1617 50.1134C33.1429 50.1732 33.1199 50.2315 33.0927 50.2879C33.0738 50.34 33.0422 50.3865 33.0007 50.4232C32.9912 50.4244 32.9817 50.4244 32.9723 50.4232L32.933 50.4124C32.906 50.4029 32.8789 50.3908 32.8518 50.3786C32.8254 50.366 32.7997 50.352 32.7747 50.3367L32.7558 50.3258L32.7138 50.3339V50.3421C32.705 50.3518 32.6955 50.3608 32.6854 50.3691C32.6476 50.4017 32.5999 50.4203 32.5501 50.4219C32.525 50.4218 32.5001 50.4167 32.477 50.407C32.4544 50.4017 32.4344 50.3888 32.4202 50.3705C32.3755 50.2808 32.3649 50.1779 32.3904 50.081V50.0552L32.3674 50.0485L31.7152 49.8374H31.707H31.6989C31.4295 49.9523 31.1682 50.0851 30.9168 50.2352C30.8288 50.288 30.7625 50.3312 30.7179 50.3624C30.698 50.3682 30.6785 50.3754 30.6597 50.384Z" fill="#FF9A6C"/>
<path d="M31.2852 48.3003C31.3877 48.3672 31.4987 48.42 31.6153 48.4572C31.8987 48.5639 32.1949 48.6331 32.4963 48.6629L32.4638 48.6331C32.4746 48.6899 32.4841 48.7481 32.499 48.8076C32.5758 49.1433 32.7163 49.4612 32.913 49.7439C32.9723 49.8285 33.0374 49.909 33.1079 49.9847C33.158 50.0388 33.1891 50.0645 33.1931 50.0618C33.1972 50.0591 33.093 49.9333 32.955 49.7155C32.7753 49.4313 32.645 49.1189 32.5693 48.7914C32.5558 48.7346 32.545 48.6764 32.5355 48.6223V48.5939H32.5084C32.2124 48.565 31.9203 48.5046 31.637 48.4139C31.522 48.3693 31.4045 48.3314 31.2852 48.3003Z" fill="#FF9A6C"/>
<path d="M32.209 49.0904C32.2399 49.5443 32.4455 49.9686 32.7827 50.2742C32.8003 50.2593 32.6028 50.0347 32.4458 49.7073C32.2888 49.3799 32.2306 49.0863 32.209 49.0904Z" fill="#FF9A6C"/>
<path d="M29.1328 50.0009C29.1328 50.0009 29.1423 50.0117 29.1639 50.0266C29.1961 50.048 29.2296 50.0674 29.2641 50.0848C29.3952 50.1487 29.5369 50.1882 29.6822 50.2011C29.9054 50.2214 30.1297 50.1777 30.329 50.0753C30.5832 49.9451 30.7845 49.7309 30.8987 49.4692L30.8554 49.4895C31.105 49.5793 31.366 49.633 31.6308 49.6491C31.729 49.6545 31.8275 49.6545 31.9258 49.6491C32.0242 49.6493 32.1221 49.6333 32.2154 49.6018C32.2675 49.5843 32.3113 49.5481 32.3385 49.5003C32.35 49.4756 32.3565 49.449 32.3576 49.4218C32.3588 49.3947 32.3546 49.3675 32.3453 49.342C32.3261 49.2915 32.2876 49.2506 32.2384 49.2284L32.1193 49.1769C31.804 49.0416 31.5131 48.9429 31.2681 48.8631C31.0232 48.7832 30.8202 48.7278 30.6808 48.6926C30.6091 48.67 30.5352 48.6551 30.4603 48.6479C30.5296 48.6761 30.6005 48.7001 30.6727 48.7197C30.808 48.7629 31.0083 48.8265 31.2519 48.9118C31.4955 48.997 31.781 49.1052 32.0936 49.2392L32.2113 49.2906C32.2431 49.3055 32.2678 49.3322 32.2803 49.365C32.2872 49.3815 32.2907 49.3992 32.2907 49.4171C32.2907 49.435 32.2872 49.4527 32.2803 49.4692C32.2604 49.5018 32.229 49.526 32.1923 49.5368C32.105 49.5652 32.0135 49.5789 31.9217 49.5774C31.827 49.5774 31.7309 49.5774 31.6335 49.5774C31.3754 49.5615 31.1208 49.5096 30.8771 49.4232L30.8459 49.4123L30.8338 49.4421C30.7251 49.6922 30.5341 49.8975 30.2925 50.0239C30.1034 50.1241 29.8905 50.1709 29.6768 50.1592C29.5372 50.1501 29.4 50.1181 29.2708 50.0645C29.1815 50.0293 29.1355 50.0009 29.1328 50.0009Z" fill="#FF9A6C"/>
<path d="M14.9519 43.2487C14.4242 43.237 13.922 43.0189 13.5531 42.6413C13.1843 42.2637 12.9782 41.7566 12.979 41.2287L12.8951 34.5304C12.8166 32.7324 13.7693 31.186 15.5189 31.1562H15.6813C17.3119 31.2252 18.6164 32.5687 18.68 34.245C18.7395 35.8049 18.8031 37.3107 18.7598 38.1441C18.6691 39.8704 16.9628 40.0382 16.9628 40.0382C16.9628 40.0382 16.9628 40.6808 16.9628 41.1882C16.9672 41.455 16.9187 41.72 16.82 41.968C16.7213 42.2159 16.5744 42.4418 16.3877 42.6326C16.2011 42.8234 15.9784 42.9752 15.7327 43.0793C15.4869 43.1835 15.2229 43.2378 14.956 43.2392L14.9519 43.2487Z" fill="#FFBF9D"/>
<path d="M16.963 40.0584C16.1848 40.0229 15.4343 39.7594 14.8047 39.3008C14.8047 39.3008 15.2783 40.6212 16.9589 40.536L16.963 40.0584Z" fill="#FF9A6C"/>
<path d="M18.0618 35.7853C18.0601 35.8485 18.0341 35.9086 17.9893 35.9532C17.9444 35.9977 17.8842 36.0234 17.8209 36.0247C17.7899 36.0258 17.759 36.0207 17.73 36.0097C17.701 35.9986 17.6745 35.9819 17.6521 35.9605C17.6296 35.939 17.6117 35.9133 17.5993 35.8849C17.587 35.8564 17.5804 35.8258 17.5801 35.7947C17.5808 35.7312 17.6064 35.6705 17.6515 35.6257C17.6965 35.5809 17.7574 35.5556 17.8209 35.5553C17.8519 35.5544 17.8828 35.5596 17.9117 35.5707C17.9406 35.5818 17.967 35.5986 17.9894 35.62C18.0118 35.6414 18.0298 35.667 18.0422 35.6954C18.0546 35.7237 18.0613 35.7543 18.0618 35.7853Z" fill="#1F1712"/>
<path d="M18.292 34.9978C18.2609 35.0289 18.085 34.8828 17.8265 34.8733C17.568 34.8638 17.3745 34.9869 17.3475 34.9531C17.3204 34.9193 17.3678 34.8814 17.4517 34.8178C17.5661 34.7435 17.701 34.7071 17.8373 34.7136C17.9715 34.7174 18.1007 34.7649 18.2054 34.8489C18.2825 34.9247 18.3069 34.9829 18.292 34.9978Z" fill="#1F1712"/>
<path d="M15.7193 35.7855C15.7182 35.8489 15.6924 35.9094 15.6475 35.9541C15.6025 35.9989 15.5418 36.0243 15.4784 36.025C15.4474 36.0255 15.4167 36.0199 15.3879 36.0085C15.3591 35.997 15.3329 35.98 15.3107 35.9583C15.2886 35.9367 15.2709 35.9109 15.2588 35.8824C15.2467 35.8539 15.2404 35.8232 15.2402 35.7923C15.2413 35.7288 15.267 35.6683 15.312 35.6236C15.357 35.5789 15.4177 35.5535 15.4811 35.5528C15.5121 35.5521 15.543 35.5576 15.5718 35.5689C15.6007 35.5803 15.627 35.5973 15.6492 35.619C15.6714 35.6407 15.689 35.6666 15.701 35.6952C15.7131 35.7238 15.7193 35.7545 15.7193 35.7855Z" fill="#1F1712"/>
<path d="M15.7609 34.9519C15.7297 34.983 15.5525 34.8369 15.2954 34.8274C15.0383 34.8179 14.8434 34.941 14.8163 34.9072C14.7893 34.8734 14.8353 34.8355 14.9205 34.7719C15.035 34.6976 15.1699 34.6612 15.3062 34.6677C15.4403 34.672 15.5694 34.7195 15.6743 34.803C15.75 34.8788 15.7757 34.9383 15.7609 34.9519Z" fill="#1F1712"/>
<path d="M16.6059 37.0304C16.7435 36.9927 16.8854 36.9727 17.0281 36.9709C17.0944 36.9709 17.1634 36.956 17.1702 36.91C17.1782 36.8403 17.1655 36.7697 17.1336 36.7071C17.0782 36.5407 17.02 36.3661 16.9604 36.1835C16.7182 35.4367 16.5545 34.8306 16.5761 34.8157C16.5978 34.8008 16.8251 35.4015 17.066 36.1483C17.1242 36.3323 17.1797 36.5069 17.2311 36.6746C17.2708 36.7591 17.2794 36.855 17.2554 36.9452C17.245 36.9683 17.2295 36.9887 17.2101 37.0048C17.1906 37.021 17.1677 37.0326 17.1431 37.0385C17.1064 37.0474 17.0686 37.0515 17.0308 37.0507C16.8889 37.062 16.7461 37.0552 16.6059 37.0304Z" fill="#1F1712"/>
<path d="M15.8795 34.1267C15.8416 34.193 15.594 34.1105 15.2895 34.0916C14.9851 34.0726 14.7293 34.1092 14.7009 34.0375C14.6887 34.0036 14.7429 33.9455 14.8525 33.9022C14.9962 33.841 15.1528 33.8159 15.3085 33.8291C15.4643 33.838 15.6156 33.8844 15.7496 33.9644C15.8511 34.028 15.8958 34.0943 15.8795 34.1267Z" fill="#1F1712"/>
<path d="M18.3361 34.219C18.2806 34.2785 18.0655 34.2095 17.8192 34.2001C17.5729 34.1906 17.3524 34.2285 17.305 34.1635C17.2833 34.1324 17.3185 34.0729 17.4133 34.0188C17.5439 33.9534 17.6893 33.9231 17.8353 33.9309C17.9812 33.9387 18.1226 33.9844 18.2455 34.0634C18.3321 34.127 18.3605 34.1906 18.3361 34.219Z" fill="#1F1712"/>
<path d="M12.9784 35.8139C12.95 35.8004 11.839 35.4148 11.8282 36.5959C11.8174 37.777 12.973 37.5429 12.9757 37.5118C12.9784 37.4807 12.9784 35.8139 12.9784 35.8139Z" fill="#FFBF9D"/>
<path d="M12.632 37.0599C12.632 37.0599 12.6117 37.0747 12.5779 37.0896C12.5541 37.0996 12.5286 37.1047 12.5028 37.1047C12.477 37.1047 12.4515 37.0996 12.4277 37.0896C12.3073 37.0423 12.2058 36.8434 12.2031 36.6296C12.2003 36.5287 12.2202 36.4283 12.2612 36.3361C12.272 36.2996 12.2914 36.2663 12.3177 36.239C12.3441 36.2116 12.3767 36.1911 12.4128 36.1791C12.4361 36.173 12.4609 36.1755 12.4825 36.1862C12.5042 36.1969 12.5212 36.215 12.5305 36.2373C12.5468 36.2698 12.5386 36.2941 12.5454 36.2955C12.5522 36.2968 12.5698 36.2765 12.5603 36.2278C12.5551 36.1984 12.5392 36.1719 12.5156 36.1534C12.5007 36.1406 12.4832 36.1311 12.4643 36.1258C12.4453 36.1204 12.4255 36.1192 12.406 36.1223C12.3584 36.1316 12.3139 36.1531 12.2769 36.1846C12.2399 36.2161 12.2117 36.2566 12.1949 36.3022C12.1453 36.4046 12.1207 36.5173 12.1232 36.631C12.1232 36.8691 12.245 37.0937 12.4101 37.1451C12.4408 37.1543 12.4732 37.1565 12.5049 37.1513C12.5365 37.1461 12.5666 37.1338 12.5928 37.1153C12.6293 37.0883 12.6361 37.0626 12.632 37.0599Z" fill="#FF9A6C"/>
<path d="M13.804 32.8646C13.8308 32.7135 13.8984 32.5726 13.9996 32.4572C14.1007 32.3418 14.2315 32.2562 14.3777 32.2097C14.6298 32.1249 14.9032 32.1283 15.1531 32.2192C15.8013 32.4546 16.9122 32.8077 17.195 32.5818C17.6091 32.2571 17.7092 32.0406 17.7092 32.0406L17.9379 32.2896C18.1233 32.184 17.5658 31.5644 17.1084 31.3506C16.4183 31.0286 15.3642 30.8298 14.7268 31.0151C13.9596 31.2383 13.3222 31.6293 12.9366 32.3477C12.5651 33.0811 12.3903 33.8983 12.4291 34.7194C12.4291 34.9697 12.3899 35.6867 12.6308 35.7422C12.8189 35.7842 13.0584 35.868 13.0448 36.2279C13.0354 36.3593 13.0782 36.4891 13.1639 36.5891C13.3737 36.8191 13.6308 36.6027 13.7498 36.3862C14.0029 35.9235 14.0313 35.3715 14.0529 34.8412C14.089 34.465 14.0648 34.0855 13.9812 33.7169C13.8939 33.4824 13.8318 33.2393 13.7958 32.9917C13.7941 32.9492 13.7968 32.9065 13.804 32.8646Z" fill="#1F1712"/>
<path d="M16.6512 37.669C16.6579 37.6866 16.6051 37.7312 16.4982 37.7542C16.3564 37.7825 16.2092 37.7595 16.0828 37.6893C15.956 37.6204 15.8566 37.5101 15.8014 37.3768C15.7608 37.2753 15.7675 37.2077 15.7865 37.2022C15.8054 37.1968 15.9123 37.4268 16.1545 37.5581C16.3968 37.6893 16.6403 37.6298 16.6512 37.669Z" fill="#1F1712"/>
<path d="M17.8499 53.4303L12.3533 52.2208L8.82017 43.4688C8.82017 43.4688 4.09893 44.5159 3.32085 47.1595C2.64427 49.4392 1.2559 59.5157 4.41693 65.727C4.81972 66.5094 5.43097 67.1654 6.18318 67.6223C6.93538 68.0793 7.79927 68.3195 8.67944 68.3165H32.7349C34.2015 68.3166 35.6168 67.7764 36.7102 66.799C37.8036 65.8217 38.4984 64.4757 38.6618 63.0185C38.7971 61.8008 38.8918 60.6468 38.8729 59.8946L35.0109 56.9317L17.8499 53.4303Z" fill="#E07B39"/>
<g opacity="0.3">
<path d="M32.5449 56.4747C34.2377 58.6854 36.2973 60.6687 38.7601 61.9703L38.8778 58.9695L34.3284 55.7319L32.5449 56.4747Z" fill="black"/>
</g>
<path d="M14.3899 41.7668C14.3899 41.9265 15.6403 42.4433 16.2045 42.216C17.0652 41.8724 16.9583 41.1973 16.9583 41.1973L17.4359 41.7006L22.2221 48.9928L25.7796 51.3401L20.0855 53.1436L14.1152 46.287L14.3899 41.7668Z" fill="#F5F5F5"/>
<path d="M12.8824 39.3193L12.7566 39.5547L12.1882 40.6141L9.82422 42.1212L14.6862 47.8996L16.904 53.1435L22.222 54.8076C22.222 54.8076 19.6916 50.9179 18.9054 48.9291C18.1192 46.9403 18.0394 47.035 17.3222 45.5766C16.8347 44.5491 16.4011 43.4969 16.0231 42.4243L12.8824 39.3193Z" fill="#7BB7FF"/>
<path d="M24.2728 49.7298L25.3161 50.7025L25.6111 51.3032L21.7328 49.4998L18.9331 45.5763C18.9331 45.5763 17.9358 43.3643 17.5935 42.5715C17.2322 41.7381 16.9629 41.2659 16.9629 41.2659V40.6084L18.3743 41.8829L19.5529 42.2333L21.5231 45.345L24.2728 49.7298Z" fill="#7BB7FF"/>
<path d="M23.0776 46.0608C23.0776 46.0608 22.6067 45.057 22.2224 44.2222C21.3564 42.3417 19.3145 42.1631 19.3145 42.1631L21.5716 48.4217L24.3361 50.3821C24.3361 50.3821 25.1236 50.6527 25.2224 50.3821C25.2224 50.3821 25.7975 48.3067 25.7799 48.2986C25.7623 48.2905 23.8124 47.7074 23.8124 47.7074L23.0276 45.9486" fill="#7BB7FF"/>
<path d="M27.2368 44.1076L24.5508 48.5817L27.364 48.4991L29.8444 44.3538C29.8662 44.3174 29.878 44.2759 29.8785 44.2336C29.879 44.1912 29.8682 44.1494 29.8473 44.1125C29.8264 44.0757 29.7961 44.045 29.7594 44.0237C29.7228 44.0024 29.6811 43.9912 29.6387 43.9912H27.4425C27.4011 43.9912 27.3604 44.0019 27.3243 44.0223C27.2883 44.0427 27.2581 44.072 27.2368 44.1076Z" fill="#1F1712"/>
<path d="M16.9023 49.1672L23.6263 48.3676L24.7562 46.3883L25.6412 45.9026C25.7145 45.862 25.798 45.8433 25.8816 45.8485C25.9653 45.8538 26.0457 45.8829 26.1134 45.9323L26.1973 45.9932L26.8536 45.9107C26.9655 45.896 27.079 45.9184 27.177 45.9743L27.6425 46.2448C27.6761 46.2645 27.7039 46.2926 27.7234 46.3263C27.7428 46.3599 27.7532 46.3981 27.7535 46.437C27.7534 46.4697 27.7462 46.502 27.7323 46.5316C27.7183 46.5612 27.6981 46.5874 27.6729 46.6083C27.6477 46.6292 27.6182 46.6444 27.5866 46.6526C27.5549 46.6609 27.5218 46.6621 27.4896 46.6561L27.0376 46.5736L26.3448 46.7995C26.3448 46.7995 26.7914 46.8469 26.8482 47.1851C26.905 47.5234 26.6791 47.5315 26.6791 47.5315C26.6791 47.5315 27.1486 47.8021 26.8144 48.2079C26.8144 48.2079 27.2068 48.4691 26.767 48.9642C26.4707 49.2997 24.3313 50.3929 24.3313 50.3929L16.9023 53.1434V49.1672Z" fill="#FFBF9D"/>
<path d="M26.8024 48.2051C26.8024 48.2051 26.8525 48.2051 26.912 48.266C26.9507 48.3108 26.9776 48.3647 26.9901 48.4226C27.0026 48.4805 27.0004 48.5406 26.9837 48.5974C26.9249 48.7583 26.8251 48.901 26.6942 49.0114C26.5481 49.1545 26.3901 49.2848 26.2219 49.4011C25.9146 49.607 25.59 49.7858 25.2517 49.9355C25.1161 50.0057 24.9743 50.0633 24.8281 50.1073C24.9584 50.0261 25.0941 49.9538 25.2341 49.8908C25.5619 49.73 25.8784 49.5469 26.1813 49.3429C26.3471 49.2291 26.5036 49.1025 26.6495 48.9641C26.7751 48.8633 26.8733 48.7326 26.935 48.5839C26.9521 48.534 26.9571 48.4807 26.9496 48.4285C26.9421 48.3763 26.9222 48.3266 26.8917 48.2835C26.8657 48.2534 26.8357 48.227 26.8024 48.2051Z" fill="#FF9A6C"/>
<path d="M26.1745 46.0105C26.0718 46.0739 25.9579 46.1171 25.8389 46.1377C25.7256 46.18 25.6053 46.2002 25.4844 46.1972C25.5869 46.1333 25.7009 46.0901 25.82 46.0701C25.9333 46.0278 26.0536 46.0076 26.1745 46.0105Z" fill="#FF9A6C"/>
<path d="M27.0387 46.5684C26.8924 46.6529 26.7354 46.7175 26.5719 46.7605C26.4151 46.8244 26.2503 46.8668 26.082 46.8863C26.2277 46.8005 26.3849 46.7358 26.5489 46.6942C26.7054 46.6295 26.8703 46.5871 27.0387 46.5684Z" fill="#FF9A6C"/>
<path d="M26.2387 47.4655C26.2184 47.4655 26.2089 47.4046 26.1859 47.3383C26.1629 47.272 26.1359 47.2206 26.1507 47.203C26.1656 47.1854 26.2252 47.2301 26.2522 47.3126C26.2793 47.3951 26.2509 47.4682 26.2387 47.4655Z" fill="#FF9A6C"/>
<path d="M26.463 48.2419C26.4427 48.2419 26.4509 48.1404 26.4224 48.0309C26.394 47.9213 26.3453 47.8374 26.3602 47.8239C26.3751 47.8103 26.459 47.8834 26.4955 48.0133C26.532 48.1432 26.4806 48.2419 26.463 48.2419Z" fill="#FF9A6C"/>
<path d="M10.0127 42.001C9.78811 42.1363 7.8869 43.4351 8.1643 45.5619C8.4417 47.6887 12.6501 52.4969 13.5283 52.5889L16.9045 53.1436V49.1674L15.2807 49.0754L13.1589 44.9138L10.0127 42.001Z" fill="#7BB7FF"/>
<path d="M16.902 48.9751C16.8623 48.9824 16.822 48.986 16.7816 48.9859L16.4406 48.9995L15.2308 49.0265H15.2146L15.2038 49.013L14.3486 47.863C13.8384 47.1744 13.381 46.548 13.0522 46.092L12.6666 45.5509C12.6159 45.4861 12.5706 45.4174 12.5312 45.3452C12.5884 45.4037 12.6409 45.4666 12.6882 45.5333L13.0942 46.0609C13.4338 46.5074 13.9061 47.1297 14.4081 47.8197L15.2566 48.9737L15.2295 48.9602H16.4392H16.7802C16.8213 48.9601 16.8622 48.9651 16.902 48.9751Z" fill="#1F1712"/>
<path d="M16.0821 42.9437C16.0567 42.9055 16.0345 42.8653 16.0158 42.8233L15.8494 42.4743H15.8859C15.7631 42.6529 15.6541 42.8406 15.5598 43.0357C15.4404 43.2956 15.2987 43.5445 15.1363 43.7798L15.1092 43.8177L15.0808 43.7812C14.8616 43.5106 14.6112 43.2251 14.3419 42.9316C13.7533 42.2916 13.1904 41.7369 12.7885 41.3311L12.3135 40.8481C12.2535 40.7914 12.1983 40.7299 12.1484 40.6641C12.2148 40.7138 12.2772 40.7685 12.3352 40.8278L12.8264 41.2932C13.2323 41.6896 13.8074 42.2402 14.3988 42.8801C14.6694 43.1751 14.9184 43.4646 15.1363 43.7365H15.0794C15.241 43.5046 15.3839 43.2604 15.507 43.006C15.6056 42.81 15.721 42.6231 15.8521 42.4472L15.8737 42.4175L15.8873 42.4499C15.9482 42.596 15.9982 42.7137 16.0361 42.8071C16.0572 42.8505 16.0727 42.8964 16.0821 42.9437Z" fill="#1F1712"/>
<path d="M18.3918 41.9266C18.4369 41.987 18.4712 42.0548 18.4932 42.1269C18.5626 42.3097 18.6218 42.4962 18.6705 42.6856L18.7165 42.8507L18.611 42.7154C18.4599 42.5281 18.2943 42.353 18.1157 42.1918C17.9587 42.0484 17.8058 41.9212 17.6664 41.794L17.7233 41.7724C17.7037 41.9941 17.6969 42.2168 17.703 42.4394C17.7081 42.5278 17.6966 42.6163 17.6692 42.7005C17.661 42.7005 17.6692 42.6044 17.6597 42.4407C17.6421 42.2156 17.6421 41.9894 17.6597 41.7643L17.6664 41.7007L17.7165 41.7426C17.8518 41.8603 18.0142 41.9916 18.1725 42.1377C18.3549 42.3023 18.5216 42.4835 18.6705 42.6788L18.611 42.7073C18.5528 42.4732 18.5054 42.2784 18.4621 42.1444C18.4335 42.0736 18.41 42.0008 18.3918 41.9266Z" fill="#1F1712"/>
<path d="M23.2745 48.4099C23.2168 48.3648 23.1629 48.315 23.1134 48.261L22.698 47.8362C22.5235 47.6536 22.3164 47.4493 22.0891 47.1963C21.9849 47.061 21.8929 46.9162 21.7846 46.7742C21.6748 46.6207 21.5805 46.4566 21.5032 46.2844C21.3421 45.9354 21.2204 45.5904 21.1107 45.2778C21.0011 44.9653 20.9051 44.6826 20.8171 44.4499C20.7291 44.2172 20.648 44.0305 20.5857 43.9087C20.549 43.8459 20.5165 43.7809 20.4883 43.7139C20.4883 43.7139 20.5032 43.7274 20.5235 43.7572C20.5555 43.8004 20.5849 43.8456 20.6114 43.8925C20.7085 44.067 20.7939 44.2478 20.8672 44.4336C20.9632 44.6663 21.0647 44.9464 21.177 45.2576C21.2894 45.5687 21.4125 45.911 21.5722 46.256C21.6471 46.4234 21.7377 46.5833 21.8428 46.7336C21.9524 46.8783 22.0444 47.0285 22.1432 47.1571C22.3557 47.3992 22.5681 47.6184 22.7346 47.8024L23.1337 48.2421C23.1853 48.2939 23.2324 48.35 23.2745 48.4099Z" fill="#1F1712"/>
<path d="M25.2259 50.6539L37.9891 50.2954C38.1913 50.2901 38.3923 50.3274 38.5791 50.405C39.0432 50.6025 39.8782 51.1099 40.4506 52.3248C41.28 54.0836 45.1501 61.5247 45.1501 61.5247L41.2367 63.5297L36.437 54.6275L21.6387 53.3693L21.8105 52.1868L25.2259 50.6539Z" fill="#1F1712"/>
<path d="M40.0762 61.9618L42.1154 65.4618L42.2507 66.3466C42.2704 66.4752 42.3152 66.5988 42.3826 66.7101C42.4501 66.8214 42.5388 66.9184 42.6437 66.9954C42.7487 67.0724 42.8678 67.128 42.9942 67.159C43.1207 67.19 43.252 67.1957 43.3806 67.1759L49.5877 66.2289C49.661 66.2191 49.7311 66.1927 49.7926 66.1515C49.8541 66.1104 49.9053 66.0557 49.9423 65.9916C49.9793 65.9276 50.0011 65.8559 50.006 65.7821C50.0109 65.7083 49.9988 65.6343 49.9706 65.5659C49.9439 65.5054 49.9033 65.452 49.852 65.4101C49.8008 65.3683 49.7403 65.3391 49.6756 65.3251C49.156 65.1898 45.1506 63.7219 45.1506 63.7219L43.4808 60.3721L40.0762 61.9618Z" fill="#3C2C2C"/>
<path d="M21.3174 52.3952C21.3174 52.3952 34.4878 51.0748 35.1279 51.1275C36.3092 51.2249 38.4878 53.0879 42.3539 55.6828C44.3569 57.0438 46.2159 58.6055 47.9019 60.3436L46.6664 63.1631C46.6664 63.1631 38.0061 60.0067 36.6462 58.8716C35.5176 57.9246 33.4581 56.5852 33.4581 56.5852L28.3782 56.6366L24.6015 56.9694C23.6699 57.0519 22.7326 56.8975 21.8767 56.5207C21.0207 56.1439 20.2739 55.5569 19.7057 54.8142L18.2402 52.8998L21.3174 52.3952Z" fill="#1F1712"/>
<path d="M33.3957 56.5463C33.3957 56.5463 33.4174 56.5585 33.4566 56.5855L33.6339 56.7073L34.3172 57.1876C34.9113 57.611 35.7827 58.2198 36.8517 59.0275C36.9194 59.0776 36.987 59.1358 37.0547 59.1804L37.2726 59.3157C37.4295 59.3942 37.5865 59.4808 37.7529 59.5579L38.2617 59.7946L38.803 60.0314C39.5346 60.348 40.3235 60.6781 41.1697 61.0217C42.8585 61.7077 44.7529 62.4531 46.7976 63.2392L46.7529 63.2595L47.872 60.4183L47.8801 60.4589L46.3429 58.8922C45.9816 58.5797 45.5946 58.2469 45.1995 57.9181C42.8427 55.9763 40.3778 54.1695 37.8165 52.5065C37.4697 52.2096 37.0955 51.9464 36.6988 51.7204C36.3222 51.5011 35.9212 51.3268 35.504 51.2009C35.4011 51.1738 35.2983 51.1522 35.1968 51.1265L34.8896 51.0791L34.5824 51.0629H33.0939L29.117 51.0548L26.5351 51.044H25.8585H25.6826C25.6628 51.0451 25.6429 51.0451 25.623 51.044H25.6826H25.8585H26.5351L29.117 51.0345L33.0939 51.0264H34.5824L34.895 51.0413L35.209 51.0886C35.3118 51.1143 35.416 51.136 35.5202 51.1644C35.9428 51.2898 36.3489 51.4651 36.7299 51.6866C37.1317 51.9137 37.5106 52.1792 37.8612 52.4794C40.4275 54.1401 42.8962 55.947 45.255 57.8911C45.6514 58.2198 46.0384 58.5527 46.3997 58.8665L47.937 60.4346L47.9532 60.4522L47.9451 60.4752L46.8219 63.3163L46.8098 63.3488L46.7773 63.3366C44.7326 62.5478 42.8382 61.7983 41.1508 61.1083C40.3077 60.7633 39.5175 60.4319 38.7868 60.1112L38.2455 59.8718L37.7313 59.6066C37.5662 59.5268 37.4079 59.4402 37.2509 59.3604L37.0276 59.2251C36.9546 59.1804 36.8923 59.1222 36.8247 59.0722C35.7611 58.2604 34.8923 57.6449 34.3037 57.2146L33.6271 56.7262L33.4539 56.599C33.4119 56.5625 33.3957 56.5463 33.3957 56.5463Z" fill="#64574F"/>
<path d="M43.8672 62.4479L47.5208 63.8833L48.1283 64.5409C48.2168 64.6365 48.3233 64.7137 48.4416 64.7682C48.56 64.8226 48.6879 64.8532 48.8181 64.8583C48.9483 64.8633 49.0782 64.8426 49.2004 64.7974C49.3225 64.7523 49.4346 64.6835 49.5302 64.595L54.1392 60.3306C54.1944 60.2813 54.2375 60.22 54.2654 60.1515C54.2932 60.0829 54.305 60.0089 54.2997 59.9351C54.2945 59.8613 54.2724 59.7897 54.2352 59.7257C54.198 59.6618 54.1466 59.6072 54.085 59.5662C54.0289 59.5313 53.9654 59.51 53.8996 59.5042C53.8338 59.4983 53.7675 59.5079 53.7061 59.5323C53.2014 59.7136 49.0593 60.7378 49.0593 60.7378L46.2813 58.5244L43.8672 62.4479Z" fill="#3C2C2C"/>
<path d="M43.8672 62.4476C43.8672 62.4476 43.8794 62.4246 43.9064 62.3786L44.0296 62.1756C44.1392 61.993 44.3002 61.7292 44.5045 61.3909C44.9213 60.705 45.5221 59.7201 46.2637 58.5106L46.2785 58.4849L46.3029 58.5038L49.081 60.7118H49.0526L51.5235 60.0894L52.8293 59.7498C53.0498 59.6903 53.2731 59.6321 53.495 59.5672L53.6601 59.5158C53.7175 59.4938 53.7776 59.4797 53.8388 59.4738C53.9025 59.4712 53.9661 59.4819 54.0255 59.5052C54.0849 59.5285 54.1388 59.5639 54.1838 59.6091C54.2718 59.6972 54.3253 59.8139 54.3345 59.9381C54.3437 60.0622 54.308 60.1856 54.2339 60.2856C54.1969 60.3346 54.1552 60.3799 54.1094 60.4209L53.9835 60.5372L53.7332 60.7686L52.7508 61.6764L50.8929 63.3919L50.0282 64.1901L49.6141 64.573C49.5469 64.6382 49.4735 64.6966 49.3949 64.7475C49.2024 64.8657 48.976 64.9166 48.7513 64.8921C48.5267 64.8676 48.3166 64.7692 48.1541 64.6122C47.9213 64.3701 47.7102 64.1333 47.5032 63.9101H47.5126C46.3855 63.4609 45.4734 63.0983 44.8388 62.844L44.1189 62.5531L43.9321 62.4773L43.8712 62.4516C43.8712 62.4516 43.8956 62.4584 43.9403 62.476L44.1311 62.5477L44.8618 62.8291L47.5302 63.8641C47.7386 64.086 47.9538 64.3241 48.1811 64.5608C48.3032 64.6772 48.4536 64.7596 48.6175 64.7997C48.7813 64.8398 48.9528 64.8363 49.1148 64.7895C49.1992 64.7651 49.2798 64.7292 49.3543 64.6826C49.4293 64.6333 49.4991 64.5767 49.5627 64.5135C49.698 64.3877 49.8333 64.2591 49.9768 64.1306C50.2564 63.8708 50.5442 63.6039 50.8401 63.3297C51.4301 62.7885 52.0512 62.2067 52.6953 61.6115C53.0165 61.3129 53.3435 61.0099 53.6764 60.7023L53.9267 60.471C54.0116 60.3973 54.092 60.3187 54.1676 60.2355C54.2321 60.149 54.2634 60.0422 54.256 59.9344C54.2486 59.8267 54.2028 59.7253 54.127 59.6484C54.0885 59.6104 54.0425 59.5809 53.9919 59.5618C53.9413 59.5427 53.8873 59.5344 53.8333 59.5374C53.7785 59.5429 53.7248 59.5562 53.6737 59.5767L53.5045 59.6281C53.2812 59.693 53.0593 59.7512 52.8374 59.8107L51.5302 60.149L49.0593 60.7672H49.0431L49.0309 60.7578L46.2677 58.5444H46.307L44.5357 61.3936L44.0445 62.177L43.9091 62.3813C43.8848 62.4219 43.8672 62.4476 43.8672 62.4476Z" fill="#1F1712"/>
<path d="M31.1543 56.5472C30.8715 55.2065 30.2937 53.8346 29.1503 53.081C28.2829 52.5074 27.2098 52.3667 26.1733 52.2395L4.59549 49.5864C4.40199 52.9863 5.85801 57.2183 7.3438 60.284C7.57384 60.7602 7.84041 61.2472 8.28155 61.5381C8.82282 61.8926 9.51023 61.8885 10.1543 61.8723C17.4141 61.6869 24.6767 61.3785 31.8959 60.5843C31.4899 59.276 31.4358 57.8866 31.1543 56.5472Z" fill="#E07B39"/>
<path d="M12.5353 50.562C12.4502 50.563 12.3652 50.5576 12.2809 50.5457L11.5908 50.4713C11.0089 50.4037 10.2065 50.3049 9.3215 50.1831C8.43652 50.0614 7.63544 49.9383 7.05899 49.8368C6.76941 49.7854 6.53666 49.7434 6.3824 49.7015C6.29843 49.6875 6.21565 49.6671 6.13477 49.6406C6.21978 49.6446 6.30437 49.655 6.38781 49.6717L7.07252 49.7773C7.65168 49.8639 8.45141 49.9789 9.33638 50.1006L11.603 50.4104L12.2904 50.5092C12.3733 50.5203 12.4552 50.538 12.5353 50.562Z" fill="#1F1712"/>
<path d="M12.6471 68.3096C12.6386 68.2963 12.6314 68.2823 12.6255 68.2677C12.6092 68.2366 12.5903 68.1946 12.5659 68.1432L12.3467 67.6602L12.1884 67.3179C12.1343 67.1826 12.0815 67.0473 12.0206 66.8931C11.9042 66.5887 11.7581 66.2451 11.6336 65.8514C11.5686 65.6565 11.4983 65.4523 11.4292 65.2385C11.3602 65.0247 11.2939 64.7974 11.233 64.562C11.0977 64.098 10.9813 63.592 10.8569 63.0616C10.3548 60.747 10.1902 58.372 10.3684 56.0102C10.4184 55.4691 10.4577 54.9522 10.5334 54.4733C10.57 54.2338 10.5943 54.0011 10.6349 53.7793C10.6755 53.5574 10.7161 53.3463 10.754 53.1434C10.823 52.7375 10.9205 52.3763 10.9935 52.0611C11.0328 51.9014 11.0652 51.7539 11.1018 51.6186C11.1383 51.4834 11.1776 51.3616 11.21 51.2506C11.2736 51.0328 11.3251 50.8624 11.3602 50.742L11.4022 50.6067C11.406 50.5913 11.4115 50.5763 11.4184 50.562C11.4174 50.5777 11.4142 50.5932 11.4089 50.608L11.3751 50.7433L11.2398 51.2547L11.1383 51.6241C11.1045 51.7593 11.0734 51.9095 11.0368 52.0678C10.9665 52.3871 10.8731 52.7443 10.8081 53.1501C10.773 53.3517 10.7337 53.5641 10.6945 53.7847C10.6552 54.0052 10.6322 54.2379 10.5984 54.4774C10.524 54.9549 10.4874 55.4704 10.4387 56.0116C10.2716 58.3679 10.4355 60.736 10.9259 63.0468C11.049 63.5758 11.1559 64.0817 11.2953 64.5444C11.3616 64.7772 11.4171 65.0031 11.4861 65.2209C11.5551 65.4387 11.6214 65.639 11.6863 65.8338C11.8068 66.2275 11.9489 66.5711 12.0612 66.8782C12.1207 67.0311 12.1708 67.1745 12.2236 67.3044L12.3751 67.6548L12.5808 68.1432L12.6336 68.2717C12.6394 68.2839 12.6439 68.2966 12.6471 68.3096Z" fill="#1F1712"/>
<path d="M12.4182 61.4541C12.136 61.4798 11.852 61.4798 11.5697 61.4541C11.2856 61.4539 11.0021 61.4281 10.7227 61.377C11.0054 61.3522 11.2897 61.3522 11.5725 61.377C11.8561 61.3779 12.1391 61.4037 12.4182 61.4541Z" fill="#1F1712"/>
<path d="M12.2227 62.4476C11.9214 62.4213 11.6267 62.344 11.3512 62.219C11.0663 62.1175 10.8008 61.9679 10.5664 61.7766C10.5786 61.7577 10.9223 61.9647 11.3783 62.1487C11.8343 62.3327 12.2268 62.4179 12.2227 62.4476Z" fill="#1F1712"/>
<path d="M10.3297 55.6667C10.161 55.7726 9.96726 55.8319 9.76817 55.8385C9.57133 55.8692 9.36988 55.8482 9.18359 55.7776C9.18359 55.7546 9.44476 55.7938 9.7614 55.7627C10.078 55.7316 10.3216 55.6464 10.3297 55.6667Z" fill="#1F1712"/>
<path d="M10.7651 55.3415C10.5555 55.3852 10.3374 55.3576 10.1453 55.2631C9.94342 55.1916 9.77169 55.0537 9.6582 54.8721C9.81989 54.9952 9.99298 55.1025 10.1751 55.1927C10.4836 55.3267 10.7651 55.3172 10.7651 55.3415Z" fill="#1F1712"/>
<path d="M24.6589 51.8823L30.3111 51.9513L37.1365 50.5984C37.2438 50.576 37.3416 50.5216 37.4173 50.4423C37.4929 50.3631 37.5427 50.2628 37.5601 50.1547L38.4884 44.0097C38.4989 43.9392 38.4926 43.8672 38.47 43.7995C38.4474 43.7319 38.4092 43.6705 38.3584 43.6204C38.3077 43.5703 38.2458 43.5329 38.1779 43.5112C38.1099 43.4895 38.0378 43.4842 37.9674 43.4956L30.9918 44.6307C30.8951 44.6465 30.8061 44.6931 30.7381 44.7636C30.6701 44.834 30.6266 44.9246 30.6142 45.0217L29.8362 51.2708L24.667 51.2451C24.5825 51.2451 24.5015 51.2786 24.4417 51.3382C24.3818 51.3977 24.348 51.4786 24.3477 51.5631C24.3473 51.6465 24.3797 51.7267 24.4379 51.7864C24.4961 51.8461 24.5755 51.8806 24.6589 51.8823Z" fill="#727272"/>
<path d="M24.6581 51.8827C24.6216 51.8854 24.5849 51.8794 24.5512 51.8651C24.5 51.8467 24.4544 51.8156 24.4186 51.7746C24.3829 51.7337 24.3582 51.6843 24.3469 51.6311C24.3377 51.5875 24.3375 51.5426 24.3463 51.4989C24.3551 51.4553 24.3727 51.414 24.398 51.3774C24.4234 51.3408 24.4559 51.3097 24.4936 51.2861C24.5314 51.2625 24.5735 51.2468 24.6175 51.2401C24.8245 51.232 25.0586 51.2401 25.3266 51.2401L29.834 51.2509L29.8096 51.2725C30.0316 49.4745 30.2954 47.3491 30.5864 44.9842C30.6032 44.9052 30.6394 44.8317 30.6915 44.7701C30.7437 44.7085 30.8103 44.6607 30.8854 44.6311C30.9593 44.6073 31.0355 44.5914 31.1127 44.5837L31.3374 44.5458L32.2481 44.3984L34.1249 44.0912L36.0694 43.7774L37.0627 43.6164L37.5647 43.5338L37.8164 43.4933C37.9026 43.4745 37.9906 43.465 38.0789 43.4648C38.1755 43.4732 38.2675 43.5099 38.3433 43.5703C38.4191 43.6307 38.4754 43.7122 38.5052 43.8044C38.5307 43.8957 38.5335 43.9919 38.5133 44.0845L38.4727 44.3469C38.4204 44.6969 38.368 45.0446 38.3157 45.3901C38.2115 46.0787 38.1087 46.7592 38.0072 47.4262C37.9057 48.0932 37.8069 48.7466 37.7108 49.3879L37.6378 49.8642C37.6256 49.944 37.6148 50.0224 37.6026 50.1009C37.5948 50.184 37.5724 50.2651 37.5363 50.3404C37.4983 50.415 37.4442 50.4802 37.378 50.5315C37.3118 50.5827 37.2351 50.6186 37.1533 50.6367L36.696 50.7273L30.3157 51.9828L26.1723 51.922L25.0532 51.9017L24.7515 51.8949H25.0424L26.1628 51.9017L30.3063 51.9409L36.6838 50.6691L37.1398 50.5771C37.212 50.5615 37.2799 50.5299 37.3384 50.4847C37.3969 50.4396 37.4446 50.3819 37.4781 50.316C37.511 50.2473 37.5308 50.1729 37.5363 50.0969L37.5728 49.8601C37.5958 49.7018 37.6202 49.5422 37.6445 49.3825L37.9395 47.4208C38.0397 46.7542 38.1421 46.0778 38.2467 45.3914C38.2981 45.0469 38.3504 44.6992 38.4037 44.3483L38.4429 44.0858C38.4639 44.0046 38.4639 43.9194 38.4429 43.8383C38.4178 43.7592 38.3698 43.6894 38.305 43.6376C38.2402 43.5859 38.1615 43.5544 38.0789 43.5474C37.9966 43.5481 37.9145 43.5572 37.834 43.5744L37.5809 43.6164L37.0803 43.6975L36.0857 43.8585L34.1425 44.1751L32.2657 44.4795L31.355 44.627L31.1303 44.6635C31.0572 44.6707 30.9851 44.6856 30.9152 44.7082C30.8503 44.7334 30.7928 44.7745 30.7479 44.8277C30.703 44.8808 30.6721 44.9444 30.6581 45.0126C30.3604 47.3694 30.0925 49.4975 29.8665 51.2942V51.3158H29.8435L25.336 51.2834C25.0654 51.2834 24.8313 51.2753 24.6297 51.2834C24.5841 51.2897 24.5406 51.306 24.5022 51.3313C24.4638 51.3566 24.4315 51.3901 24.4078 51.4295C24.3843 51.4683 24.3697 51.5117 24.3648 51.5568C24.3599 51.6018 24.3649 51.6474 24.3795 51.6903C24.394 51.7332 24.4178 51.7724 24.4491 51.8052C24.4804 51.8379 24.5185 51.8635 24.5607 51.88C24.5929 51.8847 24.6256 51.8857 24.6581 51.8827Z" fill="#1F1712"/>
<path d="M31.2167 44.8286C31.2357 44.8286 31.0489 46.4616 30.7986 48.472C30.5482 50.4825 30.3304 52.11 30.3101 52.1073C30.2898 52.1046 30.4792 50.4744 30.7296 48.4639C30.9799 46.4535 31.1978 44.8259 31.2167 44.8286Z" fill="#1F1712"/>
<path d="M34.2505 47.3653C34.1084 47.6616 34.1869 47.9944 34.4251 48.1094C34.6632 48.2244 34.9663 48.0756 35.1138 47.7793C35.2613 47.483 35.1774 47.1502 34.9393 47.0366C34.7011 46.9229 34.3926 47.069 34.2505 47.3653Z" fill="white"/>
<path d="M36.8184 34.2319H23.8035C23.6241 34.2319 23.452 34.3032 23.3251 34.4301C23.1982 34.5569 23.127 34.729 23.127 34.9084V40.8369C23.127 41.0163 23.1982 41.1884 23.3251 41.3152C23.452 41.4421 23.6241 41.5134 23.8035 41.5134H29.2636L30.4233 43.0016L31.3908 41.5134H36.8198C36.9992 41.5134 37.1713 41.4421 37.2982 41.3152C37.4251 41.1884 37.4963 41.0163 37.4963 40.8369V34.9097C37.4965 34.8207 37.4791 34.7325 37.4451 34.6501C37.4111 34.5678 37.3612 34.493 37.2982 34.4301C37.2352 34.3671 37.1604 34.3172 37.0781 34.2832C36.9957 34.2492 36.9075 34.2318 36.8184 34.2319Z" fill="#FBFBFB"/>
<path d="M36.8188 34.2323H36.8838C36.9473 34.237 37.0098 34.2512 37.0692 34.2743C37.1668 34.3112 37.2543 34.3705 37.3249 34.4474C37.4241 34.554 37.4863 34.6897 37.5022 34.8344C37.5143 35.4797 37.5116 36.4186 37.5157 37.6079C37.5157 38.2018 37.5157 38.8593 37.5157 39.571C37.5157 39.9268 37.5157 40.2975 37.5157 40.6803C37.5199 40.7789 37.5153 40.8776 37.5022 40.9753C37.4824 41.0758 37.4404 41.1706 37.379 41.2526C37.3172 41.3376 37.2371 41.4076 37.1445 41.4575C37.052 41.5073 36.9495 41.5358 36.8445 41.5408H31.3831L31.4102 41.5259L30.444 43.0141L30.4183 43.0534L30.3899 43.0168L29.2288 41.5286L29.2559 41.5422H24.0056C23.9109 41.5422 23.8215 41.5422 23.7214 41.5422C23.5746 41.5253 23.4366 41.4633 23.3265 41.3647C23.2164 41.266 23.1398 41.1356 23.1071 40.9915C23.0906 40.8982 23.0847 40.8034 23.0895 40.7088V40.4382C23.0895 39.7031 23.0895 38.9815 23.0895 38.2735V36.1751C23.0895 35.8324 23.0895 35.4941 23.0895 35.1604V34.9101C23.0896 34.7798 23.1256 34.6519 23.1936 34.5407C23.2617 34.4295 23.3591 34.3391 23.4751 34.2797C23.5511 34.2402 23.6336 34.2149 23.7187 34.2053C23.8039 34.1972 23.8824 34.2053 23.9636 34.2053H25.3872H27.1869H30.4196L35.1003 34.2161L36.3723 34.2229L35.1003 34.2296L30.4196 34.2404H27.1869H23.9663C23.8865 34.2404 23.8039 34.2404 23.7282 34.2404C23.651 34.2487 23.5761 34.2716 23.5076 34.3081C23.4026 34.3624 23.3145 34.4444 23.2529 34.5454C23.1913 34.6463 23.1587 34.7622 23.1585 34.8804V36.1454C23.1585 36.8286 23.1585 37.528 23.1585 38.2383V40.6831C23.154 40.7736 23.1594 40.8643 23.1747 40.9536C23.1946 41.0396 23.2318 41.1205 23.2842 41.1915C23.3366 41.2625 23.4029 41.3219 23.4792 41.3663C23.5554 41.4112 23.6403 41.4393 23.7282 41.4488C23.8148 41.4569 23.9122 41.4488 23.9988 41.4488H29.2762L29.2857 41.4623L30.4453 42.9505H30.3912L31.3587 41.4623L31.3682 41.4475H31.3858H36.8445C36.9894 41.4411 37.128 41.3865 37.2383 41.2923C37.3486 41.1982 37.4244 41.07 37.4535 40.9279C37.4662 40.8333 37.4707 40.7378 37.467 40.6425C37.467 40.2596 37.467 39.8889 37.467 39.5331C37.467 38.8214 37.467 38.1639 37.467 37.57C37.467 36.3821 37.4765 35.4391 37.467 34.7978C37.4536 34.6769 37.4078 34.5617 37.3345 34.4646C37.2611 34.3674 37.1629 34.2919 37.0502 34.2459C36.9741 34.2303 36.8962 34.2257 36.8188 34.2323Z" fill="#1F1712"/>
<path d="M26.8563 35.5283H25.5599C25.4643 35.5283 25.3867 35.6059 25.3867 35.7015V36.6269C25.3867 36.7225 25.4643 36.8001 25.5599 36.8001H26.8563C26.9519 36.8001 27.0295 36.7225 27.0295 36.6269V35.7015C27.0295 35.6059 26.9519 35.5283 26.8563 35.5283Z" fill="#E12428"/>
<path d="M25.4154 35.5624L26.0406 36.2293C26.074 36.2747 26.1216 36.3075 26.1759 36.3227C26.2098 36.3278 26.2445 36.3241 26.2766 36.3117C26.3086 36.2994 26.3369 36.2789 26.3586 36.2523C26.4722 36.136 26.5805 36.0156 26.6914 35.8979C26.8024 35.7802 26.9025 35.6746 27.0067 35.5624C27.009 35.559 27.0099 35.5549 27.0095 35.5509C27.0091 35.5469 27.0073 35.5431 27.0045 35.5403C27.0016 35.5374 26.9979 35.5356 26.9938 35.5352C26.9898 35.5348 26.9858 35.5358 26.9824 35.538L26.3856 36.1739C26.3582 36.2094 26.3264 36.2412 26.2909 36.2686C26.2016 36.3254 26.1258 36.2686 26.0663 36.205C25.9526 36.0859 25.8403 35.9655 25.728 35.8451L25.4411 35.538C25.4262 35.5231 25.4019 35.5461 25.4168 35.5624H25.4154Z" fill="#FBFBFB"/>
<path d="M25.4074 36.7918L25.9094 36.2209L25.9798 36.141C25.9946 36.1248 25.9703 36.1004 25.9568 36.1167C25.789 36.3074 25.6212 36.4969 25.4547 36.6876L25.383 36.7674C25.3695 36.7837 25.3925 36.808 25.4074 36.7918Z" fill="#FBFBFB"/>
<path d="M27.0032 36.742L26.5336 36.2009L26.466 36.1224C26.4511 36.1048 26.4281 36.1224 26.4416 36.1454L26.9112 36.6866C26.9342 36.7136 26.9572 36.7393 26.9788 36.7664C27.0005 36.7934 27.0181 36.7583 27.0032 36.742Z" fill="#FBFBFB"/>
<path d="M28.2442 36.5972V36.1764L28.0371 36.5228H27.9641L27.7584 36.1845V36.5972H27.6055V35.895H27.7408L28.0006 36.3361L28.2591 35.8991H28.3944V36.6012L28.2442 36.5972Z" fill="#1F1712"/>
<path d="M29.08 36.3714H28.6741C28.6824 36.405 28.7026 36.4345 28.7309 36.4544C28.7593 36.4743 28.7939 36.4833 28.8283 36.4796C28.8532 36.4808 28.8781 36.4769 28.9014 36.468C28.9246 36.4592 28.9459 36.4456 28.9637 36.4282L29.0476 36.5189C29.0189 36.5487 28.9841 36.5719 28.9455 36.5868C28.9069 36.6018 28.8656 36.6081 28.8243 36.6055C28.7854 36.6094 28.7461 36.6052 28.709 36.5931C28.6718 36.581 28.6376 36.5612 28.6086 36.5351C28.5795 36.509 28.5563 36.4771 28.5403 36.4414C28.5243 36.4058 28.5159 36.3672 28.5158 36.3281C28.5146 36.2904 28.5213 36.2528 28.5354 36.2178C28.5496 36.1828 28.571 36.1512 28.5981 36.1249C28.6253 36.0987 28.6576 36.0784 28.6931 36.0654C28.7285 36.0524 28.7663 36.0469 28.804 36.0494C28.8414 36.0486 28.8786 36.0555 28.9131 36.0698C28.9477 36.0841 28.979 36.1054 29.0049 36.1323C29.0308 36.1593 29.0509 36.1913 29.0638 36.2264C29.0768 36.2615 29.0823 36.2989 29.08 36.3362C29.08 36.3362 29.08 36.3592 29.08 36.3714ZM28.6741 36.2808H28.9447C28.9447 36.2449 28.9305 36.2105 28.9051 36.1851C28.8797 36.1597 28.8453 36.1455 28.8094 36.1455C28.7735 36.1455 28.7391 36.1597 28.7137 36.1851C28.6883 36.2105 28.6741 36.2449 28.6741 36.2808Z" fill="#1F1712"/>
<path d="M29.1309 36.5472L29.1836 36.435C29.24 36.4691 29.3045 36.4873 29.3704 36.4877C29.4434 36.4877 29.4705 36.4674 29.4705 36.4377C29.4705 36.3497 29.1444 36.4377 29.1444 36.2239C29.1444 36.1224 29.2364 36.0494 29.3934 36.0494C29.4656 36.0482 29.5371 36.0645 29.6018 36.0967L29.549 36.2077C29.5015 36.1811 29.4478 36.1676 29.3934 36.1684C29.323 36.1684 29.2932 36.1901 29.2932 36.2185C29.2932 36.3105 29.6194 36.2185 29.6194 36.4336C29.6194 36.5337 29.526 36.6054 29.365 36.6054C29.2831 36.6075 29.2022 36.5874 29.1309 36.5472Z" fill="#1F1712"/>
<path d="M29.6641 36.5473L29.7155 36.435C29.7724 36.469 29.8373 36.4872 29.9036 36.4877C29.9753 36.4877 30.0024 36.4674 30.0024 36.4377C30.0024 36.3497 29.6762 36.4377 29.6762 36.2239C29.6762 36.1224 29.7683 36.0494 29.9266 36.0494C29.9984 36.0481 30.0695 36.0643 30.1336 36.0967L30.0822 36.2077C30.0346 36.1813 29.981 36.1678 29.9266 36.1684C29.8562 36.1684 29.8264 36.1901 29.8264 36.2185C29.8264 36.3105 30.1526 36.2185 30.1526 36.4336C30.1526 36.5337 30.0592 36.6054 29.8968 36.6054C29.8154 36.6073 29.735 36.5872 29.6641 36.5473Z" fill="#1F1712"/>
<path d="M30.7257 36.2889V36.5974H30.5783V36.5297C30.5604 36.5561 30.5358 36.5771 30.5069 36.5904C30.4781 36.6038 30.4461 36.609 30.4145 36.6055C30.2873 36.6055 30.2129 36.5351 30.2129 36.4418C30.2129 36.3484 30.2792 36.2808 30.4443 36.2808H30.5701C30.5701 36.2131 30.5295 36.1739 30.4456 36.1739C30.3897 36.1735 30.3352 36.1911 30.29 36.224L30.2345 36.1144C30.3039 36.07 30.385 36.0474 30.4673 36.0494C30.6297 36.0494 30.7257 36.1266 30.7257 36.2889ZM30.5688 36.4242V36.3687H30.4619C30.3888 36.3687 30.3645 36.3958 30.3645 36.4323C30.3645 36.4689 30.3983 36.4973 30.4538 36.4973C30.4781 36.4994 30.5025 36.4938 30.5235 36.4811C30.5444 36.4685 30.5607 36.4495 30.5701 36.4269L30.5688 36.4242Z" fill="#1F1712"/>
<path d="M31.43 36.0573V36.5064C31.4337 36.5468 31.4284 36.5874 31.4144 36.6254C31.4003 36.6634 31.3779 36.6977 31.3488 36.7259C31.3197 36.7541 31.2847 36.7754 31.2463 36.7882C31.2079 36.801 31.1671 36.8051 31.1269 36.8C31.031 36.8048 30.9362 36.7787 30.8562 36.7256L30.9185 36.6133C30.9742 36.653 31.0409 36.6743 31.1093 36.6742C31.2202 36.6742 31.2676 36.6242 31.2676 36.5267V36.5037C31.2458 36.5267 31.2193 36.5447 31.1898 36.5564C31.1604 36.5681 31.1287 36.5732 31.0971 36.5714C31.0278 36.5714 30.9614 36.5439 30.9124 36.4949C30.8635 36.4459 30.8359 36.3795 30.8359 36.3103C30.8359 36.241 30.8635 36.1746 30.9124 36.1256C30.9614 36.0767 31.0278 36.0492 31.0971 36.0492C31.1308 36.0473 31.1645 36.0533 31.1955 36.0667C31.2265 36.0801 31.254 36.1005 31.2757 36.1263V36.0573H31.43ZM31.2757 36.3103C31.2771 36.2816 31.2697 36.2533 31.2546 36.2289C31.2395 36.2045 31.2174 36.1853 31.1912 36.1737C31.165 36.1621 31.1359 36.1588 31.1077 36.164C31.0795 36.1693 31.0536 36.1829 31.0333 36.2032C31.0131 36.2235 30.9994 36.2494 30.9941 36.2776C30.9889 36.3057 30.9922 36.3348 31.0038 36.3611C31.0154 36.3873 31.0346 36.4094 31.059 36.4245C31.0834 36.4395 31.1118 36.4469 31.1404 36.4456C31.1763 36.4456 31.2107 36.4313 31.2361 36.4059C31.2615 36.3806 31.2757 36.3462 31.2757 36.3103Z" fill="#1F1712"/>
<path d="M32.1021 36.3713H31.6962C31.7045 36.4049 31.7247 36.4344 31.753 36.4543C31.7814 36.4742 31.816 36.4832 31.8504 36.4796C31.8753 36.4808 31.9002 36.4769 31.9235 36.468C31.9468 36.4592 31.968 36.4456 31.9858 36.4281L32.0696 36.5188C32.041 36.5486 32.0061 36.5718 31.9676 36.5867C31.929 36.6017 31.8877 36.6081 31.8464 36.6054C31.8076 36.6091 31.7685 36.6048 31.7315 36.5926C31.6945 36.5804 31.6605 36.5606 31.6316 36.5345C31.6027 36.5084 31.5795 36.4765 31.5636 36.441C31.5477 36.4054 31.5394 36.367 31.5392 36.328C31.538 36.2904 31.5447 36.253 31.5588 36.2181C31.5729 36.1832 31.5941 36.1516 31.6211 36.1254C31.6481 36.0991 31.6803 36.0788 31.7156 36.0657C31.7509 36.0526 31.7885 36.047 31.8261 36.0493C31.8633 36.0478 31.9005 36.054 31.9352 36.0675C31.97 36.081 32.0016 36.1016 32.028 36.1279C32.0544 36.1542 32.0751 36.1857 32.0888 36.2203C32.1025 36.255 32.1089 36.2921 32.1075 36.3294C32.1048 36.3361 32.1035 36.3591 32.1021 36.3713ZM31.6962 36.2807H31.9668C31.9668 36.2448 31.9525 36.2104 31.9272 36.185C31.9018 36.1596 31.8674 36.1454 31.8315 36.1454C31.7956 36.1454 31.7612 36.1596 31.7358 36.185C31.7104 36.2104 31.6962 36.2448 31.6962 36.2807Z" fill="#1F1712"/>
<path d="M32.1543 36.5472L32.2071 36.435C32.2639 36.4692 32.3289 36.4874 32.3952 36.4877C32.4669 36.4877 32.4939 36.4674 32.4939 36.4377C32.4939 36.3497 32.1678 36.4377 32.1678 36.2239C32.1678 36.1224 32.2598 36.0494 32.4182 36.0494C32.49 36.0482 32.561 36.0645 32.6252 36.0967L32.5738 36.2077C32.5262 36.1814 32.4726 36.1679 32.4182 36.1684C32.3478 36.1684 32.3167 36.1901 32.3167 36.2185C32.3167 36.3105 32.6428 36.2185 32.6428 36.4336C32.6428 36.5337 32.5508 36.6054 32.3884 36.6054C32.3066 36.6073 32.2257 36.5872 32.1543 36.5472Z" fill="#1F1712"/>
<path d="M25.293 38.6509C25.293 37.9879 25.661 37.6118 26.1536 37.6118C26.6461 37.6118 27.0156 37.9879 27.0156 38.6509C27.0156 39.3138 26.6502 39.6899 26.1536 39.6899C25.657 39.6899 25.293 39.3124 25.293 38.6509ZM26.5474 38.6509C26.5474 38.1949 26.3863 38.0055 26.1536 38.0055C25.9208 38.0055 25.7639 38.1949 25.7639 38.6509C25.7639 39.1068 25.9249 39.2962 26.1536 39.2962C26.3823 39.2962 26.5487 39.1068 26.5487 38.6509H26.5474Z" fill="#1F1712"/>
<path d="M28.9233 39.073C28.9233 39.4519 28.585 39.69 28.0749 39.69C27.5647 39.69 27.2305 39.4519 27.2305 39.073C27.2294 38.973 27.2576 38.8748 27.3117 38.7906C27.3658 38.7065 27.4435 38.64 27.535 38.5995C27.4638 38.5584 27.4048 38.4992 27.3639 38.4279C27.323 38.3567 27.3017 38.2758 27.3022 38.1936C27.3022 37.8405 27.6175 37.6187 28.0749 37.6187C28.5323 37.6187 28.8516 37.8405 28.8516 38.1936C28.8518 38.2761 28.8302 38.3571 28.7888 38.4284C28.7474 38.4997 28.6878 38.5588 28.6162 38.5995C28.7085 38.6392 28.787 38.7053 28.8417 38.7896C28.8964 38.8739 28.9248 38.9726 28.9233 39.073ZM28.4538 39.0582C28.4538 38.8809 28.3063 38.7713 28.0749 38.7713C27.8435 38.7713 27.7014 38.8809 27.7014 39.0582C27.7014 39.2354 27.8448 39.349 28.0749 39.349C28.3049 39.349 28.4538 39.2367 28.4538 39.0582ZM27.765 38.2058C27.765 38.3587 27.8854 38.4534 28.0749 38.4534C28.2643 38.4534 28.3902 38.3587 28.3902 38.2058C28.3902 38.0529 28.2684 37.9596 28.0749 37.9596C27.8814 37.9596 27.765 38.0489 27.765 38.2058Z" fill="#1F1712"/>
<path d="M30.8192 39.073C30.8192 39.4519 30.4796 39.69 29.9694 39.69C29.4593 39.69 29.125 39.4519 29.125 39.073C29.1239 38.973 29.1521 38.8748 29.2062 38.7906C29.2604 38.7065 29.338 38.64 29.4295 38.5995C29.3583 38.5584 29.2993 38.4992 29.2584 38.4279C29.2175 38.3567 29.1963 38.2758 29.1968 38.1936C29.1968 37.8405 29.5134 37.6187 29.9694 37.6187C30.4254 37.6187 30.7475 37.8405 30.7475 38.1936C30.7474 38.276 30.7256 38.3569 30.6843 38.4282C30.643 38.4995 30.5835 38.5586 30.512 38.5995C30.6043 38.6393 30.6827 38.7055 30.7373 38.7898C30.792 38.8741 30.8205 38.9726 30.8192 39.073ZM30.3483 39.0582C30.3483 38.8809 30.2022 38.7713 29.9694 38.7713C29.7367 38.7713 29.5959 38.8809 29.5959 39.0582C29.5959 39.2354 29.7394 39.349 29.9694 39.349C30.1995 39.349 30.3483 39.2367 30.3483 39.0582ZM29.6595 38.2058C29.6595 38.3587 29.78 38.4534 29.9694 38.4534C30.1589 38.4534 30.2847 38.3587 30.2847 38.2058C30.2847 38.0529 30.1629 37.9596 29.9694 37.9596C29.7759 37.9596 29.6595 38.0489 29.6595 38.2058Z" fill="#1F1712"/>
<path d="M31.8089 37.647V39.6561H31.3435V38.0204H30.9375V37.647H31.8089Z" fill="#1F1712"/>
<path d="M33.6591 39.2772V39.656H32.1408V39.3543L32.9149 38.6223C33.0935 38.4532 33.1246 38.3518 33.1246 38.2516C33.1246 38.0947 33.0164 38.0027 32.8039 38.0027C32.7233 37.9994 32.6432 38.016 32.5705 38.0509C32.4979 38.0858 32.4349 38.138 32.3871 38.2029L32.0488 37.9851C32.1409 37.862 32.2619 37.7634 32.4012 37.6983C32.5404 37.6332 32.6937 37.6034 32.8472 37.6117C33.2938 37.6117 33.5928 37.8417 33.5928 38.2056C33.5928 38.4018 33.5387 38.5791 33.2572 38.8402L32.7944 39.2772H33.6591Z" fill="#1F1712"/>
<path d="M35.3358 39.0418C35.3358 39.3801 35.0746 39.6899 34.5036 39.6899C34.2323 39.6949 33.9655 39.6201 33.7363 39.4748L33.9177 39.119C34.0849 39.2386 34.2858 39.302 34.4914 39.3002C34.7242 39.3002 34.8676 39.2055 34.8676 39.0418C34.8676 38.8781 34.7553 38.7942 34.4914 38.7942H34.279V38.4871L34.693 38.0204H33.8378V37.647H35.2438V37.9487L34.7905 38.4641C35.1518 38.5223 35.3358 38.7455 35.3358 39.0418Z" fill="#1F1712"/>
</g>
<defs>
<clipPath id="clip0_1928_36234">
<rect width="80" height="80" fill="white"/>
</clipPath>
</defs>
</svg>
