<svg width="316" height="301" viewBox="0 0 316 301" fill="none" xmlns="http://www.w3.org/2000/svg">
<path opacity="0.5" d="M158 300.993C70.739 300.993 0 296.499 0 290.956C0 285.413 70.739 280.919 158 280.919C245.261 280.919 316 285.413 316 290.956C316 296.499 245.261 300.993 158 300.993Z" fill="#F8F5F2"/>
<path d="M196.032 156.64L196.032 290.757C196.032 290.757 193.293 291.5 191.497 291.513C189.614 291.528 186.734 290.757 186.734 290.757L186.734 156.64H196.032Z" fill="#3A8DFF"/>
<path opacity="0.3" d="M196.023 156.648H186.725V179.204L196.023 176.806V156.648Z" fill="black"/>
<path d="M141.66 173.347H224.6V157.798C224.6 152.147 222.358 146.728 218.366 142.732C214.374 138.736 208.96 136.491 203.315 136.491H162.945C157.3 136.491 151.886 138.736 147.894 142.732C143.903 146.728 141.66 152.147 141.66 157.798V173.347Z" fill="#3A8DFF"/>
<path opacity="0.2" d="M224.6 168.738H184.23V158.468H224.6V168.738Z" fill="white"/>
<path d="M184.23 173.347V157.799C184.23 152.148 181.988 146.728 177.996 142.732C174.004 138.736 168.591 136.491 162.945 136.491C157.3 136.491 151.886 138.736 147.895 142.732C143.903 146.728 141.66 152.148 141.66 157.799V173.347" fill="url(#paint0_radial_1837_6662)"/>
<path d="M184.233 176.08H125.984V173.347H184.233V176.08Z" fill="#3A8DFF"/>
<path opacity="0.3" d="M168.554 176.08H125.984V173.347H168.554V176.08Z" fill="black"/>
<path d="M191.371 162.188H189.863V126.188H191.371V162.188Z" fill="#64574F"/>
<path d="M199.957 133.179H189.412V128.007C189.412 127.826 189.484 127.651 189.613 127.523C189.741 127.394 189.915 127.322 190.097 127.322H199.957L198.229 130.251L199.957 133.179Z" fill="#D9484D"/>
<path d="M93.9636 23.2734C94.055 23.2719 94.1433 23.2398 94.2142 23.1821C94.2852 23.1244 94.3347 23.0445 94.3548 22.9552C94.368 22.9032 94.3707 22.8491 94.3626 22.796C94.3546 22.743 94.3359 22.6921 94.3078 22.6464C94.2796 22.6008 94.2426 22.5612 94.1988 22.5302C94.1551 22.4991 94.1056 22.4772 94.0532 22.4658C93.149 22.259 92.2611 21.9864 91.3967 21.65C91.3469 21.6302 91.2938 21.6204 91.2402 21.6211C91.1867 21.6219 91.1338 21.6332 91.0846 21.6544C91.0354 21.6756 90.9909 21.7063 90.9535 21.7447C90.9162 21.7832 90.8868 21.8286 90.867 21.8784C90.8472 21.9282 90.8374 21.9815 90.8382 22.0351C90.8389 22.0887 90.8502 22.1416 90.8714 22.1908C90.8926 22.2401 90.9233 22.2847 90.9617 22.322C91 22.3594 91.0454 22.3888 91.0952 22.4087C91.9954 22.7691 92.9216 23.0609 93.8658 23.2815L93.9636 23.2734Z" fill="#E07B39"/>
<path d="M124.589 164.194C124.694 164.193 124.794 164.151 124.869 164.079C124.945 164.006 124.99 163.907 124.996 163.803C124.999 163.749 124.99 163.696 124.972 163.645C124.953 163.595 124.925 163.549 124.889 163.51C124.852 163.47 124.809 163.438 124.76 163.416C124.711 163.393 124.659 163.381 124.605 163.379C122.723 163.281 120.8 163.109 118.901 162.857C118.794 162.845 118.687 162.875 118.602 162.94C118.517 163.005 118.461 163.101 118.445 163.207C118.437 163.261 118.439 163.315 118.453 163.367C118.466 163.419 118.49 163.468 118.523 163.51C118.555 163.553 118.596 163.589 118.643 163.615C118.69 163.641 118.742 163.658 118.795 163.664C120.718 163.925 122.666 164.097 124.573 164.186L124.589 164.194ZM113.18 162.685C113.288 162.697 113.397 162.666 113.482 162.598C113.566 162.529 113.621 162.43 113.633 162.322C113.645 162.214 113.613 162.106 113.545 162.021C113.477 161.936 113.378 161.881 113.27 161.87C111.355 161.453 109.489 160.964 107.729 160.409C107.677 160.388 107.62 160.377 107.564 160.378C107.508 160.38 107.452 160.393 107.401 160.416C107.35 160.44 107.304 160.475 107.267 160.517C107.229 160.56 107.201 160.609 107.184 160.663C107.167 160.717 107.162 160.774 107.168 160.83C107.174 160.887 107.192 160.941 107.22 160.99C107.248 161.039 107.286 161.081 107.332 161.115C107.377 161.148 107.429 161.172 107.484 161.184C109.269 161.747 111.151 162.245 113.099 162.669L113.18 162.685ZM102.22 159.161C102.298 159.162 102.373 159.14 102.439 159.098C102.504 159.056 102.555 158.995 102.587 158.925C102.61 158.876 102.624 158.823 102.626 158.769C102.629 158.715 102.621 158.661 102.603 158.61C102.585 158.56 102.557 158.513 102.52 158.473C102.484 158.433 102.44 158.401 102.391 158.378C101.01 157.76 99.6776 157.038 98.4063 156.216L97.4366 155.564C97.3468 155.505 97.2373 155.484 97.132 155.505C97.0267 155.526 96.9341 155.589 96.8743 155.678C96.8437 155.722 96.8221 155.771 96.8108 155.823C96.7995 155.875 96.7988 155.929 96.8087 155.982C96.8185 156.034 96.8388 156.084 96.8683 156.129C96.8978 156.173 96.9358 156.211 96.9803 156.241L97.9582 156.893C99.2575 157.739 100.62 158.483 102.033 159.12C102.084 159.144 102.139 159.158 102.196 159.161H102.22ZM92.6287 152.807C92.6871 152.806 92.7448 152.793 92.798 152.77C92.8513 152.746 92.8991 152.711 92.9384 152.668C93.0084 152.585 93.0433 152.478 93.0356 152.37C93.028 152.262 92.9785 152.161 92.8976 152.089C91.454 150.842 90.1157 149.478 88.8965 148.01C88.8256 147.928 88.7253 147.877 88.6172 147.868C88.5091 147.858 88.4017 147.892 88.3179 147.961C88.2766 147.995 88.2425 148.037 88.2176 148.084C88.1928 148.131 88.1776 148.183 88.173 148.236C88.1685 148.289 88.1746 148.343 88.1911 148.394C88.2076 148.445 88.2341 148.492 88.269 148.532C89.5142 150.023 90.8767 151.411 92.3435 152.684C92.4122 152.756 92.5052 152.8 92.6043 152.807H92.6287ZM85.3843 143.915C85.45 143.915 85.5146 143.898 85.5717 143.866C85.6677 143.817 85.7404 143.732 85.774 143.63C85.8076 143.527 85.7994 143.416 85.751 143.319C85.4848 142.808 85.2404 142.286 85.0176 141.753C84.5142 140.536 84.1056 139.281 83.7953 138.001C83.7824 137.947 83.7592 137.897 83.7268 137.852C83.6945 137.807 83.6537 137.77 83.6068 137.741C83.5599 137.712 83.5078 137.693 83.4534 137.684C83.3991 137.676 83.3436 137.678 83.2901 137.691C83.2365 137.704 83.1861 137.727 83.1416 137.759C83.097 137.792 83.0593 137.832 83.0306 137.879C83.0018 137.926 82.9826 137.979 82.974 138.033C82.9654 138.087 82.9675 138.143 82.9804 138.196C83.298 139.52 83.7204 140.815 84.2435 142.071C84.4716 142.618 84.7243 143.156 85.0013 143.703C85.0358 143.768 85.0875 143.822 85.1508 143.859C85.2141 143.897 85.2864 143.916 85.3599 143.915H85.3843ZM82.5567 132.804C82.6109 132.801 82.664 132.787 82.7129 132.763C82.7617 132.739 82.8052 132.706 82.8409 132.665C82.8766 132.624 82.9037 132.576 82.9207 132.524C82.9376 132.473 82.9441 132.418 82.9397 132.364C82.8663 131.254 82.8256 130.08 82.8256 128.783C82.8256 128.065 82.8256 127.355 82.8256 126.637C82.8277 126.583 82.8191 126.529 82.8001 126.478C82.7811 126.427 82.7522 126.381 82.715 126.341C82.6778 126.302 82.6331 126.27 82.5835 126.248C82.5339 126.226 82.4805 126.214 82.4263 126.213C82.3725 126.211 82.3188 126.22 82.2684 126.239C82.2181 126.258 82.1721 126.287 82.1333 126.324C82.0945 126.362 82.0636 126.406 82.0425 126.456C82.0215 126.506 82.0106 126.559 82.0107 126.613C82.0107 127.339 82.0107 128.057 82.0107 128.783C82.0107 130.104 82.0514 131.295 82.1248 132.421C82.131 132.525 82.1766 132.622 82.2524 132.694C82.3281 132.765 82.4282 132.805 82.5322 132.804H82.5567ZM82.7115 121.261C82.8154 121.262 82.9155 121.222 82.9913 121.151C83.067 121.08 83.1127 120.982 83.1189 120.878C83.1922 119.247 83.2656 117.436 83.2656 115.657V115.078C83.2694 115.024 83.2613 114.97 83.2421 114.919C83.2228 114.868 83.1928 114.822 83.154 114.784C83.1153 114.746 83.0688 114.717 83.0177 114.699C82.9666 114.68 82.9122 114.674 82.8582 114.678C82.7501 114.678 82.6464 114.721 82.57 114.798C82.4936 114.874 82.4507 114.978 82.4507 115.086V115.657C82.4507 117.419 82.3774 119.189 82.304 120.837C82.3018 120.891 82.3102 120.944 82.3287 120.995C82.3472 121.045 82.3754 121.091 82.4117 121.131C82.4481 121.17 82.4918 121.202 82.5404 121.224C82.5891 121.247 82.6416 121.259 82.6952 121.261H82.7115ZM47.8747 116.236C48.6163 116.236 49.3415 116.236 50.0342 116.188C50.0877 116.185 50.1403 116.173 50.1889 116.15C50.2376 116.128 50.2813 116.096 50.3176 116.057C50.3539 116.017 50.3822 115.971 50.4007 115.921C50.4191 115.87 50.4275 115.817 50.4253 115.763C50.4232 115.71 50.4106 115.657 50.3882 115.608C50.3657 115.56 50.3339 115.516 50.2946 115.48C50.2552 115.443 50.2091 115.415 50.1588 115.396C50.1085 115.378 50.0551 115.37 50.0016 115.372C49.3171 115.372 48.6 115.421 47.8747 115.421C46.6798 115.427 45.4856 115.367 44.2973 115.241C44.1893 115.229 44.0809 115.261 43.9961 115.329C43.9113 115.397 43.8569 115.496 43.8451 115.604C43.8332 115.712 43.8647 115.821 43.9327 115.906C44.0007 115.991 44.0996 116.045 44.2077 116.057C45.4178 116.182 46.6337 116.241 47.8503 116.236H47.8747ZM55.771 115.82C57.6779 115.674 59.6173 115.502 61.5242 115.307C61.5778 115.301 61.6299 115.286 61.6774 115.26C61.7249 115.235 61.7669 115.2 61.801 115.159C61.8351 115.117 61.8606 115.069 61.8761 115.017C61.8915 114.966 61.8965 114.911 61.8909 114.858C61.8858 114.804 61.8702 114.752 61.8448 114.704C61.8195 114.657 61.785 114.615 61.7433 114.581C61.7016 114.547 61.6536 114.521 61.602 114.506C61.5504 114.49 61.4963 114.485 61.4427 114.491C59.544 114.687 57.6127 114.866 55.7385 115.013C55.6304 115.013 55.5267 115.056 55.4503 115.132C55.3739 115.209 55.331 115.313 55.331 115.421C55.331 115.529 55.3739 115.633 55.4503 115.709C55.5267 115.786 55.6304 115.829 55.7385 115.829L55.771 115.82ZM38.6582 114.654C38.7364 114.653 38.8129 114.63 38.879 114.589C38.9452 114.547 38.9985 114.488 39.0331 114.417C39.0772 114.319 39.0805 114.207 39.0423 114.106C39.0042 114.005 38.9276 113.923 38.8294 113.879C37.1208 113.154 35.6738 111.925 34.6816 110.355C34.6563 110.304 34.6208 110.26 34.5774 110.224C34.534 110.188 34.4836 110.161 34.4294 110.146C34.3751 110.13 34.3183 110.126 34.2624 110.134C34.2065 110.141 34.1528 110.16 34.1047 110.19C34.0566 110.219 34.0151 110.258 33.9829 110.305C33.9507 110.351 33.9284 110.404 33.9175 110.459C33.9066 110.514 33.9074 110.571 33.9196 110.627C33.9319 110.682 33.9555 110.734 33.9889 110.779C35.0615 112.489 36.6312 113.83 38.4871 114.621C38.5413 114.644 38.5996 114.655 38.6582 114.654ZM67.2203 114.654H67.2692C69.1679 114.409 71.0992 114.132 72.9735 113.838C73.0265 113.83 73.0774 113.812 73.1233 113.784C73.1692 113.756 73.2092 113.72 73.241 113.677C73.2728 113.634 73.2957 113.585 73.3086 113.532C73.3214 113.48 73.3238 113.426 73.3157 113.373C73.2977 113.267 73.2392 113.172 73.1526 113.108C73.0659 113.044 72.9579 113.016 72.8512 113.031C70.9607 113.324 69.0457 113.602 67.147 113.846C67.0389 113.853 66.9378 113.902 66.866 113.983C66.7942 114.064 66.7575 114.17 66.764 114.279C66.7705 114.387 66.8196 114.488 66.9006 114.56C66.9816 114.632 67.0878 114.669 67.1959 114.662L67.2203 114.654ZM78.6289 112.884H78.7022C80.5846 112.541 82.4915 112.166 84.3657 111.774C84.4738 111.753 84.5688 111.689 84.6299 111.597C84.6911 111.505 84.7133 111.393 84.6917 111.285C84.6701 111.177 84.6064 111.082 84.5147 111.02C84.423 110.959 84.3108 110.937 84.2027 110.959C82.3285 111.35 80.4298 111.725 78.5555 112.068C78.5024 112.077 78.4516 112.096 78.4061 112.125C78.3605 112.153 78.321 112.191 78.2899 112.235C78.2589 112.279 78.2368 112.329 78.2251 112.381C78.2133 112.434 78.2121 112.488 78.2214 112.541C78.2416 112.633 78.292 112.715 78.3644 112.774C78.4369 112.833 78.5272 112.866 78.6207 112.867L78.6289 112.884ZM89.9152 110.518H90.0129C91.8709 110.078 93.7614 109.604 95.6113 109.115C95.6648 109.102 95.7151 109.078 95.7594 109.045C95.8037 109.012 95.8411 108.971 95.8695 108.923C95.8979 108.876 95.9167 108.824 95.9248 108.769C95.9329 108.714 95.9302 108.659 95.9168 108.605C95.9035 108.552 95.8797 108.501 95.8468 108.457C95.814 108.412 95.7728 108.375 95.7255 108.347C95.6782 108.318 95.6258 108.299 95.5712 108.291C95.5167 108.283 95.461 108.286 95.4075 108.299C93.5577 108.789 91.6835 109.262 89.8255 109.694C89.7198 109.721 89.6286 109.788 89.571 109.881C89.5133 109.973 89.4935 110.085 89.5158 110.192C89.5375 110.28 89.5877 110.358 89.6585 110.414C89.7293 110.47 89.8167 110.501 89.907 110.502L89.9152 110.518ZM82.4344 109.751H82.4996C82.6057 109.733 82.7006 109.675 82.7645 109.588C82.8283 109.501 82.856 109.393 82.8418 109.286C82.5564 107.347 82.0731 105.441 81.3995 103.601C81.3627 103.499 81.2871 103.416 81.1893 103.37C81.0915 103.324 80.9795 103.319 80.8779 103.356C80.7764 103.393 80.6936 103.468 80.6478 103.566C80.6019 103.664 80.5968 103.776 80.6335 103.878C81.2828 105.664 81.747 107.512 82.0188 109.392C82.0344 109.489 82.0842 109.577 82.159 109.639C82.2337 109.702 82.3286 109.736 82.4263 109.735L82.4344 109.751ZM101.071 107.573C101.109 107.581 101.147 107.581 101.185 107.573C103.019 107.043 104.885 106.472 106.71 105.885C106.762 105.869 106.809 105.843 106.851 105.808C106.892 105.774 106.925 105.731 106.95 105.683C106.974 105.635 106.989 105.583 106.992 105.529C106.996 105.475 106.989 105.422 106.971 105.371C106.937 105.268 106.864 105.183 106.768 105.134C106.672 105.085 106.56 105.076 106.458 105.11C104.64 105.689 102.79 106.26 100.957 106.79C100.853 106.82 100.766 106.891 100.714 106.986C100.662 107.08 100.65 107.192 100.68 107.296C100.709 107.374 100.761 107.441 100.83 107.488C100.898 107.534 100.98 107.559 101.063 107.557L101.071 107.573ZM33.1821 105.477C33.2768 105.475 33.368 105.441 33.4406 105.38C33.5132 105.319 33.5629 105.235 33.5815 105.142C34.0216 103.344 35.0341 101.738 36.4662 100.566C36.5041 100.529 36.5343 100.484 36.5548 100.435C36.5754 100.386 36.586 100.334 36.586 100.28C36.586 100.227 36.5754 100.175 36.5548 100.126C36.5343 100.077 36.5041 100.032 36.4662 99.9949C36.4283 99.9567 36.3832 99.9263 36.3336 99.9056C36.2839 99.8849 36.2307 99.8742 36.1769 99.8742C36.1231 99.8742 36.0699 99.8849 36.0202 99.9056C35.9705 99.9263 35.9255 99.9567 35.8876 99.9949C34.3211 101.281 33.219 103.047 32.7502 105.02C32.7395 105.072 32.7393 105.126 32.7495 105.179C32.7596 105.232 32.78 105.282 32.8096 105.326C32.8391 105.371 32.8771 105.41 32.9214 105.44C32.9658 105.47 33.0156 105.491 33.0681 105.501L33.1821 105.477ZM112.048 104.049C112.093 104.058 112.14 104.058 112.186 104.049C114.044 103.388 115.861 102.703 117.605 102.018C117.704 101.976 117.784 101.898 117.826 101.799C117.869 101.7 117.871 101.588 117.833 101.488C117.814 101.438 117.784 101.392 117.747 101.354C117.71 101.315 117.665 101.285 117.616 101.264C117.567 101.242 117.514 101.231 117.46 101.23C117.407 101.23 117.354 101.239 117.304 101.259C115.576 101.945 113.759 102.622 111.917 103.282C111.816 103.318 111.733 103.391 111.686 103.487C111.638 103.584 111.631 103.695 111.665 103.796C111.698 103.868 111.751 103.928 111.817 103.97C111.884 104.012 111.961 104.034 112.04 104.033L112.048 104.049ZM122.772 99.7828C122.825 99.7948 122.881 99.7948 122.935 99.7828C124.727 98.967 126.488 98.1513 128.158 97.2948C128.21 97.2732 128.257 97.2412 128.295 97.2007C128.334 97.1603 128.364 97.1122 128.384 97.0596C128.403 97.007 128.412 96.951 128.408 96.895C128.405 96.839 128.39 96.7842 128.365 96.7342C128.34 96.6841 128.305 96.6398 128.261 96.6041C128.218 96.5683 128.168 96.5418 128.114 96.5263C128.06 96.5108 128.004 96.5065 127.948 96.5138C127.893 96.5211 127.839 96.5398 127.791 96.5687C126.162 97.3845 124.385 98.2002 122.601 99.016C122.493 99.0387 122.398 99.1035 122.338 99.196C122.277 99.2886 122.256 99.4013 122.279 99.5095C122.301 99.6177 122.366 99.7124 122.459 99.7728C122.551 99.8333 122.664 99.8545 122.772 99.8317V99.7828ZM78.3436 99.0731C78.4305 99.0729 78.5154 99.0474 78.5881 98.9997C78.6745 98.9348 78.7317 98.8381 78.747 98.7311C78.7623 98.624 78.7344 98.5152 78.6696 98.4287C77.6041 96.9647 76.2947 95.6953 74.7988 94.6762L74.3751 94.407C74.3296 94.3786 74.279 94.3595 74.2261 94.3507C74.1732 94.3419 74.1192 94.3436 74.067 94.3557C74.0147 94.3678 73.9654 94.3901 73.9218 94.4213C73.8782 94.4525 73.8412 94.492 73.8128 94.5375C73.7845 94.5831 73.7653 94.6337 73.7565 94.6867C73.7477 94.7396 73.7495 94.7937 73.7616 94.846C73.7737 94.8983 73.7959 94.9476 73.8271 94.9913C73.8583 95.0349 73.8977 95.072 73.9432 95.1004L74.3425 95.3533C75.7616 96.3199 77.0047 97.5229 78.0177 98.9099C78.0568 98.9561 78.1055 98.9931 78.1604 99.0185C78.2153 99.0438 78.275 99.0569 78.3355 99.0568L78.3436 99.0731ZM40.9644 97.4416C41.0325 97.441 41.0995 97.4242 41.16 97.3927C41.8445 97.0256 42.5127 96.6829 43.1483 96.3648C44.1832 95.859 45.2507 95.3859 46.3264 94.9617C46.38 94.9454 46.4297 94.9182 46.4724 94.8818C46.515 94.8453 46.5497 94.8005 46.5742 94.7501C46.5988 94.6996 46.6127 94.6446 46.615 94.5886C46.6174 94.5325 46.6081 94.4766 46.5879 94.4242C46.5676 94.3719 46.5368 94.3243 46.4974 94.2844C46.458 94.2446 46.4107 94.2133 46.3586 94.1925C46.3066 94.1718 46.2508 94.162 46.1947 94.1638C46.1387 94.1656 46.0837 94.179 46.0331 94.2031C44.9329 94.6273 43.841 95.1167 42.7735 95.6388C42.1379 95.9569 41.4533 96.2995 40.7607 96.6748C40.667 96.7281 40.5976 96.8157 40.5672 96.9192C40.5368 97.0227 40.5477 97.1339 40.5977 97.2295C40.6343 97.2914 40.687 97.3423 40.7501 97.3768C40.8132 97.4112 40.8844 97.428 40.9562 97.4253L40.9644 97.4416ZM133.048 94.5457C133.12 94.5471 133.19 94.5272 133.251 94.4886C134.954 93.5015 136.609 92.4737 138.141 91.4214C138.22 91.3576 138.272 91.2666 138.288 91.1662C138.303 91.0658 138.281 90.9631 138.225 90.8784C138.169 90.7937 138.083 90.733 137.985 90.7082C137.886 90.6834 137.782 90.6962 137.692 90.7443C136.144 91.7803 134.506 92.8081 132.803 93.787C132.727 93.8325 132.667 93.9017 132.634 93.9841C132.6 94.0666 132.594 94.1578 132.617 94.2437C132.641 94.3297 132.691 94.4057 132.761 94.4602C132.832 94.5148 132.918 94.5448 133.007 94.5457H133.048ZM51.6803 93.265H51.7781C53.6313 92.825 55.5128 92.5143 57.409 92.335C57.5157 92.3247 57.6141 92.2726 57.6827 92.1901C57.7514 92.1077 57.7848 92.0014 57.7757 91.8945C57.7634 91.787 57.7096 91.6885 57.626 91.6199C57.5423 91.5514 57.4352 91.5182 57.3275 91.5274C55.4064 91.7096 53.5003 92.0258 51.6232 92.4737C51.5152 92.4856 51.4163 92.54 51.3482 92.6249C51.2802 92.7098 51.2487 92.8182 51.2606 92.9264C51.2725 93.0346 51.3268 93.1336 51.4116 93.2017C51.4965 93.2698 51.6048 93.3013 51.7129 93.2894L51.6803 93.265ZM68.8338 93.0039C68.9262 93.0029 69.0157 92.971 69.088 92.9134C69.1603 92.8558 69.2114 92.7757 69.2331 92.6858C69.2576 92.5809 69.2397 92.4705 69.1832 92.3788C69.1267 92.2871 69.0362 92.2215 68.9316 92.1963C67.5003 91.8576 66.0457 91.6258 64.58 91.5029C64.1074 91.5029 63.6266 91.4295 63.154 91.4051C63.1 91.3994 63.0454 91.405 62.9937 91.4216C62.942 91.4382 62.8943 91.4654 62.8537 91.5015C62.813 91.5376 62.7804 91.5817 62.7577 91.6311C62.7351 91.6805 62.7229 91.7341 62.7221 91.7885C62.7176 91.8953 62.7553 91.9996 62.8269 92.079C62.8985 92.1583 62.9984 92.2063 63.1051 92.2126C63.5777 92.2126 64.0422 92.2779 64.5067 92.3187C65.931 92.4369 67.3447 92.6604 68.736 92.9876L68.8338 93.0039ZM142.606 88.1094C142.697 88.1112 142.786 88.0825 142.859 88.0278C144.407 86.8124 145.89 85.5398 147.267 84.2591C147.306 84.2212 147.336 84.1761 147.357 84.1263C147.377 84.0766 147.388 84.0233 147.388 83.9695C147.388 83.9156 147.377 83.8623 147.357 83.8126C147.336 83.7629 147.306 83.7178 147.267 83.6799C147.19 83.6046 147.086 83.5626 146.978 83.5626C146.87 83.5626 146.766 83.6046 146.689 83.6799C145.328 84.9525 143.861 86.2087 142.329 87.4079C142.245 87.4752 142.191 87.573 142.179 87.6799C142.167 87.7869 142.197 87.8944 142.264 87.9789C142.308 88.0214 142.361 88.0531 142.419 88.0715C142.477 88.0899 142.538 88.0945 142.598 88.0849L142.606 88.1094ZM151.016 80.2374C151.074 80.2369 151.132 80.2243 151.185 80.2005C151.239 80.1766 151.286 80.142 151.326 80.0988C152.606 78.6414 153.801 77.1107 154.903 75.5142C154.964 75.425 154.988 75.3155 154.97 75.2089C154.951 75.1023 154.892 75.007 154.805 74.9432C154.715 74.885 154.605 74.8635 154.499 74.8832C154.393 74.9029 154.299 74.9623 154.235 75.0493C153.135 76.6142 151.943 78.1123 150.666 79.5359C150.591 79.6121 150.549 79.7146 150.549 79.8214C150.549 79.9282 150.591 80.0307 150.666 80.1069C150.711 80.1495 150.765 80.1812 150.824 80.1996C150.884 80.218 150.946 80.2226 151.008 80.213L151.016 80.2374ZM157.535 70.7503C157.61 70.7498 157.684 70.7282 157.747 70.6878C157.811 70.6474 157.861 70.5899 157.894 70.5219C158.787 68.7974 159.558 67.0119 160.2 65.1787C160.234 65.0759 160.227 64.9638 160.179 64.8663C160.132 64.7688 160.049 64.6936 159.947 64.6566C159.846 64.6228 159.735 64.6303 159.639 64.6777C159.543 64.725 159.469 64.8083 159.434 64.9095C158.804 66.7094 158.047 68.4623 157.168 70.1548C157.12 70.2511 157.112 70.3627 157.145 70.4651C157.179 70.5675 157.252 70.6524 157.348 70.7013C157.407 70.7254 157.472 70.7338 157.535 70.7258V70.7503ZM161.259 59.8518C161.356 59.8528 161.45 59.8187 161.523 59.7556C161.597 59.6926 161.645 59.6051 161.658 59.5092C161.74 59.0769 161.805 58.6445 161.87 58.204C162.069 56.766 162.17 55.316 162.172 53.8642V53.6929C162.172 53.5848 162.129 53.481 162.053 53.4045C161.976 53.328 161.872 53.2851 161.764 53.2851C161.656 53.2851 161.553 53.328 161.476 53.4045C161.4 53.481 161.357 53.5848 161.357 53.6929V53.8561C161.358 55.2698 161.26 56.6818 161.064 58.0817C160.998 58.514 160.933 58.9382 160.86 59.3624C160.841 59.4684 160.864 59.5776 160.925 59.6662C160.987 59.7548 161.08 59.8157 161.186 59.8355L161.259 59.8518ZM161.218 48.3661H161.292C161.398 48.3463 161.491 48.2854 161.552 48.1968C161.613 48.1081 161.637 47.9989 161.618 47.893C161.263 45.9767 160.748 44.0938 160.078 42.2643C160.037 42.1633 159.96 42.0817 159.862 42.0361C159.763 41.9906 159.651 41.9847 159.548 42.0196C159.448 42.058 159.367 42.1343 159.323 42.232C159.278 42.3298 159.274 42.441 159.312 42.5416C159.97 44.3278 160.475 46.1673 160.819 48.0398C160.837 48.1401 160.893 48.2297 160.974 48.2903C161.056 48.351 161.158 48.3781 161.259 48.3661H161.218ZM157.242 37.59C157.313 37.5864 157.383 37.5669 157.445 37.5329C157.539 37.4769 157.606 37.3866 157.633 37.2814C157.661 37.1762 157.646 37.0645 157.592 36.9701C156.612 35.2847 155.48 33.6928 154.21 32.2142C154.137 32.1476 154.041 32.1102 153.941 32.1093C153.842 32.1083 153.746 32.1437 153.671 32.2089C153.595 32.2741 153.547 32.3645 153.534 32.4631C153.52 32.5618 153.544 32.6619 153.599 32.7445C154.82 34.1925 155.911 35.7458 156.859 37.3861C156.899 37.4568 156.959 37.5141 157.031 37.5504C157.104 37.5867 157.186 37.6005 157.266 37.59H157.242ZM149.737 28.9023C149.821 28.9018 149.903 28.8752 149.971 28.8262C150.04 28.7772 150.091 28.7082 150.119 28.6286C150.147 28.549 150.149 28.4628 150.126 28.3818C150.103 28.3008 150.055 28.229 149.989 28.1763C148.449 26.9795 146.798 25.9333 145.059 25.052C144.962 25.0033 144.849 24.9953 144.746 25.0297C144.643 25.0641 144.558 25.1381 144.509 25.2355C144.46 25.3329 144.452 25.4456 144.487 25.5488C144.521 25.6521 144.595 25.7375 144.692 25.7861C146.384 26.6443 147.991 27.6603 149.492 28.8207C149.569 28.8796 149.664 28.9086 149.761 28.9023H149.737ZM99.6857 23.8202C101.626 23.7775 103.562 23.6058 105.48 23.3063C105.588 23.2911 105.685 23.2336 105.751 23.1464C105.817 23.0592 105.845 22.9495 105.83 22.8413C105.815 22.7331 105.757 22.6354 105.67 22.5696C105.583 22.5038 105.474 22.4754 105.366 22.4905C103.478 22.7877 101.572 22.9566 99.6613 22.9963C99.5532 22.9963 99.4496 23.0392 99.3732 23.1157C99.2968 23.1922 99.2538 23.296 99.2538 23.4041C99.2538 23.5123 99.2968 23.6161 99.3732 23.6926C99.4496 23.769 99.5532 23.812 99.6613 23.812L99.6857 23.8202ZM139.567 23.6081C139.62 23.6167 139.675 23.6146 139.728 23.602C139.78 23.5894 139.83 23.5666 139.874 23.5348C139.918 23.503 139.955 23.4628 139.983 23.4166C140.012 23.3704 140.031 23.319 140.039 23.2655C140.048 23.2119 140.046 23.1572 140.033 23.1044C140.021 23.0516 139.998 23.0019 139.966 22.9579C139.934 22.914 139.894 22.8768 139.848 22.8484C139.802 22.8199 139.751 22.8009 139.697 22.7923C137.853 22.1931 135.976 21.7029 134.074 21.324C134.021 21.3134 133.967 21.3134 133.914 21.3241C133.861 21.3348 133.81 21.3559 133.766 21.3863C133.721 21.4167 133.683 21.4557 133.653 21.501C133.624 21.5463 133.603 21.5971 133.594 21.6503C133.582 21.7024 133.581 21.7563 133.59 21.8088C133.6 21.8613 133.621 21.9112 133.65 21.9556C133.68 21.9999 133.719 22.0376 133.764 22.0665C133.808 22.0954 133.859 22.1147 133.911 22.1234C135.782 22.498 137.629 22.9801 139.444 23.5673L139.567 23.6081ZM111.111 22.3274H111.184C112.936 22.0011 114.916 21.634 116.888 21.3566C116.994 21.3405 117.088 21.2836 117.152 21.1982C117.216 21.1128 117.244 21.0056 117.23 20.8998C117.224 20.8464 117.208 20.7947 117.181 20.7478C117.155 20.701 117.119 20.66 117.077 20.6272C117.034 20.5945 116.985 20.5707 116.933 20.5572C116.881 20.5438 116.827 20.541 116.774 20.549C114.818 20.8264 112.83 21.2016 111.07 21.5279C110.964 21.5478 110.871 21.6086 110.809 21.6972C110.748 21.7859 110.725 21.8951 110.744 22.0011C110.758 22.0918 110.801 22.1755 110.868 22.2389C110.934 22.3024 111.019 22.3421 111.111 22.3518V22.3274ZM128.289 21.275C128.397 21.2815 128.503 21.2448 128.584 21.1729C128.665 21.101 128.714 20.9998 128.72 20.8916C128.727 20.7835 128.69 20.6771 128.618 20.5961C128.547 20.515 128.446 20.4658 128.337 20.4593C127.303 20.3451 126.194 20.239 125.078 20.1493C124.361 20.0922 123.603 20.0596 122.829 20.0596H122.56C122.506 20.0606 122.454 20.0722 122.405 20.0937C122.355 20.1152 122.311 20.1461 122.274 20.1848C122.237 20.2234 122.208 20.269 122.188 20.3189C122.169 20.3688 122.159 20.422 122.161 20.4756C122.167 20.5811 122.212 20.6805 122.287 20.7544C122.362 20.8283 122.463 20.8714 122.568 20.8753H122.829C123.578 20.8753 124.312 20.8753 125.021 20.9569C126.145 21.0466 127.237 21.1527 128.28 21.275H128.289Z" fill="#E07B39"/>
<path d="M130.439 164.211C131.408 164.17 132.37 164.097 133.299 164.007C133.352 164.003 133.404 163.988 133.452 163.964C133.499 163.939 133.541 163.905 133.575 163.864C133.61 163.823 133.635 163.776 133.651 163.725C133.666 163.673 133.671 163.62 133.666 163.567C133.663 163.513 133.649 163.46 133.625 163.412C133.601 163.364 133.567 163.322 133.526 163.287C133.484 163.253 133.436 163.227 133.385 163.212C133.333 163.197 133.279 163.193 133.226 163.199C132.305 163.289 131.36 163.354 130.398 163.395C130.29 163.395 130.186 163.438 130.11 163.515C130.034 163.591 129.991 163.695 129.991 163.803C129.991 163.911 130.034 164.015 130.11 164.092C130.186 164.168 130.29 164.211 130.398 164.211H130.439Z" fill="#E07B39"/>
<g opacity="0.6">
<path d="M93.9636 23.2734C94.055 23.2719 94.1433 23.2398 94.2142 23.1821C94.2852 23.1244 94.3347 23.0445 94.3548 22.9552C94.368 22.9032 94.3707 22.8491 94.3626 22.796C94.3546 22.743 94.3359 22.6921 94.3078 22.6464C94.2796 22.6008 94.2426 22.5612 94.1988 22.5302C94.1551 22.4991 94.1056 22.4772 94.0532 22.4658C93.149 22.259 92.2611 21.9864 91.3967 21.65C91.3469 21.6302 91.2938 21.6204 91.2402 21.6211C91.1867 21.6219 91.1338 21.6332 91.0846 21.6544C91.0354 21.6756 90.9909 21.7063 90.9535 21.7447C90.9162 21.7832 90.8868 21.8286 90.867 21.8784C90.8472 21.9282 90.8374 21.9815 90.8382 22.0351C90.8389 22.0887 90.8502 22.1416 90.8714 22.1908C90.8926 22.2401 90.9233 22.2847 90.9617 22.322C91 22.3594 91.0454 22.3888 91.0952 22.4087C91.9954 22.7691 92.9216 23.0609 93.8658 23.2815L93.9636 23.2734Z" fill="#F4A76F"/>
<path d="M124.589 164.194C124.694 164.193 124.794 164.151 124.869 164.079C124.945 164.006 124.99 163.907 124.996 163.803C124.999 163.749 124.99 163.696 124.972 163.645C124.953 163.595 124.925 163.549 124.889 163.51C124.852 163.47 124.809 163.438 124.76 163.416C124.711 163.393 124.659 163.381 124.605 163.379C122.723 163.281 120.8 163.109 118.901 162.857C118.794 162.845 118.687 162.875 118.602 162.94C118.517 163.005 118.461 163.101 118.445 163.207C118.437 163.261 118.439 163.315 118.453 163.367C118.466 163.419 118.49 163.468 118.523 163.51C118.555 163.553 118.596 163.589 118.643 163.615C118.69 163.641 118.742 163.658 118.795 163.664C120.718 163.925 122.666 164.097 124.573 164.186L124.589 164.194ZM113.18 162.685C113.288 162.697 113.397 162.666 113.482 162.598C113.566 162.529 113.621 162.43 113.633 162.322C113.645 162.214 113.613 162.106 113.545 162.021C113.477 161.936 113.378 161.881 113.27 161.87C111.355 161.453 109.489 160.964 107.729 160.409C107.677 160.388 107.62 160.377 107.564 160.378C107.508 160.38 107.452 160.393 107.401 160.416C107.35 160.44 107.304 160.475 107.267 160.517C107.229 160.56 107.201 160.609 107.184 160.663C107.167 160.717 107.162 160.774 107.168 160.83C107.174 160.887 107.192 160.941 107.22 160.99C107.248 161.039 107.286 161.081 107.332 161.115C107.377 161.148 107.429 161.172 107.484 161.184C109.269 161.747 111.151 162.245 113.099 162.669L113.18 162.685ZM102.22 159.161C102.298 159.162 102.373 159.14 102.439 159.098C102.504 159.056 102.555 158.995 102.587 158.925C102.61 158.876 102.624 158.823 102.626 158.769C102.629 158.715 102.621 158.661 102.603 158.61C102.585 158.56 102.557 158.513 102.52 158.473C102.484 158.433 102.44 158.401 102.391 158.378C101.01 157.76 99.6776 157.038 98.4063 156.216L97.4366 155.564C97.3468 155.505 97.2373 155.484 97.132 155.505C97.0267 155.526 96.9341 155.589 96.8743 155.678C96.8437 155.722 96.8221 155.771 96.8108 155.823C96.7995 155.875 96.7988 155.929 96.8087 155.982C96.8185 156.034 96.8388 156.084 96.8683 156.129C96.8978 156.173 96.9358 156.211 96.9803 156.241L97.9582 156.893C99.2575 157.739 100.62 158.483 102.033 159.12C102.084 159.144 102.139 159.158 102.196 159.161H102.22ZM92.6287 152.807C92.6871 152.806 92.7448 152.793 92.798 152.77C92.8513 152.746 92.8991 152.711 92.9384 152.668C93.0084 152.585 93.0433 152.478 93.0356 152.37C93.028 152.262 92.9785 152.161 92.8976 152.089C91.454 150.842 90.1157 149.478 88.8965 148.01C88.8256 147.928 88.7253 147.877 88.6172 147.868C88.5091 147.858 88.4017 147.892 88.3179 147.961C88.2766 147.995 88.2425 148.037 88.2176 148.084C88.1928 148.131 88.1776 148.183 88.173 148.236C88.1685 148.289 88.1746 148.343 88.1911 148.394C88.2076 148.445 88.2341 148.492 88.269 148.532C89.5142 150.023 90.8767 151.411 92.3435 152.684C92.4122 152.756 92.5052 152.8 92.6043 152.807H92.6287ZM85.3843 143.915C85.45 143.915 85.5146 143.898 85.5717 143.866C85.6677 143.817 85.7404 143.732 85.774 143.63C85.8076 143.527 85.7994 143.416 85.751 143.319C85.4848 142.808 85.2404 142.286 85.0176 141.753C84.5142 140.536 84.1056 139.281 83.7953 138.001C83.7824 137.947 83.7592 137.897 83.7268 137.852C83.6945 137.807 83.6537 137.77 83.6068 137.741C83.5599 137.712 83.5078 137.693 83.4534 137.684C83.3991 137.676 83.3436 137.678 83.2901 137.691C83.2365 137.704 83.1861 137.727 83.1416 137.759C83.097 137.792 83.0593 137.832 83.0306 137.879C83.0018 137.926 82.9826 137.979 82.974 138.033C82.9654 138.087 82.9675 138.143 82.9804 138.196C83.298 139.52 83.7204 140.815 84.2435 142.071C84.4716 142.618 84.7243 143.156 85.0013 143.703C85.0358 143.768 85.0875 143.822 85.1508 143.859C85.2141 143.897 85.2864 143.916 85.3599 143.915H85.3843ZM82.5567 132.804C82.6109 132.801 82.664 132.787 82.7129 132.763C82.7617 132.739 82.8052 132.706 82.8409 132.665C82.8766 132.624 82.9037 132.576 82.9207 132.524C82.9376 132.473 82.9441 132.418 82.9397 132.364C82.8663 131.254 82.8256 130.08 82.8256 128.783C82.8256 128.065 82.8256 127.355 82.8256 126.637C82.8277 126.583 82.8191 126.529 82.8001 126.478C82.7811 126.427 82.7522 126.381 82.715 126.341C82.6778 126.302 82.6331 126.27 82.5835 126.248C82.5339 126.226 82.4805 126.214 82.4263 126.213C82.3725 126.211 82.3188 126.22 82.2684 126.239C82.2181 126.258 82.1721 126.287 82.1333 126.324C82.0945 126.362 82.0636 126.406 82.0425 126.456C82.0215 126.506 82.0106 126.559 82.0107 126.613C82.0107 127.339 82.0107 128.057 82.0107 128.783C82.0107 130.104 82.0514 131.295 82.1248 132.421C82.131 132.525 82.1766 132.622 82.2524 132.694C82.3281 132.765 82.4282 132.805 82.5322 132.804H82.5567ZM82.7115 121.261C82.8154 121.262 82.9155 121.222 82.9913 121.151C83.067 121.08 83.1127 120.982 83.1189 120.878C83.1922 119.247 83.2656 117.436 83.2656 115.657V115.078C83.2694 115.024 83.2613 114.97 83.2421 114.919C83.2228 114.868 83.1928 114.822 83.154 114.784C83.1153 114.746 83.0688 114.717 83.0177 114.699C82.9666 114.68 82.9122 114.674 82.8582 114.678C82.7501 114.678 82.6464 114.721 82.57 114.798C82.4936 114.874 82.4507 114.978 82.4507 115.086V115.657C82.4507 117.419 82.3774 119.189 82.304 120.837C82.3018 120.891 82.3102 120.944 82.3287 120.995C82.3472 121.045 82.3754 121.091 82.4117 121.131C82.4481 121.17 82.4918 121.202 82.5404 121.224C82.5891 121.247 82.6416 121.259 82.6952 121.261H82.7115ZM47.8747 116.236C48.6163 116.236 49.3415 116.236 50.0342 116.188C50.0877 116.185 50.1403 116.173 50.1889 116.15C50.2376 116.128 50.2813 116.096 50.3176 116.057C50.3539 116.017 50.3822 115.971 50.4007 115.921C50.4191 115.87 50.4275 115.817 50.4253 115.763C50.4232 115.71 50.4106 115.657 50.3882 115.608C50.3657 115.56 50.3339 115.516 50.2946 115.48C50.2552 115.443 50.2091 115.415 50.1588 115.396C50.1085 115.378 50.0551 115.37 50.0016 115.372C49.3171 115.372 48.6 115.421 47.8747 115.421C46.6798 115.427 45.4856 115.367 44.2973 115.241C44.1893 115.229 44.0809 115.261 43.9961 115.329C43.9113 115.397 43.8569 115.496 43.8451 115.604C43.8332 115.712 43.8647 115.821 43.9327 115.906C44.0007 115.991 44.0996 116.045 44.2077 116.057C45.4178 116.182 46.6337 116.241 47.8503 116.236H47.8747ZM55.771 115.82C57.6779 115.674 59.6173 115.502 61.5242 115.307C61.5778 115.301 61.6299 115.286 61.6774 115.26C61.7249 115.235 61.7669 115.2 61.801 115.159C61.8351 115.117 61.8606 115.069 61.8761 115.017C61.8915 114.966 61.8965 114.911 61.8909 114.858C61.8858 114.804 61.8702 114.752 61.8448 114.704C61.8195 114.657 61.785 114.615 61.7433 114.581C61.7016 114.547 61.6536 114.521 61.602 114.506C61.5504 114.49 61.4963 114.485 61.4427 114.491C59.544 114.687 57.6127 114.866 55.7385 115.013C55.6304 115.013 55.5267 115.056 55.4503 115.132C55.3739 115.209 55.331 115.313 55.331 115.421C55.331 115.529 55.3739 115.633 55.4503 115.709C55.5267 115.786 55.6304 115.829 55.7385 115.829L55.771 115.82ZM38.6582 114.654C38.7364 114.653 38.8129 114.63 38.879 114.589C38.9452 114.547 38.9985 114.488 39.0331 114.417C39.0772 114.319 39.0805 114.207 39.0423 114.106C39.0042 114.005 38.9276 113.923 38.8294 113.879C37.1208 113.154 35.6738 111.925 34.6816 110.355C34.6563 110.304 34.6208 110.26 34.5774 110.224C34.534 110.188 34.4836 110.161 34.4294 110.146C34.3751 110.13 34.3183 110.126 34.2624 110.134C34.2065 110.141 34.1528 110.16 34.1047 110.19C34.0566 110.219 34.0151 110.258 33.9829 110.305C33.9507 110.351 33.9284 110.404 33.9175 110.459C33.9066 110.514 33.9074 110.571 33.9196 110.627C33.9319 110.682 33.9555 110.734 33.9889 110.779C35.0615 112.489 36.6312 113.83 38.4871 114.621C38.5413 114.644 38.5996 114.655 38.6582 114.654ZM67.2203 114.654H67.2692C69.1679 114.409 71.0992 114.132 72.9735 113.838C73.0265 113.83 73.0774 113.812 73.1233 113.784C73.1692 113.756 73.2092 113.72 73.241 113.677C73.2728 113.634 73.2957 113.585 73.3086 113.532C73.3214 113.48 73.3238 113.426 73.3157 113.373C73.2977 113.267 73.2392 113.172 73.1526 113.108C73.0659 113.044 72.9579 113.016 72.8512 113.031C70.9607 113.324 69.0457 113.602 67.147 113.846C67.0389 113.853 66.9378 113.902 66.866 113.983C66.7942 114.064 66.7575 114.17 66.764 114.279C66.7705 114.387 66.8196 114.488 66.9006 114.56C66.9816 114.632 67.0878 114.669 67.1959 114.662L67.2203 114.654ZM78.6289 112.884H78.7022C80.5846 112.541 82.4915 112.166 84.3657 111.774C84.4738 111.753 84.5688 111.689 84.6299 111.597C84.6911 111.505 84.7133 111.393 84.6917 111.285C84.6701 111.177 84.6064 111.082 84.5147 111.02C84.423 110.959 84.3108 110.937 84.2027 110.959C82.3285 111.35 80.4298 111.725 78.5555 112.068C78.5024 112.077 78.4516 112.096 78.4061 112.125C78.3605 112.153 78.321 112.191 78.2899 112.235C78.2589 112.279 78.2368 112.329 78.2251 112.381C78.2133 112.434 78.2121 112.488 78.2214 112.541C78.2416 112.633 78.292 112.715 78.3644 112.774C78.4369 112.833 78.5272 112.866 78.6207 112.867L78.6289 112.884ZM89.9152 110.518H90.0129C91.8709 110.078 93.7614 109.604 95.6113 109.115C95.6648 109.102 95.7151 109.078 95.7594 109.045C95.8037 109.012 95.8411 108.971 95.8695 108.923C95.8979 108.876 95.9167 108.824 95.9248 108.769C95.9329 108.714 95.9302 108.659 95.9168 108.605C95.9035 108.552 95.8797 108.501 95.8468 108.457C95.814 108.412 95.7728 108.375 95.7255 108.347C95.6782 108.318 95.6258 108.299 95.5712 108.291C95.5167 108.283 95.461 108.286 95.4075 108.299C93.5577 108.789 91.6835 109.262 89.8255 109.694C89.7198 109.721 89.6286 109.788 89.571 109.881C89.5133 109.973 89.4935 110.085 89.5158 110.192C89.5375 110.28 89.5877 110.358 89.6585 110.414C89.7293 110.47 89.8167 110.501 89.907 110.502L89.9152 110.518ZM82.4344 109.751H82.4996C82.6057 109.733 82.7006 109.675 82.7645 109.588C82.8283 109.501 82.856 109.393 82.8418 109.286C82.5564 107.347 82.0731 105.441 81.3995 103.601C81.3627 103.499 81.2871 103.416 81.1893 103.37C81.0915 103.324 80.9795 103.319 80.8779 103.356C80.7764 103.393 80.6936 103.468 80.6478 103.566C80.6019 103.664 80.5968 103.776 80.6335 103.878C81.2828 105.664 81.747 107.512 82.0188 109.392C82.0344 109.489 82.0842 109.577 82.159 109.639C82.2337 109.702 82.3286 109.736 82.4263 109.735L82.4344 109.751ZM101.071 107.573C101.109 107.581 101.147 107.581 101.185 107.573C103.019 107.043 104.885 106.472 106.71 105.885C106.762 105.869 106.809 105.843 106.851 105.808C106.892 105.774 106.925 105.731 106.95 105.683C106.974 105.635 106.989 105.583 106.992 105.529C106.996 105.475 106.989 105.422 106.971 105.371C106.937 105.268 106.864 105.183 106.768 105.134C106.672 105.085 106.56 105.076 106.458 105.11C104.64 105.689 102.79 106.26 100.957 106.79C100.853 106.82 100.766 106.891 100.714 106.986C100.662 107.08 100.65 107.192 100.68 107.296C100.709 107.374 100.761 107.441 100.83 107.488C100.898 107.534 100.98 107.559 101.063 107.557L101.071 107.573ZM33.1821 105.477C33.2768 105.475 33.368 105.441 33.4406 105.38C33.5132 105.319 33.5629 105.235 33.5815 105.142C34.0216 103.344 35.0341 101.738 36.4662 100.566C36.5041 100.529 36.5343 100.484 36.5548 100.435C36.5754 100.386 36.586 100.334 36.586 100.28C36.586 100.227 36.5754 100.175 36.5548 100.126C36.5343 100.077 36.5041 100.032 36.4662 99.9949C36.4283 99.9567 36.3832 99.9263 36.3336 99.9056C36.2839 99.8849 36.2307 99.8742 36.1769 99.8742C36.1231 99.8742 36.0699 99.8849 36.0202 99.9056C35.9705 99.9263 35.9255 99.9567 35.8876 99.9949C34.3211 101.281 33.219 103.047 32.7502 105.02C32.7395 105.072 32.7393 105.126 32.7495 105.179C32.7596 105.232 32.78 105.282 32.8096 105.326C32.8391 105.371 32.8771 105.41 32.9214 105.44C32.9658 105.47 33.0156 105.491 33.0681 105.501L33.1821 105.477ZM112.048 104.049C112.093 104.058 112.14 104.058 112.186 104.049C114.044 103.388 115.861 102.703 117.605 102.018C117.704 101.976 117.784 101.898 117.826 101.799C117.869 101.7 117.871 101.588 117.833 101.488C117.814 101.438 117.784 101.392 117.747 101.354C117.71 101.315 117.665 101.285 117.616 101.264C117.567 101.242 117.514 101.231 117.46 101.23C117.407 101.23 117.354 101.239 117.304 101.259C115.576 101.945 113.759 102.622 111.917 103.282C111.816 103.318 111.733 103.391 111.686 103.487C111.638 103.584 111.631 103.695 111.665 103.796C111.698 103.868 111.751 103.928 111.817 103.97C111.884 104.012 111.961 104.034 112.04 104.033L112.048 104.049ZM122.772 99.7828C122.825 99.7948 122.881 99.7948 122.935 99.7828C124.727 98.967 126.488 98.1513 128.158 97.2948C128.21 97.2732 128.257 97.2412 128.295 97.2007C128.334 97.1603 128.364 97.1122 128.384 97.0596C128.403 97.007 128.412 96.951 128.408 96.895C128.405 96.839 128.39 96.7842 128.365 96.7342C128.34 96.6841 128.305 96.6398 128.261 96.6041C128.218 96.5683 128.168 96.5418 128.114 96.5263C128.06 96.5108 128.004 96.5065 127.948 96.5138C127.893 96.5211 127.839 96.5398 127.791 96.5687C126.162 97.3845 124.385 98.2002 122.601 99.016C122.493 99.0387 122.398 99.1035 122.338 99.196C122.277 99.2886 122.256 99.4013 122.279 99.5095C122.301 99.6177 122.366 99.7124 122.459 99.7728C122.551 99.8333 122.664 99.8545 122.772 99.8317V99.7828ZM78.3436 99.0731C78.4305 99.0729 78.5154 99.0474 78.5881 98.9997C78.6745 98.9348 78.7317 98.8381 78.747 98.7311C78.7623 98.624 78.7344 98.5152 78.6696 98.4287C77.6041 96.9647 76.2947 95.6953 74.7988 94.6762L74.3751 94.407C74.3296 94.3786 74.279 94.3595 74.2261 94.3507C74.1732 94.3419 74.1192 94.3436 74.067 94.3557C74.0147 94.3678 73.9654 94.3901 73.9218 94.4213C73.8782 94.4525 73.8412 94.492 73.8128 94.5375C73.7845 94.5831 73.7653 94.6337 73.7565 94.6867C73.7477 94.7396 73.7495 94.7937 73.7616 94.846C73.7737 94.8983 73.7959 94.9476 73.8271 94.9913C73.8583 95.0349 73.8977 95.072 73.9432 95.1004L74.3425 95.3533C75.7616 96.3199 77.0047 97.5229 78.0177 98.9099C78.0568 98.9561 78.1055 98.9931 78.1604 99.0185C78.2153 99.0438 78.275 99.0569 78.3355 99.0568L78.3436 99.0731ZM40.9644 97.4416C41.0325 97.441 41.0995 97.4242 41.16 97.3927C41.8445 97.0256 42.5127 96.6829 43.1483 96.3648C44.1832 95.859 45.2507 95.3859 46.3264 94.9617C46.38 94.9454 46.4297 94.9182 46.4724 94.8818C46.515 94.8453 46.5497 94.8005 46.5742 94.7501C46.5988 94.6996 46.6127 94.6446 46.615 94.5886C46.6174 94.5325 46.6081 94.4766 46.5879 94.4242C46.5676 94.3719 46.5368 94.3243 46.4974 94.2844C46.458 94.2446 46.4107 94.2133 46.3586 94.1925C46.3066 94.1718 46.2508 94.162 46.1947 94.1638C46.1387 94.1656 46.0837 94.179 46.0331 94.2031C44.9329 94.6273 43.841 95.1167 42.7735 95.6388C42.1379 95.9569 41.4533 96.2995 40.7607 96.6748C40.667 96.7281 40.5976 96.8157 40.5672 96.9192C40.5368 97.0227 40.5477 97.1339 40.5977 97.2295C40.6343 97.2914 40.687 97.3423 40.7501 97.3768C40.8132 97.4112 40.8844 97.428 40.9562 97.4253L40.9644 97.4416ZM133.048 94.5457C133.12 94.5471 133.19 94.5272 133.251 94.4886C134.954 93.5015 136.609 92.4737 138.141 91.4214C138.22 91.3576 138.272 91.2666 138.288 91.1662C138.303 91.0658 138.281 90.9631 138.225 90.8784C138.169 90.7937 138.083 90.733 137.985 90.7082C137.886 90.6834 137.782 90.6962 137.692 90.7443C136.144 91.7803 134.506 92.8081 132.803 93.787C132.727 93.8325 132.667 93.9017 132.634 93.9841C132.6 94.0666 132.594 94.1578 132.617 94.2437C132.641 94.3297 132.691 94.4057 132.761 94.4602C132.832 94.5148 132.918 94.5448 133.007 94.5457H133.048ZM51.6803 93.265H51.7781C53.6313 92.825 55.5128 92.5143 57.409 92.335C57.5157 92.3247 57.6141 92.2726 57.6827 92.1901C57.7514 92.1077 57.7848 92.0014 57.7757 91.8945C57.7634 91.787 57.7096 91.6885 57.626 91.6199C57.5423 91.5514 57.4352 91.5182 57.3275 91.5274C55.4064 91.7096 53.5003 92.0258 51.6232 92.4737C51.5152 92.4856 51.4163 92.54 51.3482 92.6249C51.2802 92.7098 51.2487 92.8182 51.2606 92.9264C51.2725 93.0346 51.3268 93.1336 51.4116 93.2017C51.4965 93.2698 51.6048 93.3013 51.7129 93.2894L51.6803 93.265ZM68.8338 93.0039C68.9262 93.0029 69.0157 92.971 69.088 92.9134C69.1603 92.8558 69.2114 92.7757 69.2331 92.6858C69.2576 92.5809 69.2397 92.4705 69.1832 92.3788C69.1267 92.2871 69.0362 92.2215 68.9316 92.1963C67.5003 91.8576 66.0457 91.6258 64.58 91.5029C64.1074 91.5029 63.6266 91.4295 63.154 91.4051C63.1 91.3994 63.0454 91.405 62.9937 91.4216C62.942 91.4382 62.8943 91.4654 62.8537 91.5015C62.813 91.5376 62.7804 91.5817 62.7577 91.6311C62.7351 91.6805 62.7229 91.7341 62.7221 91.7885C62.7176 91.8953 62.7553 91.9996 62.8269 92.079C62.8985 92.1583 62.9984 92.2063 63.1051 92.2126C63.5777 92.2126 64.0422 92.2779 64.5067 92.3187C65.931 92.4369 67.3447 92.6604 68.736 92.9876L68.8338 93.0039ZM142.606 88.1094C142.697 88.1112 142.786 88.0825 142.859 88.0278C144.407 86.8124 145.89 85.5398 147.267 84.2591C147.306 84.2212 147.336 84.1761 147.357 84.1263C147.377 84.0766 147.388 84.0233 147.388 83.9695C147.388 83.9156 147.377 83.8623 147.357 83.8126C147.336 83.7629 147.306 83.7178 147.267 83.6799C147.19 83.6046 147.086 83.5626 146.978 83.5626C146.87 83.5626 146.766 83.6046 146.689 83.6799C145.328 84.9525 143.861 86.2087 142.329 87.4079C142.245 87.4752 142.191 87.573 142.179 87.6799C142.167 87.7869 142.197 87.8944 142.264 87.9789C142.308 88.0214 142.361 88.0531 142.419 88.0715C142.477 88.0899 142.538 88.0945 142.598 88.0849L142.606 88.1094ZM151.016 80.2374C151.074 80.2369 151.132 80.2243 151.185 80.2005C151.239 80.1766 151.286 80.142 151.326 80.0988C152.606 78.6414 153.801 77.1107 154.903 75.5142C154.964 75.425 154.988 75.3155 154.97 75.2089C154.951 75.1023 154.892 75.007 154.805 74.9432C154.715 74.885 154.605 74.8635 154.499 74.8832C154.393 74.9029 154.299 74.9623 154.235 75.0493C153.135 76.6142 151.943 78.1123 150.666 79.5359C150.591 79.6121 150.549 79.7146 150.549 79.8214C150.549 79.9282 150.591 80.0307 150.666 80.1069C150.711 80.1495 150.765 80.1812 150.824 80.1996C150.884 80.218 150.946 80.2226 151.008 80.213L151.016 80.2374ZM157.535 70.7503C157.61 70.7498 157.684 70.7282 157.747 70.6878C157.811 70.6474 157.861 70.5899 157.894 70.5219C158.787 68.7974 159.558 67.0119 160.2 65.1787C160.234 65.0759 160.227 64.9638 160.179 64.8663C160.132 64.7688 160.049 64.6936 159.947 64.6566C159.846 64.6228 159.735 64.6303 159.639 64.6777C159.543 64.725 159.469 64.8083 159.434 64.9095C158.804 66.7094 158.047 68.4623 157.168 70.1548C157.12 70.2511 157.112 70.3627 157.145 70.4651C157.179 70.5675 157.252 70.6524 157.348 70.7013C157.407 70.7254 157.472 70.7338 157.535 70.7258V70.7503ZM161.259 59.8518C161.356 59.8528 161.45 59.8187 161.523 59.7556C161.597 59.6926 161.645 59.6051 161.658 59.5092C161.74 59.0769 161.805 58.6445 161.87 58.204C162.069 56.766 162.17 55.316 162.172 53.8642V53.6929C162.172 53.5848 162.129 53.481 162.053 53.4045C161.976 53.328 161.872 53.2851 161.764 53.2851C161.656 53.2851 161.553 53.328 161.476 53.4045C161.4 53.481 161.357 53.5848 161.357 53.6929V53.8561C161.358 55.2698 161.26 56.6818 161.064 58.0817C160.998 58.514 160.933 58.9382 160.86 59.3624C160.841 59.4684 160.864 59.5776 160.925 59.6662C160.987 59.7548 161.08 59.8157 161.186 59.8355L161.259 59.8518ZM161.218 48.3661H161.292C161.398 48.3463 161.491 48.2854 161.552 48.1968C161.613 48.1081 161.637 47.9989 161.618 47.893C161.263 45.9767 160.748 44.0938 160.078 42.2643C160.037 42.1633 159.96 42.0817 159.862 42.0361C159.763 41.9906 159.651 41.9847 159.548 42.0196C159.448 42.058 159.367 42.1343 159.323 42.232C159.278 42.3298 159.274 42.441 159.312 42.5416C159.97 44.3278 160.475 46.1673 160.819 48.0398C160.837 48.1401 160.893 48.2297 160.974 48.2903C161.056 48.351 161.158 48.3781 161.259 48.3661H161.218ZM157.242 37.59C157.313 37.5864 157.383 37.5669 157.445 37.5329C157.539 37.4769 157.606 37.3866 157.633 37.2814C157.661 37.1762 157.646 37.0645 157.592 36.9701C156.612 35.2847 155.48 33.6928 154.21 32.2142C154.137 32.1476 154.041 32.1102 153.941 32.1093C153.842 32.1083 153.746 32.1437 153.671 32.2089C153.595 32.2741 153.547 32.3645 153.534 32.4631C153.52 32.5618 153.544 32.6619 153.599 32.7445C154.82 34.1925 155.911 35.7458 156.859 37.3861C156.899 37.4568 156.959 37.5141 157.031 37.5504C157.104 37.5867 157.186 37.6005 157.266 37.59H157.242ZM149.737 28.9023C149.821 28.9018 149.903 28.8752 149.971 28.8262C150.04 28.7772 150.091 28.7082 150.119 28.6286C150.147 28.549 150.149 28.4628 150.126 28.3818C150.103 28.3008 150.055 28.229 149.989 28.1763C148.449 26.9795 146.798 25.9333 145.059 25.052C144.962 25.0033 144.849 24.9953 144.746 25.0297C144.643 25.0641 144.558 25.1381 144.509 25.2355C144.46 25.3329 144.452 25.4456 144.487 25.5488C144.521 25.6521 144.595 25.7375 144.692 25.7861C146.384 26.6443 147.991 27.6603 149.492 28.8207C149.569 28.8796 149.664 28.9086 149.761 28.9023H149.737ZM99.6857 23.8202C101.626 23.7775 103.562 23.6058 105.48 23.3063C105.588 23.2911 105.685 23.2336 105.751 23.1464C105.817 23.0592 105.845 22.9495 105.83 22.8413C105.815 22.7331 105.757 22.6354 105.67 22.5696C105.583 22.5038 105.474 22.4754 105.366 22.4905C103.478 22.7877 101.572 22.9566 99.6613 22.9963C99.5532 22.9963 99.4496 23.0392 99.3732 23.1157C99.2968 23.1922 99.2538 23.296 99.2538 23.4041C99.2538 23.5123 99.2968 23.6161 99.3732 23.6926C99.4496 23.769 99.5532 23.812 99.6613 23.812L99.6857 23.8202ZM139.567 23.6081C139.62 23.6167 139.675 23.6146 139.728 23.602C139.78 23.5894 139.83 23.5666 139.874 23.5348C139.918 23.503 139.955 23.4628 139.983 23.4166C140.012 23.3704 140.031 23.319 140.039 23.2655C140.048 23.2119 140.046 23.1572 140.033 23.1044C140.021 23.0516 139.998 23.0019 139.966 22.9579C139.934 22.914 139.894 22.8768 139.848 22.8484C139.802 22.8199 139.751 22.8009 139.697 22.7923C137.853 22.1931 135.976 21.7029 134.074 21.324C134.021 21.3134 133.967 21.3134 133.914 21.3241C133.861 21.3348 133.81 21.3559 133.766 21.3863C133.721 21.4167 133.683 21.4557 133.653 21.501C133.624 21.5463 133.603 21.5971 133.594 21.6503C133.582 21.7024 133.581 21.7563 133.59 21.8088C133.6 21.8613 133.621 21.9112 133.65 21.9556C133.68 21.9999 133.719 22.0376 133.764 22.0665C133.808 22.0954 133.859 22.1147 133.911 22.1234C135.782 22.498 137.629 22.9801 139.444 23.5673L139.567 23.6081ZM111.111 22.3274H111.184C112.936 22.0011 114.916 21.634 116.888 21.3566C116.994 21.3405 117.088 21.2836 117.152 21.1982C117.216 21.1128 117.244 21.0056 117.23 20.8998C117.224 20.8464 117.208 20.7947 117.181 20.7478C117.155 20.701 117.119 20.66 117.077 20.6272C117.034 20.5945 116.985 20.5707 116.933 20.5572C116.881 20.5438 116.827 20.541 116.774 20.549C114.818 20.8264 112.83 21.2016 111.07 21.5279C110.964 21.5478 110.871 21.6086 110.809 21.6972C110.748 21.7859 110.725 21.8951 110.744 22.0011C110.758 22.0918 110.801 22.1755 110.868 22.2389C110.934 22.3024 111.019 22.3421 111.111 22.3518V22.3274ZM128.289 21.275C128.397 21.2815 128.503 21.2448 128.584 21.1729C128.665 21.101 128.714 20.9998 128.72 20.8916C128.727 20.7835 128.69 20.6771 128.618 20.5961C128.547 20.515 128.446 20.4658 128.337 20.4593C127.303 20.3451 126.194 20.239 125.078 20.1493C124.361 20.0922 123.603 20.0596 122.829 20.0596H122.56C122.506 20.0606 122.454 20.0722 122.405 20.0937C122.355 20.1152 122.311 20.1461 122.274 20.1848C122.237 20.2234 122.208 20.269 122.188 20.3189C122.169 20.3688 122.159 20.422 122.161 20.4756C122.167 20.5811 122.212 20.6805 122.287 20.7544C122.362 20.8283 122.463 20.8714 122.568 20.8753H122.829C123.578 20.8753 124.312 20.8753 125.021 20.9569C126.145 21.0466 127.237 21.1527 128.28 21.275H128.289Z" fill="#F4A76F"/>
<path d="M130.439 164.211C131.408 164.17 132.37 164.097 133.299 164.007C133.352 164.003 133.404 163.988 133.452 163.964C133.499 163.939 133.541 163.905 133.575 163.864C133.61 163.823 133.635 163.776 133.651 163.725C133.666 163.673 133.671 163.62 133.666 163.567C133.663 163.513 133.649 163.46 133.625 163.412C133.601 163.364 133.567 163.322 133.526 163.287C133.484 163.253 133.436 163.227 133.385 163.212C133.333 163.197 133.279 163.193 133.226 163.199C132.305 163.289 131.36 163.354 130.398 163.395C130.29 163.395 130.186 163.438 130.11 163.515C130.034 163.591 129.991 163.695 129.991 163.803C129.991 163.911 130.034 164.015 130.11 164.092C130.186 164.168 130.29 164.211 130.398 164.211H130.439Z" fill="#F4A76F"/>
</g>
<path d="M25.8094 0L83.1535 13.0928L90.5039 17.6365L25.8094 0Z" fill="#E07B39"/>
<path opacity="0.2" d="M83.1535 13.0928L90.5039 17.6365L25.8094 0" fill="black"/>
<path d="M25.8082 0L83.1523 13.0928L77.7577 17.0655L25.8082 0Z" fill="#E07B39"/>
<path d="M25.8083 0L74.9709 10.0664L77.7578 17.0655L25.8083 0Z" fill="#E07B39"/>
<path opacity="0.2" d="M25.8083 0L74.9709 10.0664L77.7578 17.0655L25.8083 0Z" fill="black"/>
<path d="M25.8061 0L74.9688 10.0664L59.4857 15.6869L25.8061 0Z" fill="#E07B39"/>
<defs>
<radialGradient id="paint0_radial_1837_6662" cx="0" cy="0" r="1" gradientUnits="userSpaceOnUse" gradientTransform="translate(192.614 159.358) rotate(180) scale(50.8057 58.5397)">
<stop stop-color="#3582EB"/>
<stop offset="1" stop-color="#19355C"/>
</radialGradient>
</defs>
</svg>
