<svg width="316" height="302" viewBox="0 0 316 302" fill="none" xmlns="http://www.w3.org/2000/svg">
<path opacity="0.5" d="M158 301.492C70.739 301.492 0 296.999 0 291.455C0 285.912 70.739 281.418 158 281.418C245.261 281.418 316 285.912 316 291.455C316 296.999 245.261 301.492 158 301.492Z" fill="#F8F5F2"/>
<path d="M196.032 157.14L196.032 291.257C196.032 291.257 193.293 292 191.497 292.013C189.614 292.028 186.734 291.257 186.734 291.257L186.734 157.14H196.032Z" fill="#3A8DFF"/>
<path opacity="0.3" d="M196.023 157.148H186.725V179.704L196.023 177.306V157.148Z" fill="black"/>
<path d="M141.66 173.848H224.6V158.299C224.6 152.648 222.358 147.229 218.366 143.233C214.374 139.237 208.96 136.992 203.315 136.992H162.945C157.3 136.992 151.886 139.237 147.894 143.233C143.903 147.229 141.66 152.648 141.66 158.299V173.848Z" fill="#3A8DFF"/>
<path opacity="0.2" d="M224.6 169.238H184.23V158.968H224.6V169.238Z" fill="white"/>
<path d="M184.23 173.846V158.298C184.23 152.647 181.988 147.227 177.996 143.231C174.004 139.235 168.591 136.99 162.945 136.99C157.3 136.99 151.886 139.235 147.895 143.231C143.903 147.227 141.66 152.647 141.66 158.298V173.846" fill="url(#paint0_radial_1856_6526)"/>
<path d="M184.233 176.58H125.984V173.847H184.233V176.58Z" fill="#3A8DFF"/>
<path opacity="0.3" d="M168.554 176.58H125.984V173.847H168.554V176.58Z" fill="black"/>
<path d="M191.371 162.688H189.863V126.688H191.371V162.688Z" fill="#64574F"/>
<path d="M199.957 133.679H189.412V128.507C189.412 128.326 189.484 128.151 189.613 128.023C189.741 127.894 189.915 127.822 190.097 127.822H199.957L198.229 130.751L199.957 133.679Z" fill="#D9484D"/>
<path d="M93.9636 23.7734C94.055 23.7719 94.1433 23.7398 94.2142 23.6821C94.2852 23.6244 94.3347 23.5445 94.3548 23.4552C94.368 23.4032 94.3707 23.3491 94.3626 23.296C94.3546 23.243 94.3359 23.1921 94.3078 23.1464C94.2796 23.1008 94.2426 23.0612 94.1988 23.0302C94.1551 22.9991 94.1056 22.9772 94.0532 22.9658C93.149 22.759 92.2611 22.4864 91.3967 22.15C91.3469 22.1302 91.2938 22.1204 91.2402 22.1211C91.1867 22.1219 91.1338 22.1332 91.0846 22.1544C91.0354 22.1756 90.9909 22.2063 90.9535 22.2447C90.9162 22.2832 90.8868 22.3286 90.867 22.3784C90.8472 22.4282 90.8374 22.4815 90.8382 22.5351C90.8389 22.5887 90.8502 22.6416 90.8714 22.6908C90.8926 22.7401 90.9233 22.7847 90.9617 22.822C91 22.8594 91.0454 22.8888 91.0952 22.9087C91.9954 23.2691 92.9216 23.5609 93.8658 23.7815L93.9636 23.7734Z" fill="#E07B39"/>
<path d="M124.589 164.693C124.694 164.692 124.794 164.65 124.869 164.578C124.945 164.505 124.99 164.407 124.996 164.302C124.999 164.248 124.99 164.195 124.972 164.144C124.953 164.094 124.925 164.048 124.889 164.009C124.852 163.969 124.809 163.937 124.76 163.915C124.711 163.892 124.659 163.88 124.605 163.878C122.723 163.78 120.8 163.608 118.901 163.356C118.794 163.344 118.687 163.374 118.602 163.439C118.517 163.505 118.461 163.6 118.445 163.706C118.437 163.76 118.439 163.814 118.453 163.866C118.466 163.918 118.49 163.967 118.523 164.009C118.555 164.052 118.596 164.088 118.643 164.114C118.69 164.14 118.742 164.157 118.795 164.163C120.718 164.424 122.666 164.596 124.573 164.685L124.589 164.693ZM113.18 163.184C113.288 163.196 113.397 163.165 113.482 163.097C113.566 163.028 113.621 162.929 113.633 162.821C113.645 162.713 113.613 162.605 113.545 162.52C113.477 162.435 113.378 162.38 113.27 162.369C111.355 161.953 109.489 161.463 107.729 160.908C107.677 160.887 107.62 160.876 107.564 160.877C107.508 160.879 107.452 160.892 107.401 160.915C107.35 160.939 107.304 160.974 107.267 161.016C107.229 161.059 107.201 161.108 107.184 161.162C107.167 161.216 107.162 161.273 107.168 161.329C107.174 161.386 107.192 161.44 107.22 161.489C107.248 161.538 107.286 161.58 107.332 161.614C107.377 161.647 107.429 161.671 107.484 161.683C109.269 162.246 111.151 162.744 113.099 163.168L113.18 163.184ZM102.22 159.66C102.298 159.661 102.373 159.639 102.439 159.597C102.504 159.555 102.555 159.494 102.587 159.424C102.61 159.375 102.624 159.322 102.626 159.268C102.629 159.214 102.621 159.16 102.603 159.109C102.585 159.059 102.557 159.012 102.52 158.972C102.484 158.932 102.44 158.9 102.391 158.877C101.01 158.259 99.6776 157.537 98.4063 156.715L97.4366 156.063C97.3468 156.004 97.2373 155.983 97.132 156.004C97.0267 156.025 96.9341 156.088 96.8743 156.177C96.8437 156.221 96.8221 156.27 96.8108 156.322C96.7995 156.374 96.7988 156.428 96.8087 156.481C96.8185 156.533 96.8388 156.583 96.8683 156.628C96.8978 156.672 96.9358 156.71 96.9803 156.74L97.9582 157.392C99.2575 158.238 100.62 158.982 102.033 159.619C102.084 159.643 102.139 159.657 102.196 159.66H102.22ZM92.6287 153.306C92.6871 153.305 92.7448 153.292 92.798 153.269C92.8513 153.245 92.8991 153.21 92.9384 153.167C93.0084 153.084 93.0433 152.977 93.0356 152.869C93.028 152.761 92.9785 152.66 92.8976 152.588C91.454 151.341 90.1157 149.977 88.8965 148.509C88.8256 148.427 88.7253 148.376 88.6172 148.367C88.5091 148.357 88.4017 148.391 88.3179 148.46C88.2766 148.494 88.2425 148.536 88.2176 148.583C88.1927 148.63 88.1776 148.682 88.173 148.735C88.1685 148.788 88.1746 148.842 88.1911 148.893C88.2076 148.944 88.2341 148.991 88.2691 149.031C89.5142 150.522 90.8767 151.91 92.3435 153.183C92.4122 153.255 92.5052 153.299 92.6043 153.306H92.6287ZM85.3843 144.414C85.45 144.414 85.5146 144.397 85.5717 144.365C85.6677 144.316 85.7404 144.231 85.774 144.129C85.8076 144.026 85.7994 143.915 85.751 143.818C85.4848 143.307 85.2404 142.785 85.0176 142.252C84.5142 141.035 84.1056 139.78 83.7953 138.5C83.7824 138.446 83.7592 138.396 83.7268 138.351C83.6945 138.306 83.6537 138.269 83.6068 138.24C83.5599 138.211 83.5078 138.192 83.4534 138.183C83.3991 138.175 83.3436 138.177 83.2901 138.19C83.2365 138.203 83.1861 138.226 83.1416 138.258C83.097 138.291 83.0593 138.331 83.0306 138.378C83.0018 138.425 82.9826 138.478 82.974 138.532C82.9654 138.586 82.9675 138.642 82.9804 138.695C83.298 140.019 83.7204 141.314 84.2435 142.57C84.4716 143.117 84.7243 143.655 85.0013 144.202C85.0358 144.267 85.0875 144.321 85.1508 144.358C85.2141 144.396 85.2864 144.415 85.3599 144.414H85.3843ZM82.5566 133.303C82.6109 133.3 82.664 133.286 82.7129 133.262C82.7617 133.238 82.8052 133.205 82.8409 133.164C82.8766 133.123 82.9037 133.075 82.9207 133.023C82.9376 132.972 82.9441 132.917 82.9397 132.863C82.8663 131.753 82.8256 130.579 82.8256 129.282C82.8256 128.564 82.8256 127.854 82.8256 127.136C82.8277 127.082 82.8191 127.028 82.8001 126.977C82.7811 126.926 82.7522 126.88 82.715 126.84C82.6778 126.801 82.6331 126.769 82.5835 126.747C82.5339 126.725 82.4805 126.713 82.4263 126.712C82.3725 126.71 82.3188 126.719 82.2684 126.738C82.2181 126.757 82.1721 126.786 82.1333 126.823C82.0945 126.861 82.0636 126.905 82.0425 126.955C82.0215 127.005 82.0106 127.058 82.0107 127.112C82.0107 127.838 82.0107 128.556 82.0107 129.282C82.0107 130.603 82.0514 131.794 82.1248 132.92C82.131 133.024 82.1766 133.121 82.2524 133.193C82.3281 133.264 82.4282 133.304 82.5322 133.303H82.5566ZM82.7115 121.761C82.8154 121.761 82.9155 121.721 82.9913 121.65C83.067 121.579 83.1127 121.481 83.1189 121.377C83.1922 119.746 83.2656 117.935 83.2656 116.156V115.577C83.2694 115.523 83.2613 115.469 83.2421 115.418C83.2228 115.367 83.1928 115.321 83.154 115.283C83.1153 115.245 83.0688 115.216 83.0177 115.198C82.9666 115.179 82.9122 115.173 82.8582 115.177C82.7501 115.177 82.6464 115.22 82.57 115.297C82.4936 115.373 82.4507 115.477 82.4507 115.585V116.156C82.4507 117.918 82.3773 119.688 82.304 121.336C82.3018 121.39 82.3102 121.443 82.3287 121.494C82.3472 121.544 82.3754 121.59 82.4117 121.63C82.4481 121.669 82.4918 121.701 82.5404 121.723C82.5891 121.746 82.6416 121.758 82.6952 121.761H82.7115ZM47.8747 116.735C48.6162 116.735 49.3415 116.735 50.0342 116.687C50.0877 116.684 50.1403 116.672 50.1889 116.649C50.2376 116.627 50.2813 116.595 50.3176 116.556C50.354 116.516 50.3822 116.47 50.4007 116.42C50.4191 116.369 50.4275 116.316 50.4253 116.262C50.4232 116.209 50.4106 116.156 50.3882 116.107C50.3657 116.059 50.3339 116.015 50.2946 115.979C50.2552 115.942 50.2091 115.914 50.1588 115.896C50.1085 115.877 50.0551 115.869 50.0016 115.871C49.3171 115.871 48.6 115.92 47.8747 115.92C46.6798 115.926 45.4856 115.866 44.2973 115.74C44.1893 115.728 44.0809 115.76 43.9961 115.828C43.9113 115.896 43.8569 115.995 43.8451 116.103C43.8332 116.211 43.8647 116.32 43.9327 116.405C44.0007 116.49 44.0996 116.544 44.2077 116.556C45.4178 116.681 46.6337 116.741 47.8503 116.735H47.8747ZM55.771 116.319C57.6779 116.173 59.6173 116.001 61.5242 115.806C61.5778 115.8 61.6299 115.785 61.6774 115.759C61.7249 115.734 61.7669 115.699 61.801 115.658C61.8351 115.616 61.8606 115.568 61.8761 115.516C61.8915 115.465 61.8965 115.41 61.8909 115.357C61.8858 115.303 61.8702 115.251 61.8448 115.204C61.8195 115.156 61.785 115.114 61.7433 115.08C61.7016 115.046 61.6536 115.02 61.602 115.005C61.5504 114.989 61.4963 114.984 61.4427 114.99C59.544 115.186 57.6127 115.365 55.7385 115.512C55.6304 115.512 55.5267 115.555 55.4503 115.631C55.3739 115.708 55.331 115.812 55.331 115.92C55.331 116.028 55.3739 116.132 55.4503 116.208C55.5267 116.285 55.6304 116.328 55.7385 116.328L55.771 116.319ZM38.6582 115.153C38.7364 115.152 38.8129 115.129 38.879 115.088C38.9452 115.046 38.9985 114.987 39.0331 114.916C39.0772 114.818 39.0805 114.706 39.0423 114.605C39.0042 114.504 38.9276 114.422 38.8294 114.378C37.1208 113.653 35.6738 112.424 34.6816 110.854C34.6563 110.803 34.6208 110.759 34.5774 110.723C34.534 110.687 34.4836 110.66 34.4294 110.645C34.3751 110.629 34.3183 110.625 34.2624 110.633C34.2065 110.64 34.1528 110.659 34.1047 110.689C34.0566 110.718 34.0151 110.757 33.9829 110.804C33.9507 110.85 33.9284 110.903 33.9175 110.958C33.9066 111.013 33.9074 111.07 33.9196 111.126C33.9319 111.181 33.9555 111.233 33.9889 111.278C35.0615 112.988 36.6312 114.329 38.4871 115.12C38.5413 115.143 38.5996 115.154 38.6582 115.153ZM67.2203 115.153H67.2692C69.1679 114.908 71.0992 114.631 72.9735 114.337C73.0265 114.329 73.0774 114.311 73.1233 114.283C73.1692 114.255 73.2092 114.219 73.241 114.176C73.2728 114.133 73.2957 114.084 73.3086 114.031C73.3214 113.979 73.3238 113.925 73.3157 113.872C73.2977 113.766 73.2392 113.671 73.1526 113.607C73.0659 113.543 72.9579 113.515 72.8512 113.53C70.9607 113.823 69.0457 114.101 67.147 114.345C67.0389 114.352 66.9378 114.401 66.866 114.482C66.7942 114.563 66.7575 114.67 66.764 114.778C66.7705 114.886 66.8196 114.987 66.9006 115.059C66.9816 115.131 67.0878 115.168 67.1959 115.161L67.2203 115.153ZM78.6289 113.383H78.7022C80.5846 113.04 82.4915 112.665 84.3657 112.273C84.4738 112.252 84.5688 112.188 84.63 112.096C84.6911 112.004 84.7133 111.892 84.6917 111.784C84.6701 111.676 84.6064 111.581 84.5147 111.519C84.423 111.458 84.3108 111.436 84.2027 111.458C82.3285 111.849 80.4298 112.224 78.5555 112.567C78.5024 112.576 78.4516 112.595 78.4061 112.624C78.3605 112.652 78.321 112.69 78.2899 112.734C78.2589 112.778 78.2368 112.828 78.2251 112.88C78.2133 112.933 78.2121 112.987 78.2214 113.04C78.2416 113.132 78.292 113.214 78.3644 113.273C78.4369 113.332 78.5272 113.365 78.6207 113.366L78.6289 113.383ZM89.9152 111.017H90.0129C91.8709 110.577 93.7614 110.103 95.6113 109.614C95.6648 109.601 95.7151 109.577 95.7594 109.544C95.8037 109.511 95.8411 109.47 95.8695 109.422C95.8979 109.375 95.9167 109.323 95.9248 109.268C95.9329 109.213 95.9302 109.158 95.9168 109.104C95.9035 109.051 95.8797 109 95.8468 108.956C95.814 108.911 95.7728 108.874 95.7255 108.846C95.6782 108.817 95.6258 108.798 95.5712 108.79C95.5167 108.782 95.461 108.785 95.4075 108.798C93.5577 109.288 91.6835 109.761 89.8255 110.193C89.7198 110.22 89.6286 110.287 89.571 110.38C89.5133 110.473 89.4935 110.584 89.5158 110.691C89.5375 110.779 89.5877 110.857 89.6585 110.913C89.7293 110.969 89.8167 111 89.907 111.001L89.9152 111.017ZM82.4344 110.25H82.4996C82.6057 110.232 82.7006 110.174 82.7645 110.087C82.8283 110 82.856 109.892 82.8418 109.785C82.5564 107.846 82.0731 105.94 81.3995 104.1C81.3627 103.998 81.2871 103.915 81.1893 103.869C81.0915 103.823 80.9795 103.818 80.8779 103.855C80.7764 103.892 80.6936 103.967 80.6478 104.065C80.6019 104.163 80.5968 104.275 80.6335 104.377C81.2828 106.163 81.747 108.011 82.0188 109.891C82.0344 109.988 82.0842 110.076 82.159 110.138C82.2337 110.201 82.3286 110.235 82.4263 110.234L82.4344 110.25ZM101.071 108.072C101.109 108.08 101.147 108.08 101.185 108.072C103.019 107.542 104.885 106.971 106.71 106.384C106.762 106.368 106.809 106.342 106.851 106.307C106.892 106.273 106.925 106.23 106.95 106.182C106.974 106.134 106.989 106.082 106.992 106.028C106.996 105.974 106.989 105.921 106.971 105.87C106.937 105.767 106.864 105.682 106.768 105.633C106.672 105.584 106.56 105.575 106.458 105.609C104.64 106.188 102.79 106.759 100.957 107.289C100.853 107.319 100.766 107.39 100.714 107.485C100.662 107.579 100.65 107.691 100.68 107.795C100.709 107.873 100.761 107.94 100.83 107.987C100.898 108.033 100.98 108.058 101.063 108.056L101.071 108.072ZM33.1821 105.976C33.2768 105.974 33.368 105.94 33.4406 105.879C33.5132 105.818 33.5629 105.734 33.5815 105.641C34.0216 103.843 35.0341 102.237 36.4662 101.065C36.5041 101.028 36.5343 100.983 36.5548 100.934C36.5754 100.885 36.586 100.833 36.586 100.779C36.586 100.726 36.5754 100.674 36.5548 100.625C36.5343 100.576 36.5041 100.531 36.4662 100.494C36.4283 100.456 36.3832 100.425 36.3336 100.405C36.2839 100.384 36.2307 100.373 36.1769 100.373C36.1231 100.373 36.0698 100.384 36.0202 100.405C35.9706 100.425 35.9255 100.456 35.8876 100.494C34.3211 101.78 33.219 103.546 32.7502 105.519C32.7395 105.571 32.7393 105.626 32.7495 105.678C32.7596 105.731 32.78 105.781 32.8096 105.825C32.8391 105.87 32.8771 105.909 32.9214 105.939C32.9658 105.969 33.0156 105.99 33.0681 106L33.1821 105.976ZM112.048 104.548C112.093 104.557 112.14 104.557 112.186 104.548C114.044 103.887 115.861 103.202 117.605 102.517C117.704 102.475 117.784 102.397 117.826 102.298C117.869 102.199 117.871 102.088 117.833 101.987C117.814 101.937 117.784 101.891 117.747 101.853C117.71 101.815 117.665 101.784 117.616 101.763C117.567 101.741 117.514 101.73 117.46 101.729C117.407 101.729 117.354 101.738 117.304 101.758C115.576 102.444 113.759 103.121 111.917 103.781C111.816 103.817 111.733 103.89 111.686 103.986C111.638 104.083 111.631 104.194 111.665 104.295C111.698 104.367 111.751 104.427 111.817 104.469C111.884 104.511 111.961 104.533 112.04 104.532L112.048 104.548ZM122.772 100.282C122.825 100.294 122.881 100.294 122.935 100.282C124.727 99.4661 126.488 98.6503 128.158 97.7938C128.21 97.7722 128.257 97.7402 128.295 97.6998C128.334 97.6593 128.364 97.6113 128.384 97.5587C128.403 97.5061 128.412 97.45 128.408 97.394C128.405 97.338 128.39 97.2833 128.365 97.2332C128.34 97.1832 128.305 97.1389 128.261 97.1031C128.218 97.0673 128.168 97.0408 128.114 97.0253C128.06 97.0098 128.004 97.0055 127.948 97.0129C127.893 97.0202 127.839 97.0388 127.791 97.0678C126.162 97.8835 124.385 98.6993 122.601 99.515C122.493 99.5377 122.398 99.6025 122.338 99.695C122.277 99.7876 122.256 99.9004 122.279 100.009C122.301 100.117 122.366 100.211 122.459 100.272C122.551 100.332 122.664 100.353 122.772 100.331V100.282ZM78.3436 99.5721C78.4305 99.5719 78.5154 99.5464 78.5881 99.4987C78.6745 99.4338 78.7317 99.3372 78.747 99.2301C78.7623 99.123 78.7344 99.0142 78.6696 98.9277C77.6041 97.4637 76.2947 96.1943 74.7988 95.1752L74.3751 94.906C74.3296 94.8776 74.279 94.8585 74.2261 94.8497C74.1732 94.8409 74.1192 94.8426 74.0669 94.8547C74.0147 94.8668 73.9654 94.8891 73.9218 94.9203C73.8782 94.9515 73.8412 94.991 73.8128 95.0366C73.7845 95.0821 73.7653 95.1328 73.7565 95.1857C73.7477 95.2386 73.7495 95.2927 73.7616 95.345C73.7737 95.3973 73.7959 95.4466 73.8271 95.4903C73.8583 95.5339 73.8977 95.571 73.9432 95.5994L74.3425 95.8523C75.7616 96.8189 77.0047 98.0219 78.0177 99.409C78.0568 99.4551 78.1055 99.4921 78.1604 99.5175C78.2153 99.5429 78.275 99.5559 78.3355 99.5558L78.3436 99.5721ZM40.9644 97.9406C41.0325 97.94 41.0995 97.9232 41.16 97.8917C41.8445 97.5246 42.5127 97.182 43.1483 96.8638C44.1832 96.3581 45.2507 95.8849 46.3264 95.4607C46.38 95.4444 46.4297 95.4172 46.4724 95.3808C46.515 95.3444 46.5497 95.2995 46.5742 95.2491C46.5988 95.1986 46.6127 95.1436 46.615 95.0876C46.6174 95.0315 46.6081 94.9756 46.5879 94.9233C46.5676 94.8709 46.5368 94.8233 46.4974 94.7835C46.458 94.7436 46.4107 94.7123 46.3586 94.6916C46.3066 94.6708 46.2508 94.661 46.1947 94.6628C46.1387 94.6646 46.0837 94.678 46.0331 94.7021C44.9329 95.1263 43.841 95.6157 42.7735 96.1378C42.1379 96.4559 41.4533 96.7986 40.7607 97.1738C40.667 97.2271 40.5976 97.3147 40.5672 97.4182C40.5368 97.5217 40.5477 97.633 40.5977 97.7285C40.6343 97.7904 40.687 97.8413 40.7501 97.8758C40.8132 97.9102 40.8844 97.927 40.9562 97.9243L40.9644 97.9406ZM133.048 95.0447C133.12 95.0461 133.19 95.0263 133.251 94.9876C134.954 94.0005 136.609 92.9727 138.141 91.9204C138.22 91.8566 138.272 91.7656 138.288 91.6652C138.303 91.5648 138.281 91.4622 138.225 91.3774C138.169 91.2927 138.083 91.232 137.985 91.2072C137.886 91.1824 137.782 91.1953 137.692 91.2433C136.144 92.2793 134.506 93.3072 132.803 94.2861C132.727 94.3315 132.667 94.4007 132.634 94.4832C132.6 94.5656 132.594 94.6568 132.617 94.7427C132.641 94.8287 132.691 94.9047 132.761 94.9593C132.832 95.0138 132.918 95.0438 133.007 95.0447H133.048ZM51.6803 93.764H51.7781C53.6313 93.324 55.5128 93.0133 57.409 92.834C57.5157 92.8237 57.6141 92.7716 57.6827 92.6892C57.7514 92.6067 57.7848 92.5005 57.7757 92.3935C57.7634 92.286 57.7096 92.1875 57.626 92.119C57.5423 92.0504 57.4352 92.0172 57.3275 92.0264C55.4064 92.2087 53.5003 92.5249 51.6232 92.9727C51.5152 92.9846 51.4163 93.039 51.3482 93.1239C51.2802 93.2088 51.2487 93.3173 51.2606 93.4254C51.2725 93.5336 51.3268 93.6326 51.4116 93.7007C51.4965 93.7688 51.6048 93.8004 51.7129 93.7885L51.6803 93.764ZM68.8338 93.5029C68.9262 93.5019 69.0157 93.4701 69.088 93.4124C69.1603 93.3548 69.2114 93.2747 69.2331 93.1848C69.2576 93.0799 69.2397 92.9695 69.1832 92.8778C69.1267 92.7861 69.0362 92.7205 68.9316 92.6954C67.5003 92.3566 66.0457 92.1248 64.58 92.002C64.1074 92.002 63.6266 91.9285 63.154 91.9041C63.1 91.8984 63.0454 91.904 62.9937 91.9207C62.942 91.9373 62.8943 91.9645 62.8537 92.0005C62.813 92.0366 62.7804 92.0807 62.7577 92.1301C62.7351 92.1795 62.7229 92.2331 62.7221 92.2875C62.7176 92.3943 62.7553 92.4987 62.8269 92.578C62.8985 92.6573 62.9984 92.7053 63.1051 92.7117C63.5777 92.7117 64.0422 92.7769 64.5067 92.8177C65.931 92.9359 67.3447 93.1595 68.736 93.4866L68.8338 93.5029ZM142.606 88.6084C142.697 88.6102 142.786 88.5815 142.859 88.5269C144.407 87.3114 145.89 86.0388 147.267 84.7581C147.306 84.7202 147.336 84.6751 147.357 84.6254C147.377 84.5757 147.388 84.5224 147.388 84.4685C147.388 84.4147 147.377 84.3614 147.357 84.3116C147.336 84.2619 147.306 84.2168 147.267 84.1789C147.19 84.1037 147.086 84.0616 146.978 84.0616C146.87 84.0616 146.766 84.1037 146.689 84.1789C145.328 85.4515 143.861 86.7077 142.329 87.9069C142.245 87.9742 142.191 88.072 142.179 88.179C142.167 88.2859 142.197 88.3934 142.264 88.4779C142.308 88.5204 142.361 88.5521 142.419 88.5705C142.477 88.5889 142.538 88.5935 142.598 88.584L142.606 88.6084ZM151.016 80.7365C151.074 80.7359 151.132 80.7234 151.185 80.6995C151.239 80.6756 151.286 80.641 151.326 80.5978C152.606 79.1405 153.801 77.6097 154.903 76.0133C154.964 75.924 154.988 75.8145 154.97 75.7079C154.951 75.6013 154.892 75.506 154.805 75.4422C154.715 75.384 154.605 75.3625 154.499 75.3822C154.393 75.4019 154.299 75.4613 154.235 75.5483C153.135 77.1132 151.943 78.6114 150.666 80.0349C150.591 80.1112 150.549 80.2137 150.549 80.3204C150.549 80.4272 150.591 80.5297 150.666 80.6059C150.711 80.6485 150.765 80.6803 150.824 80.6986C150.884 80.717 150.946 80.7216 151.008 80.712L151.016 80.7365ZM157.535 71.2493C157.61 71.2489 157.684 71.2272 157.747 71.1868C157.811 71.1464 157.861 71.0889 157.894 71.0209C158.787 69.2964 159.558 67.5109 160.2 65.6777C160.234 65.5749 160.227 65.4628 160.179 65.3653C160.132 65.2678 160.049 65.1926 159.947 65.1556C159.846 65.1218 159.735 65.1294 159.639 65.1767C159.543 65.224 159.469 65.3073 159.434 65.4085C158.804 67.2085 158.047 68.9613 157.168 70.6538C157.12 70.7501 157.112 70.8617 157.145 70.9641C157.179 71.0665 157.252 71.1514 157.348 71.2003C157.407 71.2244 157.472 71.2328 157.535 71.2248V71.2493ZM161.259 60.3509C161.356 60.3519 161.45 60.3177 161.523 60.2547C161.597 60.1916 161.645 60.1041 161.658 60.0083C161.74 59.5759 161.805 59.1436 161.87 58.703C162.069 57.265 162.17 55.815 162.172 54.3633V54.192C162.172 54.0838 162.129 53.98 162.053 53.9035C161.976 53.8271 161.872 53.7841 161.764 53.7841C161.656 53.7841 161.553 53.8271 161.476 53.9035C161.4 53.98 161.357 54.0838 161.357 54.192V54.3551C161.358 55.7688 161.26 57.1808 161.064 58.5807C160.998 59.013 160.933 59.4372 160.86 59.8614C160.841 59.9674 160.864 60.0766 160.925 60.1652C160.987 60.2539 161.08 60.3147 161.186 60.3345L161.259 60.3509ZM161.218 48.8651H161.292C161.398 48.8453 161.491 48.7844 161.552 48.6958C161.613 48.6071 161.637 48.4979 161.618 48.392C161.263 46.4757 160.748 44.5928 160.078 42.7633C160.037 42.6624 159.96 42.5807 159.862 42.5352C159.763 42.4896 159.651 42.4837 159.548 42.5186C159.448 42.557 159.367 42.6333 159.323 42.7311C159.278 42.8288 159.274 42.94 159.312 43.0407C159.97 44.8268 160.475 46.6663 160.819 48.5388C160.837 48.6391 160.893 48.7287 160.974 48.7894C161.056 48.85 161.158 48.8771 161.259 48.8651H161.218ZM157.242 38.0891C157.313 38.0854 157.383 38.0659 157.445 38.032C157.539 37.9759 157.606 37.8856 157.633 37.7804C157.661 37.6752 157.646 37.5635 157.592 37.4691C156.612 35.7838 155.48 34.1918 154.21 32.7133C154.137 32.6466 154.041 32.6093 153.941 32.6083C153.842 32.6073 153.746 32.6427 153.671 32.7079C153.595 32.7731 153.547 32.8635 153.534 32.9622C153.52 33.0608 153.544 33.1609 153.599 33.2435C154.82 34.6916 155.911 36.2448 156.859 37.8851C156.899 37.9559 156.959 38.0131 157.031 38.0494C157.104 38.0858 157.186 38.0996 157.266 38.0891H157.242ZM149.737 29.4013C149.821 29.4008 149.903 29.3743 149.971 29.3253C150.04 29.2762 150.091 29.2072 150.119 29.1276C150.147 29.048 150.149 28.9618 150.126 28.8808C150.103 28.7998 150.055 28.728 149.989 28.6753C148.449 27.4785 146.798 26.4323 145.059 25.551C144.962 25.5023 144.849 25.4943 144.746 25.5287C144.643 25.5631 144.558 25.6372 144.509 25.7345C144.46 25.8319 144.452 25.9446 144.487 26.0479C144.521 26.1511 144.595 26.2365 144.692 26.2852C146.384 27.1433 147.991 28.1594 149.492 29.3197C149.569 29.3787 149.664 29.4076 149.761 29.4013H149.737ZM99.6857 24.3192C101.626 24.2765 103.562 24.1048 105.48 23.8053C105.588 23.7901 105.685 23.7326 105.751 23.6454C105.817 23.5582 105.845 23.4485 105.83 23.3403C105.815 23.2321 105.757 23.1344 105.67 23.0686C105.583 23.0028 105.474 22.9744 105.366 22.9895C103.478 23.2867 101.572 23.4557 99.6613 23.4953C99.5532 23.4953 99.4496 23.5383 99.3732 23.6148C99.2968 23.6912 99.2538 23.795 99.2538 23.9032C99.2538 24.0113 99.2968 24.1151 99.3732 24.1916C99.4496 24.2681 99.5532 24.311 99.6613 24.311L99.6857 24.3192ZM139.567 24.1071C139.62 24.1157 139.675 24.1136 139.728 24.101C139.78 24.0884 139.83 24.0656 139.874 24.0338C139.918 24.002 139.955 23.9618 139.983 23.9156C140.012 23.8694 140.031 23.8181 140.039 23.7645C140.048 23.7109 140.046 23.6562 140.033 23.6034C140.021 23.5507 139.998 23.5009 139.966 23.457C139.934 23.413 139.894 23.3758 139.848 23.3474C139.802 23.319 139.751 23.2999 139.697 23.2914C137.853 22.6922 135.976 22.2019 134.074 21.823C134.021 21.8124 133.967 21.8124 133.914 21.8231C133.861 21.8338 133.81 21.855 133.766 21.8853C133.721 21.9157 133.683 21.9547 133.653 22C133.624 22.0453 133.603 22.0961 133.594 22.1493C133.582 22.2014 133.581 22.2553 133.59 22.3078C133.6 22.3603 133.621 22.4103 133.65 22.4546C133.68 22.4989 133.719 22.5367 133.764 22.5655C133.808 22.5944 133.859 22.6138 133.911 22.6224C135.782 22.9971 137.629 23.4791 139.444 24.0663L139.567 24.1071ZM111.111 22.8264H111.184C112.936 22.5001 114.916 22.133 116.888 21.8556C116.994 21.8395 117.088 21.7826 117.152 21.6972C117.216 21.6118 117.244 21.5047 117.23 21.3988C117.224 21.3454 117.208 21.2937 117.181 21.2469C117.155 21.2 117.119 21.159 117.077 21.1263C117.034 21.0935 116.985 21.0697 116.933 21.0563C116.881 21.0428 116.827 21.04 116.774 21.048C114.818 21.3254 112.83 21.7006 111.07 22.0269C110.964 22.0468 110.871 22.1076 110.809 22.1963C110.748 22.2849 110.725 22.3941 110.744 22.5001C110.758 22.5909 110.801 22.6745 110.868 22.738C110.934 22.8014 111.019 22.8411 111.111 22.8508V22.8264ZM128.289 21.7741C128.397 21.7805 128.503 21.7438 128.584 21.6719C128.665 21.6 128.714 21.4988 128.72 21.3907C128.727 21.2825 128.69 21.1762 128.618 21.0951C128.547 21.014 128.446 20.9648 128.337 20.9583C127.303 20.8441 126.194 20.7381 125.078 20.6483C124.361 20.5912 123.603 20.5586 122.829 20.5586H122.56C122.506 20.5597 122.454 20.5713 122.405 20.5927C122.355 20.6142 122.311 20.6452 122.274 20.6838C122.237 20.7224 122.208 20.768 122.188 20.8179C122.169 20.8678 122.159 20.9211 122.161 20.9746C122.167 21.0801 122.212 21.1795 122.287 21.2534C122.362 21.3273 122.463 21.3705 122.568 21.3743H122.829C123.578 21.3743 124.312 21.3743 125.021 21.4559C126.145 21.5456 127.237 21.6517 128.28 21.7741H128.289Z" fill="#E07B39"/>
<path d="M130.439 164.71C131.408 164.669 132.37 164.596 133.299 164.506C133.352 164.502 133.404 164.487 133.452 164.463C133.499 164.438 133.541 164.404 133.575 164.363C133.61 164.322 133.635 164.275 133.651 164.224C133.666 164.172 133.671 164.119 133.666 164.066C133.663 164.012 133.649 163.959 133.625 163.911C133.601 163.863 133.567 163.821 133.526 163.786C133.484 163.752 133.436 163.726 133.385 163.711C133.333 163.696 133.279 163.692 133.226 163.698C132.305 163.788 131.36 163.853 130.398 163.894C130.29 163.894 130.186 163.937 130.11 164.014C130.034 164.09 129.991 164.194 129.991 164.302C129.991 164.41 130.034 164.514 130.11 164.591C130.186 164.667 130.29 164.71 130.398 164.71H130.439Z" fill="#E07B39"/>
<g opacity="0.6">
<path d="M93.9636 23.7734C94.055 23.7719 94.1433 23.7398 94.2142 23.6821C94.2852 23.6244 94.3347 23.5445 94.3548 23.4552C94.368 23.4032 94.3707 23.3491 94.3626 23.296C94.3546 23.243 94.3359 23.1921 94.3078 23.1464C94.2796 23.1008 94.2426 23.0612 94.1988 23.0302C94.1551 22.9991 94.1056 22.9772 94.0532 22.9658C93.149 22.759 92.2611 22.4864 91.3967 22.15C91.3469 22.1302 91.2938 22.1204 91.2402 22.1211C91.1867 22.1219 91.1338 22.1332 91.0846 22.1544C91.0354 22.1756 90.9909 22.2063 90.9535 22.2447C90.9162 22.2832 90.8868 22.3286 90.867 22.3784C90.8472 22.4282 90.8374 22.4815 90.8382 22.5351C90.8389 22.5887 90.8502 22.6416 90.8714 22.6908C90.8926 22.7401 90.9233 22.7847 90.9617 22.822C91 22.8594 91.0454 22.8888 91.0952 22.9087C91.9954 23.2691 92.9216 23.5609 93.8658 23.7815L93.9636 23.7734Z" fill="#F4A76F"/>
<path d="M124.589 164.693C124.694 164.692 124.794 164.65 124.869 164.578C124.945 164.505 124.99 164.407 124.996 164.302C124.999 164.248 124.99 164.195 124.972 164.144C124.953 164.094 124.925 164.048 124.889 164.009C124.852 163.969 124.809 163.937 124.76 163.915C124.711 163.892 124.659 163.88 124.605 163.878C122.723 163.78 120.8 163.608 118.901 163.356C118.794 163.344 118.687 163.374 118.602 163.439C118.517 163.505 118.461 163.6 118.445 163.706C118.437 163.76 118.439 163.814 118.453 163.866C118.466 163.918 118.49 163.967 118.523 164.009C118.555 164.052 118.596 164.088 118.643 164.114C118.69 164.14 118.742 164.157 118.795 164.163C120.718 164.424 122.666 164.596 124.573 164.685L124.589 164.693ZM113.18 163.184C113.288 163.196 113.397 163.165 113.482 163.097C113.566 163.028 113.621 162.929 113.633 162.821C113.645 162.713 113.613 162.605 113.545 162.52C113.477 162.435 113.378 162.38 113.27 162.369C111.355 161.953 109.489 161.463 107.729 160.908C107.677 160.887 107.62 160.876 107.564 160.877C107.508 160.879 107.452 160.892 107.401 160.915C107.35 160.939 107.304 160.974 107.267 161.016C107.229 161.059 107.201 161.108 107.184 161.162C107.167 161.216 107.162 161.273 107.168 161.329C107.174 161.386 107.192 161.44 107.22 161.489C107.248 161.538 107.286 161.58 107.332 161.614C107.377 161.647 107.429 161.671 107.484 161.683C109.269 162.246 111.151 162.744 113.099 163.168L113.18 163.184ZM102.22 159.66C102.298 159.661 102.373 159.639 102.439 159.597C102.504 159.555 102.555 159.494 102.587 159.424C102.61 159.375 102.624 159.322 102.626 159.268C102.629 159.214 102.621 159.16 102.603 159.109C102.585 159.059 102.557 159.012 102.52 158.972C102.484 158.932 102.44 158.9 102.391 158.877C101.01 158.259 99.6776 157.537 98.4063 156.715L97.4366 156.063C97.3468 156.004 97.2373 155.983 97.132 156.004C97.0267 156.025 96.9341 156.088 96.8743 156.177C96.8437 156.221 96.8221 156.27 96.8108 156.322C96.7995 156.374 96.7988 156.428 96.8087 156.481C96.8185 156.533 96.8388 156.583 96.8683 156.628C96.8978 156.672 96.9358 156.71 96.9803 156.74L97.9582 157.392C99.2575 158.238 100.62 158.982 102.033 159.619C102.084 159.643 102.139 159.657 102.196 159.66H102.22ZM92.6287 153.306C92.6871 153.305 92.7448 153.292 92.798 153.269C92.8513 153.245 92.8991 153.21 92.9384 153.167C93.0084 153.084 93.0433 152.977 93.0356 152.869C93.028 152.761 92.9785 152.66 92.8976 152.588C91.454 151.341 90.1157 149.977 88.8965 148.509C88.8256 148.427 88.7253 148.376 88.6172 148.367C88.5091 148.357 88.4017 148.391 88.3179 148.46C88.2766 148.494 88.2425 148.536 88.2176 148.583C88.1927 148.63 88.1776 148.682 88.173 148.735C88.1685 148.788 88.1746 148.842 88.1911 148.893C88.2076 148.944 88.2341 148.991 88.2691 149.031C89.5142 150.522 90.8767 151.91 92.3435 153.183C92.4122 153.255 92.5052 153.299 92.6043 153.306H92.6287ZM85.3843 144.414C85.45 144.414 85.5146 144.397 85.5717 144.365C85.6677 144.316 85.7404 144.231 85.774 144.129C85.8076 144.026 85.7994 143.915 85.751 143.818C85.4848 143.307 85.2404 142.785 85.0176 142.252C84.5142 141.035 84.1056 139.78 83.7953 138.5C83.7824 138.446 83.7592 138.396 83.7268 138.351C83.6945 138.306 83.6537 138.269 83.6068 138.24C83.5599 138.211 83.5078 138.192 83.4534 138.183C83.3991 138.175 83.3436 138.177 83.2901 138.19C83.2365 138.203 83.1861 138.226 83.1416 138.258C83.097 138.291 83.0593 138.331 83.0306 138.378C83.0018 138.425 82.9826 138.478 82.974 138.532C82.9654 138.586 82.9675 138.642 82.9804 138.695C83.298 140.019 83.7204 141.314 84.2435 142.57C84.4716 143.117 84.7243 143.655 85.0013 144.202C85.0358 144.267 85.0875 144.321 85.1508 144.358C85.2141 144.396 85.2864 144.415 85.3599 144.414H85.3843ZM82.5566 133.303C82.6109 133.3 82.664 133.286 82.7129 133.262C82.7617 133.238 82.8052 133.205 82.8409 133.164C82.8766 133.123 82.9037 133.075 82.9207 133.023C82.9376 132.972 82.9441 132.917 82.9397 132.863C82.8663 131.753 82.8256 130.579 82.8256 129.282C82.8256 128.564 82.8256 127.854 82.8256 127.136C82.8277 127.082 82.8191 127.028 82.8001 126.977C82.7811 126.926 82.7522 126.88 82.715 126.84C82.6778 126.801 82.6331 126.769 82.5835 126.747C82.5339 126.725 82.4805 126.713 82.4263 126.712C82.3725 126.71 82.3188 126.719 82.2684 126.738C82.2181 126.757 82.1721 126.786 82.1333 126.823C82.0945 126.861 82.0636 126.905 82.0425 126.955C82.0215 127.005 82.0106 127.058 82.0107 127.112C82.0107 127.838 82.0107 128.556 82.0107 129.282C82.0107 130.603 82.0514 131.794 82.1248 132.92C82.131 133.024 82.1766 133.121 82.2524 133.193C82.3281 133.264 82.4282 133.304 82.5322 133.303H82.5566ZM82.7115 121.761C82.8154 121.761 82.9155 121.721 82.9913 121.65C83.067 121.579 83.1127 121.481 83.1189 121.377C83.1922 119.746 83.2656 117.935 83.2656 116.156V115.577C83.2694 115.523 83.2613 115.469 83.2421 115.418C83.2228 115.367 83.1928 115.321 83.154 115.283C83.1153 115.245 83.0688 115.216 83.0177 115.198C82.9666 115.179 82.9122 115.173 82.8582 115.177C82.7501 115.177 82.6464 115.22 82.57 115.297C82.4936 115.373 82.4507 115.477 82.4507 115.585V116.156C82.4507 117.918 82.3773 119.688 82.304 121.336C82.3018 121.39 82.3102 121.443 82.3287 121.494C82.3472 121.544 82.3754 121.59 82.4117 121.63C82.4481 121.669 82.4918 121.701 82.5404 121.723C82.5891 121.746 82.6416 121.758 82.6952 121.761H82.7115ZM47.8747 116.735C48.6162 116.735 49.3415 116.735 50.0342 116.687C50.0877 116.684 50.1403 116.672 50.1889 116.649C50.2376 116.627 50.2813 116.595 50.3176 116.556C50.354 116.516 50.3822 116.47 50.4007 116.42C50.4191 116.369 50.4275 116.316 50.4253 116.262C50.4232 116.209 50.4106 116.156 50.3882 116.107C50.3657 116.059 50.3339 116.015 50.2946 115.979C50.2552 115.942 50.2091 115.914 50.1588 115.896C50.1085 115.877 50.0551 115.869 50.0016 115.871C49.3171 115.871 48.6 115.92 47.8747 115.92C46.6798 115.926 45.4856 115.866 44.2973 115.74C44.1893 115.728 44.0809 115.76 43.9961 115.828C43.9113 115.896 43.8569 115.995 43.8451 116.103C43.8332 116.211 43.8647 116.32 43.9327 116.405C44.0007 116.49 44.0996 116.544 44.2077 116.556C45.4178 116.681 46.6337 116.741 47.8503 116.735H47.8747ZM55.771 116.319C57.6779 116.173 59.6173 116.001 61.5242 115.806C61.5778 115.8 61.6299 115.785 61.6774 115.759C61.7249 115.734 61.7669 115.699 61.801 115.658C61.8351 115.616 61.8606 115.568 61.8761 115.516C61.8915 115.465 61.8965 115.41 61.8909 115.357C61.8858 115.303 61.8702 115.251 61.8448 115.204C61.8195 115.156 61.785 115.114 61.7433 115.08C61.7016 115.046 61.6536 115.02 61.602 115.005C61.5504 114.989 61.4963 114.984 61.4427 114.99C59.544 115.186 57.6127 115.365 55.7385 115.512C55.6304 115.512 55.5267 115.555 55.4503 115.631C55.3739 115.708 55.331 115.812 55.331 115.92C55.331 116.028 55.3739 116.132 55.4503 116.208C55.5267 116.285 55.6304 116.328 55.7385 116.328L55.771 116.319ZM38.6582 115.153C38.7364 115.152 38.8129 115.129 38.879 115.088C38.9452 115.046 38.9985 114.987 39.0331 114.916C39.0772 114.818 39.0805 114.706 39.0423 114.605C39.0042 114.504 38.9276 114.422 38.8294 114.378C37.1208 113.653 35.6738 112.424 34.6816 110.854C34.6563 110.803 34.6208 110.759 34.5774 110.723C34.534 110.687 34.4836 110.66 34.4294 110.645C34.3751 110.629 34.3183 110.625 34.2624 110.633C34.2065 110.64 34.1528 110.659 34.1047 110.689C34.0566 110.718 34.0151 110.757 33.9829 110.804C33.9507 110.85 33.9284 110.903 33.9175 110.958C33.9066 111.013 33.9074 111.07 33.9196 111.126C33.9319 111.181 33.9555 111.233 33.9889 111.278C35.0615 112.988 36.6312 114.329 38.4871 115.12C38.5413 115.143 38.5996 115.154 38.6582 115.153ZM67.2203 115.153H67.2692C69.1679 114.908 71.0992 114.631 72.9735 114.337C73.0265 114.329 73.0774 114.311 73.1233 114.283C73.1692 114.255 73.2092 114.219 73.241 114.176C73.2728 114.133 73.2957 114.084 73.3086 114.031C73.3214 113.979 73.3238 113.925 73.3157 113.872C73.2977 113.766 73.2392 113.671 73.1526 113.607C73.0659 113.543 72.9579 113.515 72.8512 113.53C70.9607 113.823 69.0457 114.101 67.147 114.345C67.0389 114.352 66.9378 114.401 66.866 114.482C66.7942 114.563 66.7575 114.67 66.764 114.778C66.7705 114.886 66.8196 114.987 66.9006 115.059C66.9816 115.131 67.0878 115.168 67.1959 115.161L67.2203 115.153ZM78.6289 113.383H78.7022C80.5846 113.04 82.4915 112.665 84.3657 112.273C84.4738 112.252 84.5688 112.188 84.63 112.096C84.6911 112.004 84.7133 111.892 84.6917 111.784C84.6701 111.676 84.6064 111.581 84.5147 111.519C84.423 111.458 84.3108 111.436 84.2027 111.458C82.3285 111.849 80.4298 112.224 78.5555 112.567C78.5024 112.576 78.4516 112.595 78.4061 112.624C78.3605 112.652 78.321 112.69 78.2899 112.734C78.2589 112.778 78.2368 112.828 78.2251 112.88C78.2133 112.933 78.2121 112.987 78.2214 113.04C78.2416 113.132 78.292 113.214 78.3644 113.273C78.4369 113.332 78.5272 113.365 78.6207 113.366L78.6289 113.383ZM89.9152 111.017H90.0129C91.8709 110.577 93.7614 110.103 95.6113 109.614C95.6648 109.601 95.7151 109.577 95.7594 109.544C95.8037 109.511 95.8411 109.47 95.8695 109.422C95.8979 109.375 95.9167 109.323 95.9248 109.268C95.9329 109.213 95.9302 109.158 95.9168 109.104C95.9035 109.051 95.8797 109 95.8468 108.956C95.814 108.911 95.7728 108.874 95.7255 108.846C95.6782 108.817 95.6258 108.798 95.5712 108.79C95.5167 108.782 95.461 108.785 95.4075 108.798C93.5577 109.288 91.6835 109.761 89.8255 110.193C89.7198 110.22 89.6286 110.287 89.571 110.38C89.5133 110.473 89.4935 110.584 89.5158 110.691C89.5375 110.779 89.5877 110.857 89.6585 110.913C89.7293 110.969 89.8167 111 89.907 111.001L89.9152 111.017ZM82.4344 110.25H82.4996C82.6057 110.232 82.7006 110.174 82.7645 110.087C82.8283 110 82.856 109.892 82.8418 109.785C82.5564 107.846 82.0731 105.94 81.3995 104.1C81.3627 103.998 81.2871 103.915 81.1893 103.869C81.0915 103.823 80.9795 103.818 80.8779 103.855C80.7764 103.892 80.6936 103.967 80.6478 104.065C80.6019 104.163 80.5968 104.275 80.6335 104.377C81.2828 106.163 81.747 108.011 82.0188 109.891C82.0344 109.988 82.0842 110.076 82.159 110.138C82.2337 110.201 82.3286 110.235 82.4263 110.234L82.4344 110.25ZM101.071 108.072C101.109 108.08 101.147 108.08 101.185 108.072C103.019 107.542 104.885 106.971 106.71 106.384C106.762 106.368 106.809 106.342 106.851 106.307C106.892 106.273 106.925 106.23 106.95 106.182C106.974 106.134 106.989 106.082 106.992 106.028C106.996 105.974 106.989 105.921 106.971 105.87C106.937 105.767 106.864 105.682 106.768 105.633C106.672 105.584 106.56 105.575 106.458 105.609C104.64 106.188 102.79 106.759 100.957 107.289C100.853 107.319 100.766 107.39 100.714 107.485C100.662 107.579 100.65 107.691 100.68 107.795C100.709 107.873 100.761 107.94 100.83 107.987C100.898 108.033 100.98 108.058 101.063 108.056L101.071 108.072ZM33.1821 105.976C33.2768 105.974 33.368 105.94 33.4406 105.879C33.5132 105.818 33.5629 105.734 33.5815 105.641C34.0216 103.843 35.0341 102.237 36.4662 101.065C36.5041 101.028 36.5343 100.983 36.5548 100.934C36.5754 100.885 36.586 100.833 36.586 100.779C36.586 100.726 36.5754 100.674 36.5548 100.625C36.5343 100.576 36.5041 100.531 36.4662 100.494C36.4283 100.456 36.3832 100.425 36.3336 100.405C36.2839 100.384 36.2307 100.373 36.1769 100.373C36.1231 100.373 36.0698 100.384 36.0202 100.405C35.9706 100.425 35.9255 100.456 35.8876 100.494C34.3211 101.78 33.219 103.546 32.7502 105.519C32.7395 105.571 32.7393 105.626 32.7495 105.678C32.7596 105.731 32.78 105.781 32.8096 105.825C32.8391 105.87 32.8771 105.909 32.9214 105.939C32.9658 105.969 33.0156 105.99 33.0681 106L33.1821 105.976ZM112.048 104.548C112.093 104.557 112.14 104.557 112.186 104.548C114.044 103.887 115.861 103.202 117.605 102.517C117.704 102.475 117.784 102.397 117.826 102.298C117.869 102.199 117.871 102.088 117.833 101.987C117.814 101.937 117.784 101.891 117.747 101.853C117.71 101.815 117.665 101.784 117.616 101.763C117.567 101.741 117.514 101.73 117.46 101.729C117.407 101.729 117.354 101.738 117.304 101.758C115.576 102.444 113.759 103.121 111.917 103.781C111.816 103.817 111.733 103.89 111.686 103.986C111.638 104.083 111.631 104.194 111.665 104.295C111.698 104.367 111.751 104.427 111.817 104.469C111.884 104.511 111.961 104.533 112.04 104.532L112.048 104.548ZM122.772 100.282C122.825 100.294 122.881 100.294 122.935 100.282C124.727 99.4661 126.488 98.6503 128.158 97.7938C128.21 97.7722 128.257 97.7402 128.295 97.6998C128.334 97.6593 128.364 97.6113 128.384 97.5587C128.403 97.5061 128.412 97.45 128.408 97.394C128.405 97.338 128.39 97.2833 128.365 97.2332C128.34 97.1832 128.305 97.1389 128.261 97.1031C128.218 97.0673 128.168 97.0408 128.114 97.0253C128.06 97.0098 128.004 97.0055 127.948 97.0129C127.893 97.0202 127.839 97.0388 127.791 97.0678C126.162 97.8835 124.385 98.6993 122.601 99.515C122.493 99.5377 122.398 99.6025 122.338 99.695C122.277 99.7876 122.256 99.9004 122.279 100.009C122.301 100.117 122.366 100.211 122.459 100.272C122.551 100.332 122.664 100.353 122.772 100.331V100.282ZM78.3436 99.5721C78.4305 99.5719 78.5154 99.5464 78.5881 99.4987C78.6745 99.4338 78.7317 99.3372 78.747 99.2301C78.7623 99.123 78.7344 99.0142 78.6696 98.9277C77.6041 97.4637 76.2947 96.1943 74.7988 95.1752L74.3751 94.906C74.3296 94.8776 74.279 94.8585 74.2261 94.8497C74.1732 94.8409 74.1192 94.8426 74.0669 94.8547C74.0147 94.8668 73.9654 94.8891 73.9218 94.9203C73.8782 94.9515 73.8412 94.991 73.8128 95.0366C73.7845 95.0821 73.7653 95.1328 73.7565 95.1857C73.7477 95.2386 73.7495 95.2927 73.7616 95.345C73.7737 95.3973 73.7959 95.4466 73.8271 95.4903C73.8583 95.5339 73.8977 95.571 73.9432 95.5994L74.3425 95.8523C75.7616 96.8189 77.0047 98.0219 78.0177 99.409C78.0568 99.4551 78.1055 99.4921 78.1604 99.5175C78.2153 99.5429 78.275 99.5559 78.3355 99.5558L78.3436 99.5721ZM40.9644 97.9406C41.0325 97.94 41.0995 97.9232 41.16 97.8917C41.8445 97.5246 42.5127 97.182 43.1483 96.8638C44.1832 96.3581 45.2507 95.8849 46.3264 95.4607C46.38 95.4444 46.4297 95.4172 46.4724 95.3808C46.515 95.3444 46.5497 95.2995 46.5742 95.2491C46.5988 95.1986 46.6127 95.1436 46.615 95.0876C46.6174 95.0315 46.6081 94.9756 46.5879 94.9233C46.5676 94.8709 46.5368 94.8233 46.4974 94.7835C46.458 94.7436 46.4107 94.7123 46.3586 94.6916C46.3066 94.6708 46.2508 94.661 46.1947 94.6628C46.1387 94.6646 46.0837 94.678 46.0331 94.7021C44.9329 95.1263 43.841 95.6157 42.7735 96.1378C42.1379 96.4559 41.4533 96.7986 40.7607 97.1738C40.667 97.2271 40.5976 97.3147 40.5672 97.4182C40.5368 97.5217 40.5477 97.633 40.5977 97.7285C40.6343 97.7904 40.687 97.8413 40.7501 97.8758C40.8132 97.9102 40.8844 97.927 40.9562 97.9243L40.9644 97.9406ZM133.048 95.0447C133.12 95.0461 133.19 95.0263 133.251 94.9876C134.954 94.0005 136.609 92.9727 138.141 91.9204C138.22 91.8566 138.272 91.7656 138.288 91.6652C138.303 91.5648 138.281 91.4622 138.225 91.3774C138.169 91.2927 138.083 91.232 137.985 91.2072C137.886 91.1824 137.782 91.1953 137.692 91.2433C136.144 92.2793 134.506 93.3072 132.803 94.2861C132.727 94.3315 132.667 94.4007 132.634 94.4832C132.6 94.5656 132.594 94.6568 132.617 94.7427C132.641 94.8287 132.691 94.9047 132.761 94.9593C132.832 95.0138 132.918 95.0438 133.007 95.0447H133.048ZM51.6803 93.764H51.7781C53.6313 93.324 55.5128 93.0133 57.409 92.834C57.5157 92.8237 57.6141 92.7716 57.6827 92.6892C57.7514 92.6067 57.7848 92.5005 57.7757 92.3935C57.7634 92.286 57.7096 92.1875 57.626 92.119C57.5423 92.0504 57.4352 92.0172 57.3275 92.0264C55.4064 92.2087 53.5003 92.5249 51.6232 92.9727C51.5152 92.9846 51.4163 93.039 51.3482 93.1239C51.2802 93.2088 51.2487 93.3173 51.2606 93.4254C51.2725 93.5336 51.3268 93.6326 51.4116 93.7007C51.4965 93.7688 51.6048 93.8004 51.7129 93.7885L51.6803 93.764ZM68.8338 93.5029C68.9262 93.5019 69.0157 93.4701 69.088 93.4124C69.1603 93.3548 69.2114 93.2747 69.2331 93.1848C69.2576 93.0799 69.2397 92.9695 69.1832 92.8778C69.1267 92.7861 69.0362 92.7205 68.9316 92.6954C67.5003 92.3566 66.0457 92.1248 64.58 92.002C64.1074 92.002 63.6266 91.9285 63.154 91.9041C63.1 91.8984 63.0454 91.904 62.9937 91.9207C62.942 91.9373 62.8943 91.9645 62.8537 92.0005C62.813 92.0366 62.7804 92.0807 62.7577 92.1301C62.7351 92.1795 62.7229 92.2331 62.7221 92.2875C62.7176 92.3943 62.7553 92.4987 62.8269 92.578C62.8985 92.6573 62.9984 92.7053 63.1051 92.7117C63.5777 92.7117 64.0422 92.7769 64.5067 92.8177C65.931 92.9359 67.3447 93.1595 68.736 93.4866L68.8338 93.5029ZM142.606 88.6084C142.697 88.6102 142.786 88.5815 142.859 88.5269C144.407 87.3114 145.89 86.0388 147.267 84.7581C147.306 84.7202 147.336 84.6751 147.357 84.6254C147.377 84.5757 147.388 84.5224 147.388 84.4685C147.388 84.4147 147.377 84.3614 147.357 84.3116C147.336 84.2619 147.306 84.2168 147.267 84.1789C147.19 84.1037 147.086 84.0616 146.978 84.0616C146.87 84.0616 146.766 84.1037 146.689 84.1789C145.328 85.4515 143.861 86.7077 142.329 87.9069C142.245 87.9742 142.191 88.072 142.179 88.179C142.167 88.2859 142.197 88.3934 142.264 88.4779C142.308 88.5204 142.361 88.5521 142.419 88.5705C142.477 88.5889 142.538 88.5935 142.598 88.584L142.606 88.6084ZM151.016 80.7365C151.074 80.7359 151.132 80.7234 151.185 80.6995C151.239 80.6756 151.286 80.641 151.326 80.5978C152.606 79.1405 153.801 77.6097 154.903 76.0133C154.964 75.924 154.988 75.8145 154.97 75.7079C154.951 75.6013 154.892 75.506 154.805 75.4422C154.715 75.384 154.605 75.3625 154.499 75.3822C154.393 75.4019 154.299 75.4613 154.235 75.5483C153.135 77.1132 151.943 78.6114 150.666 80.0349C150.591 80.1112 150.549 80.2137 150.549 80.3204C150.549 80.4272 150.591 80.5297 150.666 80.6059C150.711 80.6485 150.765 80.6803 150.824 80.6986C150.884 80.717 150.946 80.7216 151.008 80.712L151.016 80.7365ZM157.535 71.2493C157.61 71.2489 157.684 71.2272 157.747 71.1868C157.811 71.1464 157.861 71.0889 157.894 71.0209C158.787 69.2964 159.558 67.5109 160.2 65.6777C160.234 65.5749 160.227 65.4628 160.179 65.3653C160.132 65.2678 160.049 65.1926 159.947 65.1556C159.846 65.1218 159.735 65.1294 159.639 65.1767C159.543 65.224 159.469 65.3073 159.434 65.4085C158.804 67.2085 158.047 68.9613 157.168 70.6538C157.12 70.7501 157.112 70.8617 157.145 70.9641C157.179 71.0665 157.252 71.1514 157.348 71.2003C157.407 71.2244 157.472 71.2328 157.535 71.2248V71.2493ZM161.259 60.3509C161.356 60.3519 161.45 60.3177 161.523 60.2547C161.597 60.1916 161.645 60.1041 161.658 60.0083C161.74 59.5759 161.805 59.1436 161.87 58.703C162.069 57.265 162.17 55.815 162.172 54.3633V54.192C162.172 54.0838 162.129 53.98 162.053 53.9035C161.976 53.8271 161.872 53.7841 161.764 53.7841C161.656 53.7841 161.553 53.8271 161.476 53.9035C161.4 53.98 161.357 54.0838 161.357 54.192V54.3551C161.358 55.7688 161.26 57.1808 161.064 58.5807C160.998 59.013 160.933 59.4372 160.86 59.8614C160.841 59.9674 160.864 60.0766 160.925 60.1652C160.987 60.2539 161.08 60.3147 161.186 60.3345L161.259 60.3509ZM161.218 48.8651H161.292C161.398 48.8453 161.491 48.7844 161.552 48.6958C161.613 48.6071 161.637 48.4979 161.618 48.392C161.263 46.4757 160.748 44.5928 160.078 42.7633C160.037 42.6624 159.96 42.5807 159.862 42.5352C159.763 42.4896 159.651 42.4837 159.548 42.5186C159.448 42.557 159.367 42.6333 159.323 42.7311C159.278 42.8288 159.274 42.94 159.312 43.0407C159.97 44.8268 160.475 46.6663 160.819 48.5388C160.837 48.6391 160.893 48.7287 160.974 48.7894C161.056 48.85 161.158 48.8771 161.259 48.8651H161.218ZM157.242 38.0891C157.313 38.0854 157.383 38.0659 157.445 38.032C157.539 37.9759 157.606 37.8856 157.633 37.7804C157.661 37.6752 157.646 37.5635 157.592 37.4691C156.612 35.7838 155.48 34.1918 154.21 32.7133C154.137 32.6466 154.041 32.6093 153.941 32.6083C153.842 32.6073 153.746 32.6427 153.671 32.7079C153.595 32.7731 153.547 32.8635 153.534 32.9622C153.52 33.0608 153.544 33.1609 153.599 33.2435C154.82 34.6916 155.911 36.2448 156.859 37.8851C156.899 37.9559 156.959 38.0131 157.031 38.0494C157.104 38.0858 157.186 38.0996 157.266 38.0891H157.242ZM149.737 29.4013C149.821 29.4008 149.903 29.3743 149.971 29.3253C150.04 29.2762 150.091 29.2072 150.119 29.1276C150.147 29.048 150.149 28.9618 150.126 28.8808C150.103 28.7998 150.055 28.728 149.989 28.6753C148.449 27.4785 146.798 26.4323 145.059 25.551C144.962 25.5023 144.849 25.4943 144.746 25.5287C144.643 25.5631 144.558 25.6372 144.509 25.7345C144.46 25.8319 144.452 25.9446 144.487 26.0479C144.521 26.1511 144.595 26.2365 144.692 26.2852C146.384 27.1433 147.991 28.1594 149.492 29.3197C149.569 29.3787 149.664 29.4076 149.761 29.4013H149.737ZM99.6857 24.3192C101.626 24.2765 103.562 24.1048 105.48 23.8053C105.588 23.7901 105.685 23.7326 105.751 23.6454C105.817 23.5582 105.845 23.4485 105.83 23.3403C105.815 23.2321 105.757 23.1344 105.67 23.0686C105.583 23.0028 105.474 22.9744 105.366 22.9895C103.478 23.2867 101.572 23.4557 99.6613 23.4953C99.5532 23.4953 99.4496 23.5383 99.3732 23.6148C99.2968 23.6912 99.2538 23.795 99.2538 23.9032C99.2538 24.0113 99.2968 24.1151 99.3732 24.1916C99.4496 24.2681 99.5532 24.311 99.6613 24.311L99.6857 24.3192ZM139.567 24.1071C139.62 24.1157 139.675 24.1136 139.728 24.101C139.78 24.0884 139.83 24.0656 139.874 24.0338C139.918 24.002 139.955 23.9618 139.983 23.9156C140.012 23.8694 140.031 23.8181 140.039 23.7645C140.048 23.7109 140.046 23.6562 140.033 23.6034C140.021 23.5507 139.998 23.5009 139.966 23.457C139.934 23.413 139.894 23.3758 139.848 23.3474C139.802 23.319 139.751 23.2999 139.697 23.2914C137.853 22.6922 135.976 22.2019 134.074 21.823C134.021 21.8124 133.967 21.8124 133.914 21.8231C133.861 21.8338 133.81 21.855 133.766 21.8853C133.721 21.9157 133.683 21.9547 133.653 22C133.624 22.0453 133.603 22.0961 133.594 22.1493C133.582 22.2014 133.581 22.2553 133.59 22.3078C133.6 22.3603 133.621 22.4103 133.65 22.4546C133.68 22.4989 133.719 22.5367 133.764 22.5655C133.808 22.5944 133.859 22.6138 133.911 22.6224C135.782 22.9971 137.629 23.4791 139.444 24.0663L139.567 24.1071ZM111.111 22.8264H111.184C112.936 22.5001 114.916 22.133 116.888 21.8556C116.994 21.8395 117.088 21.7826 117.152 21.6972C117.216 21.6118 117.244 21.5047 117.23 21.3988C117.224 21.3454 117.208 21.2937 117.181 21.2469C117.155 21.2 117.119 21.159 117.077 21.1263C117.034 21.0935 116.985 21.0697 116.933 21.0563C116.881 21.0428 116.827 21.04 116.774 21.048C114.818 21.3254 112.83 21.7006 111.07 22.0269C110.964 22.0468 110.871 22.1076 110.809 22.1963C110.748 22.2849 110.725 22.3941 110.744 22.5001C110.758 22.5909 110.801 22.6745 110.868 22.738C110.934 22.8014 111.019 22.8411 111.111 22.8508V22.8264ZM128.289 21.7741C128.397 21.7805 128.503 21.7438 128.584 21.6719C128.665 21.6 128.714 21.4988 128.72 21.3907C128.727 21.2825 128.69 21.1762 128.618 21.0951C128.547 21.014 128.446 20.9648 128.337 20.9583C127.303 20.8441 126.194 20.7381 125.078 20.6483C124.361 20.5912 123.603 20.5586 122.829 20.5586H122.56C122.506 20.5597 122.454 20.5713 122.405 20.5927C122.355 20.6142 122.311 20.6452 122.274 20.6838C122.237 20.7224 122.208 20.768 122.188 20.8179C122.169 20.8678 122.159 20.9211 122.161 20.9746C122.167 21.0801 122.212 21.1795 122.287 21.2534C122.362 21.3273 122.463 21.3705 122.568 21.3743H122.829C123.578 21.3743 124.312 21.3743 125.021 21.4559C126.145 21.5456 127.237 21.6517 128.28 21.7741H128.289Z" fill="#F4A76F"/>
<path d="M130.439 164.71C131.408 164.669 132.37 164.596 133.299 164.506C133.352 164.502 133.404 164.487 133.452 164.463C133.499 164.438 133.541 164.404 133.575 164.363C133.61 164.322 133.635 164.275 133.651 164.224C133.666 164.172 133.671 164.119 133.666 164.066C133.663 164.012 133.649 163.959 133.625 163.911C133.601 163.863 133.567 163.821 133.526 163.786C133.484 163.752 133.436 163.726 133.385 163.711C133.333 163.696 133.279 163.692 133.226 163.698C132.305 163.788 131.36 163.853 130.398 163.894C130.29 163.894 130.186 163.937 130.11 164.014C130.034 164.09 129.991 164.194 129.991 164.302C129.991 164.41 130.034 164.514 130.11 164.591C130.186 164.667 130.29 164.71 130.398 164.71H130.439Z" fill="#F4A76F"/>
</g>
<path d="M25.8094 0.5L83.1535 13.5928L90.5039 18.1365L25.8094 0.5Z" fill="#E07B39"/>
<path opacity="0.2" d="M83.1535 13.5928L90.5039 18.1365L25.8094 0.5" fill="black"/>
<path d="M25.8082 0.5L83.1523 13.5928L77.7577 17.5655L25.8082 0.5Z" fill="#E07B39"/>
<path d="M25.8083 0.5L74.9709 10.5664L77.7578 17.5655L25.8083 0.5Z" fill="#E07B39"/>
<path opacity="0.2" d="M25.8083 0.5L74.9709 10.5664L77.7578 17.5655L25.8083 0.5Z" fill="black"/>
<path d="M25.8061 0.5L74.9688 10.5664L59.4857 16.1869L25.8061 0.5Z" fill="#E07B39"/>
<defs>
<radialGradient id="paint0_radial_1856_6526" cx="0" cy="0" r="1" gradientUnits="userSpaceOnUse" gradientTransform="translate(197 159.857) rotate(-180) scale(55.1919 63.5936)">
<stop stop-color="#19355C"/>
<stop offset="1" stop-color="#3582EB"/>
</radialGradient>
</defs>
</svg>
