<svg width="320" height="320" viewBox="0 0 320 320" fill="none" xmlns="http://www.w3.org/2000/svg">
<path d="M162.398 22.0812L163.496 3.76745L170.024 4.15906C171.449 4.24454 172.614 4.57467 173.519 5.14947C174.424 5.72427 175.081 6.47572 175.492 7.4038C175.904 8.32592 176.076 9.34737 176.009 10.4681C175.941 11.5949 175.645 12.5942 175.12 13.4661C174.601 14.3325 173.855 14.9997 172.882 15.4678C171.915 15.9303 170.722 16.119 169.303 16.0339L164.814 15.7646L164.954 13.4217L169.193 13.676C170.093 13.73 170.833 13.6188 171.412 13.3424C171.991 13.0601 172.428 12.6555 172.723 12.1287C173.018 11.602 173.186 10.9928 173.228 10.3013C173.269 9.60976 173.175 8.98786 172.945 8.43558C172.715 7.88331 172.325 7.43817 171.777 7.10016C171.235 6.7625 170.505 6.56614 169.587 6.51106L166.117 6.30292L165.161 22.247L162.398 22.0812Z" fill="#FCE2D1"/>
<path d="M178.568 23.3952L180.674 9.79741L183.233 10.1938L182.898 12.3538L183.04 12.3758C183.401 11.6823 183.927 11.1746 184.617 10.8525C185.315 10.5254 186.062 10.4235 186.858 10.5469C187.024 10.5725 187.217 10.6086 187.44 10.6552C187.668 10.7026 187.846 10.7453 187.973 10.7831L187.581 13.315C187.479 13.269 187.295 13.2073 187.029 13.1298C186.764 13.0465 186.496 12.9837 186.225 12.9417C185.599 12.8448 185.021 12.8912 184.49 13.0809C183.965 13.2656 183.526 13.5691 183.17 13.9915C182.815 14.4079 182.592 14.9112 182.501 15.5014L181.215 23.8053L178.568 23.3952Z" fill="#FCE2D1"/>
<path d="M193.49 26.5598C192.239 26.2474 191.218 25.6879 190.428 24.8813C189.639 24.0748 189.115 23.0915 188.856 21.9313C188.598 20.7712 188.641 19.5016 188.985 18.1225C189.331 16.7376 189.891 15.591 190.666 14.6825C191.441 13.7741 192.366 13.1495 193.442 12.8087C194.518 12.468 195.682 12.4538 196.934 12.7663C198.185 13.0787 199.206 13.6382 199.996 14.4448C200.785 15.2513 201.308 16.2375 201.565 17.4035C201.822 18.5694 201.778 19.8448 201.432 21.2297C201.088 22.6088 200.529 23.7496 199.756 24.6523C198.982 25.5549 198.058 26.1766 196.982 26.5174C195.906 26.8581 194.742 26.8723 193.49 26.5598ZM194.043 24.3804C194.855 24.5829 195.58 24.5363 196.22 24.2406C196.861 23.9449 197.397 23.4726 197.83 22.8235C198.269 22.1759 198.595 21.4233 198.809 20.5657C199.022 19.7139 199.087 18.8991 199.004 18.1213C198.928 17.3392 198.678 16.6643 198.254 16.0966C197.829 15.5289 197.211 15.1439 196.4 14.9413C195.583 14.7374 194.851 14.7854 194.203 15.0855C193.562 15.387 193.021 15.8644 192.581 16.5178C192.148 17.1669 191.825 17.9173 191.612 18.7691C191.398 19.6267 191.33 20.4436 191.407 21.22C191.49 21.9978 191.744 22.6676 192.17 23.2295C192.602 23.7928 193.226 24.1764 194.043 24.3804Z" fill="#FCE2D1"/>
<path d="M207.744 30.9453C206.705 30.5532 205.878 29.9378 205.262 29.0991C204.654 28.257 204.305 27.2539 204.214 26.0899C204.132 24.9224 204.353 23.643 204.878 22.2517C205.403 20.8603 206.083 19.7576 206.92 18.9436C207.763 18.1317 208.691 17.617 209.705 17.3996C210.719 17.1821 211.743 17.2684 212.777 17.6585C213.576 17.96 214.168 18.3365 214.553 18.7882C214.945 19.2363 215.209 19.687 215.345 20.1402C215.486 20.5956 215.581 20.9858 215.631 21.3109L215.782 21.3679L218.188 14.9895L220.694 15.9351L214.218 33.1005L211.77 32.1771L212.526 30.1739L212.316 30.0948C212.062 30.3117 211.726 30.5424 211.309 30.7869C210.896 31.0335 210.395 31.1953 209.804 31.2724C209.213 31.3495 208.527 31.2405 207.744 30.9453ZM209.104 29.0167C209.825 29.2887 210.506 29.3285 211.146 29.1362C211.795 28.9404 212.376 28.5502 212.89 27.9654C213.41 27.3828 213.841 26.6389 214.182 25.7337C214.52 24.8397 214.686 24.0089 214.682 23.2414C214.678 22.4739 214.498 21.8091 214.142 21.2471C213.786 20.6851 213.242 20.266 212.51 19.9898C211.756 19.7052 211.053 19.6636 210.403 19.8649C209.752 20.0663 209.171 20.4566 208.659 21.0357C208.152 21.617 207.739 22.3323 207.418 23.1816C207.094 24.0421 206.93 24.8645 206.928 25.6488C206.926 26.433 207.1 27.1212 207.451 27.7133C207.81 28.3018 208.361 28.7363 209.104 29.0167Z" fill="#FCE2D1"/>
<path d="M228.446 33.7506L232.136 26.592L234.524 27.8233L228.22 40.0542L225.879 38.8475L226.971 36.7294L226.843 36.6637C226.225 37.1716 225.494 37.4832 224.648 37.5983C223.811 37.7109 222.933 37.5305 222.015 37.0572C221.229 36.6522 220.622 36.1212 220.195 35.4642C219.776 34.8047 219.57 34.0436 219.578 33.1809C219.591 32.321 219.858 31.3867 220.378 30.3781L224.388 22.5985L226.769 23.8257L222.906 31.3186C222.477 32.1521 222.366 32.9347 222.573 33.6664C222.78 34.3982 223.253 34.9542 223.991 35.3346C224.437 35.5644 224.938 35.6814 225.493 35.6856C226.054 35.6924 226.597 35.5455 227.121 35.2448C227.651 34.9468 228.093 34.4487 228.446 33.7506Z" fill="#FCE2D1"/>
<path d="M236.3 45.5031C235.189 44.7678 234.4 43.8832 233.931 42.8494C233.471 41.8139 233.321 40.7087 233.483 39.5338C233.645 38.3589 234.107 37.1964 234.869 36.0461C235.641 34.8809 236.541 33.9977 237.569 33.3966C238.601 32.7905 239.681 32.4997 240.811 32.5244C241.941 32.549 243.046 32.9191 244.127 33.6346C244.998 34.2117 245.668 34.8879 246.136 35.6633C246.607 36.4337 246.86 37.2462 246.896 38.1008C246.937 38.9587 246.741 39.7999 246.31 40.6245L244.136 39.1852C244.373 38.5683 244.406 37.9238 244.235 37.2519C244.069 36.5832 243.63 36.0131 242.918 35.5416C242.295 35.1294 241.641 34.9327 240.955 34.9514C240.278 34.9684 239.61 35.1924 238.952 35.6235C238.298 36.0495 237.7 36.6709 237.159 37.4875C236.605 38.3241 236.254 39.1302 236.106 39.9058C235.958 40.6815 236.004 41.3895 236.247 42.0297C236.494 42.6733 236.934 43.2045 237.566 43.6233C237.989 43.9035 238.424 44.0802 238.87 44.1534C239.324 44.2249 239.765 44.1912 240.194 44.0524C240.627 43.9169 241.028 43.6738 241.396 43.3231L243.57 44.7624C242.999 45.4516 242.319 45.954 241.53 46.2695C240.741 46.585 239.897 46.6853 238.999 46.5705C238.106 46.459 237.206 46.1032 236.3 45.5031Z" fill="#FCE2D1"/>
<path d="M257.273 43.6298L255.933 45.3112L250.055 40.6271L251.395 38.9457L257.273 43.6298ZM255.026 37.6237L257.12 39.293L249.008 49.4726C248.685 49.8789 248.501 50.2332 248.459 50.5355C248.421 50.8331 248.467 51.0956 248.599 51.3229C248.739 51.5493 248.924 51.7537 249.153 51.936C249.321 52.07 249.478 52.1756 249.622 52.2527C249.767 52.3299 249.88 52.3894 249.961 52.4312L248.96 54.4631C248.802 54.413 248.592 54.322 248.33 54.1901C248.065 54.0628 247.763 53.8675 247.423 53.6042C246.864 53.1744 246.428 52.6669 246.116 52.0817C245.803 51.4966 245.671 50.8719 245.719 50.2077C245.767 49.5435 246.05 48.8868 246.567 48.2376L255.026 37.6237Z" fill="#FCE2D1"/>
<path d="M260.513 65.6165L256.479 61.2572L269.945 48.7966L274.107 53.2941C275.328 54.6135 276.107 55.9961 276.444 57.4418C276.785 58.8835 276.687 60.3208 276.15 61.7538C275.621 63.1871 274.657 64.5507 273.259 65.8446C271.856 67.1426 270.413 68.0016 268.931 68.4217C267.452 68.8461 265.995 68.8276 264.559 68.3662C263.127 67.9007 261.779 66.9842 260.513 65.6165ZM260.135 61.6462L262.185 63.862C263.134 64.8877 264.116 65.5619 265.13 65.8844C266.149 66.2028 267.183 66.1901 268.232 65.8462C269.285 65.4982 270.344 64.8314 271.409 63.8457C272.466 62.8682 273.206 61.8699 273.63 60.851C274.058 59.8364 274.157 58.8217 273.926 57.8069C273.694 56.7921 273.125 55.7938 272.216 54.8119L270.05 52.4711L260.135 61.6462Z" fill="#FCE2D1"/>
<path d="M271.969 79.978C271.177 78.8781 270.729 77.7615 270.626 76.6282C270.532 75.4962 270.758 74.4056 271.305 73.3564C271.861 72.3085 272.717 71.3674 273.875 70.5329C275.019 69.7089 276.18 69.1959 277.36 68.9938C278.542 68.7965 279.656 68.9068 280.701 69.3245C281.749 69.7472 282.646 70.4769 283.393 71.5138C283.847 72.1437 284.183 72.8293 284.401 73.5705C284.618 74.3118 284.674 75.078 284.567 75.8692C284.459 76.6604 284.148 77.4483 283.631 78.2329C283.119 79.014 282.357 79.7694 281.344 80.4992L280.574 81.0543L274.179 72.1802L275.807 71.007L280.667 77.7517C281.239 77.3397 281.661 76.8585 281.935 76.3082C282.213 75.7544 282.328 75.1742 282.281 74.5676C282.238 73.9659 282.014 73.384 281.609 72.8219C281.169 72.2114 280.635 71.7867 280.006 71.5477C279.386 71.3101 278.747 71.2405 278.089 71.3391C277.439 71.439 276.836 71.6897 276.279 72.0912L275.007 73.0077C274.261 73.5454 273.72 74.1336 273.386 74.7724C273.054 75.416 272.922 76.0747 272.988 76.7485C273.059 77.4189 273.323 78.0714 273.78 78.7062C274.077 79.118 274.406 79.4516 274.766 79.707C275.132 79.9589 275.522 80.1228 275.938 80.1989C276.353 80.2749 276.783 80.2526 277.226 80.1321L278.337 82.456C277.613 82.7277 276.869 82.8144 276.107 82.7163C275.352 82.6194 274.619 82.342 273.906 81.884C273.201 81.4273 272.556 80.792 271.969 79.978Z" fill="#FCE2D1"/>
<path d="M291.541 91.2351L289.963 89.3408C290.183 89.0985 290.359 88.8118 290.493 88.4807C290.63 88.1547 290.685 87.7866 290.656 87.3762C290.628 86.9658 290.476 86.5195 290.201 86.0373C289.824 85.3788 289.362 84.9137 288.815 84.6419C288.273 84.3671 287.771 84.3616 287.309 84.6254C286.91 84.8536 286.673 85.1851 286.598 85.6199C286.524 86.0547 286.597 86.6459 286.817 87.3933L287.467 89.5399C287.841 90.7844 287.918 91.8274 287.697 92.6689C287.476 93.5104 286.943 94.1727 286.098 94.6558C285.383 95.0648 284.626 95.2219 283.829 95.1272C283.04 95.0347 282.277 94.7107 281.54 94.1552C280.806 93.6049 280.163 92.8475 279.612 91.8831C278.848 90.5454 278.509 89.2909 278.596 88.1198C278.689 86.9456 279.209 85.9604 280.157 85.1639L281.784 87.216C281.278 87.6909 280.999 88.2321 280.947 88.8395C280.901 89.444 281.078 90.0962 281.478 90.7962C281.913 91.5584 282.42 92.0772 282.997 92.3527C283.579 92.6253 284.101 92.6297 284.562 92.3659C284.936 92.1525 285.169 91.8332 285.263 91.408C285.36 90.988 285.311 90.4558 285.114 89.8113L284.402 87.5358C284.019 86.2758 283.952 85.2202 284.201 84.369C284.454 83.523 285.005 82.857 285.856 82.371C286.561 81.9679 287.291 81.8123 288.045 81.9041C288.799 81.9958 289.522 82.3047 290.215 82.8305C290.913 83.3534 291.518 84.0634 292.031 84.9604C292.769 86.2515 293.07 87.4278 292.933 88.4893C292.802 89.5479 292.338 90.4631 291.541 91.2351Z" fill="#FCE2D1"/>
<path d="M283.999 99.5554L296.417 93.629L297.571 96.0464L285.152 101.973L283.999 99.5554ZM298.916 93.9354C298.715 93.515 298.683 93.087 298.819 92.6514C298.963 92.2187 299.232 91.9084 299.626 91.7206C300.025 91.5303 300.435 91.5165 300.857 91.6791C301.286 91.8447 301.601 92.1376 301.802 92.558C302.003 92.9784 302.031 93.405 301.887 93.8378C301.751 94.2734 301.483 94.5864 301.084 94.7767C300.691 94.9645 300.279 94.9756 299.849 94.8101C299.428 94.6474 299.116 94.3559 298.916 93.9354Z" fill="#FCE2D1"/>
<path d="M283.812 112.796C283.424 111.774 283.223 110.844 283.211 110.005C283.2 109.172 283.328 108.44 283.592 107.809C283.857 107.178 284.208 106.648 284.646 106.22L286.352 108.034C286.164 108.278 285.981 108.578 285.803 108.933C285.621 109.296 285.516 109.732 285.486 110.242C285.458 110.757 285.576 111.361 285.84 112.053C286.201 113.002 286.731 113.698 287.43 114.141C288.123 114.587 288.972 114.618 289.977 114.236L292.506 113.274L292.445 113.115C292.114 113.068 291.727 112.967 291.284 112.809C290.843 112.658 290.406 112.383 289.974 111.985C289.541 111.587 289.175 110.995 288.876 110.208C288.489 109.192 288.378 108.186 288.543 107.191C288.715 106.199 289.177 105.288 289.928 104.459C290.688 103.633 291.751 102.961 293.119 102.44C294.486 101.92 295.747 101.706 296.9 101.797C298.055 101.895 299.047 102.252 299.876 102.869C300.711 103.485 301.325 104.309 301.718 105.341C302.021 106.14 302.133 106.835 302.052 107.428C301.976 108.019 301.815 108.519 301.567 108.926C301.322 109.339 301.094 109.671 300.883 109.924L300.953 110.108L303.038 109.315L303.971 111.768L290.826 116.77C289.721 117.19 288.716 117.278 287.812 117.035C286.907 116.791 286.118 116.295 285.444 115.549C284.773 114.807 284.229 113.89 283.812 112.796ZM291.162 109.971C291.436 110.691 291.835 111.235 292.359 111.605C292.891 111.977 293.521 112.172 294.249 112.189C294.986 112.209 295.797 112.051 296.685 111.713C297.55 111.384 298.263 110.966 298.824 110.458C299.385 109.951 299.755 109.379 299.935 108.742C300.12 108.103 300.073 107.418 299.795 106.686C299.508 105.933 299.074 105.379 298.492 105.025C297.916 104.67 297.247 104.49 296.485 104.486C295.725 104.487 294.935 104.644 294.114 104.956C293.271 105.277 292.581 105.687 292.042 106.185C291.503 106.684 291.151 107.253 290.985 107.891C290.821 108.535 290.88 109.228 291.162 109.971Z" fill="#FCE2D1"/>
<path d="M300.882 121.061L292.964 123.072L292.304 120.476L305.641 117.088L306.274 119.58L304.103 120.132L304.145 120.297C304.929 120.424 305.618 120.76 306.213 121.306C306.809 121.857 307.234 122.633 307.488 123.634C307.719 124.543 307.73 125.388 307.522 126.168C307.319 126.946 306.892 127.619 306.241 128.184C305.59 128.75 304.714 129.173 303.615 129.452L295.132 131.607L294.472 129.011L302.643 126.936C303.609 126.69 304.301 126.246 304.717 125.605C305.139 124.961 305.238 124.2 305.015 123.32C304.862 122.718 304.595 122.216 304.216 121.813C303.838 121.416 303.362 121.146 302.79 121.001C302.224 120.862 301.588 120.881 300.882 121.061Z" fill="#FCE2D1"/>
<path d="M296.414 141.375C296.228 140.032 296.355 138.836 296.794 137.786C297.241 136.742 297.951 135.884 298.925 135.212C299.906 134.546 301.104 134.115 302.518 133.92C303.914 133.726 305.18 133.817 306.317 134.19C307.455 134.569 308.388 135.188 309.115 136.046C309.844 136.909 310.296 137.974 310.471 139.24C310.577 140.009 310.553 140.772 310.398 141.529C310.244 142.286 309.934 142.989 309.469 143.638C309.004 144.288 308.36 144.838 307.536 145.29C306.718 145.74 305.691 146.051 304.455 146.222L303.514 146.352L302.015 135.517L304.003 135.242L305.142 143.477C305.84 143.381 306.439 143.153 306.938 142.795C307.443 142.436 307.817 141.977 308.059 141.419C308.302 140.867 308.376 140.248 308.281 139.561C308.178 138.816 307.905 138.191 307.461 137.685C307.024 137.185 306.492 136.824 305.864 136.604C305.244 136.388 304.593 136.327 303.913 136.422L302.36 136.636C301.449 136.762 300.696 137.029 300.101 137.437C299.508 137.851 299.082 138.371 298.825 138.997C298.574 139.623 298.502 140.323 298.609 141.098C298.679 141.601 298.813 142.05 299.012 142.444C299.218 142.838 299.486 143.166 299.818 143.427C300.149 143.689 300.539 143.87 300.987 143.971L300.882 146.545C300.115 146.446 299.417 146.175 298.789 145.731C298.167 145.292 297.649 144.704 297.233 143.966C296.824 143.232 296.551 142.369 296.414 141.375Z" fill="#FCE2D1"/>
<path d="M297.663 150.51L311.408 149.868L311.528 152.455L309.345 152.557L309.352 152.7C310.103 152.916 310.705 153.33 311.158 153.943C311.618 154.561 311.866 155.273 311.904 156.078C311.912 156.245 311.915 156.442 311.913 156.67C311.912 156.903 311.906 157.085 311.894 157.218L309.335 157.337C309.36 157.228 309.384 157.036 309.407 156.76C309.436 156.483 309.444 156.208 309.431 155.934C309.401 155.301 309.241 154.744 308.949 154.261C308.664 153.784 308.279 153.413 307.794 153.149C307.316 152.884 306.778 152.766 306.181 152.794L297.788 153.186L297.663 150.51Z" fill="#FCE2D1"/>
<path d="M300.764 172.745C300.828 172.025 301.062 171.383 301.466 170.819C301.876 170.256 302.394 169.823 303.02 169.518C303.646 169.22 304.319 169.103 305.039 169.167C305.765 169.232 306.407 169.466 306.964 169.869C307.528 170.279 307.958 170.796 308.256 171.423C308.56 172.049 308.681 172.722 308.617 173.442C308.552 174.168 308.315 174.809 307.906 175.367C307.502 175.93 306.987 176.361 306.361 176.659C305.741 176.964 305.067 177.084 304.342 177.02C303.622 176.956 302.98 176.719 302.417 176.309C301.854 175.905 301.42 175.39 301.116 174.763C300.817 174.143 300.7 173.47 300.764 172.745Z" fill="#FCE2D1"/>
<path d="M310.023 204.289L309.317 206.975L297.647 203.906C296.405 203.579 295.382 202.998 294.576 202.163C293.777 201.329 293.242 200.311 292.971 199.11C292.706 197.91 292.76 196.6 293.134 195.179C293.506 193.764 294.103 192.599 294.924 191.685C295.75 190.772 296.717 190.15 297.823 189.817C298.936 189.486 300.113 189.483 301.354 189.81L313.024 192.879L312.32 195.557L300.867 192.544C300.064 192.333 299.304 192.321 298.588 192.51C297.87 192.704 297.246 193.08 296.716 193.638C296.192 194.198 295.813 194.926 295.577 195.821C295.34 196.722 295.312 197.546 295.493 198.291C295.678 199.043 296.036 199.675 296.569 200.186C297.1 200.702 297.767 201.066 298.57 201.277L310.023 204.289Z" fill="#FCE2D1"/>
<path d="M295.996 219.68L296.491 217.265C296.817 217.285 297.151 217.244 297.494 217.142C297.834 217.046 298.155 216.858 298.458 216.58C298.761 216.302 299.015 215.905 299.22 215.388C299.499 214.683 299.574 214.032 299.445 213.435C299.321 212.84 299.012 212.444 298.518 212.248C298.091 212.079 297.684 212.101 297.297 212.314C296.911 212.527 296.495 212.953 296.049 213.592L294.777 215.439C294.038 216.508 293.271 217.219 292.476 217.572C291.681 217.925 290.831 217.922 289.926 217.563C289.16 217.26 288.565 216.767 288.141 216.085C287.721 215.411 287.498 214.613 287.472 213.69C287.443 212.773 287.634 211.798 288.043 210.765C288.611 209.333 289.38 208.285 290.349 207.622C291.324 206.962 292.418 206.753 293.633 206.997L293.045 209.549C292.358 209.45 291.761 209.57 291.254 209.909C290.753 210.25 290.354 210.795 290.057 211.544C289.733 212.36 289.644 213.08 289.789 213.703C289.94 214.328 290.262 214.738 290.756 214.934C291.156 215.092 291.551 215.076 291.942 214.884C292.331 214.697 292.715 214.326 293.096 213.771L294.429 211.793C295.175 210.708 295.957 209.997 296.778 209.66C297.597 209.329 298.461 209.344 299.372 209.705C300.127 210.005 300.704 210.477 301.103 211.124C301.502 211.77 301.712 212.528 301.734 213.398C301.761 214.269 301.584 215.185 301.203 216.146C300.655 217.528 299.924 218.498 299.01 219.054C298.101 219.612 297.097 219.821 295.996 219.68Z" fill="#FCE2D1"/>
<path d="M281.834 224.254C282.464 223.054 283.264 222.154 284.232 221.557C285.202 220.967 286.279 220.682 287.462 220.703C288.648 220.732 289.872 221.078 291.136 221.741C292.384 222.397 293.362 223.207 294.069 224.172C294.774 225.142 295.173 226.188 295.265 227.309C295.355 228.435 295.103 229.564 294.509 230.696C294.148 231.383 293.685 231.99 293.119 232.516C292.553 233.041 291.892 233.433 291.136 233.691C290.38 233.948 289.536 234.021 288.603 233.909C287.676 233.8 286.659 233.455 285.554 232.875L284.713 232.433L289.798 222.749L291.575 223.682L287.71 231.042C288.334 231.37 288.953 231.533 289.568 231.532C290.188 231.533 290.758 231.378 291.28 231.065C291.799 230.757 292.22 230.297 292.542 229.683C292.891 229.017 293.033 228.349 292.966 227.68C292.902 227.019 292.678 226.416 292.297 225.872C291.917 225.335 291.423 224.907 290.815 224.588L289.427 223.859C288.613 223.432 287.845 223.211 287.124 223.197C286.401 223.188 285.752 223.363 285.179 223.723C284.61 224.086 284.144 224.614 283.781 225.306C283.545 225.756 283.393 226.199 283.326 226.636C283.263 227.075 283.291 227.498 283.409 227.903C283.526 228.309 283.738 228.683 284.044 229.026L282.461 231.058C281.894 230.531 281.484 229.905 281.232 229.179C280.981 228.46 280.902 227.68 280.994 226.838C281.088 226.003 281.368 225.142 281.834 224.254Z" fill="#FCE2D1"/>
<path d="M277.55 232.372L289.101 239.85L287.694 242.023L285.859 240.835L285.781 240.956C286.266 241.569 286.515 242.256 286.527 243.018C286.54 243.788 286.328 244.512 285.89 245.188C285.799 245.329 285.687 245.491 285.554 245.675C285.417 245.864 285.306 246.009 285.219 246.109L283.068 244.717C283.152 244.643 283.283 244.5 283.463 244.289C283.647 244.081 283.814 243.862 283.963 243.632C284.307 243.1 284.501 242.553 284.545 241.991C284.59 241.437 284.493 240.912 284.253 240.415C284.018 239.921 283.649 239.512 283.148 239.187L276.094 234.621L277.55 232.372Z" fill="#FCE2D1"/>
<path d="M280.206 259.981L266.001 248.37L267.753 246.226L281.958 257.837L280.206 259.981Z" fill="#FCE2D1"/>
<path d="M267.451 259.142L261.564 253.477L263.421 251.547L273.337 261.087L271.554 262.94L269.94 261.387L269.822 261.51C270.128 262.243 270.206 263.006 270.057 263.799C269.903 264.596 269.468 265.366 268.752 266.111C268.102 266.787 267.391 267.242 266.618 267.476C265.85 267.715 265.053 267.707 264.229 267.453C263.405 267.199 262.584 266.678 261.766 265.891L255.458 259.823L257.316 257.893L263.39 263.737C264.109 264.429 264.851 264.782 265.616 264.797C266.385 264.816 267.084 264.498 267.713 263.844C268.144 263.396 268.43 262.905 268.572 262.37C268.71 261.839 268.688 261.293 268.509 260.73C268.329 260.176 267.977 259.647 267.451 259.142Z" fill="#FCE2D1"/>
<path d="M256.724 277.005L255.314 275.382L260.99 270.454L262.4 272.078L256.724 277.005ZM263.039 275.889L261.016 277.645L252.483 267.816C252.142 267.423 251.827 267.179 251.537 267.082C251.252 266.99 250.985 266.988 250.738 267.076C250.49 267.173 250.255 267.318 250.034 267.509C249.872 267.65 249.739 267.785 249.637 267.913C249.535 268.041 249.456 268.142 249.4 268.214L247.584 266.86C247.662 266.713 247.79 266.523 247.967 266.29C248.141 266.053 248.388 265.791 248.709 265.504C249.233 265.033 249.811 264.697 250.443 264.496C251.076 264.296 251.714 264.279 252.358 264.447C253.003 264.616 253.597 265.013 254.141 265.64L263.039 275.889Z" fill="#FCE2D1"/>
<path d="M240.333 271.883C241.432 271.089 242.548 270.64 243.681 270.536C244.813 270.44 245.904 270.665 246.954 271.21C248.002 271.764 248.945 272.619 249.781 273.776C250.606 274.918 251.121 276.079 251.325 277.258C251.524 278.441 251.415 279.555 250.999 280.6C250.578 281.648 249.849 282.547 248.813 283.296C248.184 283.75 247.499 284.087 246.758 284.306C246.017 284.524 245.251 284.581 244.46 284.475C243.668 284.369 242.88 284.058 242.094 283.542C241.313 283.032 240.556 282.27 239.825 281.259L239.269 280.489L248.134 274.082L249.309 275.708L242.572 280.578C242.984 281.149 243.466 281.571 244.017 281.844C244.571 282.121 245.151 282.236 245.758 282.188C246.36 282.144 246.941 281.918 247.503 281.513C248.112 281.072 248.536 280.537 248.775 279.908C249.011 279.287 249.08 278.648 248.98 277.991C248.88 277.341 248.628 276.738 248.226 276.182L247.307 274.911C246.769 274.166 246.18 273.626 245.541 273.292C244.896 272.962 244.238 272.83 243.564 272.897C242.894 272.969 242.241 273.234 241.607 273.692C241.196 273.99 240.863 274.319 240.608 274.68C240.356 275.046 240.193 275.437 240.118 275.852C240.042 276.268 240.065 276.697 240.186 277.14L237.864 278.255C237.591 277.531 237.503 276.787 237.6 276.025C237.696 275.27 237.973 274.536 238.43 273.823C238.885 273.117 239.52 272.471 240.333 271.883Z" fill="#FCE2D1"/>
<path d="M232.876 277.261L239.855 289.12L237.624 290.433L236.515 288.549L236.392 288.622C236.551 289.388 236.465 290.114 236.135 290.8C235.802 291.495 235.288 292.047 234.594 292.456C234.449 292.54 234.277 292.635 234.075 292.74C233.868 292.848 233.704 292.927 233.581 292.979L232.282 290.77C232.39 290.742 232.571 290.673 232.826 290.565C233.084 290.461 233.331 290.34 233.568 290.201C234.114 289.88 234.532 289.477 234.823 288.994C235.112 288.52 235.26 288.006 235.268 287.454C235.278 286.907 235.132 286.376 234.829 285.862L230.568 278.62L232.876 277.261Z" fill="#FCE2D1"/>
<path d="M223.753 297.811L222.799 295.884L229.768 292.435L230.722 294.362L223.753 297.811ZM222.707 282.975L229.518 296.736C229.9 297.507 230.048 298.23 229.962 298.906C229.879 299.586 229.622 300.19 229.19 300.717C228.76 301.25 228.219 301.678 227.566 302.001C227.084 302.239 226.652 302.403 226.27 302.492C225.89 302.587 225.601 302.643 225.404 302.661L225.004 300.44C225.132 300.416 225.295 300.382 225.493 300.338C225.694 300.299 225.92 300.217 226.171 300.092C226.755 299.803 227.101 299.452 227.209 299.039C227.312 298.628 227.229 298.149 226.959 297.603L220.307 284.163L222.707 282.975Z" fill="#FCE2D1"/>
<path d="M211.41 287.781C212.222 287.464 213.015 287.327 213.789 287.371C214.565 287.42 215.258 287.659 215.868 288.087C216.472 288.518 216.939 289.153 217.267 289.993C217.55 290.716 217.643 291.366 217.548 291.942C217.452 292.518 217.221 293.034 216.855 293.492C216.489 293.949 216.041 294.361 215.511 294.729C214.982 295.096 214.428 295.435 213.85 295.744C213.117 296.133 212.522 296.449 212.066 296.691C211.611 296.94 211.301 297.173 211.137 297.391C210.972 297.609 210.948 297.869 211.066 298.169L211.089 298.227C211.373 298.956 211.8 299.44 212.368 299.68C212.931 299.922 213.615 299.885 214.422 299.57C215.262 299.241 215.851 298.796 216.189 298.234C216.524 297.68 216.695 297.142 216.702 296.62L219.256 296.237C219.282 297.125 219.122 297.912 218.775 298.599C218.424 299.294 217.941 299.887 217.325 300.378C216.711 300.874 216.018 301.273 215.244 301.576C214.733 301.776 214.166 301.927 213.546 302.028C212.922 302.137 212.297 302.131 211.673 302.01C211.043 301.891 210.451 301.6 209.898 301.136C209.347 300.678 208.889 299.982 208.524 299.047L205.197 290.537L207.633 289.585L208.318 291.337L208.418 291.298C208.453 290.912 208.571 290.5 208.772 290.063C208.973 289.625 209.286 289.205 209.712 288.801C210.138 288.397 210.704 288.057 211.41 287.781ZM211.651 289.996C210.961 290.265 210.425 290.632 210.042 291.096C209.653 291.562 209.417 292.065 209.333 292.604C209.245 293.151 209.301 293.678 209.498 294.184L210.144 295.836C210.198 295.712 210.338 295.562 210.564 295.384C210.786 295.213 211.047 295.038 211.348 294.856C211.651 294.68 211.947 294.51 212.235 294.345C212.526 294.187 212.769 294.053 212.964 293.945C213.424 293.695 213.826 293.419 214.17 293.118C214.508 292.819 214.744 292.486 214.876 292.12C215.006 291.762 214.983 291.36 214.809 290.915C214.568 290.298 214.157 289.92 213.577 289.781C212.999 289.648 212.357 289.719 211.651 289.996Z" fill="#FCE2D1"/>
<path d="M195.819 293.014C197.104 292.665 198.29 292.655 199.376 292.985C200.458 293.322 201.387 293.939 202.163 294.836C202.939 295.733 203.508 296.847 203.869 298.178C204.236 299.527 204.306 300.786 204.079 301.955C203.854 303.131 203.359 304.135 202.595 304.967C201.831 305.8 200.824 306.386 199.573 306.726C198.565 307 197.615 307.057 196.723 306.897C195.834 306.743 195.056 306.397 194.39 305.86C193.719 305.325 193.215 304.623 192.88 303.755L195.396 303.071C195.703 303.656 196.166 304.106 196.784 304.421C197.396 304.737 198.114 304.783 198.938 304.559C199.659 304.364 200.238 304.002 200.676 303.474C201.11 302.954 201.383 302.304 201.493 301.526C201.605 300.753 201.532 299.894 201.275 298.948C201.012 297.98 200.638 297.184 200.153 296.561C199.668 295.938 199.105 295.506 198.464 295.266C197.817 295.027 197.128 295.007 196.396 295.206C195.906 295.339 195.487 295.549 195.138 295.835C194.784 296.129 194.518 296.483 194.34 296.897C194.156 297.312 194.074 297.774 194.094 298.282L191.579 298.966C191.438 298.082 191.509 297.239 191.792 296.438C192.076 295.637 192.557 294.937 193.236 294.338C193.909 293.74 194.77 293.299 195.819 293.014Z" fill="#FCE2D1"/>
<path d="M181.346 296.07C182.685 295.859 183.883 295.963 184.941 296.382C185.994 296.809 186.865 297.503 187.555 298.464C188.24 299.432 188.693 300.622 188.916 302.031C189.135 303.424 189.069 304.692 188.717 305.835C188.36 306.98 187.759 307.924 186.915 308.668C186.065 309.413 185.009 309.885 183.746 310.084C182.98 310.205 182.216 310.195 181.457 310.055C180.697 309.915 179.988 309.619 179.33 309.166C178.672 308.714 178.11 308.08 177.643 307.265C177.177 306.455 176.846 305.434 176.652 304.201L176.504 303.263L187.308 301.559L187.621 303.542L179.409 304.837C179.519 305.533 179.758 306.127 180.126 306.619C180.494 307.117 180.96 307.482 181.523 307.714C182.079 307.946 182.7 308.009 183.384 307.901C184.127 307.784 184.747 307.498 185.244 307.045C185.736 306.599 186.087 306.06 186.295 305.428C186.499 304.804 186.547 304.152 186.44 303.474L186.196 301.925C186.053 301.017 185.772 300.269 185.353 299.682C184.928 299.096 184.4 298.681 183.769 298.436C183.138 298.196 182.437 298.138 181.664 298.26C181.163 298.339 180.716 298.482 180.326 298.688C179.936 298.901 179.614 299.176 179.358 299.512C179.103 299.849 178.929 300.242 178.837 300.692L176.262 300.635C176.346 299.866 176.604 299.164 177.036 298.527C177.462 297.898 178.041 297.368 178.771 296.938C179.496 296.516 180.355 296.226 181.346 296.07Z" fill="#FCE2D1"/>
<path d="M160.405 301.352C161.127 301.351 161.788 301.525 162.386 301.876C162.984 302.233 163.463 302.71 163.823 303.306C164.176 303.902 164.354 304.562 164.356 305.284C164.358 306.013 164.183 306.673 163.832 307.266C163.475 307.864 162.999 308.34 162.402 308.693C161.806 309.053 161.147 309.234 160.424 309.236C159.695 309.237 159.035 309.06 158.443 308.703C157.845 308.352 157.369 307.878 157.015 307.282C156.655 306.692 156.474 306.032 156.473 305.304C156.471 304.581 156.648 303.921 157.005 303.322C157.356 302.724 157.83 302.245 158.426 301.886C159.017 301.532 159.676 301.354 160.405 301.352Z" fill="#FCE2D1"/>
<path d="M129.696 313.445L126.957 312.988L128.945 301.086C129.157 299.819 129.642 298.747 130.4 297.868C131.158 296.996 132.122 296.37 133.294 295.99C134.464 295.617 135.774 295.551 137.223 295.793C138.666 296.034 139.88 296.522 140.866 297.256C141.85 297.995 142.559 298.901 142.991 299.972C143.423 301.049 143.533 302.221 143.321 303.488L141.333 315.39L138.602 314.933L140.554 303.252C140.691 302.434 140.633 301.676 140.38 300.98C140.121 300.283 139.689 299.696 139.085 299.22C138.479 298.749 137.72 298.437 136.807 298.285C135.888 298.131 135.065 298.179 134.34 298.427C133.607 298.68 133.011 299.095 132.551 299.672C132.086 300.248 131.784 300.946 131.648 301.764L129.696 313.445Z" fill="#FCE2D1"/>
<path d="M113.049 300.878L115.499 301.15C115.509 301.477 115.58 301.806 115.713 302.137C115.84 302.467 116.056 302.77 116.361 303.047C116.666 303.323 117.085 303.539 117.618 303.696C118.345 303.91 119.001 303.925 119.584 303.742C120.165 303.564 120.531 303.22 120.68 302.71C120.81 302.269 120.751 301.866 120.504 301.5C120.256 301.135 119.794 300.76 119.117 300.374L117.161 299.276C116.029 298.638 115.251 297.94 114.827 297.18C114.402 296.421 114.328 295.574 114.602 294.64C114.835 293.849 115.271 293.212 115.911 292.728C116.544 292.247 117.319 291.952 118.235 291.842C119.146 291.73 120.134 291.83 121.2 292.144C122.678 292.578 123.791 293.248 124.54 294.152C125.287 295.063 125.595 296.134 125.463 297.365L122.868 297.013C122.904 296.32 122.73 295.737 122.346 295.263C121.961 294.795 121.381 294.447 120.608 294.22C119.766 293.972 119.041 293.949 118.434 294.151C117.825 294.358 117.446 294.716 117.296 295.226C117.175 295.639 117.228 296.031 117.455 296.403C117.676 296.773 118.081 297.122 118.669 297.45L120.76 298.597C121.909 299.24 122.689 299.954 123.099 300.741C123.503 301.526 123.567 302.388 123.291 303.328C123.062 304.107 122.644 304.725 122.036 305.181C121.429 305.638 120.694 305.917 119.83 306.018C118.964 306.124 118.036 306.032 117.045 305.741C115.618 305.321 114.586 304.682 113.948 303.822C113.309 302.968 113.009 301.987 113.049 300.878Z" fill="#FCE2D1"/>
<path d="M107.264 287.218C108.517 287.735 109.486 288.449 110.17 289.358C110.846 290.271 111.228 291.317 111.316 292.497C111.396 293.68 111.164 294.931 110.619 296.25C110.081 297.553 109.364 298.601 108.468 299.394C107.566 300.185 106.561 300.678 105.453 300.873C104.34 301.065 103.193 300.918 102.011 300.43C101.294 300.134 100.647 299.728 100.072 299.212C99.4964 298.697 99.0459 298.075 98.7201 297.346C98.3944 296.617 98.2446 295.783 98.2706 294.844C98.2943 293.91 98.5444 292.866 99.0208 291.713L99.3833 290.835L109.493 295.01L108.727 296.865L101.043 293.692C100.774 294.343 100.669 294.975 100.726 295.586C100.781 296.204 100.989 296.758 101.348 297.248C101.702 297.737 102.199 298.114 102.839 298.378C103.535 298.665 104.213 298.745 104.873 298.617C105.525 298.492 106.105 298.215 106.612 297.785C107.112 297.358 107.493 296.827 107.755 296.192L108.353 294.743C108.704 293.893 108.854 293.108 108.802 292.389C108.745 291.667 108.51 291.038 108.099 290.5C107.686 289.967 107.118 289.551 106.395 289.253C105.926 289.059 105.47 288.949 105.029 288.921C104.586 288.9 104.168 288.966 103.774 289.12C103.381 289.275 103.028 289.52 102.715 289.856L100.546 288.466C101.019 287.853 101.605 287.388 102.305 287.069C102.997 286.754 103.767 286.604 104.614 286.618C105.454 286.635 106.337 286.835 107.264 287.218Z" fill="#FCE2D1"/>
<path d="M98.7416 283.673L92.3454 295.856L90.0531 294.652L91.0692 292.717L90.9423 292.65C90.3759 293.189 89.714 293.499 88.9564 293.581C88.1907 293.664 87.4509 293.519 86.7371 293.144C86.589 293.066 86.4173 292.969 86.2219 292.853C86.0212 292.734 85.8669 292.637 85.7589 292.56L86.9499 290.291C87.0312 290.368 87.1851 290.485 87.4117 290.645C87.6355 290.81 87.869 290.956 88.1122 291.084C88.6727 291.378 89.2349 291.521 89.7987 291.514C90.3545 291.509 90.8689 291.364 91.342 291.079C91.8124 290.8 92.1864 290.396 92.464 289.867L96.37 282.427L98.7416 283.673Z" fill="#FCE2D1"/>
<path d="M83.929 275.218L73.1852 290.09L63.8612 283.354L65.2566 281.422L72.3368 286.537L75.6103 282.006L69.0167 277.242L70.4069 275.318L77.0004 280.082L80.2897 275.528L73.1224 270.351L74.5179 268.419L83.929 275.218Z" fill="#FCE2D1"/>
<path d="M60.8268 274.814L62.1571 268.801L56.2949 270.73L54.1188 268.769L61.9122 266.53L63.3037 258.523L65.4798 260.484L64.3401 266.379L70.0783 264.628L72.2611 266.595L64.4743 268.839L63.0096 276.781L60.8268 274.814Z" fill="#FCE2D1"/>
<path d="M64.967 252.886L50.8485 265.481L49.1072 263.53L50.7717 262.045L50.6226 261.877C50.3053 261.952 49.9089 262.006 49.4333 262.038C48.9577 262.07 48.4423 261.986 47.8869 261.785C47.3271 261.588 46.763 261.171 46.1944 260.534C45.4549 259.705 45.0044 258.778 44.8429 257.754C44.6813 256.729 44.83 255.68 45.2888 254.607C45.7437 253.529 46.5259 252.495 47.6356 251.505C48.7453 250.515 49.8618 249.851 50.985 249.513C52.1038 249.179 53.1654 249.145 54.1697 249.409C55.1696 249.678 56.0392 250.226 56.7787 251.055C57.3353 251.679 57.6858 252.283 57.8302 252.866C57.9706 253.445 57.9998 253.972 57.9178 254.445C57.8359 254.918 57.7394 255.312 57.6283 255.628L57.7357 255.748L63.1838 250.888L64.967 252.886ZM54.2352 258.943C54.9571 258.299 55.4965 257.629 55.8534 256.935C56.2102 256.24 56.3655 255.558 56.3191 254.887C56.2683 254.22 55.9865 253.599 55.4736 253.024C54.9409 252.427 54.3374 252.069 53.6632 251.95C52.9845 251.835 52.2796 251.92 51.5486 252.204C50.8136 252.483 50.1029 252.929 49.4166 253.541C48.7392 254.146 48.2223 254.791 47.8659 255.477C47.5056 256.159 47.3503 256.841 47.4002 257.525C47.446 258.205 47.7373 258.845 48.2741 259.447C48.7909 260.026 49.3775 260.383 50.0339 260.518C50.6864 260.648 51.3714 260.577 52.0891 260.305C52.8068 260.033 53.5221 259.579 54.2352 258.943Z" fill="#FCE2D1"/>
<path d="M47.461 239.237C48.2441 240.344 48.6822 241.464 48.7751 242.598C48.8597 243.731 48.624 244.82 48.0682 245.864C47.5041 246.907 46.6394 247.841 45.4743 248.666C44.3238 249.48 43.158 249.983 41.9769 250.175C40.7924 250.362 39.6796 250.242 38.6387 249.816C37.5944 249.384 36.703 248.647 35.9648 247.603C35.5163 246.97 35.1864 246.281 34.9751 245.538C34.7639 244.795 34.7151 244.028 34.829 243.238C34.9429 242.448 35.2615 241.663 35.7849 240.883C36.3035 240.106 37.0722 239.357 38.0911 238.636L38.8662 238.087L45.1847 247.016L43.5467 248.175L38.7444 241.389C38.1692 241.796 37.7425 242.274 37.4645 242.822C37.1816 243.373 37.0611 243.952 37.1028 244.559C37.1411 245.161 37.3604 245.745 37.7606 246.311C38.1953 246.925 38.7259 247.354 39.3524 247.599C39.9707 247.841 40.6091 247.916 41.2676 247.824C41.9179 247.729 42.5233 247.484 43.0839 247.087L44.3636 246.181C45.1144 245.65 45.6598 245.066 46 244.431C46.3368 243.79 46.4751 243.132 46.4148 242.458C46.3497 241.787 46.0912 241.132 45.6393 240.494C45.346 240.079 45.0202 239.743 44.6617 239.484C44.2983 239.229 43.9092 239.062 43.4944 238.982C43.0796 238.903 42.6501 238.921 42.2059 239.038L41.1144 236.705C41.841 236.439 42.5853 236.359 43.3471 236.464C44.1007 236.567 44.8319 236.851 45.5408 237.315C46.2413 237.777 46.8814 238.418 47.461 239.237Z" fill="#FCE2D1"/>
<path d="M42.1739 231.739L30.2669 238.635L28.9693 236.395L30.8608 235.299L30.789 235.175C30.0224 235.329 29.297 235.239 28.6128 234.904C27.9204 234.566 27.3722 234.049 26.9681 233.351C26.8843 233.206 26.7907 233.033 26.6873 232.83C26.5809 232.623 26.5025 232.458 26.4522 232.335L28.6692 231.051C28.6973 231.159 28.7646 231.341 28.8713 231.596C28.9728 231.855 29.0924 232.103 29.2301 232.341C29.5474 232.889 29.9465 233.31 30.4275 233.604C30.9004 233.896 31.4128 234.048 31.9647 234.06C32.5115 234.074 33.0433 233.932 33.5601 233.632L40.8314 229.421L42.1739 231.739Z" fill="#FCE2D1"/>
<path d="M37.3596 223.095L25.0632 229.271L23.8611 226.877L36.1575 220.702L37.3596 223.095ZM22.5588 229.015C22.7679 229.431 22.8087 229.859 22.6813 230.297C22.5458 230.732 22.2833 231.048 21.8937 231.244C21.4988 231.442 21.0888 231.464 20.6639 231.31C20.2309 231.153 19.9099 230.867 19.7009 230.45C19.4918 230.034 19.455 229.608 19.5904 229.172C19.7178 228.734 19.979 228.416 20.374 228.218C20.7636 228.022 21.1748 228.002 21.6078 228.159C22.0327 228.313 22.3497 228.599 22.5588 229.015Z" fill="#FCE2D1"/>
<path d="M32.4099 211.62C32.9207 212.876 33.0924 214.066 32.9248 215.192C32.7495 216.314 32.2724 217.321 31.4936 218.211C30.7069 219.099 29.6525 219.811 28.3303 220.349C27.0248 220.88 25.7751 221.105 24.5813 221.023C23.3853 220.936 22.329 220.566 21.4124 219.914C20.4936 219.256 19.7934 218.335 19.3118 217.151C19.0193 216.432 18.8546 215.687 18.818 214.915C18.7813 214.143 18.9083 213.386 19.1989 212.642C19.4896 211.899 19.9785 211.206 20.6657 210.566C21.3473 209.927 22.2662 209.373 23.4224 208.903L24.302 208.545L28.4237 218.677L26.5649 219.433L23.4323 211.732C22.7796 211.998 22.2555 212.366 21.8601 212.836C21.4592 213.309 21.21 213.845 21.1126 214.446C21.0129 215.041 21.0936 215.659 21.3547 216.301C21.6382 216.998 22.0573 217.537 22.6118 217.917C23.1585 218.294 23.7631 218.513 24.4256 218.572C25.0802 218.628 25.7257 218.527 26.3618 218.268L27.814 217.677C28.6659 217.331 29.3298 216.886 29.8058 216.345C30.2795 215.797 30.5637 215.189 30.6585 214.518C30.7477 213.85 30.6449 213.154 30.3501 212.429C30.1588 211.959 29.918 211.557 29.6278 211.224C29.3319 210.893 28.9911 210.641 28.6052 210.469C28.2194 210.298 27.7969 210.218 27.3379 210.231L26.8058 207.71C27.5738 207.617 28.3168 207.708 29.0349 207.983C29.7451 208.255 30.3926 208.698 30.9773 209.311C31.5543 209.921 32.0318 210.691 32.4099 211.62Z" fill="#FCE2D1"/>
<path d="M20.2837 202.732L28.1474 200.515L28.874 203.094L15.63 206.826L14.9325 204.352L17.0881 203.744L17.0419 203.58C16.2548 203.473 15.557 203.155 14.9485 202.625C14.3385 202.09 13.8933 201.325 13.613 200.331C13.3586 199.428 13.3255 198.584 13.5138 197.799C13.6962 197.015 14.1055 196.332 14.7418 195.75C15.378 195.167 16.2422 194.722 17.3343 194.414L25.7584 192.04L26.4851 194.618L18.3714 196.905C17.4114 197.175 16.7318 197.637 16.3324 198.289C15.9272 198.943 15.8478 199.707 16.0941 200.581C16.2626 201.179 16.5418 201.674 16.9317 202.066C17.32 202.453 17.8022 202.712 18.3785 202.841C18.9474 202.966 19.5824 202.93 20.2837 202.732Z" fill="#FCE2D1"/>
<path d="M24.2383 182.396C24.4567 183.71 24.3472 184.89 23.9098 185.938C23.4656 186.98 22.7583 187.843 21.788 188.525C20.8176 189.207 19.652 189.661 18.2911 189.887C16.9125 190.116 15.6529 190.059 14.5121 189.716C13.3655 189.374 12.4163 188.781 11.6646 187.937C10.9129 187.093 10.4308 186.032 10.2182 184.754C10.0469 183.723 10.0856 182.772 10.3343 181.901C10.5772 181.031 10.9992 180.292 11.6004 179.684C12.2005 179.069 12.9494 178.639 13.8469 178.393L14.2743 180.965C13.6616 181.212 13.1675 181.627 12.7922 182.21C12.4159 182.787 12.2978 183.497 12.4378 184.339C12.5603 185.076 12.8619 185.689 13.3428 186.178C13.8168 186.662 14.4357 186.998 15.1995 187.186C15.9574 187.375 16.8194 187.389 17.7856 187.228C18.7754 187.064 19.6046 186.772 20.2735 186.352C20.9423 185.932 21.4285 185.415 21.7321 184.801C22.0348 184.182 22.124 183.498 21.9996 182.75C21.9163 182.249 21.7496 181.811 21.4994 181.435C21.2423 181.054 20.917 180.754 20.5234 180.534C20.1288 180.309 19.6777 180.182 19.1701 180.151L18.7426 177.579C19.6361 177.528 20.4672 177.683 21.2358 178.046C22.0044 178.408 22.6526 178.958 23.1806 179.693C23.7075 180.423 24.0601 181.324 24.2383 182.396Z" fill="#FCE2D1"/>
<path d="M22.6464 167.709C22.7234 169.062 22.5005 170.244 21.9778 171.255C21.4488 172.26 20.6716 173.058 19.6464 173.649C18.6149 174.234 17.3867 174.567 15.9616 174.648C14.5544 174.728 13.2993 174.536 12.1962 174.073C11.0927 173.603 10.2129 172.911 9.55677 171.997C8.90028 171.078 8.53574 169.98 8.46315 168.704C8.41906 167.929 8.50452 167.17 8.71953 166.428C8.93454 165.686 9.29987 165.01 9.81553 164.401C10.3312 163.791 11.0178 163.294 11.8753 162.911C12.7268 162.527 13.7757 162.3 15.0219 162.229L15.9699 162.175L16.5911 173.096L14.5877 173.21L14.1156 164.91C13.412 164.95 12.797 165.128 12.2707 165.445C11.7384 165.763 11.329 166.19 11.0425 166.727C10.7557 167.257 10.6319 167.869 10.6713 168.56C10.714 169.312 10.9362 169.957 11.3377 170.496C11.733 171.03 12.2344 171.432 12.842 171.703C13.4433 171.968 14.0868 172.081 14.7725 172.042L16.3377 171.953C17.2559 171.9 18.0279 171.695 18.6535 171.336C19.2788 170.972 19.7448 170.488 20.0514 169.884C20.3521 169.281 20.4802 168.588 20.4358 167.807C20.4069 167.301 20.3091 166.843 20.1422 166.433C19.9694 166.024 19.7283 165.676 19.4188 165.389C19.1094 165.101 18.7354 164.889 18.2969 164.753L18.6091 162.196C19.3659 162.356 20.0395 162.683 20.6299 163.175C21.2139 163.663 21.6833 164.291 22.0382 165.06C22.3867 165.824 22.5894 166.707 22.6464 167.709Z" fill="#FCE2D1"/>
<path d="M19.4669 146.18C19.3966 146.899 19.1571 147.539 18.7483 148.099C18.3335 148.659 17.8115 149.088 17.1823 149.386C16.5536 149.679 15.8797 149.79 15.1604 149.72C14.4353 149.649 13.7956 149.409 13.2415 149.001C12.6819 148.586 12.2559 148.064 11.9633 147.436C11.6648 146.807 11.5507 146.132 11.621 145.413C11.6919 144.688 11.9344 144.049 12.3486 143.495C12.7574 142.935 13.2761 142.509 13.9048 142.216C14.5281 141.917 15.2023 141.803 15.9275 141.874C16.6467 141.944 17.286 142.186 17.8456 142.601C18.4057 143.01 18.835 143.529 19.1335 144.158C19.4267 144.781 19.5378 145.455 19.4669 146.18Z" fill="#FCE2D1"/>
<path d="M10.4946 114.548L11.2251 111.869L22.867 115.043C24.1058 115.381 25.1241 115.971 25.9219 116.814C26.7139 117.655 27.2398 118.678 27.4997 119.881C27.7538 121.083 27.6876 122.393 27.3011 123.811C26.9162 125.222 26.3092 126.381 25.48 127.288C24.6451 128.193 23.673 128.807 22.5636 129.13C21.4484 129.451 20.2715 129.443 19.0327 129.105L7.39081 125.931L8.11902 123.26L19.5448 126.375C20.3457 126.594 21.1052 126.612 21.8233 126.43C22.543 126.243 23.1703 125.872 23.705 125.318C24.234 124.763 24.6203 124.039 24.8638 123.146C25.1089 122.247 25.1445 121.424 24.9706 120.677C24.7924 119.923 24.4394 119.288 23.9114 118.773C23.3849 118.252 22.7212 117.882 21.9203 117.663L10.4946 114.548Z" fill="#FCE2D1"/>
<path d="M14.2713 103.628L22.5879 102.366L22.6435 102.234L17.7327 95.4042L18.9768 92.4483L25.2145 101.275L35.9006 99.5326L34.6495 102.505L26.4168 103.822L26.3612 103.954L31.1743 110.762L29.9232 113.734L23.7376 104.784L13.0272 106.584L14.2713 103.628Z" fill="#FCE2D1"/>
<path d="M40.6996 90.7245L25.2647 80.8065L28.7999 75.3048C29.5683 74.109 30.4119 73.2491 31.3308 72.725C32.2529 72.1959 33.2041 71.9694 34.1844 72.0457C35.1598 72.1187 36.1222 72.4603 37.0719 73.0705C38.0164 73.6774 38.7204 74.4102 39.1839 75.2688C39.6455 76.1191 39.8197 77.0688 39.7066 78.1177C39.5966 79.1616 39.1575 80.2814 38.3891 81.4772L35.711 85.6449L33.7063 84.3567L36.2488 80.4C36.733 79.6464 37.0189 78.964 37.1063 78.3529C37.197 77.7367 37.1073 77.1858 36.8374 76.7C36.5674 76.2142 36.1436 75.7856 35.5658 75.4143C34.9829 75.0398 34.4053 74.8284 33.833 74.7801C33.2639 74.7267 32.7129 74.8661 32.1801 75.1981C31.6455 75.5219 31.1312 76.0681 30.6372 76.8369L28.7583 79.7611L42.196 88.3957L40.6996 90.7245ZM38.6318 78.6303L48.046 79.2915L46.3414 81.9444L36.9756 81.2078L38.6318 78.6303Z" fill="#FCE2D1"/>
<path d="M53.6995 72.7492C52.841 73.7984 51.8774 74.5185 50.8088 74.9097C49.7393 75.2924 48.6272 75.3547 47.4725 75.0966C46.317 74.8301 45.1869 74.2449 44.0822 73.341C42.9915 72.4484 42.1965 71.4583 41.6974 70.3708C41.202 69.2787 41.0216 68.1741 41.1562 67.0572C41.2945 65.9357 41.7684 64.8804 42.5777 63.8913C43.0694 63.2905 43.6454 62.7894 44.3055 62.3882C44.9657 61.9869 45.6918 61.7361 46.4839 61.6357C47.276 61.5354 48.1177 61.6337 49.0089 61.9309C49.8955 62.2243 50.8218 62.7662 51.7878 63.5567L52.5227 64.158L45.5957 72.6232L44.0427 71.3524L49.3075 64.9186C48.7621 64.4723 48.1883 64.188 47.5862 64.0656C46.9794 63.9395 46.389 63.9773 45.815 64.179C45.2447 64.376 44.7403 64.7426 44.3015 65.2787C43.825 65.8611 43.5522 66.4868 43.4833 67.1557C43.4135 67.8163 43.5109 68.4517 43.7756 69.0618C44.0394 69.6636 44.4371 70.1819 44.9686 70.6169L46.1819 71.6097C46.8937 72.1921 47.6013 72.5628 48.3047 72.7217C49.0119 72.876 49.6826 72.8344 50.3167 72.597C50.9461 72.3559 51.5086 71.9326 52.0041 71.3271C52.3256 70.9342 52.5632 70.5306 52.717 70.1163C52.8663 69.6982 52.9241 69.2787 52.8905 68.8576C52.8569 68.4366 52.7248 68.0275 52.4941 67.6304L54.4532 65.9577C54.9024 66.5876 55.1778 67.2837 55.2794 68.046C55.3802 68.7998 55.3011 69.5801 55.0422 70.3869C54.7825 71.1853 54.3349 71.9727 53.6995 72.7492Z" fill="#FCE2D1"/>
<path d="M59.5413 50.9255L58.1183 52.9389C57.8277 52.7896 57.5051 52.6929 57.1506 52.6488C56.8004 52.6005 56.4306 52.643 56.0414 52.7761C55.6522 52.9092 55.2602 53.1712 54.8655 53.5619C54.3264 54.0954 53.9962 54.6617 53.8748 55.2608C53.7493 55.8556 53.8735 56.3419 54.2474 56.7196C54.5708 57.0465 54.9523 57.1899 55.3917 57.15C55.8311 57.11 56.3834 56.8869 57.0485 56.4807L58.955 55.2997C60.0607 54.617 61.0486 54.2737 61.9185 54.2697C62.7885 54.2658 63.5659 54.6098 64.2507 55.3017C64.8304 55.8874 65.1774 56.5776 65.2915 57.3721C65.4057 58.1582 65.2896 58.979 64.9431 59.8345C64.6008 60.6858 64.0349 61.5021 63.2454 62.2835C62.1503 63.3674 61.0257 64.0183 59.8717 64.2362C58.7135 64.4498 57.6273 64.2013 56.6132 63.4909L58.176 61.3895C58.7654 61.7557 59.3602 61.8855 59.9604 61.7788C60.5564 61.6679 61.1409 61.3288 61.714 60.7617C62.338 60.1441 62.7086 59.521 62.8258 58.8924C62.9389 58.2595 62.8085 57.7541 62.4346 57.3764C62.1321 57.0707 61.7633 56.9274 61.3283 56.9462C60.8974 56.9609 60.396 57.1462 59.8241 57.5022L57.8094 58.7778C56.691 59.473 55.6884 59.8099 54.8016 59.7884C53.9191 59.7628 53.1334 59.4019 52.4444 58.7057C51.8731 58.1284 51.5344 57.4637 51.4285 56.7114C51.3226 55.9592 51.4343 55.1806 51.7636 54.3757C52.0888 53.5665 52.6185 52.7986 53.3528 52.0718C54.4098 51.0257 55.4686 50.4315 56.5293 50.2891C57.5859 50.1426 58.5899 50.3547 59.5413 50.9255Z" fill="#FCE2D1"/>
<path d="M74.3298 52.4312C73.2718 53.2789 72.1794 53.7828 71.0528 53.9431C69.9272 54.095 68.8265 53.9246 67.7507 53.432C66.6759 52.931 65.6922 52.1235 64.7998 51.0095C63.9185 49.9095 63.3469 48.7758 63.0849 47.6082C62.8276 46.4369 62.8809 45.319 63.2448 44.2546C63.6134 43.1863 64.2965 42.2527 65.2939 41.4536C65.8998 40.9682 66.5674 40.5979 67.2966 40.3427C68.0258 40.0876 68.7882 39.9933 69.5838 40.0599C70.3795 40.1265 71.1823 40.3978 71.9922 40.8738C72.7984 41.3452 73.5917 42.068 74.3721 43.0421L74.9658 43.7832L66.4294 50.6222L65.1747 49.0562L71.6627 43.8583C71.2221 43.3083 70.72 42.9108 70.1565 42.6659C69.5892 42.4164 69.0039 42.3305 68.4005 42.4084C67.8017 42.4825 67.232 42.7361 66.6914 43.1692C66.1041 43.6397 65.7071 44.195 65.5005 44.835C65.2949 45.4666 65.258 46.1083 65.39 46.7602C65.5229 47.4036 65.804 47.9934 66.2335 48.5294L67.2137 49.7529C67.7887 50.4706 68.4037 50.9804 69.0587 51.2821C69.7183 51.5801 70.383 51.679 71.0526 51.5787C71.7185 51.4738 72.3567 51.1767 72.9673 50.6876C73.3634 50.3702 73.6798 50.0248 73.9165 49.6516C74.1494 49.2737 74.2932 48.8753 74.348 48.4565C74.4027 48.0377 74.3585 47.61 74.2155 47.1736L76.4797 45.9451C76.788 46.6546 76.9126 47.3928 76.8535 48.1595C76.7952 48.9178 76.5556 49.6646 76.1345 50.3999C75.7144 51.1268 75.1128 51.8039 74.3298 52.4312Z" fill="#FCE2D1"/>
<path d="M85.0605 44.7054C84.3251 45.1739 83.5736 45.4615 82.806 45.5682C82.0352 45.6699 81.3091 45.5695 80.6278 45.2671C79.9516 44.9615 79.3712 44.4284 78.8866 43.6679C78.4694 43.0131 78.2519 42.3939 78.2342 41.8104C78.2165 41.2268 78.3431 40.6753 78.614 40.1557C78.8848 39.6361 79.2446 39.1449 79.6932 38.682C80.1419 38.2191 80.6198 37.7801 81.1271 37.3648C81.7709 36.8414 82.2933 36.4165 82.6943 36.0901C83.0922 35.7587 83.3508 35.47 83.4702 35.224C83.5897 34.9779 83.5627 34.7189 83.3894 34.4469L83.3557 34.394C82.9353 33.7342 82.4233 33.3417 81.8195 33.2166C81.2207 33.0882 80.5562 33.2566 79.8259 33.722C79.0653 34.2065 78.5734 34.7571 78.3503 35.3738C78.1289 35.9822 78.0651 36.5434 78.1588 37.0572L75.7277 37.9263C75.5303 37.0607 75.5353 36.2573 75.7429 35.5161C75.9523 34.7666 76.3117 34.0915 76.8212 33.4907C77.3274 32.8849 77.9306 32.3589 78.6308 31.9129C79.0941 31.6176 79.6205 31.3601 80.2099 31.1404C80.8011 30.9124 81.4149 30.7976 82.0511 30.7959C82.6924 30.7909 83.3291 30.9624 83.9614 31.3101C84.5905 31.6529 85.1746 32.2473 85.7138 33.0935L90.6237 40.7998L88.4176 42.2054L87.4067 40.6188L87.316 40.6765C87.3561 41.0617 87.3199 41.4884 87.2075 41.9566C87.0951 42.4248 86.869 42.8981 86.5294 43.3765C86.1898 43.8549 85.7002 44.2979 85.0605 44.7054ZM84.3963 42.5793C85.0209 42.1813 85.4762 41.7178 85.7621 41.1886C86.0532 40.6562 86.1878 40.1172 86.166 39.5717C86.146 39.0179 85.9899 38.5118 85.6979 38.0535L84.7448 36.5576C84.7156 36.6895 84.6076 36.8645 84.4208 37.0827C84.2359 37.2926 84.0134 37.5158 83.7533 37.7522C83.4901 37.9837 83.2328 38.2078 82.9814 38.4246C82.7269 38.6364 82.5144 38.8142 82.3441 38.9581C81.9412 39.2927 81.6002 39.641 81.3209 40.0031C81.0468 40.3619 80.88 40.7337 80.8207 41.1184C80.7632 41.495 80.8628 41.8847 81.1195 42.2877C81.4757 42.8468 81.9518 43.1383 82.5477 43.1622C83.1404 43.1812 83.7566 42.9868 84.3963 42.5793Z" fill="#FCE2D1"/>
<path d="M94.0166 38.9748L87.666 26.7679L89.9627 25.573L90.9716 27.5121L91.0987 27.446C90.9794 26.6733 91.1028 25.9527 91.4687 25.2844C91.8371 24.608 92.3789 24.0837 93.0942 23.7116C93.2425 23.6344 93.4201 23.5488 93.627 23.4546C93.8391 23.3577 94.0076 23.2869 94.1324 23.2422L95.3149 25.5151C95.2058 25.5382 95.0211 25.5972 94.7608 25.6922C94.4978 25.782 94.2444 25.8902 94.0007 26.017C93.4391 26.3092 93.0005 26.6889 92.6848 27.156C92.3716 27.6152 92.1967 28.1202 92.1602 28.671C92.1209 29.2166 92.239 29.7543 92.5147 30.2841L96.3929 37.7385L94.0166 38.9748Z" fill="#FCE2D1"/>
<path d="M107.969 32.671C106.738 33.1792 105.563 33.3381 104.444 33.1475C103.328 32.9491 102.329 32.4538 101.446 31.6617C100.564 30.8696 99.859 29.836 99.3325 28.5608C98.7992 27.2691 98.5714 26.0289 98.6492 24.8402C98.7248 23.646 99.089 22.5878 99.7421 21.6655C100.395 20.7433 101.321 20.0349 102.518 19.5403C103.485 19.1415 104.42 18.9653 105.324 19.0119C106.226 19.0529 107.041 19.2979 107.769 19.7468C108.503 20.1934 109.091 20.8263 109.532 21.6455L107.123 22.6403C106.744 22.0988 106.229 21.7108 105.576 21.4763C104.929 21.2394 104.211 21.284 103.421 21.6099C102.731 21.8948 102.202 22.3265 101.834 22.9051C101.468 23.4759 101.28 24.1545 101.269 24.941C101.255 25.7219 101.435 26.565 101.809 27.4704C102.192 28.3978 102.663 29.1401 103.223 29.6973C103.783 30.2545 104.395 30.6121 105.062 30.77C105.733 30.9256 106.419 30.8587 107.121 30.5692C107.59 30.3755 107.98 30.1144 108.29 29.786C108.603 29.4498 108.822 29.0653 108.947 28.6325C109.078 28.1974 109.101 27.7291 109.017 27.2276L111.426 26.2328C111.678 27.0917 111.713 27.9365 111.533 28.7669C111.352 29.5974 110.963 30.3526 110.365 31.0324C109.772 31.71 108.974 32.2561 107.969 32.671Z" fill="#FCE2D1"/>
<path d="M116.432 20.6169L118.7 28.4657L116.127 29.2094L111.033 11.584L113.572 10.8503L115.467 17.4082L115.631 17.3609C115.735 16.5599 116.045 15.858 116.561 15.2551C117.077 14.6522 117.848 14.2024 118.875 13.9056C119.782 13.6436 120.627 13.6012 121.412 13.7785C122.203 13.9541 122.891 14.3581 123.478 14.9905C124.069 15.6154 124.524 16.4787 124.842 17.5803L127.272 25.9885L124.699 26.7322L122.358 18.6338C122.078 17.6641 121.611 16.9847 120.958 16.5953C120.303 16.2003 119.531 16.1313 118.641 16.3883C118.033 16.564 117.525 16.8506 117.118 17.2481C116.717 17.6439 116.45 18.1312 116.319 18.7099C116.192 19.2813 116.23 19.9169 116.432 20.6169Z" fill="#FCE2D1"/>
<path d="M142.288 19.931C141.571 20.0211 140.895 19.9285 140.258 19.6533C139.621 19.3722 139.087 18.9577 138.657 18.4098C138.233 17.8611 137.976 17.2283 137.886 16.5113C137.796 15.7883 137.888 15.1116 138.164 14.481C138.445 13.8438 138.86 13.3132 139.409 12.8891C139.957 12.4592 140.589 12.1992 141.306 12.1091C142.029 12.0183 142.706 12.1139 143.337 12.3958C143.974 12.6709 144.504 13.0829 144.928 13.6315C145.357 14.1735 145.617 14.806 145.708 15.5289C145.798 16.2459 145.703 16.923 145.422 17.5603C145.146 18.1967 144.735 18.73 144.187 19.1599C143.644 19.5832 143.011 19.8403 142.288 19.931Z" fill="#FCE2D1"/>
</svg>
